<svg width="40" height="40" viewBox="0 0 40 40" fill="none" xmlns="http://www.w3.org/2000/svg">
<path d="M9.33301 14.667C9.33301 10.8958 9.33301 9.01014 10.5046 7.83856C11.6762 6.66699 13.5618 6.66699 17.333 6.66699H22.6663C26.4376 6.66699 28.3232 6.66699 29.4948 7.83856C30.6663 9.01014 30.6663 10.8958 30.6663 14.667V25.3337C30.6663 29.1049 30.6663 30.9905 29.4948 32.1621C28.3232 33.3337 26.4376 33.3337 22.6663 33.3337H17.333C13.5618 33.3337 11.6762 33.3337 10.5046 32.1621C9.33301 30.9905 9.33301 29.1049 9.33301 25.3337V14.667Z" stroke="white" stroke-width="2"/>
<path d="M30.531 25.334H14.531C13.2911 25.334 12.6711 25.334 12.1624 25.4703C10.782 25.8401 9.70385 26.9183 9.33398 28.2987" stroke="white" stroke-width="2"/>
<path d="M14.666 13.334H25.3327" stroke="white" stroke-width="2" stroke-linecap="round"/>
<path d="M14.666 18H21.3327" stroke="white" stroke-width="2" stroke-linecap="round"/>
</svg>
