<svg width="40" height="40" viewBox="0 0 40 40" fill="none" xmlns="http://www.w3.org/2000/svg">
<path d="M9.33594 14.667C9.33594 10.8958 9.33594 9.01014 10.5075 7.83856C11.6791 6.66699 13.5647 6.66699 17.3359 6.66699H22.6693C26.4405 6.66699 28.3261 6.66699 29.4977 7.83856C30.6693 9.01014 30.6693 10.8958 30.6693 14.667V25.3337C30.6693 29.1049 30.6693 30.9905 29.4977 32.1621C28.3261 33.3337 26.4405 33.3337 22.6693 33.3337H17.3359C13.5647 33.3337 11.6791 33.3337 10.5075 32.1621C9.33594 30.9905 9.33594 29.1049 9.33594 25.3337V14.667Z" stroke="white" stroke-width="2"/>
<path d="M30.533 25.334H14.533C13.293 25.334 12.673 25.334 12.1644 25.4703C10.784 25.8401 9.70581 26.9183 9.33594 28.2987" stroke="white" stroke-width="2"/>
<path d="M14.6641 13.334H25.3307" stroke="white" stroke-width="2" stroke-linecap="round"/>
<path d="M14.6641 18H21.3307" stroke="white" stroke-width="2" stroke-linecap="round"/>
</svg>
