<svg width="62" height="60" viewBox="0 0 62 60" fill="none" xmlns="http://www.w3.org/2000/svg">
<path d="M16.8083 17.9298L30.1529 60.0001L2.64868 17.9298H16.8083Z" fill="#9664FF"/>
<path d="M13.5485 7.74304L16.8083 17.9298H2.64868L13.5485 7.74304Z" fill="white" fill-opacity="0.12"/>
<path d="M30.1527 17.9298V60.0001L16.8081 17.9298H30.1527Z" fill="white" fill-opacity="0.12"/>
<path d="M46.7583 7.74304L43.4985 17.9298H30.1528V7.74304H46.7583Z" fill="white" fill-opacity="0.12"/>
<path d="M58.5739 17.9298L30.1528 60.0001L43.4985 17.9298H58.5739Z" fill="white" fill-opacity="0.12"/>
<path d="M58.6755 17.8269L58.5737 17.9298H43.4983L46.7581 7.74304L58.6755 17.8269Z" fill="#9664FF"/>
<path d="M43.4985 17.9298L30.1528 60.0001V17.9298H43.4985Z" fill="#9664FF"/>
<path d="M30.1527 7.74304V17.9298H16.8081L13.5483 7.74304H30.1527Z" fill="#9664FF"/>
<path d="M4.58409 52.3599C3.87102 52.3599 3.25977 51.7487 3.25977 51.0356V44.618C3.25977 43.9049 3.87102 43.2937 4.58409 43.2937C5.29717 43.2937 5.90836 43.9049 5.90836 44.618V51.0356C5.80751 51.7497 5.29819 52.3599 4.58409 52.3599Z" fill="#9664FF"/>
<path d="M7.74191 49.1013H1.32427C0.611193 49.1013 0 48.4901 0 47.777C0 47.064 0.611193 46.4528 1.32427 46.4528H7.74191C8.45498 46.4528 9.06723 47.064 9.06723 47.777C9.06723 48.592 8.45498 49.1013 7.74191 49.1013Z" fill="#9664FF"/>
<path d="M56.741 42.1732C56.0279 42.1732 55.4167 41.5619 55.4167 40.8489V34.4312C55.4167 33.7181 56.0279 33.1069 56.741 33.1069C57.4541 33.1069 58.0653 33.7181 58.0653 34.4312V40.8489C58.0643 41.563 57.4541 42.1732 56.741 42.1732Z" fill="#9664FF"/>
<path d="M60.001 38.9145H53.5823C52.8703 38.9145 52.2581 38.3033 52.2581 37.5903C52.2581 36.8772 52.8703 36.266 53.5823 36.266H60.001C60.7131 36.266 61.3253 36.8772 61.3253 37.5903C61.3253 38.3033 60.6112 38.9145 60.001 38.9145Z" fill="#9664FF"/>
<path d="M4.58409 9.06622C3.87102 9.06622 3.25977 8.45502 3.25977 7.74194V1.32428C3.25977 0.611209 3.87102 0 4.58409 0C5.29717 0 5.90836 0.611209 5.90836 1.32428V7.74194C5.80751 8.45603 5.29819 9.06622 4.58409 9.06622Z" fill="#9664FF"/>
<path d="M7.74191 5.80748H1.32427C0.611193 5.80748 0 5.19627 0 4.4832C0 3.77013 0.611193 3.15894 1.32427 3.15894H7.74191C8.45498 3.15894 9.06723 3.77013 9.06723 4.4832C9.06723 5.19627 8.45498 5.80748 7.74191 5.80748Z" fill="#9664FF"/>
</svg>
