<svg width="63" height="61" viewBox="0 0 63 61" fill="none" xmlns="http://www.w3.org/2000/svg">
<path d="M17.5258 18.4341L30.8705 60.5044L3.36621 18.4341H17.5258Z" fill="#8D58FF"/>
<path d="M14.2661 8.24756L17.5258 18.4343H3.36621L14.2661 8.24756Z" fill="#662FFF"/>
<path d="M30.871 18.4341V60.5044L17.5264 18.4341H30.871Z" fill="#662FFF"/>
<path d="M47.4766 8.24756L44.2168 18.4343H30.8711V8.24756H47.4766Z" fill="#662FFF"/>
<path d="M59.2922 18.4341L30.8711 60.5044L44.2168 18.4341H59.2922Z" fill="#662FFF"/>
<path d="M59.3931 18.3314L59.2912 18.4343H44.2158L47.4756 8.24756L59.3931 18.3314Z" fill="#8D58FF"/>
<path d="M44.2168 18.4341L30.8711 60.5044V18.4341H44.2168Z" fill="#8D58FF"/>
<path d="M30.871 8.24756V18.4343H17.5264L14.2666 8.24756H30.871Z" fill="#8D58FF"/>
<path d="M5.30187 52.8646C4.58879 52.8646 3.97754 52.2534 3.97754 51.5403V45.1226C3.97754 44.4095 4.58879 43.7983 5.30187 43.7983C6.01494 43.7983 6.62613 44.4095 6.62613 45.1226V51.5403C6.52528 52.2544 6.01596 52.8646 5.30187 52.8646Z" fill="#8D58FF"/>
<path d="M8.45968 49.6056H2.04204C1.32897 49.6056 0.717773 48.9944 0.717773 48.2813C0.717773 47.5682 1.32897 46.957 2.04204 46.957H8.45968C9.17276 46.957 9.78501 47.5682 9.78501 48.2813C9.78501 49.0962 9.17276 49.6056 8.45968 49.6056Z" fill="#8D58FF"/>
<path d="M57.459 42.6776C56.746 42.6776 56.1348 42.0663 56.1348 41.3533V34.9356C56.1348 34.2225 56.746 33.6113 57.459 33.6113C58.1721 33.6113 58.7833 34.2225 58.7833 34.9356V41.3533C58.7823 42.0674 58.1721 42.6776 57.459 42.6776Z" fill="#8D58FF"/>
<path d="M60.7186 39.4191H54.2999C53.5878 39.4191 52.9756 38.8078 52.9756 38.0948C52.9756 37.3817 53.5878 36.7705 54.2999 36.7705H60.7186C61.4306 36.7705 62.0428 37.3817 62.0428 38.0948C62.0428 38.8078 61.3287 39.4191 60.7186 39.4191Z" fill="#8D58FF"/>
<path d="M5.30187 9.57062C4.58879 9.57062 3.97754 8.95941 3.97754 8.24634V1.82868C3.97754 1.1156 4.58879 0.504395 5.30187 0.504395C6.01494 0.504395 6.62613 1.1156 6.62613 1.82868V8.24634C6.52528 8.96043 6.01596 9.57062 5.30187 9.57062Z" fill="#8D58FF"/>
<path d="M8.45968 6.31212H2.04204C1.32897 6.31212 0.717773 5.70091 0.717773 4.98784C0.717773 4.27477 1.32897 3.66357 2.04204 3.66357H8.45968C9.17276 3.66357 9.78501 4.27477 9.78501 4.98784C9.78501 5.70091 9.17276 6.31212 8.45968 6.31212Z" fill="#8D58FF"/>
</svg>
