<svg width="461" height="200" viewBox="0 0 461 200" fill="none" xmlns="http://www.w3.org/2000/svg">
<g opacity="0.1">
<rect x="50.4023" y="0.5" width="295" height="59" rx="5.5" fill="#8D58FF"/>
<rect x="50.4023" y="0.5" width="295" height="59" rx="5.5" stroke="#3B00BA"/>
<rect x="59.9023" y="11" width="38" height="38" rx="4" fill="#0C0823"/>
<rect x="107.902" y="11" width="228" height="14" fill="#1B0766"/>
<path d="M107.902 35H249.902V49H107.902V35Z" fill="#1B0766"/>
</g>
<g filter="url(#filter0_d_1190_22368)">
<rect x="49.9023" y="70" width="362" height="60" rx="6" fill="#8D58FF" shape-rendering="crispEdges"/>
<rect x="48.4023" y="68.5" width="365" height="63" rx="7.5" stroke="#3B00BA" stroke-width="3" shape-rendering="crispEdges"/>
<rect x="60.9023" y="80" width="40" height="40" rx="4" fill="#4B0CF1" fill-opacity="0.3"/>
<path d="M72.9144 103.762L74.6039 98.6933C75.3699 96.3952 75.7529 95.2462 76.6592 95.0323C77.5654 94.8183 78.4219 95.6748 80.1347 97.3876L83.5137 100.767C85.2266 102.479 86.083 103.336 85.8691 104.242C85.6551 105.148 84.5061 105.531 82.2081 106.297L77.1396 107.987C74.3742 108.909 72.9915 109.37 72.2616 108.64C71.5317 107.91 71.9926 106.527 72.9144 103.762Z" stroke="white" stroke-width="1.5" stroke-linecap="round"/>
<path d="M81.138 106.346C81.138 106.346 80.3798 104.065 80.3798 102.555C80.3798 101.045 81.138 98.7643 81.138 98.7643M76.968 107.483C76.968 107.483 76.3277 104.731 76.2098 102.934C76.0151 99.965 76.968 95.3525 76.968 95.3525" stroke="white" stroke-width="1.5" stroke-linecap="round"/>
<path d="M83.4121 98.0061L83.5561 97.2861C83.7015 96.5592 84.2252 95.966 84.9285 95.7316C85.6317 95.4971 86.1554 94.9039 86.3008 94.177L86.4448 93.457" stroke="white" stroke-width="1.5" stroke-linecap="round"/>
<path d="M86.4717 101.253L86.6845 101.376C87.3416 101.756 88.1678 101.672 88.7355 101.169C89.2496 100.713 89.9818 100.597 90.6113 100.872L90.9028 101" stroke="white" stroke-width="1.5" stroke-linecap="round"/>
<path d="M78.6977 90.7795C78.3602 91.3316 78.4448 92.043 78.9023 92.5005L79.0002 92.5984C79.3934 92.9915 79.5384 93.5691 79.3775 94.1013" stroke="white" stroke-width="1.5" stroke-linecap="round"/>
<path d="M75.83 91.9403C76.0394 91.7308 76.379 91.7308 76.5885 91.9403C76.798 92.1498 76.798 92.4894 76.5885 92.6989C76.379 92.9083 76.0394 92.9083 75.83 92.6989C75.6205 92.4894 75.6205 92.1498 75.83 91.9403Z" fill="white"/>
<path d="M81.0594 95.1571C81.2689 94.9476 81.6085 94.9476 81.818 95.1571C82.0275 95.3666 82.0275 95.7062 81.818 95.9157C81.6085 96.1251 81.2689 96.1251 81.0594 95.9157C80.85 95.7062 80.85 95.3666 81.0594 95.1571Z" fill="white"/>
<path d="M86.0594 98.1571C86.2689 97.9476 86.6085 97.9476 86.818 98.1571C87.0275 98.3666 87.0275 98.7062 86.818 98.9157C86.6085 99.1251 86.2689 99.1251 86.0594 98.9157C85.85 98.7062 85.85 98.3666 86.0594 98.1571Z" fill="white"/>
<path d="M87.9608 103.313C88.1703 103.104 88.5099 103.104 88.7194 103.313C88.9288 103.523 88.9288 103.862 88.7194 104.072C88.5099 104.281 88.1703 104.281 87.9608 104.072C87.7513 103.862 87.7513 103.523 87.9608 103.313Z" fill="white"/>
<path d="M88.2636 95.7139C87.5933 96.3841 88.0743 98.3275 88.0743 98.3275C88.0743 98.3275 90.0177 98.8085 90.688 98.1382C91.3979 97.4284 90.9962 96.4966 89.9023 96.4995C89.9053 95.4057 88.9735 95.004 88.2636 95.7139Z" stroke="white" stroke-linejoin="round"/>
<path d="M84.0909 91.4175L84.0633 91.5146C84.033 91.6213 84.0179 91.6746 84.0251 91.7269C84.0322 91.7793 84.0609 91.8248 84.1183 91.9157L84.1705 91.9984C84.3724 92.3184 84.4733 92.4783 84.4045 92.6091C84.3358 92.74 84.1428 92.755 83.757 92.7852L83.6572 92.793C83.5475 92.8015 83.4927 92.8058 83.4448 92.831C83.3969 92.8562 83.3613 92.8994 83.29 92.9859L83.2252 93.0647C82.9746 93.369 82.8493 93.5212 82.7064 93.5017C82.5634 93.4821 82.4975 93.3037 82.3657 92.947L82.3316 92.8547C82.2942 92.7533 82.2755 92.7026 82.2387 92.6658C82.2019 92.6291 82.1512 92.6103 82.0498 92.5729L81.9575 92.5388C81.6008 92.407 81.4224 92.3411 81.4029 92.1981C81.3833 92.0552 81.5355 91.9299 81.8399 91.6793L81.9186 91.6145C82.0051 91.5433 82.0483 91.5077 82.0735 91.4597C82.0987 91.4118 82.103 91.357 82.1116 91.2473L82.1194 91.1475C82.1495 90.7617 82.1645 90.5688 82.2954 90.5C82.4262 90.4312 82.5862 90.5322 82.9061 90.734L82.9889 90.7863C83.0798 90.8436 83.1252 90.8723 83.1776 90.8795C83.2299 90.8866 83.2833 90.8715 83.3899 90.8412L83.487 90.8136C83.8624 90.7069 84.0501 90.6536 84.1505 90.754C84.2509 90.8544 84.1976 91.0421 84.0909 91.4175Z" stroke="white"/>
<path d="M111.188 86.2727H112.684L114.963 90.2401H115.057L117.337 86.2727H118.833L115.667 91.5739V95H114.354V91.5739L111.188 86.2727ZM119.939 95V88.4545H121.213V95H119.939ZM120.582 87.4446C120.36 87.4446 120.17 87.3707 120.011 87.223C119.855 87.0724 119.777 86.8935 119.777 86.6861C119.777 86.4759 119.855 86.2969 120.011 86.1491C120.17 85.9986 120.36 85.9233 120.582 85.9233C120.804 85.9233 120.993 85.9986 121.149 86.1491C121.308 86.2969 121.387 86.4759 121.387 86.6861C121.387 86.8935 121.308 87.0724 121.149 87.223C120.993 87.3707 120.804 87.4446 120.582 87.4446ZM122.927 97.4545V88.4545H124.171V89.5156H124.278C124.352 89.3793 124.458 89.2216 124.597 89.0426C124.737 88.8636 124.93 88.7074 125.177 88.5739C125.424 88.4375 125.751 88.3693 126.157 88.3693C126.685 88.3693 127.157 88.5028 127.572 88.7699C127.987 89.0369 128.312 89.4219 128.548 89.9247C128.786 90.4276 128.906 91.0327 128.906 91.7401C128.906 92.4474 128.788 93.054 128.552 93.5597C128.316 94.0625 127.992 94.4503 127.58 94.723C127.168 94.9929 126.698 95.1278 126.17 95.1278C125.772 95.1278 125.447 95.0611 125.194 94.9276C124.944 94.794 124.748 94.6378 124.606 94.4588C124.464 94.2798 124.354 94.1207 124.278 93.9815H124.201V97.4545H122.927ZM124.175 91.7273C124.175 92.1875 124.242 92.5909 124.376 92.9375C124.509 93.2841 124.702 93.5554 124.955 93.7514C125.208 93.9446 125.518 94.0412 125.884 94.0412C126.265 94.0412 126.583 93.9403 126.839 93.7386C127.094 93.5341 127.288 93.2571 127.418 92.9077C127.552 92.5582 127.619 92.1648 127.619 91.7273C127.619 91.2955 127.553 90.9077 127.423 90.5639C127.295 90.2202 127.102 89.9489 126.843 89.75C126.587 89.5511 126.268 89.4517 125.884 89.4517C125.515 89.4517 125.202 89.5469 124.947 89.7372C124.694 89.9276 124.502 90.1932 124.371 90.5341C124.241 90.875 124.175 91.2727 124.175 91.7273ZM130.333 97.4545V88.4545H131.577V89.5156H131.684C131.758 89.3793 131.864 89.2216 132.004 89.0426C132.143 88.8636 132.336 88.7074 132.583 88.5739C132.83 88.4375 133.157 88.3693 133.563 88.3693C134.092 88.3693 134.563 88.5028 134.978 88.7699C135.393 89.0369 135.718 89.4219 135.954 89.9247C136.192 90.4276 136.312 91.0327 136.312 91.7401C136.312 92.4474 136.194 93.054 135.958 93.5597C135.722 94.0625 135.398 94.4503 134.987 94.723C134.575 94.9929 134.104 95.1278 133.576 95.1278C133.178 95.1278 132.853 95.0611 132.6 94.9276C132.35 94.794 132.154 94.6378 132.012 94.4588C131.87 94.2798 131.761 94.1207 131.684 93.9815H131.607V97.4545H130.333ZM131.582 91.7273C131.582 92.1875 131.648 92.5909 131.782 92.9375C131.915 93.2841 132.109 93.5554 132.362 93.7514C132.614 93.9446 132.924 94.0412 133.29 94.0412C133.671 94.0412 133.989 93.9403 134.245 93.7386C134.501 93.5341 134.694 93.2571 134.825 92.9077C134.958 92.5582 135.025 92.1648 135.025 91.7273C135.025 91.2955 134.96 90.9077 134.829 90.5639C134.701 90.2202 134.508 89.9489 134.249 89.75C133.994 89.5511 133.674 89.4517 133.29 89.4517C132.921 89.4517 132.609 89.5469 132.353 89.7372C132.1 89.9276 131.908 90.1932 131.778 90.5341C131.647 90.875 131.582 91.2727 131.582 91.7273ZM140.56 95.1321C139.915 95.1321 139.36 94.9943 138.894 94.7188C138.431 94.4403 138.073 94.0497 137.82 93.5469C137.57 93.0412 137.445 92.4489 137.445 91.7699C137.445 91.0994 137.57 90.5085 137.82 89.9972C138.073 89.4858 138.425 89.0866 138.877 88.7997C139.332 88.5128 139.863 88.3693 140.471 88.3693C140.84 88.3693 141.198 88.4304 141.545 88.5526C141.891 88.6747 142.202 88.8665 142.478 89.1278C142.754 89.3892 142.971 89.7287 143.13 90.1463C143.289 90.5611 143.369 91.0653 143.369 91.6591V92.1108H138.165V91.1562H142.12C142.12 90.821 142.052 90.5241 141.915 90.2656C141.779 90.0043 141.587 89.7983 141.34 89.6477C141.096 89.4972 140.809 89.4219 140.479 89.4219C140.121 89.4219 139.809 89.5099 139.542 89.6861C139.278 89.8594 139.073 90.0866 138.928 90.3679C138.786 90.6463 138.715 90.9489 138.715 91.2756V92.0213C138.715 92.4588 138.792 92.831 138.945 93.1378C139.102 93.4446 139.319 93.679 139.597 93.8409C139.876 94 140.201 94.0795 140.573 94.0795C140.815 94.0795 141.035 94.0455 141.234 93.9773C141.433 93.9062 141.604 93.8011 141.749 93.6619C141.894 93.5227 142.005 93.3509 142.082 93.1463L143.288 93.3636C143.191 93.7187 143.018 94.0298 142.768 94.2969C142.521 94.5611 142.21 94.767 141.835 94.9148C141.462 95.0597 141.038 95.1321 140.56 95.1321ZM146.44 93.8068L146.376 94.2713C146.333 94.6122 146.261 94.9673 146.159 95.3366C146.059 95.7088 145.956 96.054 145.848 96.3722C145.743 96.6903 145.656 96.9432 145.588 97.1307H144.684C144.721 96.9545 144.772 96.7159 144.838 96.4148C144.903 96.1165 144.967 95.7827 145.029 95.4134C145.092 95.044 145.139 94.6676 145.17 94.2841L145.213 93.8068H146.44ZM158.625 89.1108H157.296C157.245 88.8267 157.15 88.5767 157.01 88.3608C156.871 88.1449 156.701 87.9616 156.499 87.8111C156.297 87.6605 156.071 87.5469 155.821 87.4702C155.574 87.3935 155.311 87.3551 155.033 87.3551C154.53 87.3551 154.08 87.4815 153.682 87.7344C153.287 87.9872 152.975 88.358 152.745 88.8466C152.517 89.3352 152.404 89.9318 152.404 90.6364C152.404 91.3466 152.517 91.946 152.745 92.4347C152.975 92.9233 153.289 93.2926 153.686 93.5426C154.084 93.7926 154.532 93.9176 155.029 93.9176C155.304 93.9176 155.566 93.8807 155.813 93.8068C156.063 93.7301 156.289 93.6179 156.49 93.4702C156.692 93.3224 156.863 93.142 157.002 92.929C157.144 92.7131 157.242 92.4659 157.296 92.1875L158.625 92.1918C158.554 92.6207 158.417 93.0156 158.212 93.3764C158.01 93.7344 157.75 94.044 157.432 94.3054C157.117 94.5639 156.756 94.7642 156.35 94.9062C155.944 95.0483 155.5 95.1193 155.02 95.1193C154.265 95.1193 153.591 94.9403 153 94.5824C152.409 94.2216 151.944 93.706 151.603 93.0355C151.265 92.3651 151.096 91.5653 151.096 90.6364C151.096 89.7045 151.266 88.9048 151.607 88.2372C151.948 87.5668 152.414 87.0526 153.005 86.6946C153.596 86.3338 154.267 86.1534 155.02 86.1534C155.483 86.1534 155.915 86.2202 156.316 86.3537C156.719 86.4844 157.081 86.6776 157.402 86.9332C157.723 87.1861 157.989 87.4957 158.199 87.8622C158.409 88.2259 158.551 88.642 158.625 89.1108ZM162.856 95.1321C162.242 95.1321 161.707 94.9915 161.249 94.7102C160.792 94.429 160.437 94.0355 160.184 93.5298C159.931 93.0241 159.805 92.4332 159.805 91.7571C159.805 91.0781 159.931 90.4844 160.184 89.9759C160.437 89.4673 160.792 89.0724 161.249 88.7912C161.707 88.5099 162.242 88.3693 162.856 88.3693C163.469 88.3693 164.005 88.5099 164.462 88.7912C164.92 89.0724 165.275 89.4673 165.528 89.9759C165.781 90.4844 165.907 91.0781 165.907 91.7571C165.907 92.4332 165.781 93.0241 165.528 93.5298C165.275 94.0355 164.92 94.429 164.462 94.7102C164.005 94.9915 163.469 95.1321 162.856 95.1321ZM162.86 94.0625C163.258 94.0625 163.587 93.9574 163.849 93.7472C164.11 93.5369 164.303 93.2571 164.428 92.9077C164.556 92.5582 164.62 92.1733 164.62 91.7528C164.62 91.3352 164.556 90.9517 164.428 90.6023C164.303 90.25 164.11 89.9673 163.849 89.7543C163.587 89.5412 163.258 89.4347 162.86 89.4347C162.46 89.4347 162.127 89.5412 161.863 89.7543C161.602 89.9673 161.407 90.25 161.279 90.6023C161.154 90.9517 161.092 91.3352 161.092 91.7528C161.092 92.1733 161.154 92.5582 161.279 92.9077C161.407 93.2571 161.602 93.5369 161.863 93.7472C162.127 93.9574 162.46 94.0625 162.86 94.0625ZM171.475 92.2855V88.4545H172.754V95H171.501V93.8665H171.433C171.282 94.2159 171.041 94.5071 170.708 94.7401C170.379 94.9702 169.968 95.0852 169.477 95.0852C169.056 95.0852 168.684 94.9929 168.36 94.8082C168.039 94.6207 167.787 94.3438 167.602 93.9773C167.42 93.6108 167.329 93.1577 167.329 92.6179V88.4545H168.603V92.4645C168.603 92.9105 168.727 93.2656 168.974 93.5298C169.221 93.794 169.542 93.9261 169.937 93.9261C170.176 93.9261 170.413 93.8665 170.649 93.7472C170.887 93.6278 171.085 93.4474 171.241 93.206C171.4 92.9645 171.478 92.6577 171.475 92.2855ZM174.466 95V88.4545H175.697V89.4943H175.766C175.885 89.142 176.095 88.8651 176.396 88.6634C176.7 88.4588 177.044 88.3565 177.428 88.3565C177.507 88.3565 177.601 88.3594 177.709 88.3651C177.82 88.3707 177.906 88.3778 177.969 88.3864V89.6051C177.918 89.5909 177.827 89.5753 177.696 89.5582C177.565 89.5384 177.435 89.5284 177.304 89.5284C177.003 89.5284 176.734 89.5923 176.499 89.7202C176.266 89.8452 176.081 90.0199 175.945 90.2443C175.808 90.4659 175.74 90.7187 175.74 91.0028V95H174.466ZM183.976 90.0526L182.821 90.2571C182.773 90.1094 182.696 89.9687 182.591 89.8352C182.489 89.7017 182.35 89.5923 182.174 89.5071C181.998 89.4219 181.777 89.3793 181.513 89.3793C181.152 89.3793 180.851 89.4602 180.61 89.6222C180.368 89.7812 180.248 89.9872 180.248 90.2401C180.248 90.4588 180.328 90.6349 180.49 90.7685C180.652 90.902 180.914 91.0114 181.275 91.0966L182.314 91.3352C182.917 91.4744 183.365 91.6889 183.661 91.9787C183.956 92.2685 184.104 92.6449 184.104 93.108C184.104 93.5 183.99 93.8494 183.763 94.1562C183.539 94.4602 183.225 94.6989 182.821 94.8722C182.421 95.0455 181.956 95.1321 181.428 95.1321C180.695 95.1321 180.097 94.9759 179.634 94.6634C179.171 94.348 178.887 93.9006 178.782 93.321L180.013 93.1335C180.09 93.4545 180.248 93.6974 180.486 93.8622C180.725 94.0241 181.036 94.1051 181.419 94.1051C181.837 94.1051 182.171 94.0185 182.421 93.8452C182.671 93.669 182.796 93.4545 182.796 93.2017C182.796 92.9972 182.719 92.8253 182.566 92.6861C182.415 92.5469 182.184 92.4418 181.871 92.3707L180.763 92.1278C180.152 91.9886 179.701 91.767 179.408 91.4631C179.118 91.1591 178.973 90.7741 178.973 90.3082C178.973 89.9219 179.081 89.5838 179.297 89.294C179.513 89.0043 179.811 88.7784 180.192 88.6165C180.573 88.4517 181.009 88.3693 181.5 88.3693C182.208 88.3693 182.765 88.5227 183.171 88.8295C183.577 89.1335 183.846 89.5412 183.976 90.0526ZM188.326 95.1321C187.681 95.1321 187.126 94.9943 186.66 94.7188C186.197 94.4403 185.839 94.0497 185.586 93.5469C185.336 93.0412 185.211 92.4489 185.211 91.7699C185.211 91.0994 185.336 90.5085 185.586 89.9972C185.839 89.4858 186.191 89.0866 186.643 88.7997C187.097 88.5128 187.629 88.3693 188.237 88.3693C188.606 88.3693 188.964 88.4304 189.31 88.5526C189.657 88.6747 189.968 88.8665 190.244 89.1278C190.519 89.3892 190.737 89.7287 190.896 90.1463C191.055 90.5611 191.134 91.0653 191.134 91.6591V92.1108H185.931V91.1562H189.886C189.886 90.821 189.817 90.5241 189.681 90.2656C189.545 90.0043 189.353 89.7983 189.106 89.6477C188.862 89.4972 188.575 89.4219 188.245 89.4219C187.887 89.4219 187.575 89.5099 187.308 89.6861C187.043 89.8594 186.839 90.0866 186.694 90.3679C186.552 90.6463 186.481 90.9489 186.481 91.2756V92.0213C186.481 92.4588 186.558 92.831 186.711 93.1378C186.867 93.4446 187.085 93.679 187.363 93.8409C187.641 94 187.967 94.0795 188.339 94.0795C188.58 94.0795 188.8 94.0455 188.999 93.9773C189.198 93.9062 189.37 93.8011 189.515 93.6619C189.66 93.5227 189.771 93.3509 189.847 93.1463L191.053 93.3636C190.957 93.7187 190.783 94.0298 190.533 94.2969C190.286 94.5611 189.975 94.767 189.6 94.9148C189.228 95.0597 188.803 95.1321 188.326 95.1321ZM203.075 89.1108H201.745C201.694 88.8267 201.599 88.5767 201.46 88.3608C201.32 88.1449 201.15 87.9616 200.948 87.8111C200.746 87.6605 200.521 87.5469 200.271 87.4702C200.023 87.3935 199.761 87.3551 199.482 87.3551C198.979 87.3551 198.529 87.4815 198.131 87.7344C197.737 87.9872 197.424 88.358 197.194 88.8466C196.967 89.3352 196.853 89.9318 196.853 90.6364C196.853 91.3466 196.967 91.946 197.194 92.4347C197.424 92.9233 197.738 93.2926 198.136 93.5426C198.533 93.7926 198.981 93.9176 199.478 93.9176C199.754 93.9176 200.015 93.8807 200.262 93.8068C200.512 93.7301 200.738 93.6179 200.94 93.4702C201.141 93.3224 201.312 93.142 201.451 92.929C201.593 92.7131 201.691 92.4659 201.745 92.1875L203.075 92.1918C203.004 92.6207 202.866 93.0156 202.661 93.3764C202.46 93.7344 202.2 94.044 201.881 94.3054C201.566 94.5639 201.205 94.7642 200.799 94.9062C200.393 95.0483 199.95 95.1193 199.469 95.1193C198.714 95.1193 198.04 94.9403 197.45 94.5824C196.859 94.2216 196.393 93.706 196.052 93.0355C195.714 92.3651 195.545 91.5653 195.545 90.6364C195.545 89.7045 195.715 88.9048 196.056 88.2372C196.397 87.5668 196.863 87.0526 197.454 86.6946C198.045 86.3338 198.717 86.1534 199.469 86.1534C199.933 86.1534 200.364 86.2202 200.765 86.3537C201.168 86.4844 201.531 86.6776 201.852 86.9332C202.173 87.1861 202.438 87.4957 202.648 87.8622C202.859 88.2259 203.001 88.642 203.075 89.1108ZM207.305 95.1321C206.691 95.1321 206.156 94.9915 205.699 94.7102C205.241 94.429 204.886 94.0355 204.633 93.5298C204.38 93.0241 204.254 92.4332 204.254 91.7571C204.254 91.0781 204.38 90.4844 204.633 89.9759C204.886 89.4673 205.241 89.0724 205.699 88.7912C206.156 88.5099 206.691 88.3693 207.305 88.3693C207.919 88.3693 208.454 88.5099 208.912 88.7912C209.369 89.0724 209.724 89.4673 209.977 89.9759C210.23 90.4844 210.356 91.0781 210.356 91.7571C210.356 92.4332 210.23 93.0241 209.977 93.5298C209.724 94.0355 209.369 94.429 208.912 94.7102C208.454 94.9915 207.919 95.1321 207.305 95.1321ZM207.309 94.0625C207.707 94.0625 208.037 93.9574 208.298 93.7472C208.559 93.5369 208.752 93.2571 208.877 92.9077C209.005 92.5582 209.069 92.1733 209.069 91.7528C209.069 91.3352 209.005 90.9517 208.877 90.6023C208.752 90.25 208.559 89.9673 208.298 89.7543C208.037 89.5412 207.707 89.4347 207.309 89.4347C206.909 89.4347 206.576 89.5412 206.312 89.7543C206.051 89.9673 205.856 90.25 205.728 90.6023C205.603 90.9517 205.541 91.3352 205.541 91.7528C205.541 92.1733 205.603 92.5582 205.728 92.9077C205.856 93.2571 206.051 93.5369 206.312 93.7472C206.576 93.9574 206.909 94.0625 207.309 94.0625ZM211.778 95V88.4545H213.001V89.5199H213.082C213.219 89.1591 213.442 88.8778 213.751 88.6761C214.061 88.4716 214.432 88.3693 214.864 88.3693C215.301 88.3693 215.668 88.4716 215.963 88.6761C216.261 88.8807 216.482 89.1619 216.624 89.5199H216.692C216.848 89.1705 217.097 88.892 217.438 88.6847C217.778 88.4744 218.185 88.3693 218.656 88.3693C219.25 88.3693 219.734 88.5554 220.109 88.9276C220.487 89.2997 220.676 89.8608 220.676 90.6108V95H219.402V90.7301C219.402 90.2869 219.281 89.9659 219.04 89.767C218.798 89.5682 218.51 89.4688 218.175 89.4688C217.76 89.4688 217.438 89.5966 217.207 89.8523C216.977 90.1051 216.862 90.4304 216.862 90.8281V95H215.592V90.6491C215.592 90.294 215.482 90.0085 215.26 89.7926C215.038 89.5767 214.75 89.4688 214.395 89.4688C214.153 89.4688 213.93 89.5327 213.726 89.6605C213.524 89.7855 213.361 89.9602 213.236 90.1847C213.114 90.4091 213.053 90.669 213.053 90.9645V95H211.778ZM222.384 97.4545V88.4545H223.628V89.5156H223.735C223.809 89.3793 223.915 89.2216 224.054 89.0426C224.194 88.8636 224.387 88.7074 224.634 88.5739C224.881 88.4375 225.208 88.3693 225.614 88.3693C226.142 88.3693 226.614 88.5028 227.029 88.7699C227.444 89.0369 227.769 89.4219 228.005 89.9247C228.243 90.4276 228.363 91.0327 228.363 91.7401C228.363 92.4474 228.245 93.054 228.009 93.5597C227.773 94.0625 227.449 94.4503 227.037 94.723C226.625 94.9929 226.155 95.1278 225.627 95.1278C225.229 95.1278 224.904 95.0611 224.651 94.9276C224.401 94.794 224.205 94.6378 224.063 94.4588C223.921 94.2798 223.811 94.1207 223.735 93.9815H223.658V97.4545H222.384ZM223.632 91.7273C223.632 92.1875 223.699 92.5909 223.833 92.9375C223.966 93.2841 224.159 93.5554 224.412 93.7514C224.665 93.9446 224.975 94.0412 225.341 94.0412C225.722 94.0412 226.04 93.9403 226.296 93.7386C226.551 93.5341 226.745 93.2571 226.875 92.9077C227.009 92.5582 227.076 92.1648 227.076 91.7273C227.076 91.2955 227.01 90.9077 226.88 90.5639C226.752 90.2202 226.559 89.9489 226.3 89.75C226.044 89.5511 225.725 89.4517 225.341 89.4517C224.972 89.4517 224.659 89.5469 224.404 89.7372C224.151 89.9276 223.959 90.1932 223.828 90.5341C223.698 90.875 223.632 91.2727 223.632 91.7273ZM231.064 86.2727V95H229.79V86.2727H231.064ZM235.599 95.1321C234.955 95.1321 234.399 94.9943 233.933 94.7188C233.47 94.4403 233.112 94.0497 232.859 93.5469C232.609 93.0412 232.484 92.4489 232.484 91.7699C232.484 91.0994 232.609 90.5085 232.859 89.9972C233.112 89.4858 233.464 89.0866 233.916 88.7997C234.371 88.5128 234.902 88.3693 235.51 88.3693C235.879 88.3693 236.237 88.4304 236.584 88.5526C236.93 88.6747 237.241 88.8665 237.517 89.1278C237.793 89.3892 238.01 89.7287 238.169 90.1463C238.328 90.5611 238.408 91.0653 238.408 91.6591V92.1108H233.205V91.1562H237.159C237.159 90.821 237.091 90.5241 236.955 90.2656C236.818 90.0043 236.626 89.7983 236.379 89.6477C236.135 89.4972 235.848 89.4219 235.518 89.4219C235.161 89.4219 234.848 89.5099 234.581 89.6861C234.317 89.8594 234.112 90.0866 233.967 90.3679C233.825 90.6463 233.754 90.9489 233.754 91.2756V92.0213C233.754 92.4588 233.831 92.831 233.984 93.1378C234.141 93.4446 234.358 93.679 234.636 93.8409C234.915 94 235.24 94.0795 235.612 94.0795C235.854 94.0795 236.074 94.0455 236.273 93.9773C236.472 93.9062 236.643 93.8011 236.788 93.6619C236.933 93.5227 237.044 93.3509 237.121 93.1463L238.327 93.3636C238.23 93.7187 238.057 94.0298 237.807 94.2969C237.56 94.5611 237.249 94.767 236.874 94.9148C236.501 95.0597 236.077 95.1321 235.599 95.1321ZM242.877 88.4545V89.4773H239.301V88.4545H242.877ZM240.26 86.8864H241.534V93.0781C241.534 93.3253 241.571 93.5114 241.645 93.6364C241.719 93.7585 241.814 93.8423 241.931 93.8878C242.05 93.9304 242.179 93.9517 242.319 93.9517C242.421 93.9517 242.51 93.9446 242.587 93.9304C242.664 93.9162 242.723 93.9048 242.766 93.8963L242.996 94.9489C242.922 94.9773 242.817 95.0057 242.681 95.0341C242.544 95.0653 242.374 95.0824 242.169 95.0852C241.834 95.0909 241.522 95.0312 241.232 94.9062C240.942 94.7812 240.708 94.5881 240.529 94.3267C240.35 94.0653 240.26 93.7372 240.26 93.3423V86.8864ZM247.037 95.1321C246.392 95.1321 245.837 94.9943 245.371 94.7188C244.908 94.4403 244.55 94.0497 244.297 93.5469C244.047 93.0412 243.922 92.4489 243.922 91.7699C243.922 91.0994 244.047 90.5085 244.297 89.9972C244.55 89.4858 244.902 89.0866 245.354 88.7997C245.808 88.5128 246.339 88.3693 246.947 88.3693C247.317 88.3693 247.675 88.4304 248.021 88.5526C248.368 88.6747 248.679 88.8665 248.955 89.1278C249.23 89.3892 249.447 89.7287 249.607 90.1463C249.766 90.5611 249.845 91.0653 249.845 91.6591V92.1108H244.642V91.1562H248.597C248.597 90.821 248.528 90.5241 248.392 90.2656C248.256 90.0043 248.064 89.7983 247.817 89.6477C247.572 89.4972 247.286 89.4219 246.956 89.4219C246.598 89.4219 246.286 89.5099 246.018 89.6861C245.754 89.8594 245.55 90.0866 245.405 90.3679C245.263 90.6463 245.192 90.9489 245.192 91.2756V92.0213C245.192 92.4588 245.268 92.831 245.422 93.1378C245.578 93.4446 245.795 93.679 246.074 93.8409C246.352 94 246.678 94.0795 247.05 94.0795C247.291 94.0795 247.511 94.0455 247.71 93.9773C247.909 93.9062 248.081 93.8011 248.226 93.6619C248.371 93.5227 248.482 93.3509 248.558 93.1463L249.764 93.3636C249.668 93.7187 249.494 94.0298 249.244 94.2969C248.997 94.5611 248.686 94.767 248.311 94.9148C247.939 95.0597 247.514 95.1321 247.037 95.1321ZM253.709 95.1278C253.181 95.1278 252.709 94.9929 252.294 94.723C251.882 94.4503 251.559 94.0625 251.323 93.5597C251.09 93.054 250.973 92.4474 250.973 91.7401C250.973 91.0327 251.091 90.4276 251.327 89.9247C251.566 89.4219 251.892 89.0369 252.307 88.7699C252.722 88.5028 253.192 88.3693 253.718 88.3693C254.124 88.3693 254.451 88.4375 254.698 88.5739C254.948 88.7074 255.141 88.8636 255.277 89.0426C255.417 89.2216 255.525 89.3793 255.601 89.5156H255.678V86.2727H256.952V95H255.708V93.9815H255.601C255.525 94.1207 255.414 94.2798 255.269 94.4588C255.127 94.6378 254.931 94.794 254.681 94.9276C254.431 95.0611 254.107 95.1278 253.709 95.1278ZM253.99 94.0412C254.357 94.0412 254.667 93.9446 254.919 93.7514C255.175 93.5554 255.368 93.2841 255.499 92.9375C255.632 92.5909 255.699 92.1875 255.699 91.7273C255.699 91.2727 255.634 90.875 255.503 90.5341C255.373 90.1932 255.181 89.9276 254.928 89.7372C254.675 89.5469 254.363 89.4517 253.99 89.4517C253.607 89.4517 253.287 89.5511 253.032 89.75C252.776 89.9489 252.583 90.2202 252.452 90.5639C252.324 90.9077 252.26 91.2955 252.26 91.7273C252.26 92.1648 252.326 92.5582 252.456 92.9077C252.587 93.2571 252.78 93.5341 253.036 93.7386C253.294 93.9403 253.613 94.0412 253.99 94.0412Z" fill="white"/>
<path d="M110.902 103H269.902V117H110.902V103Z" fill="#7941FB"/>
</g>
<g opacity="0.1">
<rect x="50.4023" y="140.5" width="295" height="59" rx="5.5" fill="#8D58FF"/>
<rect x="50.4023" y="140.5" width="295" height="59" rx="5.5" stroke="#3B00BA"/>
<rect x="59.9023" y="151" width="38" height="38" rx="4" fill="#0C0823"/>
<rect x="107.902" y="151" width="228" height="14" fill="#1B0766"/>
<path d="M107.902 175H249.902V189H107.902V175Z" fill="#1B0766"/>
</g>
<defs>
<filter id="filter0_d_1190_22368" x="0.902344" y="25" width="460" height="158" filterUnits="userSpaceOnUse" color-interpolation-filters="sRGB">
<feFlood flood-opacity="0" result="BackgroundImageFix"/>
<feColorMatrix in="SourceAlpha" type="matrix" values="0 0 0 0 0 0 0 0 0 0 0 0 0 0 0 0 0 0 127 0" result="hardAlpha"/>
<feOffset dy="4"/>
<feGaussianBlur stdDeviation="23"/>
<feComposite in2="hardAlpha" operator="out"/>
<feColorMatrix type="matrix" values="0 0 0 0 0.972549 0 0 0 0 0.976471 0 0 0 0 0.984314 0 0 0 0.2 0"/>
<feBlend mode="normal" in2="BackgroundImageFix" result="effect1_dropShadow_1190_22368"/>
<feBlend mode="normal" in="SourceGraphic" in2="effect1_dropShadow_1190_22368" result="shape"/>
</filter>
</defs>
</svg>
