<svg width="30" height="30" viewBox="0 0 30 30" fill="none" xmlns="http://www.w3.org/2000/svg">
<path d="M17 14C17 13.4477 17.4477 13 18 13C18.5523 13 19 13.4477 19 14V16C19 16.5523 18.5523 17 18 17C17.4477 17 17 16.5523 17 16V14Z" stroke="white" stroke-width="1.5"/>
<path d="M17.0079 22.0029L16.2579 22.0007V22.0007L17.0079 22.0029ZM17.0137 20L17.7637 20.0022V20H17.0137ZM6.14958 21.8284L5.61991 22.3594H5.61991L6.14958 21.8284ZM6.14958 8.17157L5.61991 7.64058L5.61991 7.64058L6.14958 8.17157ZM5.95308 13.2537L5.58741 13.9085H5.58741L5.95308 13.2537ZM5.01058 11.9895L4.26124 11.958L5.01058 11.9895ZM5.95308 16.7463L5.58741 16.0915L5.58741 16.0915L5.95308 16.7463ZM5.01058 18.0105L5.75992 17.979L5.01058 18.0105ZM24.0469 13.2537L24.4126 13.9085L24.0469 13.2537ZM24.9894 11.9895L25.7388 11.958V11.958L24.9894 11.9895ZM23.8504 8.17157L24.3801 7.64058L24.3801 7.64058L23.8504 8.17157ZM24.0469 16.7463L23.6812 17.4012V17.4012L24.0469 16.7463ZM24.9894 18.0105L25.7388 18.042V18.042L24.9894 18.0105ZM23.8504 21.8284L24.3801 22.3594L24.3801 22.3594L23.8504 21.8284ZM24.9437 17.332L25.5981 16.9656L25.5981 16.9656L24.9437 17.332ZM24.9437 12.668L25.5981 13.0344L25.5981 13.0344L24.9437 12.668ZM5.05634 17.332L4.4019 16.9656L4.4019 16.9656L5.05634 17.332ZM5.05634 12.668L5.71079 12.3017L5.71078 12.3017L5.05634 12.668ZM17.0137 10H17.7637L17.7637 9.99782L17.0137 10ZM17.0064 7.49855L16.2564 7.50073V7.50073L17.0064 7.49855ZM19.5278 7.0189L19.5471 6.26915L19.5278 7.0189ZM20.0336 22.9642L20.0653 23.7135H20.0653L20.0336 22.9642ZM16.8595 22.8541L16.3299 22.323L16.3299 22.323L16.8595 22.8541ZM17.7579 22.0051L17.7637 20.0022L16.2637 19.9978L16.2579 22.0007L17.7579 22.0051ZM18.0162 19.75C18.1574 19.75 18.2687 19.8637 18.2687 20H19.7687C19.7687 19.0317 18.9823 18.25 18.0162 18.25V19.75ZM18.0162 18.25C17.0501 18.25 16.2637 19.0317 16.2637 20H17.7637C17.7637 19.8637 17.875 19.75 18.0162 19.75V18.25ZM12.995 7.75H16.5052V6.25H12.995V7.75ZM16.0079 22.25H12.995V23.75H16.0079V22.25ZM12.995 22.25C11.0835 22.25 9.72521 22.2484 8.69469 22.1102C7.68554 21.9749 7.10384 21.721 6.67925 21.2974L5.61991 22.3594C6.3698 23.1074 7.32051 23.4393 8.4953 23.5969C9.64871 23.7516 11.1259 23.75 12.995 23.75V22.25ZM12.995 6.25C11.1259 6.25 9.64871 6.24841 8.4953 6.4031C7.32051 6.56066 6.3698 6.89255 5.61991 7.64058L6.67925 8.70256C7.10384 8.27902 7.68554 8.02513 8.69469 7.88979C9.72521 7.75159 11.0835 7.75 12.995 7.75V6.25ZM5.58741 13.9085C5.97311 14.1239 6.23007 14.533 6.23007 15H7.73007C7.73007 13.9664 7.1586 13.0678 6.31876 12.5988L5.58741 13.9085ZM5.75992 12.021C5.83795 10.1649 6.09146 9.28889 6.67925 8.70256L5.61991 7.64058C4.59036 8.66758 4.34012 10.0818 4.26124 11.958L5.75992 12.021ZM6.23007 15C6.23007 15.467 5.97311 15.8761 5.58741 16.0915L6.31876 17.4012C7.1586 16.9322 7.73007 16.0336 7.73007 15H6.23007ZM4.26124 18.042C4.34012 19.9182 4.59036 21.3324 5.61991 22.3594L6.67925 21.2974C6.09146 20.7111 5.83795 19.8351 5.75992 17.979L4.26124 18.042ZM23.7699 15C23.7699 14.533 24.0269 14.1239 24.4126 13.9085L23.6812 12.5988C22.8414 13.0678 22.2699 13.9664 22.2699 15H23.7699ZM25.7388 11.958C25.6599 10.0818 25.4096 8.66758 24.3801 7.64058L23.3207 8.70256C23.9085 9.28889 24.1621 10.1649 24.2401 12.021L25.7388 11.958ZM24.4126 16.0915C24.0269 15.8761 23.7699 15.467 23.7699 15H22.2699C22.2699 16.0336 22.8414 16.9322 23.6812 17.4012L24.4126 16.0915ZM24.2401 17.979C24.1621 19.8351 23.9085 20.7111 23.3207 21.2974L24.3801 22.3594C25.4096 21.3324 25.6599 19.9182 25.7388 18.042L24.2401 17.979ZM23.6812 17.4012C23.9652 17.5597 24.1507 17.6636 24.2761 17.7427C24.3379 17.7817 24.3653 17.8024 24.3735 17.8093C24.388 17.8213 24.3375 17.7846 24.2892 17.6983L25.5981 16.9656C25.5153 16.8177 25.4043 16.7154 25.3304 16.6542C25.2503 16.5878 25.1613 16.5276 25.0764 16.4741C24.9087 16.3683 24.6804 16.2411 24.4126 16.0915L23.6812 17.4012ZM25.7388 18.042C25.746 17.8706 25.7541 17.6937 25.7476 17.5458C25.741 17.3959 25.7178 17.1795 25.5981 16.9656L24.2892 17.6983C24.2386 17.6079 24.2461 17.5457 24.249 17.6117C24.2503 17.6404 24.2505 17.6822 24.2488 17.7464C24.2472 17.8104 24.244 17.8847 24.2401 17.979L25.7388 18.042ZM24.4126 13.9085C24.6804 13.7589 24.9087 13.6317 25.0764 13.5259C25.1613 13.4724 25.2503 13.4122 25.3304 13.3458C25.4043 13.2846 25.5153 13.1823 25.5981 13.0344L24.2892 12.3017C24.3375 12.2154 24.388 12.1787 24.3735 12.1907C24.3653 12.1976 24.3379 12.2183 24.2761 12.2573C24.1507 12.3364 23.9652 12.4403 23.6812 12.5988L24.4126 13.9085ZM24.2401 12.021C24.244 12.1153 24.2472 12.1896 24.2488 12.2536C24.2505 12.3178 24.2503 12.3596 24.249 12.3883C24.2461 12.4543 24.2386 12.3921 24.2892 12.3017L25.5981 13.0344C25.7178 12.8205 25.741 12.6041 25.7476 12.4542C25.7541 12.3063 25.746 12.1294 25.7388 11.958L24.2401 12.021ZM5.58741 16.0915C5.31959 16.2411 5.0913 16.3683 4.92358 16.4741C4.83872 16.5276 4.74971 16.5878 4.66957 16.6542C4.59566 16.7154 4.48474 16.8177 4.4019 16.9656L5.71078 17.6983C5.6625 17.7846 5.61198 17.8213 5.62648 17.8093C5.63474 17.8024 5.66215 17.7817 5.72387 17.7427C5.84929 17.6636 6.03482 17.5597 6.31876 17.4012L5.58741 16.0915ZM5.75992 17.979C5.75595 17.8847 5.75285 17.8104 5.7512 17.7464C5.74954 17.6822 5.74973 17.6404 5.75099 17.6117C5.75389 17.5457 5.76137 17.6079 5.71078 17.6983L4.4019 16.9656C4.28221 17.1795 4.25903 17.3959 4.25244 17.5458C4.24593 17.6937 4.25403 17.8706 4.26124 18.042L5.75992 17.979ZM6.31876 12.5988C6.03482 12.4403 5.84929 12.3364 5.72386 12.2573C5.66214 12.2183 5.63474 12.1976 5.62648 12.1907C5.61198 12.1787 5.66251 12.2154 5.71079 12.3017L4.4019 13.0344C4.48473 13.1823 4.59565 13.2846 4.66956 13.3458C4.74971 13.4122 4.83872 13.4724 4.92357 13.5259C5.0913 13.6317 5.31959 13.7589 5.58741 13.9085L6.31876 12.5988ZM4.26124 11.958C4.25403 12.1294 4.24593 12.3063 4.25244 12.4542C4.25903 12.6041 4.28221 12.8205 4.4019 13.0344L5.71078 12.3017C5.76137 12.3921 5.75389 12.4543 5.75099 12.3883C5.74973 12.3596 5.74954 12.3178 5.7512 12.2536C5.75285 12.1896 5.75595 12.1153 5.75992 12.021L4.26124 11.958ZM17.7637 9.99782L17.7564 7.49637L16.2564 7.50073L16.2637 10.0022L17.7637 9.99782ZM18.0162 10.25C17.875 10.25 17.7637 10.1363 17.7637 10H16.2637C16.2637 10.9683 17.0501 11.75 18.0162 11.75V10.25ZM18.2687 10C18.2687 10.1363 18.1574 10.25 18.0162 10.25V11.75C18.9823 11.75 19.7687 10.9683 19.7687 10H18.2687ZM18.2687 7.51618V10H19.7687V7.51618H18.2687ZM19.5084 7.76865C21.6966 7.82509 22.6778 8.06124 23.3208 8.70256L24.3801 7.64058C23.2676 6.53084 21.6939 6.32452 19.5471 6.26915L19.5084 7.76865ZM19.7687 7.51618C19.7687 7.656 19.6534 7.77239 19.5084 7.76865L19.5471 6.26915C18.8429 6.25099 18.2687 6.81835 18.2687 7.51618H19.7687ZM16.5052 7.75C16.3698 7.75 16.2568 7.64027 16.2564 7.50073L17.7564 7.49637C17.7544 6.80569 17.1931 6.25 16.5052 6.25V7.75ZM20.0653 23.7135C21.9399 23.6343 23.353 23.384 24.3801 22.3594L23.3208 21.2974C22.7336 21.8831 21.8563 22.1365 20.002 22.2148L20.0653 23.7135ZM18.2687 20V21.9765H19.7687V20H18.2687ZM16.2579 22.0007C16.2575 22.121 16.2572 22.2136 16.255 22.2926C16.2528 22.3721 16.249 22.4192 16.245 22.4481C16.2411 22.4764 16.2396 22.4669 16.2513 22.4387C16.2654 22.4045 16.2911 22.3617 16.3299 22.323L17.389 23.3852C17.6246 23.1502 17.701 22.8709 17.7311 22.6521C17.7582 22.4548 17.7573 22.219 17.7579 22.0051L16.2579 22.0007ZM16.0079 23.75C16.2218 23.75 16.4576 23.7516 16.6549 23.7251C16.8739 23.6957 17.1534 23.6201 17.389 23.3852L16.3299 22.323C16.3687 22.2843 16.4116 22.2587 16.4458 22.2447C16.4741 22.2331 16.4836 22.2346 16.4553 22.2384C16.4264 22.2423 16.3792 22.246 16.2998 22.248C16.2208 22.25 16.1282 22.25 16.0079 22.25V23.75ZM20.002 22.2148C19.8812 22.2199 19.7889 22.2238 19.7101 22.225C19.631 22.2262 19.5849 22.2244 19.5575 22.2217C19.5309 22.2191 19.5426 22.2175 19.5734 22.2292C19.6103 22.2433 19.6536 22.2685 19.6917 22.305L18.6536 23.3878C18.8978 23.6219 19.183 23.6921 19.4108 23.7145C19.6127 23.7344 19.8518 23.7225 20.0653 23.7135L20.002 22.2148ZM18.2687 21.9765C18.2687 22.1953 18.267 22.4374 18.295 22.6397C18.3263 22.8655 18.407 23.1514 18.6536 23.3878L19.6917 22.305C19.7313 22.343 19.7584 22.3863 19.7737 22.4221C19.7863 22.4516 19.7848 22.4622 19.7808 22.4337C19.7768 22.4046 19.7729 22.3566 19.7708 22.2753C19.7687 22.1945 19.7687 22.0997 19.7687 21.9765H18.2687Z" fill="white"/>
</svg>
