<svg width="40" height="40" viewBox="0 0 40 40" fill="none" xmlns="http://www.w3.org/2000/svg">
<circle cx="20" cy="20" r="19.5833" stroke="#3B00BA" stroke-opacity="0.5" stroke-width="0.833333"/>
<circle cx="19.9997" cy="19.9997" r="16.6667" fill="url(#paint0_radial_535_125917)" fill-opacity="0.4"/>
<circle cx="19.9997" cy="19.9997" r="16.3194" stroke="#3B00BA" stroke-opacity="0.5" stroke-width="0.694444"/>
<path fill-rule="evenodd" clip-rule="evenodd" d="M26.833 19.3231V23.0682C26.833 25.3906 26.833 26.5518 26.2824 27.0592C26.0198 27.3012 25.6884 27.4533 25.3353 27.4937C24.595 27.5784 23.7305 26.8137 22.0014 25.2844C21.2371 24.6084 20.8549 24.2704 20.4128 24.1813C20.1951 24.1374 19.9709 24.1374 19.7532 24.1813C19.3111 24.2704 18.9289 24.6084 18.1646 25.2844C16.4356 26.8137 15.571 27.5784 14.8307 27.4937C14.4776 27.4533 14.1462 27.3012 13.8836 27.0592C13.333 26.5518 13.333 25.3906 13.333 23.0682V19.3231C13.333 16.1067 13.333 14.4985 14.3215 13.4992C15.31 12.5 16.901 12.5 20.083 12.5C23.265 12.5 24.856 12.5 25.8445 13.4992C26.833 14.4985 26.833 16.1067 26.833 19.3231ZM17.2705 15.5C17.2705 15.1893 17.5223 14.9375 17.833 14.9375H22.333C22.6437 14.9375 22.8955 15.1893 22.8955 15.5C22.8955 15.8107 22.6437 16.0625 22.333 16.0625H17.833C17.5223 16.0625 17.2705 15.8107 17.2705 15.5Z" fill="#8D58FF"/>
<defs>
<radialGradient id="paint0_radial_535_125917" cx="0" cy="0" r="1" gradientUnits="userSpaceOnUse" gradientTransform="translate(19.9997 19.9997) rotate(90) scale(16.6667)">
<stop stop-color="#662FFF"/>
<stop offset="1" stop-color="#3D1C99"/>
</radialGradient>
</defs>
</svg>
