<svg width="29" height="24" viewBox="0 0 29 24" fill="none" xmlns="http://www.w3.org/2000/svg">
<path fill-rule="evenodd" clip-rule="evenodd" d="M11.1017 7.99659L14.0098 3.34395L16.9179 7.99659C17.0174 8.15585 17.1486 8.29292 17.3034 8.39927C17.4581 8.50562 17.6331 8.57897 17.8174 8.61475C18.0018 8.65053 18.1915 8.64798 18.3748 8.60725C18.5581 8.56652 18.7311 8.48849 18.8829 8.37801L25.1272 3.83641L22.7293 16.4312C22.7117 16.523 22.6628 16.6058 22.5908 16.6654C22.5189 16.725 22.4284 16.7577 22.335 16.7579H5.68623C5.59252 16.7581 5.50169 16.7255 5.42942 16.6659C5.35714 16.6063 5.30795 16.5233 5.29033 16.4312L2.89239 3.8348L9.13669 8.3764C9.28848 8.48661 9.46131 8.56443 9.64445 8.60501C9.82759 8.64559 10.0171 8.64807 10.2013 8.6123C10.3854 8.57653 10.5602 8.50327 10.7148 8.39707C10.8695 8.29087 11.0006 8.15401 11.1001 7.99498M15.1685 0.643457C15.0456 0.446568 14.8746 0.284199 14.6716 0.171631C14.4686 0.0590635 14.2403 0 14.0082 0C13.7761 0 13.5478 0.0590635 13.3448 0.171631C13.1418 0.284199 12.9708 0.446568 12.8479 0.643457L9.64846 5.76603L2.17462 0.329633C1.172 -0.399404 -0.20722 0.474475 0.0261358 1.69115L2.91814 16.8834C3.04103 17.5275 3.38475 18.1084 3.89006 18.5262C4.39537 18.9439 5.03059 19.1723 5.68623 19.1719H22.335C22.9906 19.1719 23.6256 18.9431 24.1306 18.5251C24.6356 18.107 24.979 17.5259 25.1015 16.8818L27.9935 1.69115C28.2268 0.474475 26.8492 -0.401014 25.8466 0.329633L18.3712 5.76603L15.1685 0.643457ZM4.35369 21.586C4.03357 21.586 3.72656 21.7131 3.5002 21.9395C3.27384 22.1659 3.14667 22.4729 3.14667 22.793C3.14667 23.1131 3.27384 23.4201 3.5002 23.6465C3.72656 23.8728 4.03357 24 4.35369 24H23.6659C23.986 24 24.2931 23.8728 24.5194 23.6465C24.7458 23.4201 24.8729 23.1131 24.8729 22.793C24.8729 22.4729 24.7458 22.1659 24.5194 21.9395C24.2931 21.7131 23.986 21.586 23.6659 21.586H4.35369Z" fill="white"/>
</svg>
