<svg width="167" height="168" viewBox="0 0 167 168" fill="none" xmlns="http://www.w3.org/2000/svg">
<path d="M166.763 23.5786H26.0195V20.7646C26.0195 14.7574 30.8894 9.8877 36.8965 9.8877H155.886C161.893 9.8877 166.763 14.7574 166.763 20.7646V23.5786Z" fill="#8D58FF"/>
<path d="M166.628 23.8547H26.1896C26.0783 23.8547 25.9883 23.7646 25.9883 23.6534C25.9883 23.5422 26.0783 23.4521 26.1896 23.4521H166.628C166.74 23.4521 166.83 23.5422 166.83 23.6534C166.83 23.7646 166.74 23.8547 166.628 23.8547Z" fill="black"/>
<path d="M150.18 23.8545C150.069 23.8545 149.979 23.7645 149.979 23.6532V9.8126C149.979 9.70138 150.069 9.61133 150.18 9.61133C150.291 9.61133 150.381 9.70138 150.381 9.8126V23.6532C150.381 23.7645 150.291 23.8545 150.18 23.8545Z" fill="black"/>
<path d="M133.993 23.8545C133.882 23.8545 133.792 23.7645 133.792 23.6532V9.8126C133.792 9.70138 133.882 9.61133 133.993 9.61133C134.104 9.61133 134.195 9.70138 134.195 9.8126V23.6532C134.195 23.7645 134.104 23.8545 133.993 23.8545Z" fill="black"/>
<path d="M156.097 102.87H36.7207C30.7092 102.87 25.8184 97.9789 25.8184 91.9674V20.4795C25.8184 14.4679 30.7092 9.57715 36.7207 9.57715H156.097C162.108 9.57715 166.999 14.468 166.999 20.4795V91.9674C166.999 97.9789 162.108 102.87 156.097 102.87ZM36.7207 9.9796C30.9311 9.9796 26.2209 14.6898 26.2209 20.4795V91.9674C26.2209 97.757 30.9311 102.467 36.7207 102.467H156.097C161.887 102.467 166.597 97.757 166.597 91.9674V20.4795C166.597 14.6899 161.887 9.9796 156.097 9.9796H36.7207Z" fill="black"/>
<path d="M166.763 89.4328H26.0548C25.9436 89.4328 25.8535 89.3428 25.8535 89.2315C25.8535 89.1203 25.9436 89.0303 26.0548 89.0303H166.763C166.874 89.0303 166.965 89.1203 166.965 89.2315C166.965 89.3428 166.874 89.4328 166.763 89.4328Z" fill="black"/>
<path d="M120.056 127.37H72.7618C72.7024 127.37 72.6462 127.344 72.6079 127.299C72.5697 127.254 72.5534 127.194 72.5634 127.135L76.7483 102.634C76.7648 102.538 76.8485 102.467 76.9466 102.467H115.871C115.969 102.467 116.053 102.538 116.069 102.634L120.254 127.135C120.264 127.194 120.248 127.254 120.21 127.299C120.171 127.344 120.115 127.37 120.056 127.37ZM73.0004 126.968H119.817L115.701 102.869H77.1163L73.0004 126.968Z" fill="black"/>
<path d="M126.43 132.132H66.3883C64.9647 132.132 63.8066 130.974 63.8066 129.55C63.8066 128.127 64.9647 126.969 66.3883 126.969H126.43C127.853 126.969 129.011 128.127 129.011 129.55C129.011 130.974 127.853 132.132 126.43 132.132ZM66.3882 127.371C65.1867 127.371 64.209 128.349 64.209 129.55C64.209 130.752 65.1866 131.73 66.3882 131.73H126.43C127.631 131.73 128.609 130.752 128.609 129.55C128.609 128.349 127.631 127.371 126.43 127.371H66.3882Z" fill="black"/>
<path d="M96.4088 99.0101C95.2492 99.0101 94.3057 98.0694 94.3057 96.9132C94.3057 95.7571 95.2491 94.8164 96.4088 94.8164C97.5684 94.8164 98.5119 95.7571 98.5119 96.9132C98.5119 98.0694 97.5684 99.0101 96.4088 99.0101ZM96.4088 95.219C95.4711 95.219 94.7082 95.9791 94.7082 96.9133C94.7082 97.8475 95.4711 98.6076 96.4088 98.6076C97.3465 98.6076 98.1094 97.8475 98.1094 96.9133C98.1094 95.9791 97.3465 95.219 96.4088 95.219Z" fill="black"/>
<path d="M129.294 21.0686H122.793C122.682 21.0686 122.592 20.9785 122.592 20.8673C122.592 20.7561 122.682 20.666 122.793 20.666H129.294C129.406 20.666 129.496 20.7561 129.496 20.8673C129.496 20.9785 129.406 21.0686 129.294 21.0686Z" fill="black"/>
<path d="M161.234 21.0682C161.183 21.0682 161.131 21.0485 161.092 21.0094L154.667 14.6053C154.588 14.5269 154.588 14.3996 154.666 14.3207C154.745 14.2421 154.872 14.2421 154.951 14.3204L161.376 20.7245C161.455 20.8029 161.455 20.9303 161.376 21.009C161.337 21.0486 161.286 21.0682 161.234 21.0682Z" fill="black"/>
<path d="M154.809 21.0683C154.757 21.0683 154.706 21.0486 154.666 21.0092C154.588 20.9304 154.588 20.803 154.667 20.7246L161.092 14.3206C161.171 14.2419 161.298 14.2422 161.376 14.3209C161.455 14.3998 161.455 14.5271 161.376 14.6055L154.951 21.0096C154.912 21.0487 154.86 21.0683 154.809 21.0683Z" fill="black"/>
<path d="M145.305 21.0684H138.624C138.513 21.0684 138.423 20.9783 138.423 20.8671V14.2081C138.423 14.0969 138.513 14.0068 138.624 14.0068H145.305C145.416 14.0068 145.506 14.0969 145.506 14.2081V20.8671C145.506 20.9784 145.416 21.0684 145.305 21.0684ZM138.825 20.6659H145.104V14.4095H138.825V20.6659Z" fill="black"/>
<path d="M146.703 70.5092C151.126 66.0864 151.126 58.9156 146.703 54.4927C142.281 50.0699 135.11 50.0699 130.687 54.4927C126.264 58.9156 126.264 66.0864 130.687 70.5092C135.11 74.9321 142.281 74.932 146.703 70.5092Z" fill="black"/>
<path d="M146.955 70.0112C151.378 65.5883 151.378 58.4175 146.955 53.9947C142.533 49.5719 135.362 49.5719 130.939 53.9947C126.516 58.4175 126.516 65.5883 130.939 70.0112C135.362 74.434 142.533 74.434 146.955 70.0112Z" fill="white"/>
<path d="M138.938 73.4291C136.045 73.4291 133.301 72.3526 131.17 70.3723C128.934 68.2948 127.641 65.4708 127.53 62.4209C127.509 61.8473 127.448 61.0584 127.371 60.0592C127.121 56.7982 126.701 51.3402 127.223 46.221C127.854 40.0335 129.702 35.8755 132.718 33.8624C136.202 31.5366 141.286 32.0423 147.826 35.3668C152.02 37.4983 151.28 47.2091 150.686 55.0119C150.483 57.6744 150.308 59.9737 150.367 61.5846C150.479 64.6347 149.396 67.5456 147.318 69.7812C145.241 72.017 142.416 73.3097 139.367 73.4213C139.223 73.4264 139.08 73.4291 138.938 73.4291ZM137.818 32.6294C135.894 32.6294 134.229 33.0958 132.83 34.0298C125.927 38.6378 127.08 53.6383 127.572 60.0439C127.649 61.045 127.71 61.8359 127.731 62.4134C127.841 65.4096 129.111 68.1839 131.307 70.2249C133.503 72.2663 136.369 73.3356 139.359 73.22C142.355 73.1103 145.13 71.8404 147.171 69.6441C149.212 67.4478 150.276 64.5882 150.166 61.592C150.106 59.9697 150.282 57.6651 150.485 54.9966C151.044 47.6619 151.809 37.6167 147.735 35.546C143.912 33.6028 140.596 32.6294 137.818 32.6294Z" fill="white"/>
<mask id="mask0_2404_119511" style="mask-type:luminance" maskUnits="userSpaceOnUse" x="126" y="32" width="26" height="42">
<path d="M138.937 73.4291C136.044 73.4291 133.3 72.3526 131.169 70.3723C128.933 68.2948 127.641 65.4708 127.529 62.4209C127.508 61.8473 127.447 61.0584 127.371 60.0592C127.12 56.7982 126.7 51.3402 127.222 46.221C127.853 40.0335 129.701 35.8755 132.717 33.8624C136.201 31.5366 141.285 32.0423 147.825 35.3668C152.019 37.4983 151.279 47.2091 150.685 55.0119C150.482 57.6744 150.307 59.9737 150.366 61.5846C150.478 64.6347 149.395 67.5456 147.317 69.7812C145.24 72.017 142.416 73.3097 139.366 73.4213C139.222 73.4264 139.079 73.4291 138.937 73.4291ZM137.817 32.6294C135.893 32.6294 134.228 33.0958 132.829 34.0298C125.926 38.6378 127.079 53.6383 127.571 60.0439C127.648 61.045 127.709 61.8359 127.73 62.4134C127.84 65.4096 129.11 68.1839 131.306 70.2249C133.502 72.2663 136.369 73.3356 139.358 73.22C142.354 73.1103 145.129 71.8404 147.17 69.6441C149.211 67.4478 150.275 64.5882 150.165 61.592C150.105 59.9697 150.281 57.6651 150.484 54.9966C151.043 47.6619 151.808 37.6167 147.734 35.546C143.911 33.6028 140.595 32.6294 137.817 32.6294Z" fill="white"/>
</mask>
<g mask="url(#mask0_2404_119511)">
<path d="M139.123 64.7314L138.229 64.7642C137.388 64.795 136.563 64.046 135.779 64.3066C134.265 64.8104 132.901 65.7233 131.85 66.9658L125.799 74.1195L152.268 73.1503L145.71 66.4583C144.565 65.2903 143.13 64.4775 141.574 64.0879C140.78 63.8892 139.957 64.7009 139.123 64.7314Z" fill="#8D58FF"/>
<path d="M140.375 60.6689L140.849 64.4814L137.73 72.5245L136.78 64.4113L136.738 61.8526L140.375 60.6689Z" fill="#D6C3FF"/>
<path d="M136.764 63.3983C136.741 62.8844 136.761 62.3659 136.738 61.8521L140.435 60.8525C140.391 61.117 140.21 62.0074 139.4 62.6955C138.319 63.615 136.955 63.429 136.764 63.3983Z" fill="black"/>
<path d="M137.853 62.5125C139.484 62.5125 140.806 61.0682 140.806 59.2865C140.806 57.5049 139.484 56.0605 137.853 56.0605C136.222 56.0605 134.9 57.5049 134.9 59.2865C134.9 61.0682 136.222 62.5125 137.853 62.5125Z" fill="#D6C3FF"/>
<path d="M138.639 60.4297C138.594 60.6567 138.478 60.8719 138.29 61.0393C137.872 61.4126 137.248 61.4197 136.821 61.0822L138.639 60.4297Z" fill="white"/>
<path d="M135.671 57.1191C136.211 56.4703 136.987 56.0605 137.853 56.0605C139.484 56.0605 140.959 57.2383 140.959 59.02C140.959 59.2334 140.87 59.7165 140.745 59.9418C139.992 59.6281 138.122 58.6929 137.054 57.0961C137.054 57.0961 137.091 58.1593 138.614 59.6342C138.614 59.6342 136.373 58.975 135.671 57.1191Z" fill="black"/>
<path d="M142.405 57.3598C146.125 57.3598 149.14 54.3951 149.14 50.738C149.14 47.0809 146.125 44.1162 142.405 44.1162C138.686 44.1162 135.671 47.0809 135.671 50.738C135.671 54.3951 138.686 57.3598 142.405 57.3598Z" fill="black"/>
<path d="M143.248 57.5612C139.424 57.5612 136.312 54.5004 136.312 50.7382C136.312 46.976 139.424 43.915 143.248 43.915C147.073 43.915 150.184 46.9759 150.184 50.7382C150.184 54.5003 147.073 57.5612 143.248 57.5612ZM143.248 44.3176C139.646 44.3176 136.715 47.1979 136.715 50.7382C136.715 54.2785 139.646 57.1588 143.248 57.1588C146.851 57.1588 149.782 54.2785 149.782 50.7382C149.782 47.1978 146.851 44.3176 143.248 44.3176Z" fill="black"/>
<path d="M136.858 51.535C139.741 51.535 142.078 49.2372 142.078 46.4027C142.078 43.5683 139.741 41.2705 136.858 41.2705C133.976 41.2705 131.639 43.5683 131.639 46.4027C131.639 49.2372 133.976 51.535 136.858 51.535Z" fill="black"/>
<path d="M139.994 45.6084C143.137 45.6084 145.686 43.1029 145.686 40.0122C145.686 36.9215 143.137 34.416 139.994 34.416C136.851 34.416 134.303 36.9215 134.303 40.0122C134.303 43.1029 136.851 45.6084 139.994 45.6084Z" fill="black"/>
<path d="M139.32 45.4788C136.071 45.4788 133.428 42.878 133.428 39.6813C133.428 36.4846 136.071 33.8838 139.32 33.8838C142.57 33.8838 145.213 36.4845 145.213 39.6813C145.213 42.878 142.57 45.4788 139.32 45.4788ZM139.32 34.2863C136.293 34.2863 133.83 36.7065 133.83 39.6813C133.83 42.6562 136.293 45.0763 139.32 45.0763C142.348 45.0763 144.811 42.6562 144.811 39.6813C144.811 36.7064 142.348 34.2863 139.32 34.2863Z" fill="black"/>
<path d="M136.514 64.6807H140.959V64.141H136.514V64.6807Z" fill="black"/>
<path d="M137.801 64.9591C137.801 65.1728 137.977 65.346 138.194 65.346C138.411 65.346 138.588 65.1728 138.588 64.9591C138.588 64.7455 138.412 64.5723 138.194 64.5723C137.977 64.5723 137.801 64.7454 137.801 64.9591Z" fill="white"/>
</g>
<path d="M138.938 73.5295C136.019 73.5295 133.251 72.4435 131.102 70.4458C128.846 68.3498 127.542 65.5012 127.43 62.4241C127.197 56.0728 132.175 50.7161 138.527 50.4835C141.602 50.3712 144.54 51.4631 146.796 53.5591C149.051 55.6549 150.355 58.5037 150.468 61.5807C150.58 64.6576 149.488 67.5941 147.392 69.8495C145.296 72.1047 142.447 73.4088 139.37 73.5214C139.226 73.5267 139.082 73.5295 138.938 73.5295ZM138.954 50.8781C138.817 50.8781 138.68 50.8806 138.542 50.8855C132.412 51.1102 127.607 56.2797 127.832 62.4095C127.941 65.3789 129.199 68.1283 131.376 70.1509C133.552 72.1737 136.383 73.2291 139.356 73.1193C142.325 73.0106 145.075 71.7521 147.097 69.5754C149.12 67.3987 150.174 64.5647 150.066 61.5952C149.846 55.6036 144.901 50.8781 138.954 50.8781Z" fill="black"/>
<path d="M157.438 81.3625H120.645C119.2 81.3625 118.025 80.1875 118.025 78.743V33.2249C118.025 31.7804 119.2 30.6055 120.645 30.6055H157.438C158.883 30.6055 160.058 31.7804 160.058 33.2249V78.743C160.058 80.1875 158.883 81.3625 157.438 81.3625ZM120.645 31.008C119.422 31.008 118.428 32.0026 118.428 33.2249V78.743C118.428 79.9654 119.422 80.9599 120.645 80.9599H157.438C158.661 80.9599 159.655 79.9654 159.655 78.743V33.2249C159.655 32.0025 158.661 31.008 157.438 31.008H120.645Z" fill="black"/>
<path d="M116.116 117.361C116.116 159.226 140.517 167.281 140.517 167.281C140.517 167.281 164.919 156.68 164.919 117.361L140.517 103.229L116.116 117.361Z" fill="white"/>
<path d="M140.518 167.482C140.496 167.482 140.475 167.479 140.455 167.472C140.393 167.452 134.23 165.357 128.163 158.15C124.605 153.923 121.771 148.789 119.739 142.888C117.201 135.521 115.915 126.933 115.915 117.361C115.915 117.289 115.953 117.223 116.015 117.187L140.417 103.054C140.479 103.018 140.556 103.018 140.618 103.054L165.02 117.187C165.082 117.223 165.12 117.289 165.12 117.361C165.12 126.352 163.834 134.58 161.296 141.816C159.265 147.608 156.431 152.782 152.875 157.192C146.814 164.709 140.659 167.439 140.598 167.465C140.572 167.477 140.545 167.482 140.518 167.482ZM116.318 117.477C116.341 138.972 122.936 151.316 128.471 157.891C134.11 164.589 139.803 166.808 140.508 167.064C141.206 166.739 146.927 163.935 152.577 156.92C158.105 150.057 164.693 137.648 164.718 117.477L140.518 103.461L116.318 117.477Z" fill="black"/>
<path d="M140.518 161.842C140.518 161.842 160.775 153.042 160.775 120.4L140.518 108.667V161.842Z" fill="#553599"/>
<path d="M140.517 162.043C140.496 162.043 140.475 162.04 140.454 162.033C140.403 162.016 135.277 160.274 130.235 154.284C127.278 150.772 124.923 146.505 123.235 141.603C121.127 135.483 120.059 128.35 120.059 120.4C120.059 120.328 120.097 120.261 120.159 120.225L140.416 108.493C140.479 108.457 140.556 108.457 140.618 108.493C140.68 108.529 140.719 108.595 140.719 108.667V161.842C140.719 161.907 140.688 161.967 140.635 162.005C140.6 162.03 140.559 162.043 140.517 162.043ZM120.461 120.516C120.485 138.338 125.953 148.573 130.543 154.024C134.861 159.155 139.216 161.115 140.316 161.552V109.016L120.461 120.516Z" fill="black"/>
<path d="M137.793 147.641C137.036 146.913 136.658 146.026 136.658 144.981C136.658 143.936 137.029 143.062 137.772 142.361C138.514 141.66 139.463 141.309 140.618 141.309C141.773 141.309 142.722 141.66 143.465 142.361C144.207 143.062 144.578 143.936 144.578 144.981C144.578 146.026 144.2 146.913 143.444 147.641C142.687 148.37 141.746 148.734 140.618 148.734C139.49 148.734 138.549 148.37 137.793 147.641ZM136.782 119.528H144.455L143.176 138.38H138.061L136.782 119.528Z" fill="#1E1E1E"/>
<path d="M28.443 103.856H0.201271C0.0900514 103.856 0 103.766 0 103.654C0 103.543 0.0900514 103.453 0.201271 103.453H28.443C28.5542 103.453 28.6443 103.543 28.6443 103.654C28.6443 103.766 28.5542 103.856 28.443 103.856Z" fill="black"/>
<path d="M27.8347 52.0908C31.5804 43.7812 27.6522 39.3389 22.3099 39.3389C16.9675 39.3389 12.6367 45.307 12.6367 52.6691C12.6367 60.0312 16.9675 65.9994 22.3099 65.9994C27.6521 65.9995 24.8092 58.8026 27.8347 52.0908Z" fill="black"/>
<path d="M27.528 39.7559V44.7183C27.528 46.5367 26.0533 48.0107 24.2342 48.0107H22.749L18.1797 49.633C18.1797 49.633 17.9349 48.857 17.9457 47.4964C17.959 45.8122 19.0414 44.262 20.4785 43.499L27.528 39.7559Z" fill="#8D58FF"/>
<path d="M23.0801 50.2607H18.7988V55.6512H23.0801V50.2607Z" fill="#D6C3FF"/>
<path d="M18.305 49.1228C18.305 49.3092 18.1555 49.4536 18.1793 49.6327C18.4197 51.4457 19.8332 52.8377 21.5409 52.8377C23.4174 52.8377 24.9385 51.1571 24.9385 49.0839C24.9385 47.0108 23.4174 45.3301 21.5409 45.3301C19.6644 45.3302 18.305 47.0497 18.305 49.1228Z" fill="#D6C3FF"/>
<path d="M21.5405 53.0399C20.2014 53.0399 19.1933 52.5115 18.4585 51.4248C18.3962 51.3326 18.4204 51.2073 18.5124 51.1453C18.6048 51.0828 18.7298 51.1073 18.7918 51.1991C19.4462 52.167 20.3451 52.6373 21.5404 52.6373C23.3028 52.6373 24.7367 51.0437 24.7367 49.0849C24.7367 47.1261 23.3029 45.5324 21.5404 45.5324C20.4106 45.5324 19.3868 46.1754 18.802 47.2521C18.7488 47.3496 18.6273 47.3857 18.5291 47.3328C18.4313 47.2797 18.3952 47.1575 18.4483 47.0598C19.095 45.8696 20.2797 45.1299 21.5405 45.1299C23.5248 45.1299 25.1393 46.9042 25.1393 49.0849C25.1393 51.2656 23.5249 53.0399 21.5405 53.0399Z" fill="black"/>
<path d="M21.5405 44.6084C19.664 44.6084 17.859 45.8439 18.1429 49.0841C18.1591 49.2698 18.1557 49.4536 18.1794 49.6328L20.3793 48.0105L24.9849 47.9255C24.5667 46.3756 23.0791 44.6084 21.5405 44.6084Z" fill="#8D58FF"/>
<path d="M20.4658 50.7768C20.7456 51.0329 21.1057 51.206 21.5121 51.2472C22.4183 51.3393 23.2351 50.7511 23.4597 49.8975L20.4658 50.7768Z" fill="white"/>
<path d="M38.0072 107.642L20.3564 119.959L26.4235 128.653L44.0742 116.336L38.0072 107.642Z" fill="#D6C3FF"/>
<path d="M36.3322 121.732L26.9854 115.326L38.0016 107.645L44.0681 116.338L36.3322 121.732Z" fill="#020202"/>
<path d="M26.0928 115.953L20.3555 119.957L26.4225 128.651L32.1599 124.647L26.0928 115.953Z" fill="#020202"/>
<path d="M23.2264 117.188L22.9649 117.172C19.9698 116.988 18.3437 118.208 15.0342 119.324L18.4471 132.122L28.9139 147.528L32.2684 149.068L33.8194 146.676L30.718 136.282L30.3412 127.911L31.2954 125.465L30.1715 123.854L27.966 123.382L26.3906 124.481C24.4087 123.59 23.779 123.618 23.2493 122.859C23.2427 122.839 22.2291 121.657 23.1619 120.404L24.1219 119.115C24.6953 118.346 24.1849 117.247 23.2264 117.188Z" fill="#553599"/>
<path d="M32.2685 149.068L28.0304 144.939L19.4741 132.135L15.0343 119.323L12.5639 118.758L8.60547 120.56L9.67113 125.936C9.67113 125.936 11.7504 128.888 14.3599 132.655L15.8919 132.938L16.8753 134.347L16.6185 135.892C20.701 141.776 25.1558 148.126 25.1558 148.126L29.2937 150.322L30.7437 150.131L32.2685 149.068Z" fill="#020202"/>
<path d="M20.2139 117.754L20.2821 117.32C20.3432 116.931 20.8938 113.499 21.3869 112.756C21.93 111.936 23.0395 111.711 23.8596 112.254C24.257 112.517 24.5281 112.919 24.6228 113.386C24.7175 113.853 24.6247 114.329 24.3615 114.726C23.8688 115.47 20.9217 117.314 20.5873 117.522L20.2139 117.754ZM22.8762 112.36C22.428 112.36 21.988 112.577 21.7222 112.978C21.3908 113.478 20.9609 115.71 20.7521 116.942C21.8054 116.27 23.6949 115.004 24.0261 114.504C24.2301 114.196 24.3016 113.828 24.2283 113.466C24.1548 113.105 23.9451 112.793 23.6375 112.59C23.4031 112.435 23.1381 112.36 22.8762 112.36Z" fill="black"/>
<path d="M30.4747 130.097C30.4513 130.097 30.4275 130.093 30.4043 130.085L28.0646 129.213C27.9604 129.174 27.9076 129.058 27.9463 128.954C27.9854 128.85 28.1014 128.798 28.2053 128.836L30.5451 129.707C30.6493 129.746 30.7021 129.862 30.6634 129.966C30.633 130.047 30.5562 130.097 30.4747 130.097Z" fill="black"/>
<path d="M30.5126 132.234C30.4892 132.234 30.4654 132.23 30.4422 132.222L28.1027 131.35C27.9985 131.311 27.9457 131.195 27.9844 131.091C28.0233 130.987 28.1396 130.934 28.2434 130.972L30.5829 131.844C30.6871 131.883 30.7399 131.999 30.7012 132.103C30.671 132.184 30.5941 132.234 30.5126 132.234Z" fill="black"/>
<path d="M30.5509 134.371C30.5275 134.371 30.5037 134.367 30.4807 134.358L28.1409 133.486C28.0367 133.447 27.9837 133.331 28.0224 133.227C28.0614 133.123 28.1781 133.071 28.2813 133.109L30.6211 133.981C30.7253 134.02 30.7784 134.136 30.7396 134.24C30.7093 134.321 30.6325 134.371 30.5509 134.371Z" fill="black"/>
<path d="M77.5564 75.088L33.8675 85.1882L37.1861 100.484L49.9971 96.9948L31.0908 110.177L39.9992 122.944L85.0497 91.5317C89.0195 88.7636 89.9929 83.3027 87.2238 79.3344L86.7192 78.6113C84.6715 75.6766 81.0439 74.2818 77.5564 75.088Z" fill="#8D58FF"/>
<path d="M40.2972 107.692C42.0854 106.458 43.4544 105.026 47.1232 104.829C51.6998 104.583 58.1085 105.061 61.2862 102.194H42.5394L33.2363 108.681C37.5755 108.924 39.5793 108.187 40.2972 107.692Z" fill="black"/>
<path d="M78.9919 129.904L69.8691 133.33L77.0999 152.581L86.2227 149.155L78.9919 129.904Z" fill="#D6C3FF"/>
<path d="M83.0444 140.676L74.5027 145.65L69.874 133.336L78.9972 129.909L83.0444 140.676Z" fill="#020202"/>
<path d="M84.0232 143.294L74.9004 146.721L77.1013 152.58L86.224 149.154L84.0232 143.294Z" fill="#020202"/>
<path d="M74.5841 157.73C74.3245 154.307 73.557 152.463 74.4595 149.656L74.5384 149.411C74.8271 148.513 75.9981 148.293 76.5927 149.026L77.5876 150.253C78.5545 151.446 79.9268 150.768 79.9475 150.766C80.7995 150.446 80.9264 149.84 82.2561 148.169L81.592 146.403L82.5773 144.417L84.385 143.738L86.4845 145.241L94.6479 146.505L101.683 143.396L104.385 144.142L103.874 147.689L96.0509 156.309L87.6085 157.588L74.5841 157.73Z" fill="#553599"/>
<path d="M74.398 157.933L74.3837 157.745C74.3098 156.771 74.1921 155.907 74.0881 155.145C73.8209 153.187 73.6101 151.641 74.2681 149.595L74.3469 149.349C74.5056 148.856 74.9041 148.505 75.4136 148.409C75.922 148.314 76.4225 148.497 76.7489 148.9L77.7439 150.127C78.4763 151.03 79.4615 150.751 79.8508 150.588C79.8613 150.584 79.8712 150.58 79.8816 150.576C80.3946 150.382 80.6189 150.065 81.1083 149.375C81.3412 149.046 81.6282 148.64 82.0278 148.134L81.3731 146.392L82.4323 144.257L84.415 143.512L86.5628 145.049L94.6205 146.297L101.668 143.183L104.61 143.996L104.065 147.779L104.024 147.824L96.152 156.497L96.081 156.507L87.6108 157.79L74.398 157.933ZM75.676 148.787C75.6138 148.787 75.551 148.793 75.4877 148.805C75.126 148.873 74.8428 149.122 74.7301 149.473L74.6513 149.718C74.0211 151.677 74.2268 153.184 74.4868 155.091C74.5849 155.809 74.6949 156.617 74.77 157.527L87.5922 157.387L95.9498 156.12L103.684 147.599L104.161 144.289L101.699 143.609L94.6754 146.713L86.4063 145.432L84.3553 143.965L82.7223 144.578L81.8113 146.414L82.4847 148.205L82.4136 148.295C81.9837 148.835 81.6805 149.263 81.4367 149.607C80.9296 150.323 80.6503 150.718 80.0184 150.955L80.0111 150.958C79.6247 151.117 78.3559 151.521 77.4313 150.38L76.4364 149.153C76.2448 148.917 75.9699 148.787 75.676 148.787Z" fill="black"/>
<path d="M73.4453 159.945L74.584 157.73L87.8709 156.615L96.7584 153.834L101.32 149.073L104.387 144.132L105.73 145.37L106.221 146.72L104.968 151.137C104.968 151.137 103.383 152.939 100.177 156.416C100.177 156.416 92.6842 159.528 90.7566 160.246L89.347 159.626L87.7652 160.22L87.1238 161.61C82.9004 163.18 79.5824 164.443 79.5824 164.443H74.2535L73.4453 159.945Z" fill="#020202"/>
<path d="M74.3517 152.424L73.9478 152.25C73.592 152.098 70.4553 150.74 69.866 150.089C69.5509 149.742 69.3902 149.292 69.4133 148.823C69.4365 148.355 69.641 147.923 69.989 147.608C70.7068 146.958 71.8207 147.013 72.4713 147.731C73.0605 148.381 74.1022 151.636 74.219 152.005L74.3517 152.424ZM71.1681 147.557C70.8434 147.557 70.5181 147.672 70.259 147.907C69.991 148.15 69.8333 148.482 69.8154 148.843C69.7975 149.205 69.9213 149.551 70.1643 149.819C70.5588 150.255 72.5736 151.203 73.6978 151.702C73.3123 150.534 72.5674 148.437 72.1729 148.001C71.906 147.706 71.5376 147.557 71.1681 147.557Z" fill="black"/>
<path d="M87.0097 147.814C86.9702 147.814 86.9302 147.802 86.8951 147.778C86.8039 147.715 86.7811 147.589 86.8446 147.498L88.2436 145.482C88.3069 145.391 88.4323 145.368 88.5237 145.431C88.615 145.495 88.6378 145.62 88.5743 145.712L87.1752 147.728C87.1361 147.784 87.0734 147.814 87.0097 147.814Z" fill="black"/>
<path d="M89.1728 148.126C89.1333 148.126 89.0931 148.114 89.0582 148.09C88.9669 148.027 88.9442 147.901 89.0076 147.81L90.4067 145.794C90.47 145.702 90.5955 145.679 90.6868 145.743C90.778 145.806 90.8007 145.932 90.7373 146.023L89.3383 148.039C89.2991 148.095 89.2364 148.126 89.1728 148.126Z" fill="black"/>
<path d="M91.2509 148.506C91.2114 148.506 91.1712 148.495 91.1363 148.47C91.0451 148.407 91.0223 148.282 91.0857 148.19L92.4846 146.174C92.5479 146.083 92.6733 146.06 92.7647 146.124C92.8559 146.187 92.8787 146.313 92.8152 146.404L91.4164 148.42C91.3772 148.476 91.3146 148.506 91.2509 148.506Z" fill="black"/>
<path d="M86.1941 138.59L73.5594 103.635L73.5582 103.631L69.9301 93.652C68.4026 89.4505 64.4084 86.6533 59.9363 86.6533H14.8652V91.6431C14.8652 98.266 20.2362 103.635 26.8617 103.635H54.1365L69.014 144.795L86.1941 138.59Z" fill="#8D58FF"/>
<path d="M59.9366 86.6533H58.043C58.4428 92.5524 63.3533 97.2146 69.3561 97.2146C69.9745 97.2146 70.5808 97.1633 71.1724 97.0681L69.9305 93.652C68.403 89.4504 64.4087 86.6533 59.9366 86.6533Z" fill="#6155FF"/>
<path d="M39.3377 88.3281H14.8652V91.6435C14.8652 92.7335 15.0133 93.7883 15.2859 94.7919C16.3826 94.6269 17.6104 94.335 18.3487 93.8256C20.1369 92.5918 21.5058 91.1595 25.1747 90.9624C29.7513 90.7165 36.1599 91.1949 39.3377 88.3281Z" fill="black"/>
<path d="M68.8932 145.053L53.9953 103.836H26.8619C20.1361 103.836 14.6641 98.3667 14.6641 91.6433V86.4521H59.9362C64.4764 86.4521 68.5686 89.3179 70.1192 93.5832L73.7474 103.563L86.4519 138.711L68.8932 145.053ZM15.0666 86.8548V91.6434C15.0666 98.1448 20.358 103.434 26.8619 103.434H54.2779L54.3259 103.567L69.1349 144.537L85.9366 138.469L73.3703 103.704L69.7411 93.7209C68.2481 89.6139 64.3078 86.8548 59.9363 86.8548H15.0666Z" fill="black"/>
<path d="M75.434 45.1909C75.0583 44.5158 74.218 44.2555 73.5263 44.5998L71.2162 45.8443L71.146 45.7252C70.7348 45.0281 69.8722 44.741 69.125 45.0529L64.6297 46.9291C63.5263 47.4154 62.3092 47.5849 61.1148 47.4185L58.7845 47.0938L60.9302 42.7465C61.2631 42.072 60.9964 41.2551 60.3295 40.9068L60.189 40.8334C59.531 40.4897 58.7189 40.7258 58.3479 41.3687L57.6096 42.648C56.9655 43.7642 56.1777 44.7907 55.2648 45.7004C54.4622 46.5004 53.5219 47.4591 53.1092 47.9615C51.3282 50.1288 52.7325 52.27 52.7325 52.27L44.2 64.1001L39.8346 60.6848L34.1875 68.3012L42.2109 74.2454C43.9238 75.5145 46.3432 75.1429 47.5961 73.4185L59.3091 57.2975L74.9604 47.1033C75.5965 46.6893 75.8033 45.8537 75.434 45.1909Z" fill="#D6C3FF"/>
<path d="M82.2479 51.1154L55.3752 44.8879C53.1294 44.504 51.6201 42.3722 52.004 40.1264L52.3345 19.543C52.7184 17.2972 58.0446 15.7518 60.2904 16.1357L89.8779 21.1937C92.1237 21.5776 93.6331 23.7094 93.2492 25.9552L89.7243 46.5747C89.3404 48.8205 84.4936 51.4993 82.2479 51.1154Z" fill="#8D58FF"/>
<path d="M81.2655 51.0661L51.678 46.0082C49.4321 45.6242 47.9228 43.4925 48.3067 41.2466L51.8316 20.6272C52.2155 18.3814 54.3473 16.872 56.5931 17.2559L86.1807 22.3139C88.4265 22.6978 89.9358 24.8296 89.5519 27.0754L86.027 47.695C85.6431 49.9406 83.5113 51.45 81.2655 51.0661Z" fill="#553599"/>
<path d="M81.9704 51.3285C81.7254 51.3285 81.4785 51.3077 81.2318 51.2653L51.6444 46.2074C50.5054 46.0128 49.5103 45.386 48.8424 44.443C48.1747 43.4998 47.9141 42.3528 48.1089 41.2136L51.6337 20.5941C52.0358 18.2427 54.2741 16.656 56.6277 17.0585L86.215 22.1164C88.5666 22.5186 90.1526 24.7588 89.7506 27.1104L86.2256 47.7298C86.031 48.8689 85.4042 49.864 84.4611 50.5319C83.7219 51.0552 82.8578 51.3285 81.9704 51.3285ZM55.8964 17.3988C54.0207 17.3988 52.3569 18.7521 52.0302 20.6622L48.5054 41.2817C48.3288 42.3148 48.5651 43.3549 49.1709 44.2103C49.7764 45.0657 50.679 45.6342 51.7123 45.8108L81.2997 50.8687C82.3334 51.0454 83.3734 50.8091 84.2284 50.2034C85.0837 49.5979 85.6522 48.6952 85.8289 47.662L89.3539 27.0424C89.7183 24.9098 88.2797 22.8779 86.1469 22.5131L56.5596 17.4552C56.3369 17.4173 56.1152 17.3988 55.8964 17.3988Z" fill="black"/>
<path d="M73.4269 29.6575C73.7688 27.6577 72.4248 25.7592 70.4249 25.4174C68.4251 25.0755 66.5267 26.4196 66.1848 28.4194C65.9734 29.6558 66.4071 30.8529 67.2412 31.6679L64.0654 42.1651L70.8598 43.3266L71.3515 32.3705C72.4089 31.8789 73.2155 30.8939 73.4269 29.6575Z" fill="black"/>
<path d="M83.5304 21.034L80.4656 20.5101L81.6125 13.8011C82.4215 9.06876 79.2295 4.5605 74.4972 3.75149C69.7649 2.94249 65.2566 6.13445 64.4476 10.8668L61.3828 10.3429C62.4807 3.92056 68.5987 -0.411151 75.021 0.686716C81.4432 1.78458 85.7751 7.90265 84.6772 14.325L83.5304 21.034Z" fill="black"/>
<path d="M44.4841 75.2002C43.6258 75.2002 42.7936 74.9272 42.0905 74.4064L33.9053 68.3423L39.7953 60.3983L44.1584 63.8118L52.4927 52.2567C52.2216 51.7537 51.3462 49.7886 52.9531 47.8329C53.3816 47.3115 54.3691 46.3075 55.122 45.5571C56.0205 44.6614 56.7986 43.6486 57.4345 42.5465L58.173 41.2671C58.5993 40.5287 59.5257 40.2594 60.2816 40.6541L60.4221 40.7275C61.1796 41.1234 61.4882 42.0688 61.11 42.8347L59.0877 46.9322L61.1418 47.2184C62.3001 47.3798 63.4776 47.2155 64.5479 46.7442L69.0469 44.8663C69.8647 44.5251 70.819 44.8295 71.2898 45.5749L73.4301 44.4219C74.2255 44.0253 75.1802 44.3214 75.6092 45.0921C76.0283 45.8441 75.7912 46.8016 75.0697 47.2713L59.4495 57.4453L47.7581 73.5362C47.1206 74.4139 46.1786 74.9879 45.106 75.1527C44.8985 75.1845 44.6903 75.2002 44.4841 75.2002ZM34.4687 68.2587L42.3304 74.0829C43.1154 74.6646 44.0803 74.903 45.0452 74.7547C46.0108 74.6064 46.8588 74.0896 47.4329 73.2995L59.1677 57.1483L74.85 46.9339C75.3951 46.5789 75.5741 45.8561 75.2575 45.2878C74.9336 44.7058 74.2124 44.4816 73.6153 44.7792L71.1404 46.1126L70.972 45.8267C70.6139 45.2195 69.8531 44.9662 69.2019 45.2378L64.7065 47.1141C63.5714 47.6144 62.3186 47.7898 61.0865 47.6171L58.48 47.2539L60.7492 42.6568C61.0361 42.0754 60.8105 41.3849 60.2358 41.0846L60.0953 41.0112C59.5311 40.7158 58.8399 40.9172 58.5217 41.4686L57.7832 42.7479C57.1297 43.8807 56.3299 44.9216 55.4063 45.8423C54.3357 46.9094 53.5948 47.6859 53.2641 48.0887C51.6023 50.1112 52.8466 52.0765 52.9003 52.1592L52.9756 52.2748L52.8952 52.3871L44.2403 64.3872L39.8729 60.9701L34.4687 68.2587Z" fill="black"/>
<path d="M57.8271 49.2002C57.7968 49.2002 57.766 49.1933 57.7369 49.1787C57.6376 49.1288 57.5975 49.0079 57.6474 48.9085L58.6046 47.0027C58.6545 46.9034 58.7751 46.8629 58.8749 46.9133C58.9741 46.9632 59.0142 47.0841 58.9643 47.1835L58.0071 49.0893C57.9718 49.1596 57.9008 49.2002 57.8271 49.2002Z" fill="black"/>
<path d="M64.085 49.6996L65.3381 49.0605C66.1347 48.6542 66.7962 48.0255 67.2423 47.2507L69.6851 43.0081C70.0363 42.3979 70.8127 42.1827 71.4282 42.5249C72.0142 42.8508 72.2522 43.5715 71.9755 44.182L69.7126 49.1755C69.5298 49.579 69.2678 49.9417 68.9422 50.2423L67.1883 51.8613L64.085 49.6996Z" fill="#D6C3FF"/>
<path d="M68.942 50.4438C68.8877 50.4438 68.8337 50.422 68.7942 50.3791C68.7187 50.2974 68.7238 50.17 68.8054 50.0947C69.1128 49.8109 69.3563 49.4737 69.5291 49.0925L71.7918 44.0991C72.0235 43.5881 71.8207 42.9739 71.3301 42.7011C70.8144 42.4145 70.1542 42.5969 69.8591 43.1087L67.9974 46.3744C67.9422 46.4709 67.8193 46.5043 67.7228 46.4497C67.6262 46.3945 67.5925 46.2716 67.6475 46.1751L69.5098 42.9085C69.9146 42.2065 70.8183 41.9558 71.5259 42.3492C72.1981 42.7232 72.476 43.5648 72.1586 44.2653L69.8959 49.2587C69.7007 49.6892 69.4257 50.0699 69.0786 50.3903C69.0398 50.4261 68.9909 50.4438 68.942 50.4438Z" fill="black"/>
<path d="M61.1689 52.0158L62.2991 51.1783C63.0175 50.6459 63.5659 49.9166 63.8778 49.0786L65.5852 44.4906C65.8307 43.8308 66.5608 43.4903 67.2244 43.7261C67.8562 43.9506 68.2102 44.6219 68.0383 45.2698L66.6324 50.5685C66.5188 50.9967 66.3204 51.3977 66.049 51.7479L64.587 53.6345L61.1689 52.0158Z" fill="#D6C3FF"/>
<path d="M59.8598 52.919C59.793 52.919 59.7277 52.8858 59.6893 52.825C59.6299 52.7311 59.658 52.6069 59.7522 52.5475L62.192 51.0087C62.8683 50.5069 63.3906 49.8124 63.6893 49.0092L65.3967 44.4213C65.6788 43.6628 66.5289 43.2667 67.2921 43.5372C68.017 43.7948 68.4303 44.5789 68.2331 45.3224L67.1369 49.9687C66.8893 51.0177 66.2819 51.7902 65.6388 52.6078L65.5973 52.6607C65.5287 52.7479 65.4023 52.7637 65.3146 52.6945C65.2274 52.6259 65.2121 52.4993 65.2809 52.4118L65.3226 52.3589C65.9371 51.5772 66.518 50.8388 66.745 49.8762L67.8425 45.2244C67.9879 44.6765 67.6862 44.1043 67.1573 43.9164C66.6016 43.7188 65.9801 44.0081 65.7741 44.5614L64.0667 49.1493C63.7404 50.0259 63.1708 50.7837 62.419 51.3405L59.9668 52.8877C59.9337 52.909 59.8965 52.919 59.8598 52.919Z" fill="black"/>
<path d="M13.3478 55.6514H11.7032C7.09531 55.6514 3.10018 58.8374 2.07658 63.3283L0.0263672 72.3228H13.3478V55.6514Z" fill="black"/>
<path d="M31.7388 55.6514H24.126V68.7324H34.9265L42.1173 60.8182L37.8757 57.6765C36.1002 56.3613 33.9487 55.6514 31.7388 55.6514Z" fill="black"/>
<path d="M32.2803 55.6514H11.3262V89.07H41.3453L32.2803 55.6514Z" fill="black"/>
<path d="M75.8367 86.9534H48.5254L63.9277 66.5654H91.2391L75.8367 86.9534ZM49.3339 86.5509H75.6361L90.4304 66.968H64.1282L49.3339 86.5509Z" fill="black"/>
<path d="M75.8971 89.2707H33.8926V86.5508H75.8971V89.2707ZM34.2951 88.8681H75.4946V86.9533H34.2951V88.8681Z" fill="black"/>
<path d="M69.6535 78.7246C68.737 78.7246 67.9912 77.9793 67.9912 77.063C67.9912 76.1467 68.7369 75.4014 69.6535 75.4014C70.57 75.4014 71.3156 76.1467 71.3156 77.063C71.3156 77.9793 70.57 78.7246 69.6535 78.7246ZM69.6535 75.8039C68.9589 75.8039 68.3938 76.3688 68.3938 77.063C68.3938 77.7572 68.9588 78.3221 69.6535 78.3221C70.3479 78.3221 70.913 77.7572 70.913 77.063C70.913 76.3688 70.3479 75.8039 69.6535 75.8039Z" fill="black"/>
<path d="M1.59082 81.0467V72.501H11.3264V76.2074C11.3264 77.2408 12.1647 78.0785 13.1984 78.0781L29.2104 78.0734V86.843L7.39475 86.847C4.18956 86.8477 1.59082 84.2506 1.59082 81.0467Z" fill="#D6C3FF"/>
<path d="M38.8412 80.8006L39.7932 81.8287C40.2741 82.348 40.3223 83.1341 39.9085 83.7082L38.9736 85.0056L36.7078 82.4784H22.4736V79.501H35.8663C36.9957 79.501 38.074 79.9719 38.8412 80.8006Z" fill="#D6C3FF"/>
<path d="M38.4025 78.9434L38.9411 79.525C39.422 80.0444 39.4702 80.8305 39.0564 81.4046L38.1215 82.7019L35.8556 80.1747H22.4736V78.1034H24.7449C25.6844 78.1034 27.3604 77.1973 29.4808 77.1973H34.4055C35.923 77.1974 37.3717 77.8302 38.4025 78.9434Z" fill="#D6C3FF"/>
<path d="M39.1743 82.8019L40.3163 84.0353C40.7972 84.5546 40.8454 85.3407 40.4316 85.9148L39.4967 87.2122L37.2308 84.685H28.4121V81.707H36.6682C37.6196 81.7071 38.528 82.1039 39.1743 82.8019Z" fill="#D6C3FF"/>
<path d="M38.7563 84.971L39.9477 86.2576C40.3894 86.7346 40.4338 87.4567 40.0537 87.984C39.5435 88.6918 38.5095 88.7469 37.9271 88.0973L37.2805 87.3762C36.9715 87.0316 36.5304 86.8347 36.0675 86.8347H28.6623C26.7262 86.8347 25.3635 86.7239 23.498 83.8545L36.2056 83.8568C37.1741 83.8568 38.0985 84.2606 38.7563 84.971Z" fill="#D6C3FF"/>
<path d="M39.9763 83.8072C39.9356 83.8072 39.8945 83.7948 39.8587 83.7692C39.7687 83.7042 39.7483 83.5784 39.8131 83.4881C40.1491 83.0219 40.0852 82.4381 39.6464 81.9644L38.6945 80.9365C37.9677 80.1514 36.9372 79.7014 35.8672 79.7014H33.2472C33.1359 79.7014 33.0459 79.6113 33.0459 79.5001C33.0459 79.3889 33.1359 79.2988 33.2472 79.2988H35.8672C37.0488 79.2988 38.1871 79.7961 38.9898 80.6629L39.9417 81.6909C40.5097 82.3041 40.5875 83.1022 40.1398 83.7236C40.1005 83.7781 40.0387 83.8072 39.9763 83.8072Z" fill="black"/>
<path d="M40.068 86.6212C40.0273 86.6212 39.9861 86.6088 39.9505 86.5833C39.8602 86.5182 39.84 86.3924 39.9049 86.3022L40.2691 85.7971C40.6255 85.3027 40.5834 84.6191 40.1694 84.1719L39.0273 82.9386C38.4211 82.2838 37.5614 81.9084 36.6689 81.9084H33.2228C33.1115 81.9084 33.0215 81.8184 33.0215 81.7071C33.0215 81.5959 33.1115 81.5059 33.2228 81.5059H36.6689C37.6733 81.5059 38.6405 81.9283 39.3226 82.6649L40.4647 83.8983C41.0086 84.4856 41.0636 85.3833 40.5958 86.0325L40.2316 86.5376C40.1921 86.5921 40.1305 86.6212 40.068 86.6212Z" fill="black"/>
<path d="M38.9437 88.7519C38.4982 88.7519 38.0771 88.5645 37.7777 88.2306L37.131 87.5095C36.8606 87.2077 36.4729 87.0348 36.0679 87.0348H27.8778C26.3858 87.0348 24.9944 86.2969 24.1559 85.061C24.0934 84.969 24.1174 84.8439 24.2094 84.7815C24.3013 84.7189 24.4265 84.743 24.4888 84.835C25.2524 85.9604 26.5194 86.6323 27.8778 86.6323H36.0679C36.5873 86.6323 37.0839 86.854 37.4307 87.2406L38.0774 87.9617C38.3142 88.2262 38.6568 88.3686 39.0073 88.3476C39.3614 88.3287 39.6836 88.153 39.891 87.8652C40.2137 87.4172 40.1756 86.7981 39.8006 86.3933L38.6093 85.1066C37.9913 84.4395 37.1155 84.0568 36.2063 84.0568H33.3387C33.2275 84.0568 33.1375 83.9668 33.1375 83.8556C33.1375 83.7444 33.2275 83.6543 33.3387 83.6543H36.2063C37.2274 83.6543 38.2108 84.0839 38.9045 84.833L40.0958 86.1196C40.6006 86.6647 40.6518 87.4977 40.2177 88.1005C39.9386 88.4877 39.5052 88.7241 39.0288 88.7495C39.0003 88.751 38.972 88.7519 38.9437 88.7519Z" fill="black"/>
<path d="M7.39357 87.0475C5.79006 87.0475 4.28272 86.4234 3.14863 85.2901C2.01435 84.1564 1.38965 82.6491 1.38965 81.0458V72.2988H11.5278V76.2065C11.5278 76.6524 11.7016 77.0719 12.0171 77.3872C12.3326 77.7024 12.752 77.876 13.1981 77.876C13.1983 77.876 13.1983 77.876 13.1985 77.876H24.3198C25.1494 77.876 25.7821 77.7017 26.5147 77.4997C27.3722 77.2632 28.3442 76.9953 29.8097 76.9953H34.4059C35.9742 76.9953 37.4849 77.6553 38.5504 78.8059L39.089 79.3876C39.5587 79.895 39.6725 80.6269 39.3789 81.2518C39.3316 81.3527 39.211 81.3955 39.1112 81.3486C39.0106 81.3012 38.9673 81.1813 39.0145 81.0809C39.2381 80.6048 39.1514 80.0476 38.7938 79.6612L38.2552 79.0796C37.2656 78.0108 35.8626 77.3979 34.406 77.3979H29.8098C28.3987 77.3979 27.4953 77.6469 26.6219 77.8877C25.8927 78.0888 25.204 78.2787 24.3199 78.2787H13.1986C13.1984 78.2787 13.1984 78.2787 13.1982 78.2787C12.6445 78.2787 12.1241 78.0632 11.7328 77.6719C11.3411 77.2806 11.1254 76.7604 11.1254 76.2066V72.7015H1.79228V81.046C1.79228 82.5418 2.37502 83.9481 3.43329 85.0056C4.4911 86.063 5.89763 86.6452 7.39366 86.6452C7.39403 86.6452 7.39448 86.6452 7.39485 86.6452H30.7045C30.8158 86.6452 30.9058 86.7353 30.9058 86.8465C30.9058 86.9577 30.8158 87.0477 30.7045 87.0477H7.39476C7.39457 87.0475 7.39403 87.0475 7.39357 87.0475Z" fill="black"/>
<path d="M104.704 64.0387C103.324 64.0387 101.924 63.7636 100.582 63.1824C98.0407 62.0811 96.0858 60.0584 95.0775 57.4869C94.0695 54.916 94.1287 52.1043 95.2443 49.5698C97.5467 44.3384 103.687 41.9318 108.932 44.2038C111.474 45.3053 113.429 47.3279 114.437 49.8995C115.445 52.4704 115.386 55.2821 114.27 57.8166C112.557 61.7096 108.718 64.0387 104.704 64.0387ZM104.81 43.7497C100.951 43.7497 97.2602 45.9888 95.6128 49.732C95.6128 49.7321 95.6128 49.7321 95.6128 49.7321C94.5408 52.1677 94.4838 54.8697 95.4524 57.3401C96.4212 59.8109 98.2998 61.7547 100.742 62.813C105.784 64.9976 111.688 62.6838 113.902 57.6543C114.974 55.2186 115.031 52.5168 114.062 50.0464C113.094 47.5756 111.215 45.6318 108.772 44.5734C107.483 44.0144 106.136 43.7497 104.81 43.7497Z" fill="black"/>
<path d="M108.583 60.2917L97.8027 55.6207L101.306 47.6602L112.086 52.3312L108.583 60.2917Z" fill="#8D58FF"/>
<path d="M108.583 60.4933C108.556 60.4933 108.529 60.488 108.503 60.4768L97.7228 55.8058C97.6736 55.7843 97.6349 55.7445 97.6155 55.6946C97.5959 55.6447 97.597 55.589 97.6187 55.5401L101.122 47.5796C101.166 47.4784 101.285 47.4312 101.386 47.4758L112.166 52.1467C112.216 52.1681 112.254 52.208 112.274 52.2579C112.293 52.3078 112.292 52.3635 112.271 52.4125L108.767 60.3733C108.734 60.4485 108.66 60.4933 108.583 60.4933ZM98.0686 55.5168L108.479 60.0279L111.821 52.4355L101.41 47.9246L98.0686 55.5168Z" fill="black"/>
<path d="M104.842 54.5539C104.775 54.5539 104.712 54.5205 104.674 54.4631L102.197 50.6946C102.136 50.6018 102.162 50.477 102.255 50.4159C102.348 50.3549 102.472 50.3806 102.534 50.4736L104.938 54.1323L109.279 53.396C109.389 53.3789 109.493 53.4512 109.511 53.5608C109.53 53.6703 109.456 53.7743 109.347 53.7929L104.876 54.551C104.865 54.5529 104.853 54.5539 104.842 54.5539Z" fill="black"/>
<path d="M119.629 67.5483L101.434 76.1357L110.021 94.3307L128.216 85.7433L119.629 67.5483Z" fill="#D6C3FF"/>
<path d="M126.232 85.0333L110.741 92.3443L112.454 85.5811L115.737 86.7248L117.103 79.2617L126.232 85.0333Z" fill="white"/>
<path d="M112.251 79.2658C112.699 80.2161 112.292 81.3501 111.342 81.7986C110.392 82.2471 109.258 81.8403 108.809 80.89C108.361 79.9397 108.768 78.8058 109.718 78.3573C110.668 77.9087 111.802 78.3156 112.251 79.2658Z" fill="white"/>
</svg>
