<svg width="191" height="117" viewBox="0 0 191 117" fill="none" xmlns="http://www.w3.org/2000/svg">
<path d="M185.634 102.68C185.166 104.223 184.619 105.698 184.007 107.106H17.2493C15.0951 104.797 12.9971 102.085 11.138 98.9173C9.14174 95.515 -0.306788 78.4163 6.65869 62.1897C10.2764 53.7621 17.1799 48.2263 21.8864 44.4537C27.3677 40.06 29.0909 40.1898 35.1446 35.8535C44.8837 28.8791 46.7517 24.0118 53.7761 17.2218C58.9858 12.1862 69.1263 2.38361 83.1575 0.381453C98.282 -1.77706 116.098 5.38754 124.721 17.7589C130.349 25.831 128.557 31.0923 135.471 36.5706C142.963 42.5076 148.359 38.9386 158.761 43.3781C173.507 49.6722 180.247 64.3498 182.052 68.2817C184.061 72.6577 190.491 86.6624 185.634 102.68Z" fill="#ECE7FC"/>
<path d="M70.6251 51.01V52.4676H29.7666V51.01C29.7666 50.2488 30.3836 49.6318 31.1446 49.6318H69.2471C70.0082 49.6318 70.6251 50.2488 70.6251 51.01Z" stroke="black" stroke-width="2.8571" stroke-miterlimit="10" stroke-linecap="round" stroke-linejoin="round"/>
<path d="M69.2471 49.6318H31.1446C30.3836 49.6318 29.7666 50.2488 29.7666 51.0098V52.4675V75.0501C29.7666 75.808 30.381 76.4225 31.139 76.4225H69.2528C70.0107 76.4225 70.6252 75.808 70.6252 75.0501V52.4675V51.0098C70.6251 50.2488 70.0082 49.6318 69.2471 49.6318Z" stroke="black" stroke-width="2.8571" stroke-miterlimit="10"/>
<path d="M68.4722 57.5361V73.8093H31.5615V63.1937C32.3681 64.2781 33.3658 65.2157 34.4834 65.9781C35.6799 66.7926 37.0375 67.5772 38.4976 67.8076C39.9641 68.0412 41.2395 67.3357 42.2087 66.2843C43.3136 65.0846 44.0983 63.585 44.9222 62.1864C45.5757 61.0767 46.3413 59.956 47.4036 59.1999C48.1708 58.6522 49.1259 58.3191 50.0587 58.4501C51.5378 58.66 52.818 59.9481 53.8456 60.9394C54.5906 61.6577 55.2852 62.4249 55.9608 63.2078C56.5969 63.9419 57.192 64.6727 58.046 65.1683C59.7681 66.1675 61.5881 65.3751 62.971 64.177C63.4478 63.7634 63.885 63.3057 64.2922 62.8242C65.3325 61.5993 66.2322 60.2559 67.23 58.9979C67.6261 58.4974 68.0429 58.0113 68.4722 57.5361Z" fill="#8D58FF"/>
<path d="M31.6006 73.7011C32.0803 72.3489 32.5802 71.004 33.0855 69.6612C33.597 68.302 34.0837 66.9295 34.724 65.6238C35.2816 64.4868 35.9877 63.148 37.2295 62.6406C38.907 61.955 40.1922 63.8235 40.9922 65.002C42.0362 66.5399 43.6213 69.6092 45.9576 68.8963C47.3687 68.4657 47.9647 66.6916 48.5786 65.5166C49.2053 64.3171 49.751 63.0799 50.3043 61.8457C50.8201 60.6954 51.4107 59.5439 52.3235 58.654C52.6295 58.3557 52.9784 58.0855 53.3869 57.9601C54.8996 57.4957 55.9876 59.374 56.4631 60.5085C57.0248 61.849 57.2714 63.2931 57.5076 64.7185C57.6932 65.8387 58.2152 67.3396 59.4077 67.7355C61.3941 68.395 62.8752 65.5314 63.8392 64.2829C64.1866 63.833 64.4968 63.3028 65.1422 63.3632C65.6851 63.414 66.1683 63.8466 66.4699 64.2731C66.9975 65.019 67.2569 65.9309 67.4522 66.8125C67.9442 69.0326 68.0693 71.2926 68.2266 73.5544" stroke="black" stroke-width="2.8571" stroke-miterlimit="10"/>
<path d="M32.5327 51.05C32.5327 51.3182 32.3153 51.5356 32.0471 51.5356C31.779 51.5356 31.5615 51.3182 31.5615 51.05C31.5615 50.7819 31.779 50.5645 32.0471 50.5645C32.3154 50.5645 32.5327 50.7819 32.5327 51.05Z" fill="#8D58FF"/>
<path d="M34.3286 51.05C34.3286 51.3182 34.1112 51.5356 33.843 51.5356C33.5748 51.5356 33.3574 51.3182 33.3574 51.05C33.3574 50.7819 33.5748 50.5645 33.843 50.5645C34.1113 50.5645 34.3286 50.7819 34.3286 51.05Z" fill="#8D58FF"/>
<path d="M36.1255 51.05C36.1255 51.3182 35.908 51.5356 35.6399 51.5356C35.3717 51.5356 35.1543 51.3182 35.1543 51.05C35.1543 50.7819 35.3717 50.5645 35.6399 50.5645C35.908 50.5645 36.1255 50.7819 36.1255 51.05Z" fill="#8D58FF"/>
<path d="M108.472 13.5966L106.417 12.9244C106.24 12.233 105.966 11.5813 105.609 10.9828L106.59 9.05216C106.678 8.87683 106.645 8.66675 106.507 8.52862L105.475 7.49775C105.338 7.36016 105.127 7.32594 104.953 7.41473L104.193 7.80013L103.021 8.3939C102.769 8.24415 102.508 8.10826 102.237 7.98878C101.866 7.82454 101.48 7.68928 101.081 7.58707L100.408 5.53343C100.347 5.34713 100.175 5.22168 99.98 5.22168H98.5213C98.5004 5.22168 98.4807 5.22338 98.4598 5.2269C98.2903 5.24896 98.1487 5.3662 98.0936 5.53279L97.422 7.58707C96.7307 7.76357 96.0794 8.03866 95.4804 8.3939L94.6805 7.98878L93.5497 7.41473C93.3744 7.32701 93.1643 7.36016 93.0262 7.49775L92.7244 7.79896L91.9953 8.52916C91.8566 8.66675 91.8235 8.87683 91.9123 9.05098L92.8921 10.9828C92.5357 11.5813 92.2612 12.2331 92.0853 12.9244L90.0305 13.596C89.8442 13.657 89.7188 13.8293 89.7188 14.0244V15.483C89.7188 15.6776 89.843 15.8499 90.0299 15.9102L92.0841 16.583C92.2612 17.2737 92.5357 17.9256 92.8921 18.5234L91.9123 20.4546C91.8235 20.6299 91.8566 20.84 91.9953 20.9776L92.7244 21.7066L93.0262 22.009C93.1643 22.1472 93.3739 22.1803 93.5487 22.092L94.6806 21.518L95.4805 21.1128C96.0795 21.4681 96.7308 21.7438 97.4221 21.9197L98.0931 23.974C98.1477 24.1405 98.2905 24.2573 98.4588 24.2798C98.4797 24.2834 98.5006 24.2851 98.5215 24.2851H99.9802C100.175 24.2851 100.347 24.1608 100.408 23.9751L101.081 21.9198C101.481 21.8176 101.867 21.6823 102.238 21.5181C102.508 21.3985 102.769 21.2627 103.021 21.113L104.194 21.7079L104.952 22.0921C105.127 22.1804 105.338 22.1473 105.475 22.0091L106.507 20.9776C106.645 20.84 106.678 20.6299 106.59 20.4558L105.609 18.5234C105.966 17.9255 106.24 17.2737 106.417 16.583L108.471 15.9108C108.657 15.8498 108.783 15.6774 108.783 15.4824V14.0237C108.783 13.8288 108.658 13.657 108.472 13.5966ZM99.2503 18.9722C96.9244 18.9722 95.0309 17.081 95.0309 14.7523C95.0309 12.4265 96.9244 10.5353 99.2503 10.5353C101.577 10.5353 103.47 12.4265 103.47 14.7523C103.47 17.0811 101.577 18.9722 99.2503 18.9722Z" fill="#8D58FF"/>
<path d="M107.506 12.7518L105.452 12.0796C105.274 11.3883 105 10.7364 104.644 10.138L105.624 8.20732C105.712 8.03199 105.679 7.82192 105.541 7.68379L104.509 6.65292C104.372 6.51532 104.162 6.48111 103.988 6.56989L103.228 6.9553L102.055 7.54907C101.803 7.39932 101.542 7.26353 101.272 7.14395C100.901 6.9797 100.515 6.84445 100.115 6.74224L99.4426 4.6886C99.3817 4.50229 99.2093 4.37695 99.0143 4.37695H97.5556C97.5347 4.37695 97.515 4.37866 97.4941 4.38218C97.3246 4.40424 97.183 4.52148 97.1278 4.68807L96.4562 6.74234C95.7649 6.91884 95.1136 7.19394 94.5146 7.54918L93.7147 7.14405L92.5839 6.57C92.4086 6.48239 92.1985 6.51543 92.0604 6.65303L91.7586 6.95423L91.0295 7.68443C90.8908 7.82203 90.8577 8.0321 90.9465 8.20626L91.9263 10.138C91.5699 10.7364 91.2953 11.3883 91.1195 12.0796L89.0647 12.7512C88.8784 12.8121 88.7529 12.9845 88.7529 13.1795V14.6382C88.7529 14.8326 88.8772 15.0051 89.064 15.0654L91.1183 15.7381C91.2953 16.4289 91.5699 17.0808 91.9263 17.6787L90.9465 19.6099C90.8577 19.7852 90.8908 19.9953 91.0295 20.1329L91.7586 20.8619L92.0604 21.1643C92.1985 21.3024 92.4082 21.3355 92.5829 21.2473L93.7148 20.6732L94.5147 20.2681C95.1137 20.6234 95.765 20.8991 96.4563 21.075L97.1273 23.1291C97.1819 23.2957 97.3247 23.4124 97.493 23.435C97.5139 23.4385 97.5348 23.4402 97.5557 23.4402H99.0144C99.2094 23.4402 99.3812 23.316 99.4422 23.1303L100.115 21.075C100.515 20.9727 100.901 20.8375 101.272 20.6732C101.542 20.5537 101.804 20.4179 102.055 20.2681L103.228 20.8631L103.986 21.2473C104.161 21.3355 104.372 21.3025 104.51 21.1643L105.542 20.1328C105.679 19.9952 105.712 19.7851 105.624 19.6109L104.644 17.6786C105 17.0807 105.275 16.4288 105.452 15.738L107.505 15.0658C107.692 15.0049 107.817 14.8325 107.817 14.6375V13.1788C107.817 12.9839 107.693 12.8121 107.506 12.7518ZM98.2846 18.1274C95.9588 18.1274 94.0652 16.2363 94.0652 13.9075C94.0652 11.5816 95.9587 9.69042 98.2846 9.69042C100.611 9.69042 102.505 11.5815 102.505 13.9075C102.505 16.2363 100.611 18.1274 98.2846 18.1274Z" fill="white"/>
<path d="M107.506 12.7518L105.452 12.0796C105.274 11.3883 105 10.7364 104.644 10.138L105.624 8.20732C105.712 8.03199 105.679 7.82192 105.541 7.68379L104.509 6.65292C104.372 6.51532 104.162 6.48111 103.988 6.56989L103.228 6.9553L102.055 7.54907C101.803 7.39932 101.542 7.26353 101.272 7.14395C100.901 6.9797 100.515 6.84445 100.115 6.74224L99.4426 4.6886C99.3817 4.50229 99.2093 4.37695 99.0143 4.37695H97.5556C97.5347 4.37695 97.515 4.37866 97.4941 4.38218C97.3246 4.40424 97.183 4.52148 97.1278 4.68807L96.4562 6.74234C95.7649 6.91884 95.1136 7.19394 94.5146 7.54918L93.7147 7.14405L92.5839 6.57C92.4086 6.48239 92.1985 6.51543 92.0604 6.65303L91.7586 6.95423L91.0295 7.68443C90.8908 7.82203 90.8577 8.0321 90.9465 8.20626L91.9263 10.138C91.5699 10.7364 91.2953 11.3883 91.1195 12.0796L89.0647 12.7512C88.8784 12.8121 88.7529 12.9845 88.7529 13.1795V14.6382C88.7529 14.8326 88.8772 15.0051 89.064 15.0654L91.1183 15.7381C91.2953 16.4289 91.5699 17.0808 91.9263 17.6787L90.9465 19.6099C90.8577 19.7852 90.8908 19.9953 91.0295 20.1329L91.7586 20.8619L92.0604 21.1643C92.1985 21.3024 92.4082 21.3355 92.5829 21.2473L93.7148 20.6732L94.5147 20.2681C95.1137 20.6234 95.765 20.8991 96.4563 21.075L97.1273 23.1291C97.1819 23.2957 97.3247 23.4124 97.493 23.435C97.5139 23.4385 97.5348 23.4402 97.5557 23.4402H99.0144C99.2094 23.4402 99.3812 23.316 99.4422 23.1303L100.115 21.075C100.515 20.9727 100.901 20.8375 101.272 20.6732C101.542 20.5537 101.804 20.4179 102.055 20.2681L103.228 20.8631L103.986 21.2473C104.161 21.3355 104.372 21.3025 104.51 21.1643L105.542 20.1328C105.679 19.9952 105.712 19.7851 105.624 19.6109L104.644 17.6786C105 17.0807 105.275 16.4288 105.452 15.738L107.505 15.0658C107.692 15.0049 107.817 14.8325 107.817 14.6375V13.1788C107.817 12.9839 107.693 12.8121 107.506 12.7518ZM98.2846 18.1274C95.9588 18.1274 94.0652 16.2363 94.0652 13.9075C94.0652 11.5816 95.9587 9.69042 98.2846 9.69042C100.611 9.69042 102.505 11.5815 102.505 13.9075C102.505 16.2363 100.611 18.1274 98.2846 18.1274Z" stroke="black" stroke-width="2.8571" stroke-miterlimit="10" stroke-linecap="round"/>
<path d="M190.684 107.105H105.104H0.860352" stroke="black" stroke-width="2.8571" stroke-miterlimit="10"/>
<path opacity="0.35" d="M101.647 96.0348H63.8106C63.09 96.0348 62.5059 95.4506 62.5059 94.7301V71.5636C62.5059 70.843 63.09 70.2588 63.8106 70.2588H101.647C102.368 70.2588 102.952 70.843 102.952 71.5636V94.73C102.952 95.4506 102.368 96.0348 101.647 96.0348Z" fill="#8D58FF"/>
<path d="M100.429 94.816H62.5929C61.8723 94.816 61.2881 94.2318 61.2881 93.5112V70.3448C61.2881 69.6242 61.8723 69.04 62.5929 69.04H100.429C101.15 69.04 101.734 69.6242 101.734 70.3448V93.5112C101.734 94.2318 101.15 94.816 100.429 94.816Z" fill="white"/>
<path d="M100.429 94.816H62.5929C61.8723 94.816 61.2881 94.2318 61.2881 93.5112V70.3448C61.2881 69.6242 61.8723 69.04 62.5929 69.04H100.429C101.15 69.04 101.734 69.6242 101.734 70.3448V93.5112C101.734 94.2318 101.15 94.816 100.429 94.816Z" stroke="black" stroke-width="2.8571" stroke-miterlimit="10"/>
<path d="M66.3257 83.5645H64.0342V91.8863H66.3257V83.5645Z" fill="black"/>
<path d="M74.4909 76.833H72.1992V91.8858H74.4909V76.833Z" fill="black"/>
<path d="M70.6777 80.209H67.8467V91.8858H70.6777V80.209Z" fill="#8D58FF"/>
<path d="M82.6568 86.1904H80.3652V91.8856H82.6568V86.1904Z" fill="black"/>
<path d="M78.5737 86.1904H76.2822V91.8856H78.5737V86.1904Z" fill="#8D58FF"/>
<path d="M90.8218 82.5586H88.5303V91.8853H90.8218V82.5586Z" fill="black"/>
<path d="M86.7398 74.4619H84.4482V91.8856H86.7398V74.4619Z" fill="#8D58FF"/>
<path d="M94.9048 72.1445H92.6133V91.8855H94.9048V72.1445Z" fill="#8D58FF"/>
<path d="M98.9878 85.3867H96.6963V91.886H98.9878V85.3867Z" fill="black"/>
<path d="M65.3779 71.9717H81.1011" stroke="black" stroke-width="2.8571" stroke-miterlimit="10"/>
<path d="M65.3779 73.6016H76.5739" stroke="black" stroke-width="2.8571" stroke-miterlimit="10"/>
<path d="M65.3779 75.2334H76.5739" stroke="black" stroke-width="2.8571" stroke-miterlimit="10"/>
<path opacity="0.35" d="M68.0874 36.5399H28.2806C27.5141 36.5399 26.8926 35.9185 26.8926 35.1519V10.7717C26.8926 10.0052 27.514 9.38379 28.2805 9.38379H68.0873C68.8539 9.38379 69.4752 10.0052 69.4752 10.7717V35.1519C69.4755 35.9184 68.854 36.5399 68.0874 36.5399Z" fill="#8D58FF"/>
<path d="M66.4067 34.8582H26.5998C25.8333 34.8582 25.2119 34.2368 25.2119 33.4702V9.09007C25.2119 8.32352 25.8333 7.70215 26.5998 7.70215H66.4067C67.1732 7.70215 67.7947 8.32352 67.7947 9.09007V33.4702C67.7947 34.2368 67.1732 34.8582 66.4067 34.8582Z" fill="white"/>
<path d="M66.4067 34.8582H26.5998C25.8333 34.8582 25.2119 34.2368 25.2119 33.4702V9.09007C25.2119 8.32352 25.8333 7.70215 26.5998 7.70215H66.4067C67.1732 7.70215 67.7947 8.32352 67.7947 9.09007V33.4702C67.7947 34.2368 67.1732 34.8582 66.4067 34.8582Z" stroke="black" stroke-miterlimit="10"/>
<path d="M29.5029 10.9951H41.6722" stroke="black" stroke-miterlimit="10"/>
<path d="M29.5029 12.4854H41.6722" stroke="black" stroke-miterlimit="10"/>
<path d="M29.5029 13.9766H46.9074" stroke="black" stroke-miterlimit="10"/>
<path d="M29.5029 15.4678H46.9074" stroke="black" stroke-miterlimit="10"/>
<path d="M40.3117 30.9227C39.644 31.2519 38.9066 31.4639 38.1312 31.5367C37.9318 31.5556 37.7293 31.5652 37.5268 31.5652C37.3243 31.5652 37.1217 31.5556 36.9255 31.5367C36.09 31.4576 35.3052 31.2202 34.5963 30.8469C34.2355 30.6633 33.8969 30.4417 33.5836 30.1886C33.0108 29.7393 32.5202 29.1885 32.1374 28.5651C31.9222 28.2264 31.7418 27.8625 31.5993 27.4829C31.3525 26.8435 31.2101 26.1504 31.1879 25.4289C31.1816 25.3592 31.1816 25.2897 31.1816 25.2169C31.1816 24.8782 31.207 24.5491 31.2576 24.2232C31.3652 23.5427 31.5804 22.8972 31.8874 22.3086C32.071 21.9478 32.2894 21.606 32.5425 21.2926C32.9476 20.7737 33.4318 20.3211 33.9792 19.9541L34.7736 21.3338C34.4634 21.5491 34.1818 21.8052 33.9318 22.0933C33.666 22.3971 33.4413 22.7326 33.2608 23.0998C33.0836 23.4511 32.9507 23.8276 32.8684 24.2232C32.7956 24.5429 32.7609 24.8751 32.7609 25.2169C32.7609 25.2897 32.7609 25.3592 32.7672 25.4289C32.7861 25.8656 32.8621 26.2834 32.9918 26.679C33.1153 27.0682 33.2925 27.4353 33.5109 27.774C33.7514 28.1569 34.0489 28.5018 34.3875 28.7961C34.6882 29.0619 35.0236 29.2898 35.3876 29.4732C35.8591 29.7138 36.3782 29.8751 36.9256 29.9448C37.1218 29.9702 37.3243 29.9829 37.5269 29.9829C37.7326 29.9829 37.9319 29.9702 38.1313 29.9448C38.6218 29.8815 39.0871 29.7455 39.5175 29.546L40.3117 30.9227Z" fill="#8D58FF"/>
<path d="M43.8748 25.2166C43.8748 25.2894 43.8748 25.3589 43.8684 25.4286C43.8463 26.185 43.6912 26.9065 43.4191 27.5711V27.5742C43.2735 27.9508 43.0869 28.3116 42.8685 28.6471C42.4603 29.2831 41.9412 29.8402 41.3368 30.2928L40.5361 28.9035C40.9064 28.6061 41.2291 28.2516 41.4919 27.8529C41.7165 27.5205 41.897 27.1566 42.0299 26.7706C42.1786 26.3497 42.2672 25.897 42.2862 25.4287C42.2925 25.359 42.2925 25.2895 42.2925 25.2167C42.2925 24.8749 42.2577 24.5427 42.1849 24.223C42.0963 23.7957 41.9475 23.3906 41.7513 23.0141L43.1248 22.2197C43.4539 22.8336 43.6849 23.5077 43.7988 24.223C43.8495 24.5488 43.8748 24.8779 43.8748 25.2166Z" fill="black"/>
<path d="M42.4532 21.2132L41.0576 22.0202C40.7886 21.7228 40.4784 21.457 40.143 21.2385C39.8076 21.0138 39.4436 20.8366 39.0575 20.7069C38.76 20.6025 38.4498 20.5297 38.1302 20.4885C37.9308 20.4632 37.7315 20.4505 37.5258 20.4505C37.3233 20.4505 37.1207 20.4632 36.9244 20.4885C36.5447 20.536 36.1807 20.6277 35.8358 20.7637L35.0352 19.3776C35.6237 19.1245 36.2599 18.9599 36.9244 18.8966C37.1207 18.8776 37.3232 18.8682 37.5258 18.8682C37.7283 18.8682 37.9308 18.8775 38.1302 18.8966C38.7378 18.9536 39.317 19.0961 39.8613 19.3143C40.2411 19.46 40.5986 19.6468 40.9373 19.8619C41.5132 20.229 42.0228 20.6848 42.4532 21.2132Z" fill="#8D58FF"/>
<path d="M47.2143 21.8377C47.4836 21.8377 47.702 21.6194 47.702 21.35C47.702 21.0807 47.4836 20.8623 47.2143 20.8623C46.9449 20.8623 46.7266 21.0807 46.7266 21.35C46.7266 21.6194 46.9449 21.8377 47.2143 21.8377Z" stroke="black" stroke-miterlimit="10"/>
<path d="M49.2344 21.3506H63.5037" stroke="black" stroke-miterlimit="10"/>
<path d="M47.2143 24.4159C47.4836 24.4159 47.702 24.1975 47.702 23.9282C47.702 23.6588 47.4836 23.4404 47.2143 23.4404C46.9449 23.4404 46.7266 23.6588 46.7266 23.9282C46.7266 24.1975 46.9449 24.4159 47.2143 24.4159Z" stroke="black" stroke-miterlimit="10"/>
<path d="M49.2344 23.9277H63.5037" stroke="black" stroke-miterlimit="10"/>
<path d="M47.2143 26.993C47.4836 26.993 47.702 26.7747 47.702 26.5053C47.702 26.2359 47.4836 26.0176 47.2143 26.0176C46.9449 26.0176 46.7266 26.2359 46.7266 26.5053C46.7266 26.7747 46.9449 26.993 47.2143 26.993Z" stroke="black" stroke-miterlimit="10"/>
<path d="M49.2344 26.5059H63.5037" stroke="black" stroke-miterlimit="10"/>
<path d="M47.702 29.0834C47.702 29.3528 47.4836 29.5711 47.2143 29.5711C46.9449 29.5711 46.7266 29.3528 46.7266 29.0834C46.7266 28.8141 46.9449 28.5957 47.2143 28.5957C47.4836 28.5957 47.702 28.8141 47.702 29.0834Z" stroke="black" stroke-miterlimit="10"/>
<path d="M49.2344 29.084H63.5037" stroke="black" stroke-miterlimit="10"/>
<path opacity="0.35" d="M113.14 61.0916H64.3664C63.4376 61.0916 62.6846 60.3386 62.6846 59.4097V29.5471C62.6846 28.6182 63.4376 27.8652 64.3664 27.8652H113.14C114.068 27.8652 114.821 28.6182 114.821 29.5471V59.4098C114.821 60.3385 114.068 61.0916 113.14 61.0916Z" fill="#8D58FF"/>
<path d="M111.769 59.4169H62.9963C62.0675 59.4169 61.3145 58.6639 61.3145 57.735V27.8723C61.3145 26.9434 62.0675 26.1904 62.9963 26.1904H111.769C112.698 26.1904 113.451 26.9434 113.451 27.8723V57.735C113.451 58.6639 112.698 59.4169 111.769 59.4169Z" fill="white"/>
<path d="M111.769 59.4169H62.9963C62.0675 59.4169 61.3145 58.6639 61.3145 57.735V27.8723C61.3145 26.9434 62.0675 26.1904 62.9963 26.1904H111.769C112.698 26.1904 113.451 26.9434 113.451 27.8723V57.735C113.451 58.6639 112.698 59.4169 111.769 59.4169Z" stroke="black" stroke-miterlimit="10"/>
<path d="M67.8084 44.9111H64.8545V55.6384H67.8084V44.9111Z" fill="black"/>
<path d="M78.3338 36.2354H75.3799V55.6392H78.3338V36.2354Z" fill="black"/>
<path d="M73.4188 40.5869H69.7695V55.6388H73.4188V40.5869Z" fill="#8D58FF"/>
<path d="M88.8601 48.2969H85.9062V55.6383H88.8601V48.2969Z" fill="black"/>
<path d="M83.5965 48.2969H80.6426V55.6383H83.5965V48.2969Z" fill="#8D58FF"/>
<path d="M99.3855 43.6162H96.4316V55.6389H99.3855V43.6162Z" fill="black"/>
<path d="M94.1228 33.1787H91.1689V55.6388H94.1228V33.1787Z" fill="#8D58FF"/>
<path d="M104.648 30.1924H101.694V55.6393H104.648V30.1924Z" fill="#8D58FF"/>
<path d="M109.912 47.2607H106.958V55.6387H109.912V47.2607Z" fill="black"/>
<path d="M164.178 58.84V61.0859H135.608V58.84C135.608 57.7773 136.471 56.915 137.533 56.915H162.253C163.316 56.9149 164.178 57.7773 164.178 58.84Z" stroke="black" stroke-miterlimit="10" stroke-linecap="round" stroke-linejoin="round"/>
<path d="M138.643 59.6081C138.979 59.6081 139.251 59.336 139.251 59.0003C139.251 58.6647 138.979 58.3926 138.643 58.3926C138.307 58.3926 138.035 58.6647 138.035 59.0003C138.035 59.336 138.307 59.6081 138.643 59.6081Z" fill="#8D58FF"/>
<path d="M141.17 59.0003C141.17 59.3359 140.897 59.6081 140.562 59.6081C140.226 59.6081 139.954 59.3359 139.954 59.0003C139.954 58.6647 140.226 58.3926 140.562 58.3926C140.898 58.3926 141.17 58.6647 141.17 59.0003Z" fill="#8D58FF"/>
<path d="M143.088 59.0003C143.088 59.3359 142.815 59.6081 142.48 59.6081C142.144 59.6081 141.872 59.3359 141.872 59.0003C141.872 58.6647 142.144 58.3926 142.48 58.3926C142.815 58.3926 143.088 58.6647 143.088 59.0003Z" fill="#8D58FF"/>
<path d="M164.178 61.0869V85.7138C164.178 86.7776 163.316 87.6388 162.253 87.6388H137.533C136.471 87.6388 135.608 86.7775 135.608 85.7138V61.0869H164.178Z" stroke="black" stroke-miterlimit="10" stroke-linecap="round" stroke-linejoin="round"/>
<path d="M162.253 56.915H137.533C136.471 56.915 135.608 57.7774 135.608 58.84V61.0859V85.7129C135.608 86.7767 136.471 87.6378 137.533 87.6378H162.253C163.316 87.6378 164.178 86.7765 164.178 85.7129V61.0859V58.84C164.178 57.7774 163.316 56.915 162.253 56.915Z" stroke="black" stroke-miterlimit="10" stroke-linecap="round" stroke-linejoin="round"/>
<path d="M142.83 77.1475H139.708V85.4002H142.83V77.1475Z" stroke="black" stroke-miterlimit="10" stroke-linecap="round" stroke-linejoin="round"/>
<path d="M148.58 65.1006H145.458V85.4002H148.58V65.1006Z" fill="#8D58FF"/>
<path d="M154.329 73.9473H151.207V85.4001H154.329V73.9473Z" stroke="black" stroke-miterlimit="10" stroke-linecap="round" stroke-linejoin="round"/>
<path d="M160.079 69.5635H156.957V85.4008H160.079V69.5635Z" fill="#8D58FF"/>
<path opacity="0.35" d="M162.024 37.3069H119.563C119.101 37.3069 118.727 36.9323 118.727 36.47V17.7226C118.727 17.2604 119.101 16.8857 119.563 16.8857H162.024C162.487 16.8857 162.861 17.2604 162.861 17.7226V36.47C162.861 36.9321 162.487 37.3069 162.024 37.3069Z" fill="black"/>
<path d="M160.344 35.6272H117.883C117.421 35.6272 117.046 35.2526 117.046 34.7903V16.0429C117.046 15.5808 117.421 15.2061 117.883 15.2061H160.344C160.806 15.2061 161.181 15.5807 161.181 16.0429V34.7903C161.181 35.2525 160.806 35.6272 160.344 35.6272Z" fill="#8D58FF"/>
<path d="M160.344 35.6272H117.883C117.421 35.6272 117.046 35.2526 117.046 34.7903V16.0429C117.046 15.5808 117.421 15.2061 117.883 15.2061H160.344C160.806 15.2061 161.181 15.5807 161.181 16.0429V34.7903C161.181 35.2525 160.806 35.6272 160.344 35.6272Z" stroke="black" stroke-miterlimit="10"/>
<path opacity="0.25" d="M120.476 21.7862L122.416 22.9067C122.856 22.1456 123.491 21.51 124.253 21.0698C124.991 20.6407 125.848 20.3958 126.762 20.3958C127.676 20.3958 128.533 20.6408 129.272 21.0698C130.033 21.5101 130.669 22.1456 131.109 22.9067C131.538 23.6454 131.783 24.5023 131.783 25.4164H134.021C134.021 24.0931 133.668 22.8533 133.05 21.7862C132.412 20.6843 131.494 19.7665 130.392 19.1285C129.325 18.5104 128.085 18.1572 126.762 18.1572C125.44 18.1572 124.2 18.5104 123.132 19.1285C122.03 19.7665 121.112 20.6843 120.476 21.7862Z" fill="white"/>
<path opacity="0.45" d="M119.502 25.4163C119.502 26.7396 119.856 27.9796 120.475 29.0466C121.111 30.1484 122.029 31.0662 123.131 31.7042L124.251 29.7629C123.49 29.3226 122.855 28.6872 122.415 27.926C121.986 27.1873 121.741 26.3304 121.741 25.4163C121.741 24.5023 121.986 23.6454 122.415 22.9066L120.475 21.7861C119.856 22.8532 119.502 24.0931 119.502 25.4163Z" fill="white"/>
<path d="M123.131 31.7039C124.199 32.3219 125.439 32.6752 126.761 32.6752C128.084 32.6752 129.324 32.3219 130.391 31.7039C131.493 31.0659 132.411 30.1481 133.049 29.0462C133.667 27.9791 134.02 26.7392 134.02 25.416H131.782C131.782 26.3301 131.537 27.187 131.108 27.9257C130.667 28.6868 130.032 29.3224 129.271 29.7626C128.532 30.1917 127.675 30.4366 126.761 30.4366C125.847 30.4366 124.99 30.1916 124.251 29.7626L123.131 31.7039Z" fill="white"/>
<path d="M136.459 18.1572H158.725" stroke="white" stroke-miterlimit="10"/>
<path d="M136.459 19.9717H158.725" stroke="white" stroke-miterlimit="10"/>
<path d="M136.459 21.7861H158.725" stroke="white" stroke-miterlimit="10"/>
<path d="M136.459 23.6006H158.725" stroke="white" stroke-miterlimit="10"/>
<path d="M136.459 25.416H158.725" stroke="white" stroke-miterlimit="10"/>
<path d="M136.459 27.2314H158.725" stroke="white" stroke-miterlimit="10"/>
<path d="M136.459 29.0459H158.725" stroke="white" stroke-miterlimit="10"/>
<path d="M136.459 30.8613H158.725" stroke="white" stroke-miterlimit="10"/>
<path d="M136.459 32.6748H158.725" stroke="white" stroke-miterlimit="10"/>
<path d="M136.441 90.87C135.52 90.9864 134.578 91.0964 133.615 91.1972C128.665 91.7171 123.168 92.0142 117.211 91.9005C113.624 91.8324 110.225 91.6221 107.034 91.3147C106.161 91.231 105.304 91.1398 104.462 91.0422L104.8 89.1755L104.801 89.1717L109.472 70.464C109.789 70.2736 110.068 70.0993 110.301 69.9539C112.034 68.8725 113.374 67.7777 114.321 66.9248C114.023 67.1629 101.852 76.8221 88.795 69.8241V69.8246C87.5741 69.1632 86.261 68.3308 84.9189 67.2804C85.1566 67.2144 85.5148 67.0991 85.9232 66.8985C86.4901 66.6206 87.1521 66.1786 87.7126 65.4781C88.8042 64.1146 88.9135 62.5198 88.795 61.3713C88.7076 60.5222 88.4952 59.9171 88.4636 59.8308C89.1244 60.5088 90.1849 61.4684 91.6777 62.324C93.009 63.0872 94.7652 64.0936 97.1146 64.0662C99.1584 64.0426 100.663 63.2476 102.071 62.5041C103.561 61.7172 104.537 60.8906 106.036 59.6204C106.14 59.5319 106.239 59.4472 106.334 59.3646C108.364 57.6095 108.369 57.205 109.85 56.2266C110.347 55.8983 111.026 55.4563 111.905 55.0674C112.544 54.7837 113.289 54.5283 114.146 54.3642C115.547 54.0954 116.794 54.1576 117.765 54.3111C117.717 54.6818 117.668 55.0518 117.619 55.4225C118.589 55.4816 119.586 55.5223 120.61 55.541C123.56 55.5952 126.322 55.4606 128.868 55.209C128.851 54.7354 128.833 54.2617 128.817 53.7881C137.174 57.123 137.001 67.5035 136.896 75.0625C136.875 76.5501 137.308 90.7601 136.441 90.87Z" fill="#8D58FF"/>
<path d="M87.7126 65.4777C87.1521 66.1782 86.4901 66.6202 85.9232 66.8981C85.6029 66.6749 85.2302 66.4508 84.8043 66.2523C84.5908 66.1525 84.3639 66.0597 84.123 65.976C83.0335 65.5984 82.4783 65.7014 81.5644 65.3205C81.3026 65.2116 81.0044 65.0604 80.6852 64.841H80.6847C80.0249 64.9172 79.1671 64.8706 78.428 64.3534C78.2053 64.1979 77.3493 63.5987 77.3825 62.7308C77.3852 62.6643 77.4078 62.2518 77.6567 61.9246C77.1455 61.4488 76.9598 60.8368 77.1487 60.4216C77.3026 60.0841 77.6797 59.9276 77.9919 59.8508C77.5847 59.3574 77.5214 58.6669 77.8352 58.1435C77.994 57.8785 78.237 57.6774 78.5207 57.5604C78.2193 57.4145 77.9597 57.2729 77.7413 57.1452C77.3106 56.8932 76.9576 56.6475 76.7119 56.2087C76.6733 56.1406 76.1702 55.2179 76.5713 54.6333C76.9275 54.1135 77.9279 53.9617 78.865 54.5238C79.5472 54.8339 80.5874 55.345 81.7825 56.0998C83.2474 57.0251 84.0338 57.7406 85.8704 59.1734C86.2792 59.4926 86.7866 59.8836 87.3832 60.3305C87.8096 60.6506 88.2817 60.9994 88.795 61.371C88.9136 62.5193 88.8042 64.1141 87.7126 65.4777Z" fill="white"/>
<path d="M78.5205 57.5605C79.0607 57.8223 79.736 58.098 80.5497 58.3308L78.5205 57.5605Z" fill="black"/>
<path d="M77.9912 59.8506C78.1607 59.8093 78.3109 59.7916 78.3962 59.7814C79.0506 59.7042 79.5618 59.9482 79.7694 60.0625" fill="black"/>
<path d="M77.6562 61.9249C77.7452 61.8069 77.8644 61.6996 78.022 61.6235C78.5525 61.3676 79.0921 61.6701 79.1453 61.7013" fill="black"/>
<path d="M78.958 63.0273C79.5422 63.906 80.1434 64.4703 80.6841 64.841L78.958 63.0273Z" fill="black"/>
<path d="M85.9229 66.8988C85.5147 67.0994 85.1563 67.2147 84.9188 67.2807C84.9188 67.2807 84.7117 67.0361 84.804 66.2529C85.2298 66.4515 85.6026 66.6756 85.9229 66.8988Z" fill="black"/>
<path d="M88.7946 61.3716C88.2813 60.9998 87.8092 60.6512 87.3828 60.331C87.9723 59.9099 88.4631 59.8311 88.4631 59.8311C88.4948 59.9174 88.7072 60.5225 88.7946 61.3716Z" fill="black"/>
<path d="M111.904 55.0666C111.025 55.4555 110.346 55.8975 109.849 56.2258C108.368 57.2042 108.363 57.6087 106.333 59.3638C105.07 57.2986 103.806 55.2335 102.542 53.1689C102.872 53.1742 103.369 53.1592 103.959 53.0444C104.503 52.9393 105.126 52.7494 105.771 52.4146C107.354 51.5928 108.194 50.3494 108.559 49.6977C108.603 49.6204 108.639 49.5512 108.67 49.4922C108.935 50.4255 109.406 51.6898 110.272 53.0271C110.813 53.8623 111.385 54.5366 111.904 55.0666Z" fill="#8D58FF"/>
<path d="M103.959 53.0455C103.369 53.1603 102.872 53.1753 102.542 53.17C102.542 53.17 102.975 52.375 103.671 51.5859C103.727 52.0253 103.817 52.514 103.959 53.0455Z" fill="black"/>
<path d="M108.56 49.6983C108.194 50.3501 107.354 51.5934 105.772 52.4152C105.126 52.7499 104.503 52.9398 103.959 53.045C103.817 52.5135 103.727 52.0248 103.672 51.5855C103.614 51.1311 103.594 50.7299 103.591 50.3882C103.574 48.4625 104.108 47.3747 103.495 45.7338C103.227 45.0161 102.826 44.4229 102.77 44.3408C101.898 43.0652 101.126 42.9156 100.882 41.9377C100.855 41.8304 100.637 40.9072 101.13 40.4497C101.647 39.9691 102.615 40.3097 102.904 40.4111C103.535 40.6338 103.955 41.0091 104.392 41.4603C105.777 42.8909 106.566 44.2812 106.738 44.5891C107.08 45.2011 107.594 46.1318 108.016 47.4122C108.204 47.9802 108.417 48.7515 108.56 49.6983Z" fill="white"/>
<path d="M137.445 107.105H101.579L107.034 91.3137C110.224 91.6211 113.623 91.8314 117.21 91.8995C123.168 92.0132 128.665 91.7161 133.614 91.1963L137.445 107.105Z" fill="black"/>
<path d="M128.867 55.2083C126.321 55.4598 123.559 55.5944 120.609 55.5403C119.585 55.5215 118.587 55.4807 117.618 55.4218C117.667 55.0511 117.716 54.681 117.764 54.3103C117.818 53.8979 117.872 53.4848 117.927 53.0723C118.243 52.9982 118.572 52.9263 118.916 52.8582C120.545 52.5342 122.474 52.2923 124.643 52.2891C125.845 52.2875 126.963 52.3593 127.983 52.4747C128.253 52.5047 128.516 52.538 128.772 52.5739C128.787 52.9784 128.801 53.3828 128.816 53.7872C128.832 54.261 128.849 54.7346 128.867 55.2083Z" fill="black"/>
<path d="M127.984 52.4752C126.964 52.3599 125.846 52.288 124.644 52.2897C122.476 52.2929 120.546 52.5348 118.917 52.8588C118.941 52.6084 118.963 52.3535 118.983 52.0955C119.758 51.9356 120.463 51.5827 121.018 51.0463C121.812 50.2792 122.079 49.3507 122.177 48.862C121.66 49.1538 120.537 49.6998 119.095 49.702C118.86 49.702 118.617 49.688 118.367 49.6563C117.832 49.5882 116.889 49.4563 115.984 48.76C114.801 47.8502 114.461 46.5742 114.313 45.9889C113.997 44.7344 114.195 43.7414 114.496 42.3215C114.804 40.8694 115.239 39.8508 115.943 38.2261C116.184 37.6698 116.489 36.9967 116.863 36.2344C117.041 36.48 117.242 36.7241 117.471 36.9628C118.578 38.1188 119.827 38.6305 120.527 38.8574C120.548 40.1206 120.568 41.3838 120.588 42.647C121.041 42.0694 121.758 41.7823 122.442 41.9137C123.314 42.0811 123.704 42.8444 123.767 42.9732C124.19 43.8405 123.793 44.6827 123.706 44.8683C123.203 45.9358 122.092 46.2163 121.933 46.2539C121.999 46.4577 122.062 46.7115 122.096 47.0075C122.137 47.3588 122.123 47.6652 122.096 47.9039C122.6 48.2451 123.28 48.6345 124.134 48.943C125.319 49.3726 126.376 49.4789 127.112 49.4928C127.229 49.8361 127.344 50.1896 127.455 50.5528C127.658 51.2168 127.833 51.8589 127.984 52.4752Z" fill="white"/>
<path d="M122.177 48.8623C122.079 49.351 121.812 50.2795 121.018 51.0466C120.462 51.583 119.757 51.9359 118.982 52.0958C119.004 51.8104 119.024 51.5203 119.04 51.2258C119.068 50.706 119.086 50.198 119.095 49.7024C120.536 49.7002 121.66 49.154 122.177 48.8623Z" fill="black"/>
<path d="M131.936 42.0567C131.384 44.7296 129.94 46.5331 129.267 47.3543C128.462 48.3359 127.674 49.0392 127.111 49.493H127.111C126.375 49.479 125.318 49.3728 124.133 48.9431C123.279 48.6347 122.598 48.2452 122.095 47.9041C122.122 47.6653 122.136 47.3591 122.095 47.0077C122.061 46.7116 121.998 46.4578 121.932 46.2541C122.09 46.2165 123.202 45.936 123.704 44.8685C123.792 44.6829 124.188 43.8407 123.766 42.9733C123.703 42.8446 123.313 42.0813 122.441 41.9139C121.757 41.7825 121.04 42.0694 120.587 42.6472C120.567 41.384 120.547 40.1208 120.526 38.8575C119.826 38.6306 118.577 38.1189 117.47 36.9629C117.241 36.7242 117.04 36.4802 116.862 36.2345C115.923 34.9354 115.643 33.5857 115.453 32.6637C115.038 30.6592 115.285 28.9388 115.554 27.835C115.895 28.2566 116.436 28.8236 117.225 29.2817C118.488 30.0145 119.483 29.9425 121.484 30.1373C123.908 30.3739 125.365 30.5159 127.025 31.2579C128.152 31.7616 129.371 32.3065 130.163 33.6422C131.055 35.1453 130.863 36.7352 130.754 37.3505C131.043 37.58 131.447 37.9614 131.753 38.5321C132.397 39.7367 132.162 40.964 131.936 42.0567Z" fill="black"/>
<path d="M136.441 90.8699C135.52 90.9863 134.578 91.0963 133.615 91.1971C128.665 91.7169 123.168 92.0141 117.211 91.9004C113.624 91.8323 110.225 91.622 107.034 91.3146C106.161 91.2309 105.304 91.1397 104.462 91.0422L108.039 71.2713C107.084 71.7712 105.966 72.2743 104.774 72.6273C100.152 73.9952 95.9844 72.6327 93.2096 71.7262C91.1922 71.067 88.1394 69.8004 84.9189 67.2804C85.1565 67.2144 85.5148 67.0991 85.9231 66.8985C86.4901 66.6207 87.152 66.1787 87.7125 65.4781C88.8041 64.1146 88.9134 62.5198 88.7949 61.3713C88.7075 60.5222 88.4951 59.9171 88.4635 59.8308C89.1243 60.5088 90.1848 61.4684 91.6776 62.324C93.0089 63.0873 94.7651 64.0936 97.1145 64.0662C99.1583 64.0426 100.663 63.2476 102.071 62.5042C103.561 61.7173 104.537 60.8907 106.035 59.6205C106.14 59.532 106.239 59.4472 106.334 59.3646C108.364 57.6095 108.369 57.205 109.85 56.2266C110.347 55.8983 111.026 55.4563 111.905 55.0674C112.544 54.7837 113.289 54.5283 114.146 54.3642C115.546 54.0954 116.794 54.1576 117.765 54.3111C117.717 54.6818 117.668 55.0518 117.619 55.4225C118.588 55.4816 119.586 55.5223 120.61 55.5411C123.56 55.5952 126.322 55.4606 128.867 55.209C128.85 54.7354 128.833 54.2617 128.817 53.7881C137.174 57.123 137.001 67.5035 136.896 75.0625C136.875 76.55 137.308 90.76 136.441 90.8699Z" stroke="black" stroke-miterlimit="10" stroke-linecap="round" stroke-linejoin="round"/>
<path d="M108.038 71.2712C108.978 70.7793 109.761 70.2911 110.301 69.9538C112.036 68.8703 113.379 67.7739 114.326 66.9199" stroke="black" stroke-miterlimit="10" stroke-linecap="round" stroke-linejoin="round"/>
<path d="M87.7126 65.4777C87.1521 66.1782 86.4901 66.6202 85.9232 66.8981C85.6029 66.6749 85.2302 66.4508 84.8043 66.2523C84.5908 66.1525 84.3639 66.0597 84.123 65.976C83.0335 65.5984 82.4783 65.7014 81.5644 65.3205C81.3026 65.2116 81.0044 65.0604 80.6852 64.841H80.6847C80.0249 64.9172 79.1671 64.8706 78.428 64.3534C78.2053 64.1979 77.3493 63.5987 77.3825 62.7308C77.3852 62.6643 77.4078 62.2518 77.6567 61.9246C77.1455 61.4488 76.9598 60.8368 77.1487 60.4216C77.3026 60.0841 77.6797 59.9276 77.9919 59.8508C77.5847 59.3574 77.5214 58.6669 77.8352 58.1435C77.994 57.8785 78.237 57.6774 78.5207 57.5604C78.2193 57.4145 77.9597 57.2729 77.7413 57.1452C77.3106 56.8932 76.9576 56.6475 76.7119 56.2087C76.6733 56.1406 76.1702 55.2179 76.5713 54.6333C76.9275 54.1135 77.9279 53.9617 78.865 54.5238C79.5472 54.8339 80.5874 55.345 81.7825 56.0998C83.2474 57.0251 84.0338 57.7406 85.8704 59.1734C86.2792 59.4926 86.7866 59.8836 87.3832 60.3305C87.8096 60.6506 88.2817 60.9994 88.795 61.371C88.9136 62.5193 88.8042 64.1141 87.7126 65.4777Z" stroke="black" stroke-miterlimit="10" stroke-linecap="round" stroke-linejoin="round"/>
<path d="M78.5205 57.5605C79.0607 57.8223 79.736 58.098 80.5497 58.3308" stroke="black" stroke-miterlimit="10" stroke-linecap="round" stroke-linejoin="round"/>
<path d="M77.9912 59.8506C78.1607 59.8093 78.3109 59.7916 78.3962 59.7814C79.0506 59.7042 79.5618 59.9482 79.7694 60.0625" stroke="black" stroke-miterlimit="10" stroke-linecap="round" stroke-linejoin="round"/>
<path d="M77.6562 61.9249C77.7452 61.8069 77.8644 61.6996 78.022 61.6235C78.5525 61.3676 79.0921 61.6701 79.1453 61.7013" stroke="black" stroke-miterlimit="10" stroke-linecap="round" stroke-linejoin="round"/>
<path d="M78.958 63.0273C79.5422 63.906 80.1434 64.4703 80.6841 64.841" stroke="black" stroke-miterlimit="10" stroke-linecap="round" stroke-linejoin="round"/>
<path d="M85.9229 66.8988C85.5147 67.0994 85.1563 67.2147 84.9188 67.2807C84.9188 67.2807 84.7117 67.0361 84.804 66.2529C85.2298 66.4515 85.6026 66.6756 85.9229 66.8988Z" stroke="black" stroke-miterlimit="10" stroke-linecap="round" stroke-linejoin="round"/>
<path d="M88.7946 61.3716C88.2813 60.9998 87.8092 60.6512 87.3828 60.331C87.9723 59.9099 88.4631 59.8311 88.4631 59.8311C88.4948 59.9174 88.7072 60.5225 88.7946 61.3716Z" stroke="black" stroke-miterlimit="10" stroke-linecap="round" stroke-linejoin="round"/>
<path d="M111.904 55.0666C111.025 55.4555 110.346 55.8975 109.849 56.2258C108.368 57.2042 108.363 57.6087 106.333 59.3638C105.07 57.2986 103.806 55.2335 102.542 53.1689C102.872 53.1742 103.369 53.1592 103.959 53.0444C104.503 52.9393 105.126 52.7494 105.771 52.4146C107.354 51.5928 108.194 50.3494 108.559 49.6977C108.603 49.6204 108.639 49.5512 108.67 49.4922C108.935 50.4255 109.406 51.6898 110.272 53.0271C110.813 53.8623 111.385 54.5366 111.904 55.0666Z" stroke="black" stroke-miterlimit="10" stroke-linecap="round" stroke-linejoin="round"/>
<path d="M103.959 53.0455C103.369 53.1603 102.872 53.1753 102.542 53.17C102.542 53.17 102.975 52.375 103.671 51.5859C103.727 52.0253 103.817 52.514 103.959 53.0455Z" stroke="black" stroke-miterlimit="10" stroke-linecap="round" stroke-linejoin="round"/>
<path d="M108.56 49.6983C108.194 50.3501 107.354 51.5934 105.772 52.4152C105.126 52.7499 104.503 52.9398 103.959 53.045C103.817 52.5135 103.727 52.0248 103.672 51.5855C103.614 51.1311 103.594 50.7299 103.591 50.3882C103.574 48.4625 104.108 47.3747 103.495 45.7338C103.227 45.0161 102.826 44.4229 102.77 44.3408C101.898 43.0652 101.126 42.9156 100.882 41.9377C100.855 41.8304 100.637 40.9072 101.13 40.4497C101.647 39.9691 102.615 40.3097 102.904 40.4111C103.535 40.6338 103.955 41.0091 104.392 41.4603C105.777 42.8909 106.566 44.2812 106.738 44.5891C107.08 45.2011 107.594 46.1318 108.016 47.4122C108.204 47.9802 108.417 48.7515 108.56 49.6983Z" stroke="black" stroke-miterlimit="10" stroke-linecap="round" stroke-linejoin="round"/>
<path d="M137.445 107.105H101.579L107.034 91.3137C110.224 91.6211 113.623 91.8314 117.21 91.8995C123.168 92.0132 128.665 91.7161 133.614 91.1963L137.445 107.105Z" stroke="black" stroke-miterlimit="10" stroke-linecap="round" stroke-linejoin="round"/>
<path d="M128.867 55.2083C126.321 55.4598 123.559 55.5944 120.609 55.5403C119.585 55.5215 118.587 55.4807 117.618 55.4218C117.667 55.0511 117.716 54.681 117.764 54.3103C117.818 53.8979 117.872 53.4848 117.927 53.0723C118.243 52.9982 118.572 52.9263 118.916 52.8582C120.545 52.5342 122.474 52.2923 124.643 52.2891C125.845 52.2875 126.963 52.3593 127.983 52.4747C128.253 52.5047 128.516 52.538 128.772 52.5739C128.787 52.9784 128.801 53.3828 128.816 53.7872C128.832 54.261 128.849 54.7346 128.867 55.2083Z" stroke="black" stroke-miterlimit="10" stroke-linecap="round" stroke-linejoin="round"/>
<path d="M127.984 52.4752C126.964 52.3599 125.846 52.288 124.644 52.2897C122.476 52.2929 120.546 52.5348 118.917 52.8588C118.941 52.6084 118.963 52.3535 118.983 52.0955C119.758 51.9356 120.463 51.5827 121.018 51.0463C121.812 50.2792 122.079 49.3507 122.177 48.862C121.66 49.1538 120.537 49.6998 119.095 49.702C118.86 49.702 118.617 49.688 118.367 49.6563C117.832 49.5882 116.889 49.4563 115.984 48.76C114.801 47.8502 114.461 46.5742 114.313 45.9889C113.997 44.7343 114.195 43.7414 114.496 42.3215C114.804 40.8694 115.239 39.8508 115.943 38.2261C116.184 37.6698 116.489 36.9967 116.863 36.2344C117.041 36.48 117.242 36.7241 117.471 36.9628C118.578 38.1188 119.827 38.6305 120.527 38.8574C120.548 40.1206 120.568 41.3838 120.588 42.647C121.041 42.0694 121.758 41.7823 122.442 41.9137C123.314 42.0811 123.704 42.8444 123.767 42.9732C124.19 43.8405 123.793 44.6827 123.706 44.8683C123.203 45.9358 122.092 46.2163 121.933 46.2539C121.999 46.4577 122.062 46.7115 122.096 47.0075C122.137 47.3588 122.123 47.6652 122.096 47.9039C122.6 48.2451 123.28 48.6345 124.134 48.943C125.319 49.3726 126.376 49.4789 127.112 49.4928C127.229 49.8361 127.344 50.1896 127.455 50.5528C127.658 51.2168 127.833 51.8589 127.984 52.4752Z" stroke="black" stroke-miterlimit="10" stroke-linecap="round" stroke-linejoin="round"/>
<path d="M122.177 48.8623C122.079 49.351 121.812 50.2795 121.018 51.0466C120.462 51.583 119.757 51.9359 118.982 52.0958C119.004 51.8104 119.024 51.5203 119.04 51.2258C119.068 50.706 119.086 50.198 119.095 49.7024C120.536 49.7002 121.66 49.154 122.177 48.8623Z" stroke="black" stroke-miterlimit="10" stroke-linecap="round" stroke-linejoin="round"/>
<path d="M131.936 42.0567C131.384 44.7296 129.94 46.5331 129.267 47.3543C128.462 48.3359 127.674 49.0392 127.111 49.493H127.111C126.375 49.479 125.318 49.3728 124.133 48.9431C123.279 48.6347 122.598 48.2452 122.095 47.9041C122.122 47.6653 122.136 47.3591 122.095 47.0077C122.061 46.7116 121.998 46.4578 121.932 46.2541C122.09 46.2165 123.202 45.936 123.704 44.8685C123.792 44.6829 124.188 43.8407 123.766 42.9733C123.703 42.8446 123.313 42.0813 122.441 41.9139C121.757 41.7825 121.04 42.0694 120.587 42.6472C120.567 41.384 120.547 40.1208 120.526 38.8575C119.826 38.6306 118.577 38.1189 117.47 36.9629C117.241 36.7242 117.04 36.4802 116.862 36.2345C115.923 34.9354 115.643 33.5857 115.453 32.6637C115.038 30.6592 115.285 28.9388 115.554 27.835C115.895 28.2566 116.436 28.8236 117.225 29.2817C118.488 30.0145 119.483 29.9425 121.484 30.1373C123.908 30.3739 125.365 30.5159 127.025 31.2579C128.152 31.7616 129.371 32.3065 130.163 33.6422C131.055 35.1453 130.863 36.7352 130.754 37.3505C131.043 37.58 131.447 37.9614 131.753 38.5321C132.397 39.7367 132.162 40.964 131.936 42.0567Z" stroke="black" stroke-miterlimit="10" stroke-linecap="round" stroke-linejoin="round"/>
<path d="M124.115 99.1445L121.204 107.105" stroke="white" stroke-miterlimit="10" stroke-linecap="round" stroke-linejoin="round"/>
<path d="M109.472 70.4639L104.801 89.1716L108.039 71.2711C108.572 70.9917 109.056 70.7138 109.472 70.4639Z" fill="black"/>
<path d="M68.9177 105.331L66.8672 104.66C66.6905 103.97 66.4165 103.32 66.0607 102.722L67.0393 100.795C67.1274 100.62 67.0943 100.41 66.9571 100.273L65.9269 99.2435C65.7897 99.1062 65.5799 99.072 65.4061 99.1607L64.6476 99.5453L63.4773 100.138C63.2258 99.9886 62.965 99.8529 62.6951 99.7337C62.3248 99.5697 61.9395 99.4347 61.5403 99.3327L60.8694 97.2828C60.8085 97.0968 60.6365 96.9717 60.4418 96.9717H58.9858C58.9649 96.9717 58.9453 96.9735 58.9244 96.9769C58.7552 96.999 58.6138 97.116 58.5588 97.2823L57.8884 99.3327C57.1984 99.5089 56.5482 99.7835 55.9503 100.138L55.1519 99.7337L54.0232 99.1607C53.8482 99.0732 53.6385 99.1062 53.5006 99.2435L53.1993 99.5442L52.4716 100.273C52.3331 100.41 52.3001 100.62 52.3887 100.794L53.3667 102.722C53.011 103.32 52.7369 103.97 52.5614 104.66L50.5103 105.331C50.3243 105.392 50.1992 105.564 50.1992 105.758V107.214C50.1992 107.408 50.3232 107.58 50.5098 107.641L52.5602 108.312C52.7369 109.002 53.011 109.652 53.3667 110.249L52.3887 112.177C52.3001 112.352 52.3331 112.562 52.4716 112.699L53.1993 113.427L53.5006 113.729C53.6385 113.866 53.8476 113.899 54.022 113.811L55.1519 113.238L55.9503 112.834C56.5482 113.189 57.1983 113.464 57.8884 113.639L58.5582 115.69C58.6126 115.856 58.7551 115.973 58.9232 115.995C58.9441 115.999 58.965 116 58.9858 116H60.4418C60.6365 116 60.808 115.876 60.8688 115.691L61.5402 113.639C61.9395 113.537 62.3247 113.402 62.6949 113.238C62.9649 113.119 63.2256 112.983 63.4771 112.834L64.6475 113.428L65.4042 113.811C65.5792 113.899 65.7895 113.866 65.9268 113.729L66.957 112.699C67.0942 112.562 67.1273 112.352 67.0392 112.178L66.0606 110.249C66.4164 109.652 66.6904 109.002 66.8671 108.312L68.917 107.641C69.103 107.58 69.2281 107.408 69.2281 107.214V105.758C69.2282 105.563 69.1042 105.391 68.9177 105.331ZM59.7134 110.697C57.3918 110.697 55.5018 108.809 55.5018 106.485C55.5018 104.163 57.3918 102.275 59.7134 102.275C62.0356 102.275 63.9255 104.163 63.9255 106.485C63.9255 108.809 62.0356 110.697 59.7134 110.697Z" fill="#8D58FF"/>
<path d="M67.9528 104.488L65.9024 103.817C65.7257 103.127 65.4516 102.477 65.0959 101.879L66.0745 99.9522C66.1625 99.7772 66.1295 99.5675 65.9922 99.4297L64.9621 98.4006C64.8247 98.2633 64.6151 98.2291 64.4412 98.3178L63.6828 98.7026L62.5124 99.2953C62.261 99.1458 62.0002 99.0102 61.7302 98.8909C61.3599 98.7269 60.9746 98.5919 60.5755 98.4899L59.9046 96.44C59.8437 96.254 59.6717 96.1289 59.4769 96.1289H58.0209C58 96.1289 57.9804 96.1306 57.9595 96.1341C57.7904 96.1561 57.6489 96.2731 57.594 96.4395L56.9236 98.4899C56.2335 98.6661 55.5834 98.9407 54.9855 99.2953L54.187 98.8909L53.0584 98.3178C52.8834 98.2303 52.6738 98.2633 52.5359 98.4006L52.2346 98.7013L51.5068 99.4302C51.3684 99.5675 51.3353 99.7772 51.4239 99.9511L52.4019 101.879C52.0461 102.477 51.7721 103.127 51.5966 103.817L49.5455 104.488C49.3595 104.549 49.2344 104.721 49.2344 104.915V106.371C49.2344 106.565 49.3583 106.737 49.545 106.798L51.5954 107.469C51.7721 108.159 52.0461 108.809 52.4019 109.406L51.4239 111.334C51.3352 111.509 51.3683 111.719 51.5068 111.856L52.2346 112.584L52.5359 112.885C52.6738 113.023 52.8829 113.056 53.0574 112.968L54.1872 112.395L54.9856 111.991C55.5835 112.345 56.2335 112.621 56.9237 112.796L57.5934 114.847C57.6479 115.013 57.7905 115.129 57.9585 115.152C57.9794 115.156 58.0001 115.157 58.021 115.157H59.4771C59.6718 115.157 59.8433 115.033 59.904 114.848L60.5755 112.796C60.9746 112.694 61.3599 112.559 61.7302 112.395C62.0002 112.276 62.2609 112.14 62.5124 111.991L63.6828 112.585L64.4395 112.968C64.6145 113.056 64.8248 113.023 64.9621 112.886L65.9922 111.856C66.1295 111.719 66.1625 111.509 66.0745 111.335L65.0959 109.406C65.4516 108.809 65.7257 108.159 65.9024 107.469L67.9523 106.798C68.1383 106.738 68.2634 106.565 68.2634 106.371V104.915C68.2633 104.72 68.1393 104.549 67.9528 104.488ZM58.7486 109.854C56.427 109.854 54.537 107.966 54.537 105.642C54.537 103.32 56.427 101.433 58.7486 101.433C61.0708 101.433 62.9608 103.32 62.9608 105.642C62.9607 107.966 61.0708 109.854 58.7486 109.854Z" fill="white"/>
<path d="M67.9528 104.488L65.9024 103.817C65.7257 103.127 65.4516 102.477 65.0959 101.879L66.0745 99.9522C66.1625 99.7772 66.1295 99.5675 65.9922 99.4297L64.9621 98.4006C64.8247 98.2633 64.6151 98.2291 64.4412 98.3178L63.6828 98.7026L62.5124 99.2953C62.261 99.1458 62.0002 99.0102 61.7302 98.8909C61.3599 98.7269 60.9746 98.5919 60.5755 98.4899L59.9046 96.44C59.8437 96.254 59.6717 96.1289 59.4769 96.1289H58.0209C58 96.1289 57.9804 96.1306 57.9595 96.1341C57.7904 96.1561 57.6489 96.2731 57.594 96.4395L56.9236 98.4899C56.2335 98.6661 55.5834 98.9407 54.9855 99.2953L54.187 98.8909L53.0584 98.3178C52.8834 98.2303 52.6738 98.2633 52.5359 98.4006L52.2346 98.7013L51.5068 99.4302C51.3684 99.5675 51.3353 99.7772 51.4239 99.9511L52.4019 101.879C52.0461 102.477 51.7721 103.127 51.5966 103.817L49.5455 104.488C49.3595 104.549 49.2344 104.721 49.2344 104.915V106.371C49.2344 106.565 49.3583 106.737 49.545 106.798L51.5954 107.469C51.7721 108.159 52.0461 108.809 52.4019 109.406L51.4239 111.334C51.3352 111.509 51.3683 111.719 51.5068 111.856L52.2346 112.584L52.5359 112.885C52.6738 113.023 52.8829 113.056 53.0574 112.968L54.1872 112.395L54.9856 111.991C55.5835 112.345 56.2335 112.621 56.9237 112.796L57.5934 114.847C57.6479 115.013 57.7905 115.129 57.9585 115.152C57.9794 115.156 58.0001 115.157 58.021 115.157H59.4771C59.6718 115.157 59.8433 115.033 59.904 114.848L60.5755 112.796C60.9746 112.694 61.3599 112.559 61.7302 112.395C62.0002 112.276 62.2609 112.14 62.5124 111.991L63.6828 112.585L64.4395 112.968C64.6145 113.056 64.8248 113.023 64.9621 112.886L65.9922 111.856C66.1295 111.719 66.1625 111.509 66.0745 111.335L65.0959 109.406C65.4516 108.809 65.7257 108.159 65.9024 107.469L67.9523 106.798C68.1383 106.738 68.2634 106.565 68.2634 106.371V104.915C68.2633 104.72 68.1393 104.549 67.9528 104.488ZM58.7486 109.854C56.427 109.854 54.537 107.966 54.537 105.642C54.537 103.32 56.427 101.433 58.7486 101.433C61.0708 101.433 62.9608 103.32 62.9608 105.642C62.9607 107.966 61.0708 109.854 58.7486 109.854Z" stroke="black" stroke-width="2.8571" stroke-miterlimit="10" stroke-linecap="round"/>
</svg>
