<svg width="41" height="40" viewBox="0 0 41 40" fill="none" xmlns="http://www.w3.org/2000/svg">
<path d="M18.0007 33.3333C23.8917 33.3333 28.6673 28.5577 28.6673 22.6667C28.6673 16.7756 23.8917 12 18.0007 12C12.1096 12 7.33398 16.7756 7.33398 22.6667C7.33398 24.314 7.70742 25.8741 8.37425 27.267C8.60344 27.7457 8.68391 28.2881 8.54672 28.8008L8.10933 30.4355C7.76459 31.724 8.94334 32.9027 10.2318 32.558L11.8665 32.1206C12.3792 31.9834 12.9216 32.0639 13.4003 32.2931C14.7932 32.9599 16.3533 33.3333 18.0007 33.3333Z" stroke="white" stroke-width="2"/>
<path d="M28.6673 23.3351C28.756 23.2982 28.8438 23.2598 28.931 23.22C29.4137 22.9995 29.9554 22.917 30.4681 23.0542L31.1029 23.224C32.3913 23.5687 33.57 22.39 33.2253 21.1016L33.0555 20.4668C32.9183 19.9541 33.0008 19.4124 33.2213 18.9296C33.7218 17.834 34.0007 16.6159 34.0007 15.3327C34.0007 10.5462 30.1205 6.66602 25.334 6.66602C21.731 6.66602 18.6415 8.86466 17.334 11.9935" stroke="white" stroke-width="2"/>
<path d="M14.6667 22.6663C14.6667 23.4027 14.0697 23.9997 13.3333 23.9997C12.597 23.9997 12 23.4027 12 22.6663C12 21.93 12.597 21.333 13.3333 21.333C14.0697 21.333 14.6667 21.93 14.6667 22.6663Z" fill="white"/>
<path d="M19.3333 22.6663C19.3333 23.4027 18.7364 23.9997 18 23.9997C17.2636 23.9997 16.6667 23.4027 16.6667 22.6663C16.6667 21.93 17.2636 21.333 18 21.333C18.7364 21.333 19.3333 21.93 19.3333 22.6663Z" fill="white"/>
<path d="M24 22.6663C24 23.4027 23.403 23.9997 22.6667 23.9997C21.9303 23.9997 21.3333 23.4027 21.3333 22.6663C21.3333 21.93 21.9303 21.333 22.6667 21.333C23.403 21.333 24 21.93 24 22.6663Z" fill="white"/>
</svg>
