<svg width="20" height="20" viewBox="0 0 20 20" fill="none" xmlns="http://www.w3.org/2000/svg">
<path d="M16.2352 4.17382C15.0705 3.62986 13.8299 3.22904 12.5231 3C12.3621 3.2863 12.1727 3.67757 12.0496 3.9925C10.667 3.78255 9.29393 3.78255 7.93976 3.9925C7.80719 3.67757 7.61779 3.2863 7.45681 3C6.14998 3.22904 4.90945 3.62986 3.74467 4.17382C1.39618 7.743 0.761704 11.2263 1.0742 14.6524C2.63671 15.8262 4.1424 16.5324 5.62915 17C5.99847 16.4942 6.32044 15.9502 6.60453 15.3872C6.06475 15.1868 5.55339 14.9291 5.07043 14.6333C5.20301 14.5378 5.32612 14.4329 5.44922 14.3374C8.41324 15.7307 11.6235 15.7307 14.5496 14.3374C14.6727 14.4424 14.7958 14.5378 14.9284 14.6333C14.4455 14.9291 13.9246 15.1772 13.3943 15.3872C13.6784 15.9502 14.0004 16.4942 14.3697 17C15.8565 16.5324 17.3716 15.8262 18.9246 14.6524C19.294 10.6728 18.2902 7.22767 16.2542 4.17382H16.2352ZM7.00226 12.5528C6.1121 12.5528 5.38293 11.7226 5.38293 10.7014C5.38293 9.68031 6.09316 8.85005 7.00226 8.85005C7.91135 8.85005 8.63105 9.68031 8.62158 10.7014C8.62158 11.713 7.91135 12.5528 7.00226 12.5528ZM12.9777 12.5528C12.0875 12.5528 11.3583 11.7226 11.3583 10.7014C11.3583 9.68031 12.0686 8.85005 12.9777 8.85005C13.8867 8.85005 14.6065 9.68031 14.597 10.7014C14.597 11.713 13.8867 12.5528 12.9777 12.5528Z" fill="#D8E7FE"/>
</svg>
