<svg width="42" height="30" viewBox="0 0 42 30" fill="none" xmlns="http://www.w3.org/2000/svg">
<path d="M7.84082 12.2441V21.928C7.84082 22.1378 7.96427 22.328 8.15591 22.4133L21.0432 28.1552C21.1794 28.2159 21.3347 28.2166 21.4713 28.1572L34.6855 22.4119C34.8795 22.3275 35.005 22.1361 35.005 21.9246V12.2441" stroke="#8D58FF" stroke-width="2.86486" stroke-linecap="round"/>
<path d="M2.33059 10.1983L6.91103 11.8452L21.3233 16.6936L26.3327 15.362C26.4833 15.322 26.644 15.3501 26.7721 15.439L28.9903 16.9782C29.3427 17.2226 29.8246 16.9705 29.8246 16.5416V14.662C29.8246 14.4449 29.9566 14.2497 30.1581 14.1688L40.0171 10.2138C40.462 10.0353 40.4617 9.40535 40.0166 9.22731L21.3233 1.75L2.31638 9.2037C1.85965 9.38281 1.86893 10.0323 2.33059 10.1983Z" fill="#8D58FF" fill-opacity="0.4" stroke="#8D58FF" stroke-width="2.86486" stroke-linecap="round"/>
</svg>
