<svg width="41" height="40" viewBox="0 0 41 40" fill="none" xmlns="http://www.w3.org/2000/svg">
<path d="M18.815 8.48479C19.4906 7.27293 19.8283 6.66699 20.3333 6.66699C20.8383 6.66699 21.1761 7.27293 21.8516 8.48479L22.0264 8.79832C22.2184 9.14269 22.3144 9.31488 22.464 9.42849C22.6137 9.5421 22.8001 9.58427 23.1729 9.66862L23.5122 9.74541C24.8241 10.0422 25.48 10.1906 25.636 10.6924C25.7921 11.1943 25.3449 11.7172 24.4506 12.763L24.2192 13.0335C23.9651 13.3307 23.838 13.4793 23.7809 13.6631C23.7237 13.8469 23.7429 14.0452 23.7813 14.4417L23.8163 14.8027C23.9515 16.198 24.0191 16.8956 23.6106 17.2058C23.202 17.5159 22.5879 17.2332 21.3596 16.6676L21.0419 16.5213C20.6928 16.3606 20.5183 16.2802 20.3333 16.2802C20.1483 16.2802 19.9738 16.3606 19.6248 16.5213L19.307 16.6676C18.0788 17.2332 17.4646 17.5159 17.0561 17.2058C16.6475 16.8956 16.7151 16.198 16.8503 14.8027L16.8853 14.4417C16.9237 14.0452 16.943 13.8469 16.8858 13.6631C16.8286 13.4793 16.7016 13.3307 16.4474 13.0335L16.2161 12.763C15.3217 11.7172 14.8746 11.1943 15.0306 10.6924C15.1867 10.1906 15.8426 10.0422 17.1544 9.74541L17.4938 9.66862C17.8666 9.58427 18.053 9.5421 18.2026 9.42849C18.3523 9.31488 18.4483 9.14269 18.6402 8.79832L18.815 8.48479Z" stroke="white" stroke-width="2"/>
<path d="M30.2415 14.2429C30.5793 13.637 30.7482 13.334 31.0007 13.334C31.2531 13.334 31.422 13.637 31.7598 14.2429L31.8472 14.3996C31.9432 14.5718 31.9912 14.6579 32.066 14.7147C32.1408 14.7715 32.234 14.7926 32.4204 14.8348L32.5901 14.8732C33.246 15.0216 33.574 15.0958 33.652 15.3467C33.73 15.5976 33.5065 15.8591 33.0593 16.382L32.9436 16.5172C32.8165 16.6658 32.753 16.7401 32.7244 16.832C32.6958 16.924 32.7054 17.0231 32.7247 17.2213L32.7421 17.4018C32.8098 18.0995 32.8436 18.4483 32.6393 18.6034C32.435 18.7584 32.1279 18.6171 31.5138 18.3343L31.3549 18.2611C31.1804 18.1808 31.0931 18.1406 31.0007 18.1406C30.9082 18.1406 30.8209 18.1808 30.6464 18.2611L30.4875 18.3343C29.8734 18.6171 29.5663 18.7584 29.362 18.6034C29.1577 18.4483 29.1916 18.0995 29.2592 17.4018L29.2766 17.2213C29.2959 17.0231 29.3055 16.924 29.2769 16.832C29.2483 16.7401 29.1848 16.6658 29.0577 16.5172L28.942 16.382C28.4949 15.8591 28.2713 15.5976 28.3493 15.3467C28.4273 15.0958 28.7553 15.0216 29.4112 14.8732L29.5809 14.8348C29.7673 14.7926 29.8605 14.7715 29.9353 14.7147C30.0101 14.6579 30.0581 14.5718 30.1541 14.3996L30.2415 14.2429Z" stroke="white" stroke-width="2"/>
<path d="M8.90751 14.2429C9.24528 13.637 9.41417 13.334 9.66667 13.334C9.91916 13.334 10.0881 13.637 10.4258 14.2429L10.5132 14.3996C10.6092 14.5718 10.6572 14.6579 10.732 14.7147C10.8068 14.7715 10.9 14.7926 11.0864 14.8348L11.2561 14.8732C11.912 15.0216 12.24 15.0958 12.318 15.3467C12.396 15.5976 12.1725 15.8591 11.7253 16.382L11.6096 16.5172C11.4826 16.6658 11.419 16.7401 11.3904 16.832C11.3619 16.924 11.3715 17.0231 11.3907 17.2213L11.4082 17.4018C11.4758 18.0995 11.5096 18.4483 11.3053 18.6034C11.101 18.7584 10.794 18.6171 10.1798 18.3343L10.0209 18.2611C9.84642 18.1808 9.75916 18.1406 9.66667 18.1406C9.57417 18.1406 9.48691 18.1808 9.3124 18.2611L9.15351 18.3343C8.53938 18.6171 8.23231 18.7584 8.02804 18.6034C7.82377 18.4483 7.85757 18.0995 7.92517 17.4018L7.94266 17.2213C7.96187 17.0231 7.97148 16.924 7.9429 16.832C7.91431 16.7401 7.85078 16.6658 7.72371 16.5172L7.60803 16.382C7.16087 15.8591 6.93729 15.5976 7.01531 15.3467C7.09334 15.0958 7.4213 15.0216 8.07721 14.8732L8.2469 14.8348C8.43329 14.7926 8.52649 14.7715 8.60132 14.7147C8.67615 14.6579 8.72414 14.5718 8.82012 14.3996L8.90751 14.2429Z" stroke="white" stroke-width="2"/>
<path d="M9.66602 32.5178H12.6793C14.0271 32.5178 15.3894 32.6583 16.7011 32.9285C19.0214 33.4065 21.4645 33.4645 23.8086 33.085C24.9644 32.8979 26.1007 32.6118 27.1293 32.1154C28.0579 31.6672 29.1953 31.0355 29.9593 30.3279C30.7221 29.6213 31.5167 28.4649 32.0806 27.561C32.5642 26.7859 32.3303 25.8349 31.5654 25.2574C30.7158 24.6159 29.455 24.616 28.6055 25.2577L26.1959 27.0779C25.2621 27.7833 24.242 28.4327 23.0268 28.6265C22.8807 28.6499 22.7276 28.6711 22.5678 28.6896M22.5678 28.6896C22.5197 28.6952 22.471 28.7005 22.4218 28.7055M22.5678 28.6896C22.7622 28.6479 22.9553 28.5281 23.1364 28.37C23.994 27.6215 24.0482 26.36 23.3041 25.5242C23.1314 25.3302 22.9294 25.1685 22.7048 25.0345C18.975 22.8099 13.1719 24.5043 9.66602 26.9906M22.5678 28.6896C22.5192 28.7 22.4704 28.7055 22.4218 28.7055M22.4218 28.7055C21.7239 28.7772 20.9076 28.7957 20.0017 28.7102" stroke="white" stroke-width="2" stroke-linecap="round"/>
</svg>
