<svg width="32" height="32" viewBox="0 0 32 32" fill="none" xmlns="http://www.w3.org/2000/svg">
<path d="M19.208 14.0837L18.058 17.917H12.7926L13.9426 14.0837H19.208Z" fill="#8D58FF"/>
<path fill-rule="evenodd" clip-rule="evenodd" d="M2.91251 2.91251C0.666992 5.15802 0.666992 8.77212 0.666992 16.0003C0.666992 23.2285 0.666992 26.8426 2.91251 29.0881C5.15802 31.3337 8.77212 31.3337 16.0003 31.3337C23.2285 31.3337 26.8426 31.3337 29.0881 29.0881C31.3337 26.8426 31.3337 23.2285 31.3337 16.0003C31.3337 8.77212 31.3337 5.15802 29.0881 2.91251C26.8426 0.666992 23.2285 0.666992 16.0003 0.666992C8.77212 0.666992 5.15802 0.666992 2.91251 2.91251ZM14.7974 7.23218C15.4058 7.41468 15.751 8.05579 15.5685 8.66413L14.6326 11.7837H19.898L21.0322 8.00323C21.2147 7.39489 21.8558 7.04968 22.4641 7.23218C23.0725 7.41468 23.4177 8.05579 23.2352 8.66413L22.2993 11.7837H25.2003C25.8355 11.7837 26.3503 12.2986 26.3503 12.9337C26.3503 13.5688 25.8355 14.0837 25.2003 14.0837H21.6093L20.4593 17.917H23.667C24.3021 17.917 24.817 18.4319 24.817 19.067C24.817 19.7021 24.3021 20.217 23.667 20.217H19.7693L18.6352 23.9975C18.4527 24.6058 17.8116 24.951 17.2032 24.7685C16.5949 24.586 16.2497 23.9449 16.4322 23.3366L17.368 20.217H12.1026L10.9685 23.9975C10.786 24.6058 10.1449 24.951 9.53654 24.7685C8.9282 24.586 8.58299 23.9449 8.76549 23.3366L9.70136 20.217H6.80033C6.1652 20.217 5.65033 19.7021 5.65033 19.067C5.65033 18.4319 6.1652 17.917 6.80033 17.917H10.3914L11.5414 14.0837H8.33366C7.69853 14.0837 7.18366 13.5688 7.18366 12.9337C7.18366 12.2986 7.69853 11.7837 8.33366 11.7837H12.2314L13.3655 8.00323C13.548 7.39489 14.1891 7.04968 14.7974 7.23218Z" fill="#8D58FF"/>
</svg>
