<svg width="16" height="16" viewBox="0 0 16 16" fill="none" xmlns="http://www.w3.org/2000/svg">
<path opacity="0.4" d="M8.21704 6.33325H7.66634C7.0378 6.33325 6.72353 6.33325 6.52827 6.52851C6.33301 6.72378 6.33301 7.03805 6.33301 7.66659V13.3333C6.33301 13.9618 6.33301 14.2761 6.52827 14.4713C6.72353 14.6666 7.0378 14.6666 7.66634 14.6666H7.99969C8.62822 14.6666 8.94249 14.6666 9.13775 14.4713C9.33301 14.2761 9.33302 13.9618 9.33302 13.3333L9.33305 11C9.33305 9.89543 9.68508 9 10.7249 9C11.2448 9 11.6663 9.44771 11.6663 10V13C11.6663 13.6285 11.6663 13.9428 11.8616 14.1381C12.0568 14.3333 12.3711 14.3333 12.9996 14.3333H13.3322C13.9606 14.3333 14.2748 14.3333 14.47 14.1381C14.6653 13.9429 14.6653 13.6287 14.6655 13.0003L14.6664 9.33341C14.6664 7.67656 13.0906 6.33341 11.5308 6.33341C10.643 6.33341 9.85078 6.76864 9.33305 7.44922C9.33303 7.02921 9.33302 6.81921 9.24178 6.66325C9.18399 6.56449 9.10177 6.48227 9.00301 6.4245C8.84705 6.33325 8.63705 6.33325 8.21704 6.33325Z" fill="#8D58FF" stroke="#8D58FF" stroke-width="1.5" stroke-linejoin="round"/>
<path opacity="0.4" d="M4.33301 13.1666V7.83325C4.33301 7.36731 4.33301 7.13434 4.25689 6.95057C4.15539 6.70554 3.96072 6.51087 3.71569 6.40937C3.53192 6.33325 3.29895 6.33325 2.83301 6.33325C2.36707 6.33325 2.1341 6.33325 1.95032 6.40937C1.7053 6.51087 1.51062 6.70554 1.40913 6.95057C1.33301 7.13434 1.33301 7.36731 1.33301 7.83325V13.1666C1.33301 13.6325 1.33301 13.8655 1.40913 14.0493C1.51062 14.2943 1.7053 14.489 1.95032 14.5905C2.1341 14.6666 2.36707 14.6666 2.83301 14.6666C3.29895 14.6666 3.53192 14.6666 3.71569 14.5905C3.96072 14.489 4.15539 14.2943 4.25689 14.0493C4.33301 13.8655 4.33301 13.6325 4.33301 13.1666Z" fill="#8D58FF"/>
<path d="M4.33301 13.1666V7.83325C4.33301 7.36731 4.33301 7.13434 4.25689 6.95057C4.15539 6.70554 3.96072 6.51087 3.71569 6.40937C3.53192 6.33325 3.29895 6.33325 2.83301 6.33325C2.36707 6.33325 2.1341 6.33325 1.95032 6.40937C1.7053 6.51087 1.51062 6.70554 1.40913 6.95057C1.33301 7.13434 1.33301 7.36731 1.33301 7.83325V13.1666C1.33301 13.6325 1.33301 13.8655 1.40913 14.0493C1.51062 14.2943 1.7053 14.489 1.95032 14.5905C2.1341 14.6666 2.36707 14.6666 2.83301 14.6666C3.29895 14.6666 3.53192 14.6666 3.71569 14.5905C3.96072 14.489 4.15539 14.2943 4.25689 14.0493C4.33301 13.8655 4.33301 13.6325 4.33301 13.1666Z" stroke="#8D58FF" stroke-width="1.5"/>
<path d="M4.33301 2.83325C4.33301 3.66168 3.66144 4.33325 2.83301 4.33325C2.00458 4.33325 1.33301 3.66168 1.33301 2.83325C1.33301 2.00482 2.00458 1.33325 2.83301 1.33325C3.66144 1.33325 4.33301 2.00482 4.33301 2.83325Z" stroke="#8D58FF" stroke-width="1.5"/>
<path d="M8.21704 6.33325H7.66634C7.0378 6.33325 6.72353 6.33325 6.52827 6.52851C6.33301 6.72378 6.33301 7.03805 6.33301 7.66659V13.3333C6.33301 13.9618 6.33301 14.2761 6.52827 14.4713C6.72353 14.6666 7.0378 14.6666 7.66634 14.6666H7.99969C8.62822 14.6666 8.94249 14.6666 9.13775 14.4713C9.33301 14.2761 9.33302 13.9618 9.33302 13.3333L9.33305 11C9.33305 9.89543 9.68508 9 10.7249 9C11.2448 9 11.6663 9.44771 11.6663 10V13C11.6663 13.6285 11.6663 13.9428 11.8616 14.1381C12.0568 14.3333 12.3711 14.3333 12.9996 14.3333H13.3322C13.9606 14.3333 14.2748 14.3333 14.47 14.1381C14.6653 13.9429 14.6653 13.6287 14.6655 13.0003L14.6664 9.33341C14.6664 7.67656 13.0906 6.33341 11.5308 6.33341C10.643 6.33341 9.85078 6.76864 9.33305 7.44922C9.33303 7.02921 9.33302 6.81921 9.24178 6.66325C9.18399 6.56449 9.10177 6.48227 9.00301 6.4245C8.84705 6.33325 8.63705 6.33325 8.21704 6.33325Z" stroke="#8D58FF" stroke-width="1.5" stroke-linejoin="round"/>
</svg>
