<svg width="46" height="46" viewBox="0 0 46 46" fill="none" xmlns="http://www.w3.org/2000/svg">
<path fill-rule="evenodd" clip-rule="evenodd" d="M25.2432 37.8345C23.8193 38.5001 22.1809 38.5001 20.7569 37.8345C14.6485 34.9794 10.7334 26.9954 10.7334 20.1534C10.7334 13.2573 16.2254 7.66699 23.0001 7.66699C29.7748 7.66699 35.2667 13.2573 35.2667 20.1534C35.2667 26.9954 31.3516 34.9794 25.2432 37.8345ZM21.4155 13.6958C22.433 13.3241 23.5671 13.3241 24.5846 13.6958L28.1755 15.0076C29.0051 15.3106 29.5167 16.0504 29.5167 16.867C29.5167 17.6836 29.0051 18.4234 28.1755 18.7264L27.9834 18.7966V22.5406C27.9834 23.5726 27.3793 24.5777 26.3263 24.9663C25.5211 25.2634 24.1946 25.6837 23.0001 25.6837C21.8055 25.6837 20.479 25.2634 19.6738 24.9663C18.6208 24.5777 18.0167 23.5726 18.0167 22.5406V18.7966L17.8246 18.7264C16.995 18.4233 16.4834 17.6836 16.4834 16.867C16.4834 16.0504 16.995 15.3106 17.8246 15.0076L21.4155 13.6958Z" fill="#8D58FF"/>
<path fill-rule="evenodd" clip-rule="evenodd" d="M22.2047 15.8561C22.7125 15.6706 23.2876 15.6706 23.7954 15.8561L26.5625 16.867L23.7954 17.8779C23.2876 18.0634 22.7125 18.0634 22.2048 17.8779L19.4376 16.867L22.2047 15.8561Z" fill="#8D58FF"/>
<path d="M20.3167 22.5406V19.6368L21.4156 20.0382C22.433 20.4099 23.5672 20.4099 24.5846 20.0382L25.6834 19.6368V22.5406C25.6834 22.7014 25.5962 22.7841 25.5301 22.8085C24.7616 23.0921 23.7605 23.3837 23.0001 23.3837C22.2397 23.3837 21.2385 23.0921 20.4701 22.8085C20.404 22.7841 20.3167 22.7014 20.3167 22.5406Z" fill="#8D58FF"/>
</svg>
