<svg width="190" height="166" viewBox="0 0 190 166" fill="none" xmlns="http://www.w3.org/2000/svg">
<mask id="mask0_2404_119677" style="mask-type:luminance" maskUnits="userSpaceOnUse" x="0" y="0" width="190" height="165">
<path d="M189.722 0H0V164.923H189.722V0Z" fill="white"/>
</mask>
<g mask="url(#mask0_2404_119677)">
<path d="M64.5737 108.265C64.5737 108.265 63.7527 194.371 62.565 208.97C61.3774 223.568 62.6739 255.658 63.8615 259.896C63.8615 259.896 71.2781 258.548 74.5483 255.306C79.8822 250.017 84.897 252.324 84.897 252.324C88.9345 252.324 86.8984 242.944 85.9484 238.235C84.9985 233.526 89.1548 232.113 87.3738 218.574C85.5923 205.036 96.1824 164.133 93.2138 141.176C90.2452 118.22 86.0672 109.442 86.0672 109.442L64.5737 108.265Z" fill="#D6C3FF"/>
<path d="M54.2046 259.055C61.8046 247.989 72.2156 171.829 71.1447 114.857H46.4452C46.4452 114.857 38.4111 153.268 34.8486 176.813C31.2861 200.359 29.0032 209.996 31.8784 216.906C34.7535 223.815 29.5305 234.427 27.6704 245.493C26.7204 251.144 26.5962 255.032 30.5418 253.326C34.9468 251.421 38.2922 259.055 54.2046 259.055Z" fill="#D6C3FF"/>
<path d="M66.3721 145.091L66.1006 144.577C66.3235 144.459 71.6485 141.694 78.01 142.965L77.8959 143.535C71.7441 142.304 66.425 145.063 66.3721 145.091Z" fill="#3B1E1C"/>
<path d="M67.9874 175.393L67.4131 175.303C67.4237 175.235 68.4976 168.456 69.9057 157.975C71.3147 147.488 71.9191 143.407 71.9254 143.367L72.5008 143.453C72.4949 143.493 71.8905 147.57 70.4826 158.052C69.0735 168.541 67.9984 175.326 67.9874 175.393Z" fill="#3B1E1C"/>
<path d="M60.5025 73.7525C58.5937 71.268 52.5735 69.4902 46.008 72.0376C39.4432 74.585 24.2614 80.0601 20.4168 82.9337C20.4168 82.9337 17.4196 93.2528 27.911 100.939C27.911 100.939 48.9973 95.7809 54.7528 92.4715C63.8505 87.2401 65.9706 80.8718 60.5025 73.7525Z" fill="#8D58FF"/>
<path d="M69.02 74.119C70.3456 71.3609 70.2827 69.825 77.7685 71.1643C85.2537 72.504 115.131 52.1097 124.699 59.8792C124.699 59.8792 127.684 96.7998 122.768 115.191C122.768 115.191 82.0537 100.1 76.5845 95.9802C67.9386 89.4679 65.2224 82.0217 69.02 74.119Z" fill="#8D58FF"/>
<path d="M61.1165 56.7267C61.4599 58.1464 60.5871 59.5758 59.167 59.9194C57.7474 60.2627 56.3178 59.3904 55.9743 57.9705C55.6304 56.5506 56.5032 55.1214 57.9233 54.7778C59.3435 54.4345 60.7731 55.3071 61.1165 56.7267Z" fill="#CBB4FB"/>
<path d="M58.4678 59.3869C58.0536 59.3869 57.6499 59.1198 57.5993 59.0852L57.9279 58.6051C58.0457 58.6848 58.3447 58.8383 58.5264 58.7995C58.5735 58.7894 58.6041 58.7665 58.6327 58.7197C58.6771 58.6471 58.6771 58.6471 58.5534 58.4978C58.3933 58.3051 58.1266 57.9826 58.2592 57.407C58.3336 57.0845 58.4663 56.8452 58.5719 56.6527C58.7632 56.3072 58.779 56.279 58.4953 56.0518C58.0214 55.6725 57.1761 56.6524 57.1682 56.6619L56.7197 56.2914C57.1656 55.7536 58.1171 55.0041 58.8594 55.5981C59.5251 56.1313 59.2789 56.5766 59.0813 56.9342C58.9883 57.1029 58.8822 57.2944 58.8262 57.5374C58.758 57.8329 58.86 57.9561 59.0016 58.1267C59.1468 58.3021 59.3898 58.5958 59.1294 59.0228C59.018 59.2053 58.8515 59.325 58.6481 59.3683C58.5883 59.381 58.5281 59.3869 58.4678 59.3869Z" fill="#3B1E1C"/>
<path d="M71.3638 56.7267C71.0204 58.1464 71.8932 59.5758 73.3127 59.9194C74.7329 60.2627 76.1625 59.3904 76.506 57.9705C76.8494 56.5506 75.9771 55.1214 74.557 54.7778C73.1368 54.4345 71.7072 55.3071 71.3638 56.7267Z" fill="#CBB4FB"/>
<path d="M74.0132 59.3867C73.9534 59.3867 73.8927 59.3808 73.8335 59.3682C73.6301 59.3248 73.4637 59.2052 73.3522 59.0222C73.0913 58.5956 73.3348 58.3019 73.4801 58.1266C73.6212 57.956 73.7236 57.8329 73.6555 57.5373C73.5995 57.2946 73.4933 57.1034 73.4003 56.9343C73.2027 56.5765 72.9565 56.1314 73.6227 55.5979C74.3645 55.0041 75.316 55.7538 75.7614 56.2912L75.3139 56.6623C75.3055 56.6523 74.4549 55.6755 73.9863 56.0517C73.7026 56.2789 73.7184 56.3074 73.9096 56.6528C74.0158 56.8451 74.1479 57.0844 74.2224 57.4069C74.355 57.9824 74.0876 58.3049 73.9281 58.4977C73.8045 58.647 73.8045 58.647 73.8489 58.7196C73.8774 58.7663 73.9081 58.7896 73.9556 58.7999C74.1337 58.8361 74.4406 58.6823 74.5531 58.6052L74.8817 59.0851C74.8316 59.1196 74.4279 59.3867 74.0132 59.3867Z" fill="#3B1E1C"/>
<path d="M75.144 70.7393C72.1775 70.7393 56.9729 70.7393 54.0059 70.7393C49.6393 70.7393 45.3552 74.6408 44.8971 88.5912C44.5663 98.6497 37.8921 136.203 38.7089 145.038C38.7089 145.038 49.4608 145.935 61.6791 145.935C61.8276 145.935 69.5997 122.579 69.5997 122.579L70.1196 129.075C78.4205 128.446 91.9376 143.476 94.921 140.806C96.3121 131.521 88.1517 100.416 85.1936 84.3345C83.6097 75.7221 79.2791 70.7393 75.144 70.7393Z" fill="#8D58FF"/>
<path d="M41.2994 123.918L40.7236 123.837C40.759 123.585 44.2814 98.5092 44.6073 88.5811L45.1884 88.6004C44.8614 98.5593 41.3354 123.666 41.2994 123.918Z" fill="#3B1E1C"/>
<path d="M66.0853 73.7416L68.6598 77.3052C68.6598 77.3052 71.7673 73.89 71.7673 70.6728L71.0108 69.6211H61.3827L60.6895 70.6976C60.6895 70.6976 61.1349 75.7956 62.6448 77.3053L66.0853 73.7416Z" fill="white"/>
<path d="M71.1373 62.3889V70.7724C70.5112 71.6981 66.0331 73.3462 66.0331 73.3462C66.0331 73.3462 62.616 72.3945 61.2988 70.7449V58.6943C61.2988 58.6943 65.0235 60.4439 71.1373 62.3889Z" fill="#CBB4FB"/>
<path d="M69.2273 67.5689C69.8407 66.9709 70.4646 64.6155 71.1373 64.3934V62.3888C65.0235 60.4438 61.2988 58.6943 61.2988 58.6943V65.5273C61.7648 65.8945 62.5468 67.9437 63.5061 68.6441C65.1297 69.8295 67.261 69.4864 69.2273 67.5689Z" fill="#3B1E1C"/>
<path d="M73.2061 55.4095C73.7803 51.3942 72.757 49.3254 68.8094 47.9874C64.5875 46.5566 60.8582 48.3859 59.427 52.6068C58.933 54.0645 58.9499 55.9975 59.2299 57.3966H59.2236L59.6378 62.1512C59.8549 62.9448 60.3272 63.645 60.9812 64.1439L64.1063 66.5286C64.5712 66.8833 65.1397 67.0756 65.7246 67.0756H66.833C67.4311 67.0756 68.0116 66.8746 68.4814 66.5049L71.4901 64.14C72.1225 63.6429 72.578 62.956 72.7908 62.1806C72.7908 62.1804 73.0359 56.5978 73.2061 55.4095Z" fill="#CBB4FB"/>
<path d="M61.7972 49.9244C67.335 51.0477 71.2958 49.889 71.7306 49.9244C72.1649 49.9598 72.3984 52.5898 72.4919 53.7757C72.5855 54.9616 73.1867 55.8041 73.1867 55.8041C73.1867 55.8041 72.8602 58.2932 73.3801 58.0413C73.8994 57.7893 74.5149 57.0423 74.8034 55.9614C75.0918 54.8801 75.2023 50.0803 74.5139 48.5727C73.826 47.0654 69.6845 44.5016 68.9702 43.2619C68.2559 42.0221 67.0302 41.0977 66.8739 41.7831C66.718 42.4684 66.8046 43.1325 66.8046 43.1325C66.8046 43.1325 65.814 42.1278 65.0205 43.1053C64.2269 44.0828 60.1076 45.4464 59.1165 46.7895C58.1254 48.1325 57.9125 51.5998 57.942 52.7633C57.9706 53.927 58.3203 55.0439 58.5544 56.7649C58.7885 58.4856 59.4917 57.5794 59.6575 56.967C59.722 56.7289 59.5382 55.0209 59.5382 55.0209C59.5382 55.0209 60.7433 51.7498 60.8515 51.1418C61.0285 50.1475 60.8468 49.7315 61.7972 49.9244Z" fill="#3B1E1C"/>
<path d="M67.2044 117.938C67.2044 118.297 66.9139 118.587 66.5551 118.587C66.1959 118.587 65.9053 118.297 65.9053 117.938C65.9053 117.579 66.1959 117.288 66.5551 117.288C66.9139 117.288 67.2044 117.579 67.2044 117.938Z" fill="white"/>
<path d="M64.0858 129.075C64.0858 129.434 63.7947 129.725 63.436 129.725C63.0773 129.725 62.7861 129.434 62.7861 129.075C62.7861 128.717 63.0772 128.426 63.436 128.426C63.7948 128.426 64.0858 128.717 64.0858 129.075Z" fill="white"/>
<path d="M60.3178 140.861C60.6767 140.861 60.9677 140.57 60.9677 140.211C60.9677 139.852 60.6767 139.562 60.3178 139.562C59.9589 139.562 59.668 139.852 59.668 140.211C59.668 140.57 59.9589 140.861 60.3178 140.861Z" fill="white"/>
<path d="M66.8333 103.823C66.8333 104.182 66.5427 104.473 66.184 104.473C65.8253 104.473 65.5342 104.182 65.5342 103.823C65.5342 103.465 65.8253 103.174 66.184 103.174C66.5428 103.174 66.8333 103.465 66.8333 103.823Z" fill="white"/>
<path d="M66.388 92.2659C66.388 92.6246 66.0969 92.9154 65.7381 92.9154C65.3794 92.9154 65.0889 92.6246 65.0889 92.2659C65.0889 91.907 65.3795 91.6162 65.7381 91.6162C66.0969 91.6162 66.388 91.907 66.388 92.2659Z" fill="white"/>
<path d="M65.163 80.8568C65.163 81.2154 64.8724 81.5065 64.5131 81.5065C64.1544 81.5065 63.8633 81.2154 63.8633 80.8568C63.8633 80.4979 64.1544 80.207 64.5131 80.207C64.8725 80.207 65.163 80.4979 65.163 80.8568Z" fill="white"/>
<path d="M66.22 59.1274L66.0674 58.5664C66.7177 58.3891 67.4674 58.0392 67.5456 57.8007C67.5498 57.7885 67.5556 57.7703 67.5165 57.7215C66.2338 56.1019 66.658 53.951 66.6765 53.8604L67.2466 53.9771C67.2423 53.9967 66.8609 55.9567 67.973 57.3602C68.1231 57.5504 68.168 57.7712 68.0983 57.9825C67.8852 58.6299 66.6067 59.0228 66.22 59.1274Z" fill="#3B1E1C"/>
<path d="M62.1829 54.4455L61.8574 53.9632C63.9475 52.5552 65.5135 53.8512 65.5293 53.8642L65.1531 54.3079C65.1029 54.2656 63.8968 53.2905 62.1829 54.4455Z" fill="#3B1E1C"/>
<path d="M69.8601 60.7861C69.8601 60.7861 67.1129 59.2643 63.2139 60.7491C63.2139 60.7491 65.9247 66.0945 69.8601 60.7861Z" fill="#3B1E1C"/>
<path d="M64.1367 62.0156C65.1151 63.0385 66.8159 63.9822 68.9577 61.8402C65.6186 61.4078 64.3634 61.9945 64.1367 62.0156Z" fill="#D45750"/>
<path d="M69.42 61.3381C69.5653 61.1672 69.7117 60.9865 69.8601 60.7861C69.8601 60.7861 67.1129 59.2643 63.2139 60.7491C63.2139 60.7491 63.301 60.9195 63.4643 61.1672C63.9155 61.0528 67.3972 60.6007 69.42 61.3381Z" fill="white"/>
<path d="M64.3806 55.4386C64.3917 55.4045 64.4033 55.3701 64.4097 55.3334C64.4752 54.9513 64.219 54.5879 63.8365 54.5221C63.454 54.456 63.0905 54.7125 63.0245 55.0947C62.9965 55.2577 63.0298 55.4151 63.1033 55.5495C63.5216 55.4533 63.9516 55.4183 64.3806 55.4386Z" fill="#3B1E1C"/>
<path d="M71.0917 54.5302C71.0479 54.4805 70.0002 53.3372 68.1337 54.2243L67.8838 53.699C70.1619 52.6167 71.516 54.1321 71.5297 54.1475L71.0907 54.5291L71.31 54.3382L71.0917 54.5302Z" fill="#3B1E1C"/>
<path d="M70.1591 55.5336C70.1755 55.5017 70.1919 55.4694 70.2035 55.4343C70.3256 55.0661 70.1258 54.6686 69.7576 54.5466C69.3894 54.4246 68.9915 54.6239 68.8695 54.9925C68.8177 55.149 68.8267 55.3096 68.8795 55.4536C69.3075 55.4206 69.7381 55.4501 70.1591 55.5336Z" fill="#3B1E1C"/>
<path d="M88.6042 101.17L88.0225 101.155C88.1683 95.3232 84.9937 82.7499 84.9619 82.6234L85.5257 82.4805C85.6577 82.9992 88.7516 95.2582 88.6042 101.17Z" fill="#3B1E1C"/>
<path d="M119.838 59.1923C119.775 58.6329 119.738 58.3328 119.738 58.3318L120.315 58.2607C120.315 58.2607 120.353 58.5631 120.416 59.1276L119.838 59.1923Z" fill="#3B1E1C"/>
<path d="M120.288 109.73L119.716 109.625C119.823 109.041 119.923 108.448 120.018 107.849L120.592 107.939C120.497 108.543 120.396 109.14 120.288 109.73ZM120.937 105.543L120.361 105.468C120.438 104.876 120.51 104.279 120.578 103.677L121.156 103.742C121.088 104.347 121.016 104.948 120.937 105.543ZM121.399 101.335L120.819 101.283C120.874 100.686 120.923 100.086 120.969 99.4834L121.549 99.5272C121.503 100.133 121.453 100.736 121.399 101.335ZM121.71 97.114L121.129 97.0804C121.164 96.4804 121.195 95.879 121.223 95.2765L121.804 95.3035C121.776 95.9081 121.745 96.5119 121.71 97.114ZM121.896 92.8876L121.315 92.8694C121.334 92.2672 121.35 91.665 121.362 91.0639L121.944 91.0758C121.932 91.6793 121.916 92.2836 121.896 92.8876ZM121.979 88.6607L121.397 88.6562C121.401 88.1042 121.404 87.5546 121.404 87.0071V86.8488H121.985V87.0071C121.985 87.5562 121.983 88.1076 121.979 88.6607ZM121.388 84.4398C121.381 83.8337 121.371 83.231 121.359 82.6328L121.941 82.6214C121.953 83.2209 121.962 83.825 121.97 84.4332L121.388 84.4398ZM121.299 80.224C121.282 79.6152 121.261 79.0128 121.239 78.4174L121.82 78.3958C121.842 78.9925 121.862 79.5965 121.881 80.2063L121.299 80.224ZM121.138 76.009C121.11 75.3978 121.079 74.7956 121.048 74.2037L121.629 74.1731C121.661 74.766 121.691 75.3693 121.719 75.9823L121.138 76.009ZM120.91 71.7974C120.872 71.1804 120.833 70.5791 120.793 69.9933L121.373 69.9537C121.413 70.5405 121.452 71.1438 121.49 71.7615L120.91 71.7974ZM120.619 67.5895C120.571 66.9632 120.522 66.3619 120.474 65.7869L121.054 65.7388C121.102 66.3145 121.151 66.9173 121.199 67.5445L120.619 67.5895ZM120.264 63.3856C120.203 62.7293 120.145 62.1271 120.091 61.5856L120.671 61.5283C120.724 62.0711 120.783 62.6741 120.843 63.332L120.264 63.3856Z" fill="#3B1E1C"/>
<path d="M119.618 112.955L119.052 112.823C119.117 112.543 119.181 112.261 119.244 111.977L119.811 112.101C119.749 112.388 119.684 112.673 119.618 112.955Z" fill="#3B1E1C"/>
<path d="M70.1883 121.724H69.6066C69.6066 119.81 69.3387 117.677 69.0286 115.206C68.4908 110.918 67.8209 105.581 68.3449 99.0562C69.148 89.0555 65.5696 76.3454 65.5332 76.2182L66.0932 76.0586C66.1291 76.187 69.736 88.9958 68.925 99.103C68.4056 105.568 69.0713 110.872 69.606 115.133C69.9183 117.623 70.1883 119.774 70.1883 121.724Z" fill="#3B1E1C"/>
<path d="M99.4173 107.096C99.4173 107.096 86.6347 101.847 89.6022 85.6438C92.5693 69.4402 93.0258 62.5939 90.0587 52.7803C87.0916 42.9671 105.808 43.6517 109.004 68.7557C112.2 93.8597 117.449 100.022 99.4173 107.096Z" fill="#CBB4FB"/>
<path d="M99.3066 107.366C99.176 107.312 86.3401 101.839 89.3155 85.5918L89.8877 85.6964C86.9994 101.469 99.4017 106.776 99.5279 106.828L99.3066 107.366Z" fill="#3B1E1C"/>
<path d="M108.262 69.6182C108.233 70.6033 108 71.5863 107.608 72.5071C107.218 73.4294 106.635 74.2867 105.879 74.9739C105.507 75.3281 105.063 75.589 104.625 75.8513C104.149 76.0393 103.689 76.2678 103.182 76.3357C102.692 76.4751 102.182 76.4583 101.686 76.4759C101.437 76.4952 101.19 76.4239 100.945 76.4009C100.7 76.3692 100.456 76.3303 100.216 76.2866C100.71 76.2337 101.196 76.2688 101.673 76.1912C102.147 76.1065 102.623 76.0647 103.068 75.8962C103.529 75.7845 103.944 75.5613 104.366 75.3653C104.756 75.1097 105.158 74.873 105.491 74.5412C106.187 73.9227 106.747 73.1496 107.2 72.3118C107.64 71.4675 108.011 70.5676 108.262 69.6182Z" fill="#3B1E1C"/>
<path d="M174.781 20.7031L135.644 24.5545C131.739 24.5545 127.508 27.731 126.213 31.6352L92.5865 121.507C91.3386 125.269 93.6991 131.803 99.6438 131.803L141.768 131.817C145.673 131.817 149.903 128.64 151.199 124.736L182.082 31.6352C183.377 27.7311 181.735 20.7031 174.781 20.7031Z" fill="#3B1E1C"/>
<path d="M174.781 20.7031H133.076C129.171 20.7031 124.941 23.8797 123.645 27.7841L92.7617 120.885C91.5138 124.647 93.4406 127.732 97.0765 127.952L139.2 127.965C143.105 127.965 147.336 124.789 148.631 120.885L179.514 27.784C180.81 23.8797 178.687 20.7031 174.781 20.7031Z" fill="#CFC1ED"/>
<path d="M174.26 22.2764H132.554C129.512 22.2764 126.228 24.7421 125.219 27.7838L94.3357 120.884C93.3267 123.926 94.975 126.392 98.017 126.392H139.723C142.765 126.392 146.049 123.926 147.058 120.884L177.941 27.7838C178.95 24.7421 177.302 22.2764 174.26 22.2764Z" fill="#8D58FF" fill-opacity="0.3"/>
<mask id="mask1_2404_119677" style="mask-type:luminance" maskUnits="userSpaceOnUse" x="51" y="-7" width="128" height="134">
<path d="M174.261 22.2765H132.555C129.513 22.2765 95.8706 -8.87171 94.8615 -5.82995L51.4182 54.0454C50.4092 57.087 94.9756 126.392 98.0176 126.392H139.723C142.765 126.392 146.049 123.926 147.058 120.885L177.942 27.7839C178.951 24.7423 177.303 22.2765 174.261 22.2765Z" fill="white"/>
</mask>
<g mask="url(#mask1_2404_119677)">
<path d="M120.043 106.698C117.685 108.53 113.967 111.504 113.853 114.394C113.74 117.284 124.92 116.582 124.92 116.582L154.406 78.0081L137.858 73.543C137.858 73.543 122.4 104.867 120.043 106.698Z" fill="#834BFC" fill-opacity="0.8"/>
<path d="M146.911 82.1564L125.135 111.583L125.582 111.914L147.358 82.4874L146.911 82.1564Z" fill="#CFC1ED"/>
<path d="M167.006 69.9606L125.225 22.7812L97.1396 69.459L158.024 84.8892C160.347 86.2864 164.24 84.077 166.721 79.9547C169.201 75.8322 169.329 71.3578 167.006 69.9606Z" fill="#8D58FF"/>
<path d="M167.005 69.9618L161.655 63.9209C161.517 68.2606 160.001 76.8504 150.991 83.1084L158.023 84.8904C160.346 86.2876 164.239 84.0782 166.72 79.9559C169.2 75.8334 169.328 71.359 167.005 69.9618Z" fill="#834BFC" fill-opacity="0.8"/>
<path d="M125.48 20.9278C124.005 20.0417 122.36 19.4704 120.592 19.234C112.014 18.0859 101.363 25.0284 94.6892 36.1177C86.3401 49.9964 86.7813 65.069 95.6935 70.4334C97.1686 71.3196 98.8132 71.8908 100.581 72.1274C109.16 73.2753 119.81 66.3309 126.485 55.2417C134.836 41.3611 134.393 26.2888 125.48 20.9278Z" fill="#CFC1ED"/>
<path d="M124.348 22.808C116.554 18.1205 104.075 24.5605 96.4743 37.1926C88.8739 49.8247 89.0308 63.8654 96.824 68.5535C104.618 73.2407 117.098 66.8008 124.698 54.1684C132.299 41.5366 132.142 27.4958 124.348 22.808Z" fill="white"/>
<path d="M96.6908 68.7751C88.7876 64.021 88.5916 49.7937 96.2533 37.0592C99.9531 30.9093 104.913 26.0139 110.221 23.2753C115.569 20.5158 120.634 20.2712 124.482 22.5862C128.331 24.9017 130.488 29.4902 130.555 35.5063C130.622 41.4771 128.621 48.1521 124.92 54.3021C118.191 65.4855 107.606 71.8555 99.7741 70.0207C98.6883 69.7663 97.6539 69.3541 96.6908 68.7751ZM124.214 23.0297C120.524 20.809 115.639 21.0615 110.458 23.7351C105.235 26.4307 100.348 31.2574 96.6965 37.3261C89.1828 49.8156 89.2995 63.7247 96.9586 68.3315C104.619 72.9389 116.962 66.5241 124.477 54.0354C128.128 47.9665 130.103 41.3884 130.038 35.5124C129.973 29.6822 127.905 25.2493 124.214 23.0297Z" fill="#CFC1ED"/>
<path d="M117.074 43.1982L112.522 51.6401L119.952 60.6098C121.667 58.7061 123.262 56.5559 124.696 54.1728C126.255 51.5757 127.492 48.9356 128.379 46.3254L117.57 43.2263L117.074 43.1982Z" fill="#CFC1ED"/>
<path d="M117.576 43.2302C116.267 42.4434 114.074 43.6877 112.678 46.0089C111.281 48.3305 111.209 50.8505 112.517 51.6373C113.825 52.4241 116.018 51.1798 117.415 48.8586C118.811 46.5369 118.883 44.017 117.576 43.2302Z" fill="#8D58FF"/>
<path d="M90.575 20.3491L89.8057 21.1172L97.3512 28.6722L98.1206 27.9041L90.575 20.3491Z" fill="#CFC1ED"/>
<path d="M79.5256 41.4966L79.207 42.5361L86.6201 44.8075L86.9387 43.768L79.5256 41.4966Z" fill="#CFC1ED"/>
<path d="M71.2315 31.8785L70.7402 32.8486L87.849 41.5089L88.3402 40.5388L71.2315 31.8785Z" fill="#CFC1ED"/>
<path d="M102.663 13.468L101.803 14.1328L106.543 20.267L107.404 19.6022L102.663 13.468Z" fill="#CFC1ED"/>
<path d="M101.445 0.837985L100.484 1.34668L109.457 18.2914L110.418 17.7827L101.445 0.837985Z" fill="#CFC1ED"/>
</g>
<path d="M159.67 23.1943H146.687C146.397 23.1943 146.084 23.4291 145.988 23.7188C145.892 24.0086 146.048 24.2434 146.339 24.2434H159.323C159.612 24.2434 159.925 24.0086 160.021 23.7188C160.117 23.4291 159.96 23.1943 159.67 23.1943Z" fill="#3B1E1C"/>
<path d="M181.076 63.2779C181.076 63.2779 192.888 60.0259 185.355 47.1885C177.823 34.3511 167.551 38.8015 167.038 43.9365C166.524 49.0714 165.811 52.3805 172.83 56.6597C172.83 56.6597 165.308 56.203 163.871 61.9944C162.433 67.7857 166.011 71.8362 166.011 71.8362C166.011 71.8362 159.608 70.0391 157.622 72.5207C155.637 75.0026 155.568 82.4483 161.217 86.7273C161.217 86.7273 153.428 87.1554 155.054 95.8847C156.681 104.614 158.906 102.303 158.906 102.303L154.969 112.744C154.969 112.744 169.719 111.432 170.747 94.4296C170.747 94.4296 181.361 89.637 174.741 79.4815C174.741 79.4815 189.692 74.2324 181.076 63.2779Z" fill="#CBB4FB"/>
<path d="M166.41 72.0645C168.173 72.4492 169.821 73.2978 171.261 74.4024C171.982 74.956 172.63 75.6076 173.193 76.3212C173.771 77.0254 174.189 77.8492 174.513 78.683C173.987 77.9506 173.462 77.2464 172.849 76.6168C172.237 75.9898 171.604 75.386 170.903 74.8604C170.215 74.3195 169.488 73.8267 168.738 73.3619C167.984 72.9067 167.215 72.4635 166.41 72.0645Z" fill="#3B1E1C"/>
<path d="M161.959 86.9561C163.721 87.3406 165.37 88.1892 166.81 89.2938C167.531 89.8476 168.179 90.4992 168.742 91.2126C169.32 91.917 169.739 92.7405 170.062 93.5744C169.536 92.8422 169.011 92.1381 168.398 91.5082C167.787 90.8814 167.153 90.2777 166.452 89.7521C165.764 89.2109 165.037 88.7181 164.287 88.2532C163.532 87.7981 162.764 87.3549 161.959 86.9561Z" fill="#3B1E1C"/>
<path d="M172.829 56.6602C174.592 57.0447 176.24 57.8932 177.68 58.9981C178.401 59.5515 179.049 60.2033 179.612 60.9167C180.19 61.6211 180.609 62.4446 180.932 63.2784C180.406 62.5463 179.881 61.8421 179.268 61.2122C178.657 60.5855 178.023 59.9817 177.322 59.4561C176.634 58.9149 175.907 58.4224 175.157 57.9573C174.402 57.5021 173.634 57.0589 172.829 56.6602Z" fill="#3B1E1C"/>
<path d="M108.988 193.757L118.246 193.758L118.754 187.921C121.461 187.324 123.982 186.259 126.257 184.813L130.739 188.587L137.283 182.048L133.512 177.564C134.959 175.291 136.024 172.77 136.624 170.064L142.463 169.559L142.465 160.303L136.628 159.794C136.028 157.098 134.965 154.566 133.519 152.293L137.292 147.81L130.754 141.269L126.268 145.039C123.995 143.592 121.474 142.527 118.766 141.927L118.263 136.089L109.005 136.088L108.495 141.924C105.799 142.523 103.267 143.586 100.993 145.031L96.5091 141.26L89.9674 147.797L93.737 152.282C92.2905 154.554 91.2248 157.085 90.6247 159.781L84.7862 160.286L84.7852 169.544L90.6231 170.052C91.2201 172.758 92.2852 175.279 93.7301 177.551L89.9574 182.035L96.4964 188.576L100.982 184.807C103.255 186.253 105.786 187.319 108.483 187.918L108.988 193.757ZM96.9163 164.918C96.9178 155.692 104.403 148.216 113.63 148.217C122.856 148.22 130.335 155.701 130.332 164.927C130.33 174.153 122.848 181.632 113.621 181.628C104.393 181.626 96.9131 174.144 96.9163 164.918Z" fill="#8D58FF"/>
<path d="M82.4398 107.044V157.493C82.4398 161.33 79.3295 164.444 75.4872 164.444H10.9032C8.96425 164.444 7.21441 163.653 5.95337 162.374C4.89144 161.298 4.17713 159.884 3.99596 158.298C3.96002 158.036 3.94629 157.764 3.94629 157.493V107.044C3.94629 103.763 6.60905 101.101 9.89518 101.101H76.4952C79.7818 101.101 82.4398 103.763 82.4398 107.044Z" fill="white"/>
<path d="M75.4874 164.815H10.903C8.92712 164.815 7.07528 164.04 5.68898 162.634C4.52672 161.456 3.81402 159.971 3.62697 158.339C3.59264 158.089 3.5752 157.81 3.5752 157.493V107.043C3.5752 103.562 6.41015 100.729 9.89546 100.729H76.4949C79.9771 100.729 82.8104 103.562 82.8104 107.043V157.493C82.8104 161.53 79.5254 164.815 75.4874 164.815ZM9.89546 101.471C6.8195 101.471 4.3169 103.971 4.3169 107.043V157.492C4.3169 157.775 4.33224 158.021 4.36335 158.246C4.53141 159.721 5.17216 161.054 6.21721 162.113C7.46298 163.377 9.12721 164.073 10.9029 164.073H75.4874C79.1164 164.073 82.0686 161.121 82.0686 157.492V107.043C82.0686 103.971 79.5686 101.471 76.4949 101.471H9.89546Z" fill="#3B1E1C"/>
<path d="M68.5473 103.128C68.0179 103.128 67.5889 103.557 67.5889 104.086C67.5889 104.615 68.0179 105.044 68.5473 105.044C69.0766 105.044 69.5057 104.615 69.5057 104.086C69.5056 103.557 69.0766 103.128 68.5473 103.128Z" fill="#8D58FF"/>
<path d="M72.5912 103.128C72.0619 103.128 71.6328 103.557 71.6328 104.086C71.6328 104.615 72.0619 105.044 72.5912 105.044C73.1206 105.044 73.5496 104.615 73.5496 104.086C73.5495 103.557 73.1206 103.128 72.5912 103.128Z" fill="#D6C3FF"/>
<path d="M76.6361 103.128C76.1067 103.128 75.6777 103.557 75.6777 104.086C75.6777 104.615 76.1067 105.044 76.6361 105.044C77.1649 105.044 77.594 104.615 77.594 104.086C77.594 103.557 77.165 103.128 76.6361 103.128Z" fill="#8D58FF"/>
<path d="M82.4411 107.043H24.3291V107.785H82.4411V107.043Z" fill="#3B1E1C"/>
<path d="M80.6692 113.634L58.6954 126.689L46.1784 122.224L30.8777 134.81L19.6562 132.823L5.27637 142.48V143.36L19.8824 133.625L31.0606 135.599L46.3026 123.044L58.7804 127.489L80.6692 114.436V113.634Z" fill="#8D58FF"/>
<path d="M44.2721 122.787C44.2293 121.729 45.0778 120.804 46.1645 120.72C47.2502 120.636 48.1642 121.423 48.2086 122.476C48.2529 123.532 47.4093 124.458 46.3225 124.546C45.2336 124.633 44.3148 123.845 44.2721 122.787Z" fill="#8D58FF"/>
<path d="M28.9659 135.261C28.9294 134.179 29.8097 133.224 30.9297 133.127C32.0476 133.031 32.9838 133.826 33.0224 134.904C33.061 135.983 32.1855 136.94 31.0655 137.04C29.9439 137.141 29.0029 136.344 28.9659 135.261Z" fill="#8D58FF"/>
<path d="M17.8006 133.474C17.7689 132.384 18.6681 131.424 19.8072 131.328C20.9447 131.232 21.892 132.035 21.9258 133.12C21.9596 134.207 21.0652 135.169 19.926 135.269C18.7854 135.369 17.8328 134.564 17.8006 133.474Z" fill="#8D58FF"/>
<path d="M56.8437 127.074C56.7962 126.023 57.6241 125.101 58.6913 125.013C59.7569 124.927 60.6593 125.705 60.7084 126.752C60.7581 127.801 59.9344 128.725 58.8672 128.815C57.7984 128.906 56.8918 128.126 56.8437 127.074Z" fill="#8D58FF"/>
<path d="M81.4448 128.574L61.1162 136.746L49.1692 130.372L31.8234 140.646L20.9252 136.962L5.27637 144.322V145.132L21.0251 137.796L31.8826 141.462L49.1656 131.213L61.0759 137.563L81.4448 129.336V128.574Z" fill="#8D58FF"/>
<path d="M47.1581 130.653C47.2812 129.587 48.2808 128.789 49.3897 128.868C50.4971 128.947 51.2959 129.872 51.1744 130.935C51.0534 131.999 50.057 132.801 48.9475 132.724C47.8365 132.647 47.0344 131.72 47.1581 130.653Z" fill="#8D58FF"/>
<path d="M29.8394 140.805C29.972 139.719 31.0022 138.9 32.1386 138.973C33.2741 139.047 34.0871 139.983 33.9567 141.066C33.8261 142.15 32.7991 142.973 31.6616 142.902C30.523 142.831 29.7062 141.892 29.8394 140.805Z" fill="#8D58FF"/>
<path d="M18.9751 137.335C19.1141 136.245 20.1597 135.424 21.3104 135.5C22.4589 135.576 23.2789 136.519 23.142 137.606C23.0063 138.695 21.9634 139.518 20.8122 139.445C19.6599 139.371 18.8368 138.426 18.9751 137.335Z" fill="#8D58FF"/>
<path d="M59.1804 136.858C59.2972 135.795 60.2809 134.995 61.3756 135.069C62.4692 135.144 63.2612 136.063 63.1466 137.123C63.0314 138.184 62.0508 138.987 60.9557 138.915C59.8582 138.843 59.0631 137.921 59.1804 136.858Z" fill="#8D58FF"/>
<path d="M17.3546 154.613H10.9551V157.631H17.3546V154.613Z" fill="#8D58FF"/>
<path d="M28.236 146.236H21.8369V157.63H28.236V146.236Z" fill="#8D58FF"/>
<path d="M40.3702 149.894H33.9707V157.63H40.3702V149.894Z" fill="#8D58FF"/>
<path d="M52.5035 139.925H46.1045V157.63H52.5035V139.925Z" fill="#8D58FF"/>
<path d="M64.6378 144.551H58.2383V157.631H64.6378V144.551Z" fill="#8D58FF"/>
<path d="M76.7712 138.79H70.3721V157.63H76.7712V138.79Z" fill="#8D58FF"/>
<path d="M70.8477 98.9098C70.8477 98.9098 71.6708 104.195 75.1191 103.96C78.8263 103.708 84.7852 108.271 84.7852 108.271C84.7852 108.271 85.4827 105.034 81.4188 100.006C77.4786 95.1303 71.4035 93.0752 71.4035 93.0752L70.8477 98.9098Z" fill="#CBB4FB"/>
<path d="M84.7849 108.27C84.7849 108.27 83.3146 115.55 80.9805 117.298C80.4712 117.68 79.7189 117.76 79.7363 117.124C79.805 114.645 82.6067 108.653 82.6067 108.653C82.6067 108.653 79.311 113.865 78.5751 113.615C78.154 113.472 76.5352 112.118 75.2256 110.983C74.2889 110.172 74.5445 108.96 75.1214 107.863C75.8194 106.534 76.2246 105.48 76.1697 105.093C76.0624 104.334 74.7094 103.692 74.7094 103.692L81.4724 104.398L84.7849 108.27Z" fill="#CBB4FB"/>
<path d="M75.582 111.181L78.5607 105.898C78.5607 105.898 77.1105 109.587 75.582 111.181Z" fill="#3B1E1C"/>
<path d="M77.0742 112.567L81.1254 106.774C81.1254 106.774 78.7501 111.128 77.0742 112.567Z" fill="#3B1E1C"/>
<path d="M71.4034 93.0751L71.7574 99.1862C66.4499 97.8883 54.0228 99.0859 45.6288 99.4474C44.0824 99.5129 42.6681 99.5488 41.4678 99.5372C41.6802 98.7575 41.9073 97.9588 42.1525 97.1433C43.6444 92.1972 45.371 88.0434 46.6231 86.1885C47.1683 86.3303 47.7347 86.4719 48.3138 86.6195C57.8156 89.0958 71.4034 93.0751 71.4034 93.0751Z" fill="#CBB4FB"/>
<path d="M16.2628 87.6738C16.9908 84.6269 21.762 80.5477 28.7955 80.1948C35.8286 79.8419 57.3222 80.2146 62.0047 81.2694C62.0047 81.2694 66.7232 93.3654 60.2818 104.663C60.2818 104.663 35.7561 103.091 29.1511 102.418C18.7099 101.354 14.1759 96.4044 16.2628 87.6738Z" fill="#8D58FF"/>
<path d="M49.1527 80.5544C42.7996 80.1688 37.3426 80.0613 32.9333 80.233L32.9121 79.7063C37.3389 79.5325 42.8134 79.6411 49.1844 80.0282L49.1527 80.5544Z" fill="#3B1E1C"/>
<path d="M62.4585 100.489L61.9565 100.328C65.2004 90.2241 62.2498 82.5322 61.817 81.4974C60.3372 81.1877 57.5022 80.9882 57.4727 80.9861L57.5096 80.46C57.6343 80.4686 60.5876 80.6765 62.0637 81.0117L62.1899 81.0402L62.2444 81.158C62.2825 81.2399 65.9934 89.4795 62.4585 100.489Z" fill="#3B1E1C"/>
<path d="M52.0493 5.49122L21.616 5.59657C19.35 5.60133 17.5109 7.56269 17.5294 9.95526L17.6832 30.1372C17.7017 32.5298 19.5704 34.484 21.8364 34.4792L39.561 34.3799L50.1792 40.8991L49.6641 34.3596L52.2703 34.3736C54.5362 34.3694 56.3753 32.408 56.3569 30.0152L56.2031 9.83324C56.185 7.4406 54.3158 5.48667 52.0493 5.49122Z" fill="#834BFC" fill-opacity="0.8"/>
<path d="M43.8624 16.5258C41.8822 16.4651 39.9633 16.5007 39.9633 16.5007C39.9633 16.5007 39.6295 16.6375 39.8518 11.8977C40.069 7.26752 37.411 8.41299 37.2884 8.46846C37.2821 8.47112 37.2842 8.47477 37.2842 8.48163L37.3185 9.99239C37.3492 11.3528 36.9529 12.6877 36.1848 13.8105L33.5432 17.6729C33.5401 17.6771 33.5353 17.6798 33.53 17.68L32.2969 17.7078L32.3455 29.0523C32.3455 29.0616 32.3529 29.0695 32.3624 29.069L35.1112 29.0066C35.1123 29.0066 35.1118 29.0066 35.1123 29.0066C35.134 29.0093 42.7154 30.0399 44.1957 30.0063C44.4065 30.0019 44.6215 29.9654 44.8328 29.9057C44.8386 29.9044 44.845 29.9025 44.8503 29.9009C46.3285 29.4802 47.308 28.073 47.3012 26.5369L47.2737 20.0196C47.2658 18.1255 45.7559 16.5837 43.8624 16.5258Z" fill="white"/>
<path d="M27.7054 17.591C27.6959 17.591 27.6885 17.5987 27.6885 17.6079L27.7371 29.1992C27.7377 29.2084 27.745 29.2161 27.754 29.2161L31.4311 29.2003C31.4406 29.2006 31.4481 29.1929 31.4481 29.1833L31.3989 17.5921C31.3989 17.5829 31.3915 17.5752 31.3826 17.5752L27.7054 17.591Z" fill="white"/>
</g>
<path d="M154.434 164.923H12.6924V165.999H154.434V164.923Z" fill="#CFC1ED"/>
</svg>
