<svg width="157" height="108" viewBox="0 0 157 108" fill="none" xmlns="http://www.w3.org/2000/svg">
<path d="M104.376 72.566V73.6926H72.792V72.566C72.792 71.9778 73.2689 71.501 73.8572 71.501H103.311C103.899 71.501 104.376 71.9778 104.376 72.566Z" stroke="black" stroke-miterlimit="10" stroke-linecap="round" stroke-linejoin="round"/>
<path d="M103.311 71.501H73.8572C73.2689 71.501 72.792 71.9778 72.792 72.566V73.6926V91.1461C72.792 91.7319 73.267 92.2067 73.8528 92.2067H103.315C103.901 92.2067 104.376 91.7319 104.376 91.1461V73.6926V72.566C104.376 71.9778 103.899 71.501 103.311 71.501Z" stroke="black" stroke-miterlimit="10"/>
<path d="M102.713 77.6104V90.1874H74.1807V81.9828C74.8042 82.821 75.5754 83.5456 76.4392 84.1349C77.3642 84.7644 78.4136 85.3708 79.5423 85.5489C80.6759 85.7295 81.6618 85.1841 82.411 84.3716C83.2652 83.4444 83.8716 82.2854 84.5086 81.2045C85.0138 80.3469 85.6056 79.4807 86.4268 78.8962C87.0198 78.4729 87.7581 78.2155 88.4792 78.3168C89.6226 78.479 90.6121 79.4746 91.4066 80.2407C91.9824 80.7959 92.5193 81.3888 93.0416 81.9939C93.5334 82.5611 93.9934 83.126 94.6535 83.5091C95.9848 84.2814 97.3917 83.6689 98.4606 82.7429C98.8291 82.4233 99.1672 82.0695 99.4819 81.6974C100.286 80.7506 100.982 79.7124 101.753 78.7401C102.059 78.3533 102.381 77.9776 102.713 77.6104Z" fill="#7C60EA"/>
<path d="M74.21 90.1027C74.5808 89.0576 74.9672 88.0182 75.3578 86.9803C75.7532 85.9299 76.1295 84.869 76.6244 83.8599C77.0555 82.9811 77.6013 81.9464 78.5612 81.5542C79.8579 81.0244 80.8514 82.4685 81.4698 83.3793C82.2768 84.5678 83.5021 86.94 85.308 86.3891C86.3989 86.0563 86.8596 84.6851 87.3342 83.777C87.8186 82.85 88.2404 81.8937 88.6682 80.9398C89.0668 80.0508 89.5235 79.1608 90.229 78.4731C90.4655 78.2426 90.7352 78.0337 91.051 77.9368C92.2204 77.5779 93.0614 79.0296 93.4288 79.9064C93.863 80.9424 94.0537 82.0585 94.2363 83.1601C94.3798 84.026 94.7832 85.1859 95.7052 85.4919C97.2406 86.0015 98.3856 83.7884 99.1308 82.8235C99.3993 82.4758 99.6391 82.0659 100.138 82.1126C100.558 82.1519 100.931 82.4863 101.164 82.8159C101.572 83.3924 101.773 84.0971 101.924 84.7786C102.304 86.4944 102.401 88.241 102.522 89.9892" stroke="black" stroke-miterlimit="10"/>
<path d="M74.9314 72.597C74.9314 72.8043 74.7633 72.9723 74.5561 72.9723C74.3487 72.9723 74.1807 72.8043 74.1807 72.597C74.1807 72.3897 74.3487 72.2217 74.5561 72.2217C74.7634 72.2217 74.9314 72.3897 74.9314 72.597Z" fill="#7C60EA"/>
<path d="M75.9447 72.9723C76.152 72.9723 76.3201 72.8043 76.3201 72.597C76.3201 72.3897 76.152 72.2217 75.9447 72.2217C75.7374 72.2217 75.5693 72.3897 75.5693 72.597C75.5693 72.8043 75.7374 72.9723 75.9447 72.9723Z" fill="#7C60EA"/>
<path d="M77.7078 72.597C77.7078 72.8043 77.5397 72.9723 77.3324 72.9723C77.1251 72.9723 76.957 72.8043 76.957 72.597C76.957 72.3897 77.1251 72.2217 77.3324 72.2217C77.5397 72.2217 77.7078 72.3897 77.7078 72.597Z" fill="#7C60EA"/>
<path d="M64.4716 79.1967L61.5195 79.0156L62.8387 81.6623L64.4716 79.1967Z" fill="black"/>
<path d="M151.226 77.7487C151.064 77.7457 150.935 77.6121 150.939 77.4505C150.953 76.6651 151.402 76.2794 151.797 75.9392C152.157 75.629 152.442 75.384 152.452 74.8606C152.462 74.3371 152.187 74.0815 151.838 73.758C151.456 73.403 151.023 73.0006 151.038 72.2152C151.053 71.43 151.501 71.0443 151.896 70.7041C152.257 70.394 152.541 70.149 152.551 69.6256C152.561 69.1023 152.286 68.8467 151.937 68.5232C151.555 68.1682 151.122 67.7659 151.137 66.9806C151.14 66.8189 151.273 66.6904 151.435 66.6934C151.597 66.6965 151.725 66.83 151.722 66.9917C151.712 67.5151 151.988 67.7706 152.336 68.0942C152.718 68.4491 153.152 68.8515 153.137 69.6368C153.122 70.422 152.674 70.8077 152.278 71.1479C151.918 71.458 151.633 71.703 151.623 72.2263C151.613 72.7498 151.888 73.0054 152.237 73.3289C152.619 73.6839 153.052 74.0863 153.038 74.8717C153.023 75.657 152.574 76.0427 152.179 76.383C151.819 76.6931 151.534 76.9381 151.524 77.4616C151.521 77.6232 151.387 77.7518 151.226 77.7487Z" fill="black"/>
<path d="M14.6059 27.1934L10.8877 28.4604L13.8442 31.0464L14.6059 27.1934Z" fill="black"/>
<path d="M74.713 100.482L73.2677 100.009C73.1432 99.5228 72.9501 99.0643 72.6993 98.6433L73.3891 97.2853C73.4511 97.162 73.4278 97.0142 73.331 96.917L72.6049 96.1918C72.5081 96.0951 72.3603 96.0709 72.2378 96.1334L71.7032 96.4046L70.8783 96.8222C70.7011 96.7169 70.5173 96.6214 70.327 96.5373C70.066 96.4217 69.7944 96.3265 69.5131 96.2547L69.0402 94.8101C68.9973 94.679 68.876 94.5908 68.7388 94.5908H67.7126C67.6979 94.5908 67.684 94.5921 67.6693 94.5945C67.5501 94.61 67.4504 94.6925 67.4116 94.8097L66.9391 96.2546C66.4528 96.3788 65.9945 96.5723 65.5731 96.8222L65.0103 96.5372L64.2148 96.1334C64.0915 96.0717 63.9436 96.095 63.8464 96.1918L63.6341 96.4036L63.1212 96.9173C63.0236 97.0141 63.0002 97.1619 63.0627 97.2844L63.7521 98.6432C63.5013 99.0642 63.3081 99.5227 63.1844 100.009L61.7388 100.481C61.6077 100.524 61.5195 100.646 61.5195 100.783V101.809C61.5195 101.946 61.6069 102.067 61.7384 102.109L63.1836 102.583C63.3082 103.068 63.5013 103.527 63.7521 103.947L63.0628 105.306C63.0003 105.429 63.0236 105.577 63.1212 105.674L63.6341 106.187L63.8465 106.399C63.9437 106.497 64.0911 106.52 64.214 106.458L65.0103 106.054L65.5731 105.769C65.9945 106.019 66.4527 106.213 66.9391 106.336L67.4112 107.781C67.4496 107.899 67.55 107.981 67.6685 107.997C67.6831 107.999 67.6979 108 67.7126 108H68.7388C68.876 108 68.997 107.913 69.0398 107.782L69.5131 106.337C69.7945 106.265 70.0661 106.17 70.327 106.054C70.5173 105.97 70.7011 105.874 70.8783 105.769L71.7032 106.188L72.2366 106.458C72.3599 106.52 72.5081 106.497 72.6049 106.399L73.331 105.674C73.4278 105.577 73.4511 105.429 73.3891 105.307L72.6993 103.948C72.95 103.527 73.1432 103.068 73.2677 102.583L74.7126 102.11C74.8437 102.067 74.9319 101.946 74.9319 101.808V100.782C74.9319 100.645 74.8445 100.524 74.713 100.482ZM68.2255 104.263C66.5891 104.263 65.257 102.933 65.257 101.295C65.257 99.6588 66.5891 98.3286 68.2255 98.3286C69.8623 98.3286 71.1944 99.6588 71.1944 101.295C71.1944 102.933 69.8623 104.263 68.2255 104.263Z" fill="black"/>
<path d="M74.0334 99.8881L72.5882 99.4153C72.4636 98.929 72.2705 98.4705 72.0197 98.0495L72.7095 96.6915C72.7715 96.5682 72.7483 96.4204 72.6515 96.3232L71.9254 95.598C71.8286 95.5013 71.6808 95.4772 71.5582 95.5396L71.0237 95.8107L70.1988 96.2284C70.0215 96.1231 69.8377 96.0275 69.6474 95.9434C69.3865 95.8279 69.1149 95.7328 68.8336 95.6609L68.3607 94.2163C68.3178 94.0852 68.1965 93.9971 68.0593 93.9971H67.033C67.0183 93.9971 67.0044 93.9983 66.9897 94.0008C66.8705 94.0163 66.7709 94.0988 66.7321 94.2159L66.2596 95.6609C65.7732 95.785 65.315 95.9786 64.8935 96.2284L64.3308 95.9434L63.5352 95.5396C63.4119 95.478 63.264 95.5012 63.1668 95.598L62.9545 95.8099L62.4415 96.3235C62.3439 96.4203 62.3206 96.5681 62.3831 96.6906L63.0724 98.0494C62.8217 98.4704 62.6285 98.9289 62.5048 99.4152L61.0592 99.8876C60.9281 99.9305 60.8398 100.052 60.8398 100.189V101.215C60.8398 101.352 60.9272 101.473 61.0587 101.515L62.504 101.989C62.6285 102.475 62.8217 102.933 63.0724 103.354L62.3831 104.712C62.3206 104.835 62.3439 104.983 62.4415 105.08L62.9545 105.593L63.1668 105.806C63.264 105.903 63.4114 105.926 63.5344 105.864L64.3307 105.46L64.8935 105.175C65.3149 105.425 65.7731 105.619 66.2595 105.743L66.7316 107.188C66.77 107.305 66.8704 107.387 66.9888 107.403C67.0035 107.405 67.0182 107.406 67.0329 107.406H68.0592C68.1964 107.406 68.3173 107.319 68.3602 107.188L68.8335 105.743C69.1149 105.671 69.3865 105.576 69.6474 105.46C69.8377 105.376 70.0215 105.28 70.1987 105.175L71.0236 105.594L71.5569 105.864C71.6803 105.926 71.8285 105.903 71.9253 105.806L72.6514 105.08C72.7482 104.983 72.7715 104.835 72.7094 104.713L72.0196 103.354C72.2704 102.933 72.4636 102.475 72.5881 101.989L74.033 101.516C74.1641 101.473 74.2522 101.352 74.2522 101.215V100.188C74.2523 100.051 74.1649 99.9306 74.0334 99.8881ZM67.5459 103.669C65.9096 103.669 64.5774 102.339 64.5774 100.701C64.5774 99.065 65.9096 97.7347 67.5459 97.7347C69.1827 97.7347 70.5148 99.065 70.5148 100.701C70.5148 102.339 69.1827 103.669 67.5459 103.669Z" fill="white"/>
<path d="M74.0334 99.8881L72.5882 99.4153C72.4636 98.929 72.2705 98.4705 72.0197 98.0495L72.7095 96.6915C72.7715 96.5682 72.7483 96.4204 72.6515 96.3232L71.9254 95.598C71.8286 95.5013 71.6808 95.4772 71.5582 95.5396L71.0237 95.8107L70.1988 96.2284C70.0215 96.1231 69.8377 96.0275 69.6474 95.9434C69.3865 95.8279 69.1149 95.7328 68.8336 95.6609L68.3607 94.2163C68.3178 94.0852 68.1965 93.9971 68.0593 93.9971H67.033C67.0183 93.9971 67.0044 93.9983 66.9897 94.0008C66.8705 94.0163 66.7709 94.0988 66.7321 94.2159L66.2596 95.6609C65.7732 95.785 65.315 95.9786 64.8935 96.2284L64.3308 95.9434L63.5352 95.5396C63.4119 95.478 63.264 95.5012 63.1668 95.598L62.9545 95.8099L62.4415 96.3235C62.3439 96.4203 62.3206 96.5681 62.3831 96.6906L63.0724 98.0494C62.8217 98.4704 62.6285 98.9289 62.5048 99.4152L61.0592 99.8876C60.9281 99.9305 60.8398 100.052 60.8398 100.189V101.215C60.8398 101.352 60.9272 101.473 61.0587 101.515L62.504 101.989C62.6285 102.475 62.8217 102.933 63.0724 103.354L62.3831 104.712C62.3206 104.835 62.3439 104.983 62.4415 105.08L62.9545 105.593L63.1668 105.806C63.264 105.903 63.4114 105.926 63.5344 105.864L64.3307 105.46L64.8935 105.175C65.3149 105.425 65.7731 105.619 66.2595 105.743L66.7316 107.188C66.77 107.305 66.8704 107.387 66.9888 107.403C67.0035 107.405 67.0182 107.406 67.0329 107.406H68.0592C68.1964 107.406 68.3173 107.319 68.3602 107.188L68.8335 105.743C69.1149 105.671 69.3865 105.576 69.6474 105.46C69.8377 105.376 70.0215 105.28 70.1987 105.175L71.0236 105.594L71.5569 105.864C71.6803 105.926 71.8285 105.903 71.9253 105.806L72.6514 105.08C72.7482 104.983 72.7715 104.835 72.7094 104.713L72.0196 103.354C72.2704 102.933 72.4636 102.475 72.5881 101.989L74.033 101.516C74.1641 101.473 74.2522 101.352 74.2522 101.215V100.188C74.2523 100.051 74.1649 99.9306 74.0334 99.8881ZM67.5459 103.669C65.9096 103.669 64.5774 102.339 64.5774 100.701C64.5774 99.065 65.9096 97.7347 67.5459 97.7347C69.1827 97.7347 70.5148 99.065 70.5148 100.701C70.5148 102.339 69.1827 103.669 67.5459 103.669Z" stroke="black" stroke-miterlimit="10" stroke-linecap="round"/>
<path d="M156.496 29.2158L153.772 29.0488L154.99 31.4905L156.496 29.2158Z" fill="black"/>
<path d="M83.9437 10.9174C83.9437 11.0533 83.8336 11.1635 83.6976 11.1635C83.0371 11.1635 82.7058 10.793 82.4134 10.4661C82.1469 10.1681 81.9365 9.93287 81.4962 9.93287C81.056 9.93287 80.8455 10.1681 80.5791 10.4662C80.2867 10.793 79.9553 11.1635 79.2949 11.1635C78.6345 11.1635 78.3031 10.793 78.0108 10.4661C77.7444 10.1681 77.534 9.93287 77.0938 9.93287C76.6536 9.93287 76.4432 10.1681 76.1768 10.4661C75.8844 10.793 75.5531 11.1635 74.8926 11.1635C74.7567 11.1635 74.6465 11.0533 74.6465 10.9174C74.6465 10.7814 74.7567 10.6712 74.8926 10.6712C75.3328 10.6712 75.5432 10.4359 75.8097 10.1379C76.102 9.81101 76.4334 9.44043 77.0938 9.44043C77.7542 9.44043 78.0856 9.81101 78.3778 10.1379C78.6443 10.4358 78.8547 10.6712 79.2949 10.6712C79.7351 10.6712 79.9456 10.4359 80.2121 10.1379C80.5044 9.81101 80.8358 9.44043 81.4962 9.44043C82.1567 9.44043 82.4881 9.81101 82.7805 10.1379C83.047 10.4358 83.2574 10.6712 83.6976 10.6712C83.8336 10.6712 83.9437 10.7813 83.9437 10.9174Z" fill="black"/>
<path d="M126.093 59.2573H61.514C60.2841 59.2573 59.2871 58.2604 59.2871 57.0308V17.498C59.2871 16.2683 60.2841 15.2715 61.514 15.2715H126.093C127.323 15.2715 128.32 16.2683 128.32 17.498V57.0308C128.32 58.2604 127.323 59.2573 126.093 59.2573Z" fill="white"/>
<path d="M126.093 59.2573H61.514C60.2841 59.2573 59.2871 58.2604 59.2871 57.0308V17.498C59.2871 16.2683 60.2841 15.2715 61.514 15.2715H126.093C127.323 15.2715 128.32 16.2683 128.32 17.498V57.0308C128.32 58.2604 127.323 59.2573 126.093 59.2573Z" stroke="black" stroke-miterlimit="10"/>
<path d="M67.8858 40.0557H63.9746V54.2566H67.8858V40.0557Z" fill="black"/>
<path d="M81.8224 28.5693H77.9111V54.2565H81.8224V28.5693Z" fill="black"/>
<path d="M75.3143 34.3301H70.4824V54.2562H75.3143V34.3301Z" fill="#7C60EA"/>
<path d="M95.7598 44.5381H91.8486V54.2567H95.7598V44.5381Z" fill="black"/>
<path d="M88.7911 44.5381H84.8799V54.2567H88.7911V44.5381Z" fill="#7C60EA"/>
<path d="M109.696 38.3408H105.785V54.2567H109.696V38.3408Z" fill="black"/>
<path d="M102.728 24.5234H98.8164V54.2566H102.728V24.5234Z" fill="#7C60EA"/>
<path d="M116.664 20.5693H112.753V54.2566H116.664V20.5693Z" fill="#7C60EA"/>
<path d="M123.633 43.165H119.722V54.256H123.633V43.165Z" fill="black"/>
<path d="M66.2676 20.2725H93.1036" stroke="black" stroke-miterlimit="10"/>
<path d="M66.2676 23.0557H85.3767" stroke="black" stroke-miterlimit="10"/>
<path d="M66.2676 25.8389H85.3767" stroke="black" stroke-miterlimit="10"/>
<path d="M145.214 85.288H102.052C101.221 85.288 100.547 84.6144 100.547 83.7834V57.3533C100.547 56.5223 101.221 55.8486 102.052 55.8486H145.214C146.045 55.8486 146.719 56.5223 146.719 57.3533V83.7834C146.719 84.6144 146.045 85.288 145.214 85.288Z" fill="white"/>
<path d="M145.214 85.288H102.052C101.221 85.288 100.547 84.6144 100.547 83.7834V57.3533C100.547 56.5223 101.221 55.8486 102.052 55.8486H145.214C146.045 55.8486 146.719 56.5223 146.719 57.3533V83.7834C146.719 84.6144 146.045 85.288 145.214 85.288Z" stroke="black" stroke-miterlimit="10"/>
<path d="M105.199 59.4189H118.394" stroke="black" stroke-miterlimit="10"/>
<path d="M105.199 61.0352H118.394" stroke="black" stroke-miterlimit="10"/>
<path d="M105.199 62.6514H124.071" stroke="black" stroke-miterlimit="10"/>
<path d="M105.199 64.2676H124.071" stroke="black" stroke-miterlimit="10"/>
<path d="M115.099 81.0217C114.375 81.3785 113.575 81.6084 112.735 81.6873C112.518 81.7079 112.299 81.7183 112.079 81.7183C111.86 81.7183 111.64 81.7079 111.427 81.6873C110.521 81.6016 109.67 81.3442 108.902 80.9395C108.511 80.7405 108.143 80.5003 107.804 80.2259C107.183 79.7388 106.651 79.1417 106.236 78.4659C106.002 78.0987 105.807 77.7042 105.652 77.2927C105.385 76.5995 105.23 75.8482 105.206 75.066C105.199 74.9905 105.199 74.915 105.199 74.8362C105.199 74.469 105.227 74.1122 105.282 73.7589C105.398 73.0213 105.632 72.3214 105.964 71.6833C106.163 71.2921 106.4 70.9216 106.675 70.5819C107.114 70.0193 107.639 69.5287 108.233 69.1309L109.094 70.6266C108.758 70.86 108.452 71.1377 108.181 71.45C107.893 71.7793 107.649 72.143 107.454 72.541C107.261 72.9218 107.117 73.33 107.028 73.7589C106.949 74.1055 106.911 74.4656 106.911 74.8362C106.911 74.9151 106.911 74.9905 106.918 75.066C106.939 75.5394 107.021 75.9924 107.162 76.4212C107.296 76.843 107.488 77.241 107.725 77.6082C107.985 78.0234 108.308 78.3973 108.675 78.7163C109.001 79.0045 109.365 79.2516 109.76 79.4504C110.271 79.7112 110.834 79.8862 111.427 79.9617C111.64 79.9892 111.86 80.0029 112.079 80.0029C112.302 80.0029 112.518 79.9892 112.735 79.9617C113.266 79.893 113.771 79.7456 114.237 79.5293L115.099 81.0217Z" fill="#7C60EA"/>
<path d="M118.963 74.836C118.963 74.9149 118.963 74.9903 118.956 75.0658C118.932 75.8858 118.764 76.668 118.469 77.3884V77.3918C118.311 77.8001 118.108 78.1912 117.872 78.5549C117.429 79.2444 116.866 79.8483 116.211 80.3389L115.343 78.8328C115.744 78.5103 116.094 78.126 116.379 77.6938C116.623 77.3335 116.818 76.9389 116.962 76.5205C117.124 76.0642 117.22 75.5735 117.24 75.0658C117.247 74.9902 117.247 74.9148 117.247 74.8359C117.247 74.4654 117.209 74.1052 117.131 73.7586C117.034 73.2954 116.873 72.8564 116.66 72.4481L118.15 71.5869C118.507 72.2525 118.757 72.9832 118.881 73.7586C118.935 74.112 118.963 74.4688 118.963 74.836Z" fill="black"/>
<path d="M117.422 70.4962L115.909 71.3712C115.617 71.0487 115.281 70.7606 114.917 70.5237C114.553 70.2801 114.159 70.0881 113.74 69.9474C113.418 69.8342 113.081 69.7553 112.735 69.7107C112.519 69.6833 112.302 69.6696 112.079 69.6696C111.86 69.6696 111.64 69.6833 111.427 69.7107C111.016 69.7622 110.621 69.8617 110.247 70.0091L109.379 68.5064C110.017 68.2321 110.707 68.0536 111.427 67.985C111.64 67.9644 111.86 67.9541 112.079 67.9541C112.299 67.9541 112.519 67.9643 112.735 67.985C113.394 68.0468 114.022 68.2012 114.612 68.4378C115.024 68.5958 115.411 68.7981 115.778 69.0315C116.403 69.4293 116.955 69.9233 117.422 70.4962Z" fill="#7C60EA"/>
<path d="M124.932 70.644C124.932 70.936 124.695 71.1727 124.403 71.1727C124.111 71.1727 123.874 70.936 123.874 70.644C123.874 70.352 124.111 70.1152 124.403 70.1152C124.695 70.1152 124.932 70.352 124.932 70.644Z" stroke="black" stroke-miterlimit="10"/>
<path d="M126.594 70.6445H142.066" stroke="black" stroke-miterlimit="10"/>
<path d="M124.932 73.4389C124.932 73.7309 124.695 73.9677 124.403 73.9677C124.111 73.9677 123.874 73.731 123.874 73.4389C123.874 73.1469 124.111 72.9102 124.403 72.9102C124.695 72.9102 124.932 73.1469 124.932 73.4389Z" stroke="black" stroke-miterlimit="10"/>
<path d="M126.594 73.4385H142.066" stroke="black" stroke-miterlimit="10"/>
<path d="M124.932 76.2338C124.932 76.5258 124.695 76.7626 124.403 76.7626C124.111 76.7626 123.874 76.5259 123.874 76.2338C123.874 75.9418 124.111 75.7051 124.403 75.7051C124.695 75.7051 124.932 75.9418 124.932 76.2338Z" stroke="black" stroke-miterlimit="10"/>
<path d="M126.594 76.2334H142.066" stroke="black" stroke-miterlimit="10"/>
<path d="M124.932 79.0288C124.932 79.3207 124.695 79.5575 124.403 79.5575C124.111 79.5575 123.874 79.3208 123.874 79.0288C123.874 78.7368 124.111 78.5 124.403 78.5C124.695 78.5 124.932 78.7367 124.932 79.0288Z" stroke="black" stroke-miterlimit="10"/>
<path d="M126.594 79.0283H142.066" stroke="black" stroke-miterlimit="10"/>
<path d="M47.6104 100.998H9.19872C8.96003 96.4762 8.61816 92.5997 8.30273 89.5771C11.1303 89.8887 14.0784 90.1553 17.1396 90.3609C20.4721 90.585 23.9385 90.7374 27.5304 90.798C27.7478 90.8725 27.9635 90.9397 28.1781 91.0002C28.2493 91.0199 28.3205 91.0395 28.3916 91.0579C28.3916 91.0579 28.3916 91.0579 28.3922 91.0579C28.4633 91.0764 28.534 91.0938 28.6046 91.1112C29.7332 91.3812 30.8074 91.4518 31.7516 91.333C31.7588 91.3325 31.7656 91.3313 31.7729 91.3302C31.8827 91.3162 31.9908 91.2994 32.0973 91.2803C32.1069 91.2786 32.1164 91.2764 32.1265 91.2747C32.229 91.2557 32.3304 91.2338 32.4296 91.2103C32.4913 91.1952 32.5524 91.1795 32.6128 91.1627C32.7467 91.1251 32.8773 91.0831 33.004 91.0361C33.0045 91.0361 33.0045 91.0361 33.0045 91.0361C33.055 91.0176 33.1049 90.998 33.1542 90.9783C33.2769 90.9279 33.3962 90.873 33.5105 90.8136H33.5111C33.8289 90.8097 34.1455 90.8057 34.4604 90.8002C38.6575 90.7318 42.6714 90.5391 46.4869 90.2539C46.8824 93.834 47.2567 97.4151 47.6104 100.998Z" fill="black"/>
<path d="M47.6104 100.998H9.19872C8.96003 96.4762 8.61816 92.5997 8.30273 89.5771C11.1303 89.8887 14.0784 90.1553 17.1396 90.3609C20.4721 90.585 23.9385 90.7374 27.5304 90.798C27.7478 90.8725 27.9635 90.9397 28.1781 91.0002C28.2493 91.0199 28.3205 91.0395 28.3916 91.0579C28.3916 91.0579 28.3916 91.0579 28.3922 91.0579C28.4633 91.0764 28.534 91.0938 28.6046 91.1112C29.7332 91.3812 30.8074 91.4518 31.7516 91.333C31.7588 91.3325 31.7656 91.3313 31.7729 91.3302C31.8827 91.3162 31.9908 91.2994 32.0973 91.2803C32.1069 91.2786 32.1164 91.2764 32.1265 91.2747C32.229 91.2557 32.3304 91.2338 32.4296 91.2103C32.4913 91.1952 32.5524 91.1795 32.6128 91.1627C32.7467 91.1251 32.8773 91.0831 33.004 91.0361C33.0045 91.0361 33.0045 91.0361 33.0045 91.0361C33.055 91.0176 33.1049 90.998 33.1542 90.9783C33.2769 90.9279 33.3962 90.873 33.5105 90.8136H33.5111C33.8289 90.8097 34.1455 90.8057 34.4604 90.8002C38.6575 90.7318 42.6714 90.5391 46.4869 90.2539C46.8824 93.834 47.2567 97.4151 47.6104 100.998Z" stroke="black" stroke-miterlimit="10" stroke-linecap="round"/>
<path d="M12.747 86.251C10.8212 85.0439 9.04628 83.5931 7.48722 81.8957C7.345 81.7413 7.20454 81.5847 7.06758 81.4268C5.49929 79.6318 4.21538 77.6391 3.21648 75.4658C2.25182 73.3661 1.57965 71.1365 1.19484 68.8594C1.17333 68.7358 1.15365 68.6128 1.13448 68.4897C0.652735 65.392 0.691651 62.2106 1.21861 59.1182C2.01442 59.8302 2.95121 60.5713 4.04067 61.2781C0.057228 73.694 7.84422 82.2845 12.747 86.251Z" fill="black"/>
<path d="M35.9088 88.7441C35.686 88.8503 35.4259 88.9319 35.1367 88.9838L35.9088 88.7441Z" fill="black"/>
<path d="M52.2194 58.8897C49.6858 61.4657 46.831 62.7435 44.7134 63.3875C44.8492 64.5481 44.9857 65.7088 45.1233 66.8688C45.6509 71.3358 46.1845 75.8028 46.7236 80.2686C47.1208 83.5598 47.5217 86.8511 47.9255 90.1423C47.4492 90.1809 46.9699 90.2183 46.487 90.2545C42.3844 90.5605 38.0524 90.7609 33.511 90.814C33.75 90.6909 33.9698 90.5472 34.1666 90.3843C34.8965 90.3058 35.6565 90.0807 35.8901 89.5067C35.9903 89.2611 35.9765 88.9955 35.9088 88.7444C36.3176 88.5494 36.603 88.2736 36.7232 87.9507C36.7636 87.8421 36.8421 87.5746 36.7317 87.154C36.9236 87.0146 37.0872 86.8443 37.2055 86.6355C37.3033 86.4629 37.5092 86.0181 37.3589 85.8683C37.1929 85.703 36.7063 86.0138 36.1968 86.219C34.853 86.7605 33.2297 86.6144 33.0842 86.1973C32.9399 85.7821 34.3502 85.3548 34.597 84.0499C34.7027 83.491 34.5813 82.8439 34.3339 82.7788C33.9433 82.675 33.6094 84.1163 32.2736 84.9046C31.7091 85.2371 31.1453 85.3476 30.739 85.3868C30.0309 85.3222 29.0185 85.1925 27.8311 84.9046C27.8311 84.9046 23.2806 83.8012 19.8101 80.9705C14.9125 76.9761 13.2904 70.7721 14.2249 64.8662C11.7541 64.5995 8.6681 63.8854 5.50365 62.152C3.76872 61.202 2.35064 60.1307 1.21875 59.1179V59.1173C2.65606 50.6698 7.73118 42.8857 15.7546 39.2709C16.4422 38.9612 17.1442 38.6848 17.8584 38.4428C19.5553 37.8664 21.3132 37.4903 23.0917 37.3057C23.2746 38.1597 23.6537 39.2431 24.456 40.2619C26.1734 42.4432 29.7864 44.2708 32.8416 42.64C34.1914 41.92 35.1929 40.6513 35.7012 39.1339C35.7108 39.1381 35.7211 39.1417 35.7308 39.146C41.1167 41.3574 45.5918 45.2408 49.7245 49.2496C51.5162 50.9879 53.3676 52.8505 55.4443 54.3214C54.7748 55.6914 53.7594 57.3241 52.2194 58.8897Z" fill="#7C60EA"/>
<path d="M34.1592 87.7754C34.6512 87.7759 35.934 87.7349 36.732 87.1543L34.1592 87.7754Z" fill="black"/>
<path d="M27.5301 90.7979C20.6397 90.6815 14.2088 90.2282 8.30251 89.5769C7.93972 89.5371 7.57927 89.4967 7.22071 89.455C7.16938 86.7782 7.11871 84.102 7.06738 81.4258C7.2044 81.584 7.34448 81.7402 7.48695 81.8948C12.5946 87.4536 20.0162 90.3736 27.4716 90.7781H27.4721C27.4915 90.7853 27.5108 90.7919 27.5301 90.7979Z" fill="#7C60EA"/>
<path d="M44.7135 63.3874C44.204 59.0556 43.7012 54.7226 43.2031 50.3896L44.7135 63.3874Z" fill="black"/>
<path d="M73.8612 62.6738C72.6203 63.9209 71.4792 64.9127 70.5273 65.6822C65.9779 69.3603 62.9092 70.2493 61.7112 70.5476C60.104 70.9469 54.1314 72.2062 48.1432 68.9447C46.9457 68.293 45.9433 67.5671 45.1227 66.8695C44.9851 65.7095 44.8487 64.5488 44.7129 63.3882C45.0809 63.2762 45.4715 63.145 45.8784 62.9912C45.8847 62.9889 45.8906 62.9865 45.8969 62.9843C54.5105 74.3342 67.7006 67.0976 73.8612 62.6738Z" fill="black"/>
<path d="M85.4412 46.468C85.2973 47.0442 84.9624 47.3936 84.5759 47.7969C84.1278 48.2641 83.6739 48.5606 83.3511 48.7393C80.4299 55.1757 76.8544 59.6662 73.8618 62.6734C67.7011 67.0972 54.511 74.3337 45.8975 62.9839C47.8285 62.2521 50.1329 61.0108 52.2195 58.8897C53.7594 57.324 54.7751 55.6916 55.4443 54.3214C57.1641 55.5389 59.0377 56.4878 61.1597 56.8748C66.055 57.7697 70.8093 55.4147 74.6308 52.5642C75.9066 51.6125 76.9345 50.6829 77.7181 49.9069C77.7186 49.9064 77.7186 49.9064 77.7186 49.9064C77.8284 49.6063 77.9293 49.2878 78.0141 48.9569C78.0663 48.7503 78.151 48.4126 78.2143 47.9547C78.299 47.3419 78.263 47.0982 78.3089 46.4888C78.3716 45.6555 78.4035 45.2382 78.5515 44.9382C78.6449 44.7508 78.7477 44.6196 80.2394 43.5356C80.9771 43 81.2691 42.8015 81.4107 42.9025C81.5564 43.0069 81.4612 43.3702 81.4212 43.5246C81.3811 43.679 81.2198 44.2163 80.3242 45.0967C79.9933 45.4211 79.8407 45.5197 79.8703 45.6555C79.9208 45.8882 80.4588 46.0269 80.9046 45.9723C81.561 45.8906 81.9952 45.3897 82.4549 44.8437C82.921 44.2894 82.9772 44.0364 83.7208 43.1027C84.1149 42.6094 84.3541 42.3598 84.5438 42.4173C84.7267 42.473 84.7818 42.7887 84.8178 42.9976C84.852 43.1949 84.8776 43.4909 84.8091 43.8652C84.9954 43.961 85.1916 44.1124 85.2932 44.3474C85.3889 44.5697 85.3709 44.799 85.2984 45.0276C85.6577 45.5975 85.4818 46.3031 85.4412 46.468Z" fill="white"/>
<path d="M82.8984 47.9335C83.3439 47.5274 83.7061 47.1718 83.9742 46.9003C84.6962 46.1694 84.8701 45.9128 84.998 45.6762C85.1121 45.465 85.2304 45.2459 85.2987 45.0273L82.8984 47.9335Z" fill="black"/>
<path d="M82.6875 46.7315C82.9326 46.5462 83.2688 46.268 83.6268 45.8877C84.0204 45.4688 84.379 45.0874 84.6289 44.4742C84.7188 44.2539 84.7756 44.0499 84.8094 43.8652L82.6875 46.7315Z" fill="black"/>
<path d="M32.3999 95.6641L31.746 100.998H31.709C31.9359 99.22 32.1662 97.4418 32.3999 95.6641Z" fill="black"/>
<path d="M33.2167 38.6521C31.8783 38.5369 30.7006 38.1445 29.7867 37.4878C29.7867 37.4878 29.7861 37.4878 29.7861 37.4872C29.4679 37.2584 29.1824 36.9989 28.9325 36.7068C28.519 36.2234 28.0137 35.429 27.7861 34.167C28.1441 34.5406 28.8021 35.12 29.7783 35.4454C30.7532 35.7695 31.8706 35.7815 32.883 35.4828C32.9191 35.9855 32.9644 36.4986 33.0194 37.0206C33.0629 37.4365 33.1105 37.8445 33.1625 38.2446C33.1799 38.3817 33.198 38.5175 33.2167 38.6521Z" fill="black"/>
<path d="M37.693 24.1843C37.4183 25.2846 37.0266 25.9069 36.6946 26.5889C36.412 27.169 36.1011 27.9391 35.8645 28.9223C35.7583 27.8135 35.5113 26.8841 35.2729 26.1869C35.1673 25.8761 34.988 25.5924 34.7429 25.3734C34.5443 25.1965 34.2877 25.042 33.9798 25.0136C33.8386 25.001 33.6013 25.007 32.8123 25.4077C31.8821 25.8803 31.9412 26.0095 31.5181 26.167C30.4858 26.5521 29.9552 25.8495 29.2114 26.2799C28.5932 26.6366 28.4369 27.4237 28.4098 27.5594C28.2824 28.1968 28.5444 28.504 28.5927 29.1625C28.6283 29.6581 28.5444 30.3648 27.9878 31.2581C28.1013 30.5217 27.791 29.8367 27.2423 29.5567C26.9133 29.3883 26.4128 29.3218 26.0326 29.5706C25.5913 29.859 25.5393 30.4228 25.4977 30.8646C25.4005 31.9147 25.7959 32.7918 26.1025 33.3115C25.9287 33.262 25.6878 33.1787 25.43 33.032C25.2199 32.9137 24.9996 32.7544 24.7944 32.5377C24.3332 32.0506 24.1653 31.5014 24.035 31.0752C23.7548 30.1578 23.9752 29.9671 23.6691 29.4015C23.3148 28.7461 22.9483 28.8734 22.699 28.3188C22.3893 27.6313 22.6851 26.8413 22.9803 26.0548C23.284 25.2442 23.453 25.2822 23.6413 24.6202C23.925 23.6213 23.5737 23.4137 23.852 22.7213C24.1798 21.9078 25.0038 21.3537 25.7373 21.1744C26.3464 21.0259 26.4001 21.2565 27.27 21.1744C28.2642 21.0814 29.0279 20.7018 29.5489 20.4435C30.5775 19.9323 30.7049 19.6112 31.4758 19.4869C31.745 19.4434 32.4381 19.3317 32.7984 19.712C33.087 20.0168 32.8944 20.3566 33.1359 20.5697C33.5265 20.915 34.2472 20.2142 35.2741 20.2045C36.2478 20.1948 37.332 20.8093 37.7636 21.7092C38.124 22.4605 37.9357 23.215 37.693 24.1843Z" fill="black"/>
<path d="M34.5067 38.6798C34.9087 38.8217 35.3071 38.9732 35.7013 39.1343C35.193 40.6517 34.1915 41.9204 32.8417 42.6405C29.7865 44.2713 26.1735 42.4437 24.4561 40.2624C23.6538 39.2436 23.2747 38.1602 23.0918 37.3061C23.6635 37.2464 24.237 37.2065 24.8117 37.186C24.9215 36.7454 25.0223 36.2843 25.1099 35.8027C25.2867 34.8322 25.3857 33.9044 25.4298 33.0323C25.6876 33.179 25.9284 33.2623 26.1023 33.3118C25.7956 32.7921 25.4002 31.9151 25.4974 30.8649C25.5391 30.4231 25.591 29.8594 26.0323 29.5709C26.4126 29.3222 26.913 29.3886 27.242 29.557C27.7907 29.837 28.101 30.522 27.9875 31.2584C28.5441 30.3651 28.6281 29.6583 28.5924 29.1628C28.5441 28.5043 28.2821 28.1971 28.4095 27.5597C28.4367 27.4239 28.593 26.6369 29.2112 26.2802C29.9549 25.8499 30.4855 26.5524 31.5178 26.1673C31.941 26.0098 31.8818 25.8806 32.8121 25.408C33.6011 25.0072 33.8383 25.0013 33.9796 25.0139C34.2875 25.0423 34.544 25.1968 34.7426 25.3737C34.9877 25.5928 35.167 25.8764 35.2726 26.1873C35.5111 26.8844 35.758 27.8139 35.8643 28.9226C35.8811 29.1007 35.895 29.2829 35.9041 29.4701C35.994 31.3037 36.0725 32.8977 34.9823 34.1676C34.4347 34.8056 33.6929 35.2437 32.8833 35.4834C31.871 35.7821 30.7536 35.7701 29.7787 35.4459C28.8025 35.1206 28.1445 34.5411 27.7865 34.1676C28.0141 35.4296 28.5194 36.2239 28.9329 36.7074C29.1828 36.9995 29.4684 37.2591 29.7865 37.4878C29.7865 37.4884 29.7871 37.4884 29.7871 37.4884C30.701 38.1451 31.8788 38.5374 33.2171 38.6527C33.1984 38.5181 33.1803 38.3823 33.1628 38.2453C33.615 38.378 34.063 38.5229 34.5067 38.6798Z" fill="white"/>
<path d="M32.9092 88.8496C33.7447 89.0711 34.5107 89.0971 35.1367 88.9842L32.9092 88.8496Z" fill="black"/>
<path d="M30.2246 89.5771C30.8794 89.9607 31.6846 90.2849 32.6248 90.3829C32.7461 90.3955 33.4421 90.4619 34.1671 90.3841L30.2246 89.5771Z" fill="black"/>
<path d="M35.9088 88.7441C35.686 88.8503 35.4259 88.9319 35.1367 88.9838" stroke="black" stroke-miterlimit="10" stroke-linecap="round"/>
<path d="M52.2194 58.8897C49.6858 61.4657 46.831 62.7435 44.7134 63.3875C44.8492 64.5481 44.9857 65.7088 45.1233 66.8688C45.6509 71.3358 46.1845 75.8028 46.7236 80.2686C47.1208 83.5598 47.5217 86.8511 47.9255 90.1423C47.4492 90.1809 46.9699 90.2183 46.487 90.2545C42.3844 90.5605 38.0524 90.7609 33.511 90.814C33.75 90.6909 33.9698 90.5472 34.1666 90.3843C34.8965 90.3058 35.6565 90.0807 35.8901 89.5067C35.9903 89.2611 35.9765 88.9955 35.9088 88.7444C36.3176 88.5494 36.603 88.2736 36.7232 87.9507C36.7636 87.8421 36.8421 87.5746 36.7317 87.154C36.9236 87.0146 37.0872 86.8443 37.2055 86.6355C37.3033 86.4629 37.5092 86.0181 37.3589 85.8683C37.1929 85.703 36.7063 86.0138 36.1968 86.219C34.853 86.7605 33.2297 86.6144 33.0842 86.1973C32.9399 85.7821 34.3502 85.3548 34.597 84.0499C34.7027 83.491 34.5813 82.8439 34.3339 82.7788C33.9433 82.675 33.6094 84.1163 32.2736 84.9046C31.7091 85.2371 31.1453 85.3476 30.739 85.3868C30.0309 85.3222 29.0185 85.1925 27.8311 84.9046C27.8311 84.9046 23.2806 83.8012 19.8101 80.9705C14.9125 76.9761 13.2904 70.7721 14.2249 64.8662C11.7541 64.5995 8.6681 63.8854 5.50365 62.152C3.76872 61.202 2.35064 60.1307 1.21875 59.1179V59.1173C2.65606 50.6698 7.73118 42.8857 15.7546 39.2709C16.4422 38.9612 17.1442 38.6848 17.8584 38.4428C19.5553 37.8664 21.3132 37.4903 23.0917 37.3057C23.2746 38.1597 23.6537 39.2431 24.456 40.2619C26.1734 42.4432 29.7864 44.2708 32.8416 42.64C34.1914 41.92 35.1929 40.6513 35.7012 39.1339C35.7108 39.1381 35.7211 39.1417 35.7308 39.146C41.1168 41.3574 45.5918 45.2408 49.7245 49.2496C51.5162 50.9879 53.3676 52.8505 55.4443 54.3214C54.7748 55.6914 53.7594 57.3241 52.2194 58.8897Z" stroke="black" stroke-miterlimit="10" stroke-linecap="round"/>
<path d="M19.1578 54.3389C16.5493 57.248 14.8373 60.9932 14.2246 64.8662" stroke="black" stroke-miterlimit="10" stroke-linecap="round"/>
<path d="M27.5301 90.7979C20.6397 90.6815 14.2088 90.2282 8.30251 89.5769C7.93972 89.5371 7.57927 89.4967 7.22071 89.455C7.16938 86.7782 7.11871 84.102 7.06738 81.4258C7.2044 81.584 7.34448 81.7402 7.48695 81.8948C12.5946 87.4536 20.0162 90.3736 27.4716 90.7781H27.4721C27.4915 90.7853 27.5108 90.7919 27.5301 90.7979Z" stroke="black" stroke-miterlimit="10" stroke-linecap="round"/>
<path d="M44.7135 63.3874C44.204 59.0556 43.7012 54.7226 43.2031 50.3896" stroke="black" stroke-miterlimit="10" stroke-linecap="round"/>
<path d="M85.4413 46.4677C85.2976 47.0441 84.9626 47.3936 84.5762 47.7968C84.1283 48.2639 83.6743 48.5603 83.3513 48.7395C79.2186 57.8449 73.7759 63.0561 70.5281 65.6816C65.9788 69.3597 62.9097 70.2487 61.712 70.5469C60.1051 70.9464 54.1323 72.2055 48.1439 68.9444C46.9468 68.2926 45.9441 67.5665 45.1238 66.8688C44.9861 65.7088 44.8497 64.5481 44.7139 63.3875C46.8315 62.7435 49.6863 61.4657 52.2199 58.8897C53.7599 57.324 54.7753 55.6914 55.4447 54.3213C57.1646 55.5387 59.0378 56.4875 61.1603 56.875C66.0555 57.7695 70.8095 55.4149 74.6313 52.5644C75.9069 51.6125 76.9349 50.6831 77.7185 49.9069C77.7191 49.9062 77.7191 49.9062 77.7191 49.9062C77.829 49.6063 77.9298 49.2876 78.0143 48.9568C78.0668 48.7504 78.1513 48.4124 78.2148 47.9549C78.2993 47.3417 78.2637 47.0979 78.3095 46.4889C78.3723 45.6554 78.4037 45.2383 78.5522 44.9384C78.6452 44.7507 78.7484 44.6197 80.2401 43.5357C80.9778 42.9997 81.2693 42.8017 81.4112 42.9026C81.5567 43.007 81.462 43.3703 81.4215 43.5248C81.3817 43.6788 81.2205 44.2165 80.3246 45.0966C79.9938 45.4213 79.8411 45.5197 79.8707 45.6554C79.9214 45.8884 80.4592 46.0272 80.9048 45.9723C81.5616 45.8908 81.9956 45.3898 82.4556 44.8436C82.9216 44.2896 82.9778 44.0366 83.7215 43.103C84.1151 42.6092 84.3548 42.36 84.5444 42.4173C84.7273 42.4728 84.7822 42.7885 84.8184 42.9979C84.8528 43.1953 84.8782 43.491 84.8094 43.8652C84.9959 43.9612 85.1921 44.1127 85.2935 44.3475C85.3895 44.5696 85.3714 44.7989 85.299 45.0276C85.658 45.5974 85.4823 46.3029 85.4413 46.4677Z" stroke="black" stroke-miterlimit="10" stroke-linecap="round"/>
<path d="M82.8984 47.9335C83.3439 47.5274 83.7061 47.1718 83.9742 46.9003C84.6962 46.1694 84.8701 45.9128 84.998 45.6762C85.1121 45.465 85.2304 45.2459 85.2987 45.0273" stroke="black" stroke-miterlimit="10" stroke-linecap="round"/>
<path d="M82.6875 46.7315C82.9326 46.5462 83.2688 46.268 83.6268 45.8877C84.0204 45.4688 84.379 45.0874 84.6289 44.4742C84.7188 44.2539 84.7756 44.0499 84.8094 43.8652" stroke="black" stroke-miterlimit="10" stroke-linecap="round"/>
<path d="M32.3999 95.6641C32.1662 97.4417 31.9359 99.22 31.709 100.998" stroke="white" stroke-miterlimit="10" stroke-linecap="round"/>
<path d="M33.2167 38.6521C31.8783 38.5369 30.7006 38.1445 29.7867 37.4878C29.7867 37.4878 29.7861 37.4878 29.7861 37.4872C29.4679 37.2584 29.1824 36.9989 28.9325 36.7068C28.519 36.2234 28.0137 35.429 27.7861 34.167C28.1441 34.5406 28.8021 35.12 29.7783 35.4454C30.7532 35.7695 31.8706 35.7815 32.883 35.4828C32.9191 35.9855 32.9644 36.4986 33.0194 37.0206C33.0629 37.4365 33.1105 37.8445 33.1625 38.2446C33.1799 38.3817 33.198 38.5175 33.2167 38.6521Z" stroke="black" stroke-miterlimit="10" stroke-linecap="round"/>
<path d="M37.693 24.1843C37.4183 25.2846 37.0266 25.9069 36.6946 26.5889C36.412 27.169 36.1011 27.9391 35.8645 28.9223C35.7583 27.8135 35.5113 26.8841 35.2729 26.1869C35.1673 25.8761 34.988 25.5924 34.7429 25.3734C34.5443 25.1965 34.2877 25.042 33.9798 25.0136C33.8386 25.001 33.6013 25.007 32.8123 25.4077C31.8821 25.8803 31.9412 26.0095 31.5181 26.167C30.4858 26.5521 29.9552 25.8495 29.2114 26.2799C28.5932 26.6366 28.4369 27.4237 28.4098 27.5594C28.2824 28.1968 28.5444 28.504 28.5927 29.1625C28.6283 29.6581 28.5444 30.3648 27.9878 31.2581C28.1013 30.5217 27.791 29.8367 27.2423 29.5567C26.9133 29.3883 26.4128 29.3218 26.0326 29.5706C25.5913 29.859 25.5393 30.4228 25.4977 30.8646C25.4005 31.9147 25.7959 32.7918 26.1025 33.3115C25.9287 33.262 25.6878 33.1787 25.43 33.032C25.2199 32.9137 24.9996 32.7544 24.7944 32.5377C24.3332 32.0506 24.1653 31.5014 24.035 31.0752C23.7548 30.1578 23.9752 29.9671 23.6691 29.4015C23.3148 28.7461 22.9483 28.8734 22.699 28.3188C22.3893 27.6313 22.6851 26.8413 22.9803 26.0548C23.284 25.2442 23.453 25.2822 23.6413 24.6202C23.925 23.6213 23.5737 23.4137 23.852 22.7213C24.1798 21.9078 25.0038 21.3537 25.7373 21.1744C26.3464 21.0259 26.4001 21.2565 27.27 21.1744C28.2642 21.0814 29.0279 20.7018 29.5489 20.4435C30.5775 19.9323 30.7049 19.6112 31.4758 19.4869C31.745 19.4434 32.4381 19.3317 32.7984 19.712C33.087 20.0168 32.8944 20.3566 33.1359 20.5697C33.5265 20.915 34.2472 20.2142 35.2741 20.2045C36.2478 20.1948 37.332 20.8093 37.7636 21.7092C38.124 22.4605 37.9357 23.215 37.693 24.1843Z" stroke="black" stroke-miterlimit="10" stroke-linecap="round"/>
<path d="M34.5067 38.6798C34.9087 38.8217 35.3071 38.9732 35.7013 39.1343C35.193 40.6517 34.1915 41.9204 32.8417 42.6405C29.7865 44.2713 26.1735 42.4437 24.4561 40.2624C23.6538 39.2436 23.2747 38.1602 23.0918 37.3061C23.6635 37.2464 24.237 37.2065 24.8117 37.186C24.9215 36.7454 25.0223 36.2843 25.1099 35.8027C25.2867 34.8322 25.3857 33.9044 25.4298 33.0323C25.6876 33.179 25.9284 33.2623 26.1023 33.3118C25.7956 32.7921 25.4002 31.9151 25.4974 30.8649C25.5391 30.4231 25.591 29.8594 26.0323 29.5709C26.4126 29.3222 26.913 29.3886 27.242 29.557C27.7907 29.837 28.101 30.522 27.9875 31.2584C28.5441 30.3651 28.6281 29.6583 28.5924 29.1628C28.5441 28.5043 28.2821 28.1971 28.4095 27.5597C28.4367 27.4239 28.593 26.6369 29.2112 26.2802C29.9549 25.8499 30.4855 26.5524 31.5178 26.1673C31.941 26.0098 31.8818 25.8806 32.8121 25.408C33.6011 25.0072 33.8383 25.0013 33.9796 25.0139C34.2875 25.0423 34.544 25.1968 34.7426 25.3737C34.9877 25.5928 35.167 25.8764 35.2726 26.1873C35.5111 26.8844 35.758 27.8139 35.8643 28.9226C35.8811 29.1007 35.895 29.2829 35.9041 29.4701C35.994 31.3037 36.0725 32.8977 34.9823 34.1676C34.4347 34.8056 33.6929 35.2437 32.8833 35.4834C31.871 35.7821 30.7536 35.7701 29.7787 35.4459C28.8025 35.1206 28.1445 34.5411 27.7865 34.1676C28.0141 35.4296 28.5194 36.2239 28.9329 36.7074C29.1828 36.9995 29.4684 37.2591 29.7865 37.4878C29.7865 37.4884 29.7871 37.4884 29.7871 37.4884C30.701 38.1451 31.8788 38.5374 33.2171 38.6527C33.1984 38.5181 33.1803 38.3823 33.1628 38.2453C33.615 38.378 34.063 38.5229 34.5067 38.6798Z" stroke="black" stroke-miterlimit="10" stroke-linecap="round"/>
<path d="M29.6611 28.2023C29.7339 28.0948 29.9175 27.8557 30.2484 27.7194C30.7633 27.5072 31.2318 27.7098 31.318 27.7489" stroke="black" stroke-miterlimit="10" stroke-linecap="round"/>
<path d="M33.3516 27.6683C33.443 27.5761 33.6678 27.3752 34.0182 27.3026C34.5636 27.1895 34.9863 27.4754 35.0638 27.5298" stroke="black" stroke-miterlimit="10" stroke-linecap="round"/>
<path d="M31.1094 30.0585C31.2053 30.3323 31.1459 30.6023 30.9768 30.6615C30.8077 30.7206 30.5929 30.5466 30.497 30.2728C30.4011 29.9989 30.4605 29.7289 30.6296 29.6698C30.7987 29.6106 31.0136 29.7846 31.1094 30.0585Z" fill="black"/>
<path d="M34.7145 29.711C34.7451 29.9995 34.6255 30.2488 34.4474 30.2677C34.2692 30.2866 34.0999 30.068 34.0692 29.7795C34.0386 29.491 34.1582 29.2418 34.3363 29.2228C34.5145 29.2039 34.6838 29.4224 34.7145 29.711Z" fill="black"/>
<path d="M32.7169 29.1338C32.6485 29.3582 32.5757 29.7237 32.6633 30.1491C32.7346 30.4956 32.8824 30.7366 32.9891 30.9071C33.198 31.2411 33.4365 31.4655 33.6023 31.6002C33.6346 31.645 33.6855 31.7303 33.6866 31.8408C33.6884 32.0173 33.5619 32.1387 33.4749 32.2222C33.3316 32.3597 33.1715 32.4167 33.0718 32.4418" stroke="black" stroke-miterlimit="10" stroke-linecap="round"/>
<path d="M31.2949 32.9229C31.3678 33.0182 31.4839 33.1462 31.6553 33.258C31.9273 33.4356 32.1938 33.478 32.3354 33.4901" stroke="black" stroke-miterlimit="10" stroke-linecap="round"/>
<path d="M41.3782 77.6254L30.8936 97.5938L17.1338 90.3718L27.6183 70.4033L30.0721 71.6912L29.2034 73.3457L38.0558 77.992L38.9244 76.3375L41.3782 77.6254Z" fill="white"/>
<path d="M35.9553 73.8439C36.1884 73.7089 36.3879 73.5072 36.5224 73.2511C36.904 72.5239 36.6244 71.6264 35.897 71.2449C35.1702 70.8627 34.2719 71.1429 33.8904 71.8696C33.7559 72.1261 33.7032 72.404 33.7245 72.6729L30.4576 70.958L30.0727 71.6914L29.2041 73.3458L38.0561 77.992L39.3096 75.6042L35.9553 73.8439ZM34.8396 73.2584C34.4546 73.0561 34.3061 72.5788 34.5084 72.1939C34.7102 71.8089 35.1876 71.6599 35.5731 71.8622C35.9582 72.0645 36.1066 72.5418 35.9043 72.9267C35.7026 73.3116 35.2251 73.4606 34.8396 73.2584Z" fill="black"/>
<path d="M41.3782 77.6254L30.8936 97.5938L17.1338 90.3718L27.6183 70.4033L30.0721 71.6912L29.2034 73.3457L38.0558 77.992L38.9244 76.3375L41.3782 77.6254Z" stroke="black" stroke-miterlimit="10" stroke-linecap="round"/>
<path d="M35.9553 73.8439C36.1884 73.7089 36.3879 73.5072 36.5224 73.2511C36.904 72.5239 36.6244 71.6264 35.897 71.2449C35.1702 70.8627 34.2719 71.1429 33.8904 71.8696C33.7559 72.1261 33.7032 72.404 33.7245 72.6729L30.4576 70.958L30.0727 71.6914L29.2041 73.3458L38.0561 77.992L39.3096 75.6042L35.9553 73.8439ZM34.8396 73.2584C34.4546 73.0561 34.3061 72.5788 34.5084 72.1939C34.7102 71.8089 35.1876 71.6599 35.5731 71.8622C35.9582 72.0645 36.1066 72.5418 35.9043 72.9267C35.7026 73.3116 35.2251 73.4606 34.8396 73.2584Z" stroke="black" stroke-miterlimit="10" stroke-linecap="round"/>
<path d="M37.2057 86.635C37.0872 86.8439 36.9236 87.0146 36.7321 87.1538C36.8423 87.5746 36.764 87.8415 36.7233 87.9506C36.6032 88.2732 36.3176 88.5489 35.909 88.7439C35.9763 88.9952 35.9903 89.2609 35.8904 89.5064C35.6566 90.0804 34.8967 90.3055 34.1666 90.3838C33.9698 90.5469 33.7504 90.6908 33.5113 90.8139C32.0498 91.5712 29.8529 91.595 27.5306 90.7982C27.5114 90.7918 27.4917 90.7854 27.4725 90.7779H27.472C22.2922 90.497 17.1294 89.0021 12.7472 86.2502C7.84436 82.2837 0.0573637 73.6933 4.04081 61.2773C4.50105 61.5768 4.98806 61.8693 5.50346 62.1519C8.66797 63.8853 11.7541 64.5991 14.2249 64.866C13.2904 70.7719 14.9127 76.9756 19.8103 80.9699C23.2807 83.8007 27.8312 84.9045 27.8312 84.9045C29.0188 85.1923 30.0311 85.3217 30.7392 85.3867C31.1455 85.3472 31.7091 85.237 32.2738 84.9045C33.6094 84.1158 33.9437 82.6749 34.3337 82.7782C34.5816 82.8438 34.7029 83.4908 34.5972 84.0497C34.3505 85.3542 32.9401 85.7819 33.0846 86.1968C33.2297 86.614 34.8532 86.7603 36.1968 86.2188C36.7065 86.0134 37.1928 85.703 37.3589 85.8677C37.5092 86.0176 37.3032 86.4627 37.2057 86.635Z" fill="white"/>
<path d="M37.2056 86.6359C37.0873 86.8448 36.9237 87.015 36.7318 87.1544C36.8422 87.5751 36.7637 87.8424 36.7233 87.9511C36.6032 88.274 36.3177 88.5498 35.9089 88.7448C35.9766 88.9959 35.9904 89.2614 35.8902 89.5072C35.6566 90.0811 34.8966 90.3063 34.1667 90.3847C33.9699 90.5477 33.7502 90.6913 33.5111 90.8144C32.0496 91.5719 29.8528 91.5954 27.5305 90.7988C27.5112 90.7927 27.4919 90.7861 27.4726 90.7788H27.472C20.0166 90.3744 12.5951 87.4544 7.48739 81.8955C7.34491 81.7411 7.20484 81.5847 7.06782 81.4266C5.49946 79.6316 4.21548 77.6392 3.21639 75.4658C2.25173 73.3659 1.57982 71.1364 1.19468 68.8591C1.17357 68.736 1.15362 68.6129 1.13433 68.4897C0.65258 65.3916 0.691822 62.2108 1.21885 59.1182C2.35074 60.131 3.76875 61.2023 5.50375 62.1523C8.6682 63.8857 11.7542 64.5997 14.225 64.8665C13.2905 70.7723 14.9126 76.9764 19.8102 80.9708C23.2807 83.8015 27.8312 84.9048 27.8312 84.9048C29.0186 85.1927 30.031 85.3225 30.7391 85.3871C31.1453 85.3478 31.7092 85.2374 32.2737 84.9048C33.6095 84.1166 33.9434 82.6752 34.334 82.779C34.5815 82.8442 34.7028 83.4912 34.5971 84.0501C34.3503 85.355 32.94 85.7823 33.0843 86.1976C33.2298 86.6147 34.8531 86.7607 36.1969 86.2193C36.7064 86.0141 37.1929 85.7033 37.359 85.8686C37.5092 86.0185 37.3034 86.4633 37.2056 86.6359Z" stroke="black" stroke-miterlimit="10" stroke-linecap="round"/>
<path d="M34.1592 87.7754C34.6512 87.7759 35.934 87.7349 36.732 87.1543" stroke="black" stroke-miterlimit="10" stroke-linecap="round"/>
<path d="M32.9092 88.8493C33.4832 89.0015 34.1036 89.0912 34.698 89.0429C34.9018 89.0263 35.1053 88.9915 35.301 88.9319C35.5073 88.8689 35.7066 88.7856 35.9102 88.7148" stroke="black" stroke-miterlimit="10" stroke-linecap="round"/>
<path d="M30.2246 89.5771C30.8794 89.9607 31.6846 90.2849 32.6248 90.3829C32.7461 90.3955 33.4421 90.4619 34.1671 90.3841" stroke="black" stroke-miterlimit="10" stroke-linecap="round"/>
<path d="M148.475 29.1202H111.403C110.999 29.1202 110.672 28.7932 110.672 28.3897V12.0245C110.672 11.621 110.999 11.2939 111.403 11.2939H148.475C148.879 11.2939 149.206 11.621 149.206 12.0245V28.3897C149.206 28.7932 148.879 29.1202 148.475 29.1202Z" fill="#7C60EA"/>
<path d="M148.475 29.1202H111.403C110.999 29.1202 110.672 28.7932 110.672 28.3897V12.0245C110.672 11.621 110.999 11.2939 111.403 11.2939H148.475C148.879 11.2939 149.206 11.621 149.206 12.0245V28.3897C149.206 28.7932 148.879 29.1202 148.475 29.1202Z" stroke="black" stroke-miterlimit="10"/>
<path d="M113.665 17.038L115.359 18.0161C115.743 17.3518 116.298 16.797 116.963 16.4127C117.608 16.0381 118.356 15.8243 119.154 15.8243C119.952 15.8243 120.7 16.0381 121.345 16.4127C122.01 16.797 122.564 17.3518 122.949 18.0161C123.323 18.661 123.537 19.409 123.537 20.207H125.492C125.492 19.0518 125.183 17.9695 124.644 17.038C124.087 16.0761 123.285 15.2749 122.323 14.718C121.392 14.1785 120.309 13.8701 119.154 13.8701C118 13.8701 116.917 14.1784 115.984 14.718C115.022 15.275 114.221 16.0762 113.665 17.038Z" fill="white"/>
<path opacity="0.45" d="M112.816 20.2071C112.816 21.3622 113.126 22.4445 113.665 23.376C114.221 24.3379 115.023 25.1391 115.985 25.696L116.963 24.0013C116.299 23.617 115.744 23.0622 115.359 22.3978C114.985 21.7529 114.771 21.005 114.771 20.207C114.771 19.4091 114.985 18.6611 115.359 18.0162L113.665 17.0381C113.126 17.9696 112.816 19.052 112.816 20.2071Z" fill="white"/>
<path d="M115.984 25.6959C116.917 26.2355 118 26.5438 119.154 26.5438C120.309 26.5438 121.392 26.2355 122.323 25.6959C123.285 25.139 124.087 24.3378 124.644 23.376C125.183 22.4445 125.492 21.3621 125.492 20.207H123.537C123.537 21.005 123.324 21.7529 122.949 22.3978C122.565 23.0622 122.01 23.617 121.345 24.0013C120.7 24.3759 119.952 24.5897 119.154 24.5897C118.356 24.5897 117.608 24.3759 116.963 24.0013L115.984 25.6959Z" fill="white"/>
<path d="M127.62 13.8701H147.06" stroke="white" stroke-miterlimit="10"/>
<path d="M127.62 15.4541H147.06" stroke="white" stroke-miterlimit="10"/>
<path d="M127.62 17.0381H147.06" stroke="white" stroke-miterlimit="10"/>
<path d="M127.62 18.6221H147.06" stroke="white" stroke-miterlimit="10"/>
<path d="M127.62 20.207H147.06" stroke="white" stroke-miterlimit="10"/>
<path d="M127.62 21.791H147.06" stroke="white" stroke-miterlimit="10"/>
<path d="M127.62 23.375H147.06" stroke="white" stroke-miterlimit="10"/>
<path d="M127.62 24.959H147.06" stroke="white" stroke-miterlimit="10"/>
<path d="M127.62 26.5439H147.06" stroke="white" stroke-miterlimit="10"/>
<path d="M104.158 12.4556L102.713 11.9827C102.589 11.4965 102.395 11.0379 102.145 10.6169L102.834 9.25894C102.896 9.13565 102.873 8.98781 102.776 8.89064L102.05 8.16545C101.953 8.06873 101.806 8.04457 101.683 8.10706L101.149 8.37819L100.324 8.79586C100.146 8.6905 99.9626 8.59495 99.7723 8.5109C99.5113 8.39534 99.2398 8.30024 98.9584 8.22833L98.4855 6.78375C98.4426 6.65267 98.3213 6.56445 98.1841 6.56445H97.1579C97.1432 6.56445 97.1293 6.56569 97.1146 6.56816C96.9954 6.58368 96.8957 6.66618 96.8569 6.78329L96.3844 8.22827C95.8981 8.3524 95.4398 8.54597 95.0184 8.7958L94.4556 8.51083L93.6601 8.10699C93.5368 8.04535 93.389 8.0686 93.2918 8.16539L93.0794 8.37728L92.5665 8.89096C92.4689 8.98775 92.4455 9.13553 92.508 9.25804L93.1974 10.6169C92.9466 11.0379 92.7534 11.4963 92.6297 11.9827L91.1841 12.455C91.053 12.4979 90.9648 12.6192 90.9648 12.7564V13.7824C90.9648 13.9192 91.0522 14.0404 91.1837 14.0829L92.629 14.5561C92.7535 15.042 92.9467 15.5006 93.1974 15.9211L92.5081 17.2795C92.4456 17.4028 92.4689 17.5507 92.5665 17.6474L93.0795 18.1602L93.2918 18.373C93.389 18.4701 93.5364 18.4934 93.6594 18.4314L94.4557 18.0275L95.0185 17.7426C95.4399 17.9924 95.8981 18.1864 96.3845 18.3101L96.8566 19.7551C96.895 19.8722 96.9954 19.9543 97.1138 19.9703C97.1285 19.9727 97.1432 19.974 97.1579 19.974H98.1842C98.3214 19.974 98.4423 19.8866 98.4852 19.7559L98.9585 18.3101C99.2399 18.2383 99.5114 18.1431 99.7724 18.0276C99.9627 17.9435 100.146 17.8479 100.324 17.7426L101.149 18.1611L101.682 18.4314C101.805 18.4935 101.954 18.4702 102.05 18.373L102.776 17.6475C102.873 17.5507 102.896 17.4029 102.834 17.2804L102.145 15.9212C102.395 15.5006 102.589 15.0421 102.713 14.5562L104.158 14.0834C104.289 14.0405 104.377 13.9192 104.377 13.782V12.756C104.377 12.6189 104.29 12.498 104.158 12.4556ZM97.6709 16.2368C96.0345 16.2368 94.7024 14.9066 94.7024 13.2685C94.7024 11.6324 96.0345 10.3022 97.6709 10.3022C99.3076 10.3022 100.64 11.6325 100.64 13.2685C100.64 14.9066 99.3076 16.2368 97.6709 16.2368Z" fill="#7C60E9"/>
<path d="M103.479 11.8617L102.033 11.3889C101.909 10.9026 101.716 10.444 101.465 10.0231L102.155 8.66506C102.217 8.54178 102.194 8.39393 102.097 8.29676L101.371 7.57164C101.274 7.47485 101.126 7.45075 101.003 7.51324L100.469 7.78438L99.644 8.20205C99.4668 8.09675 99.283 8.00114 99.0927 7.91708C98.8317 7.80152 98.5601 7.70643 98.2788 7.63452L97.8059 6.18993C97.763 6.05885 97.6417 5.9707 97.5045 5.9707H96.4783C96.4636 5.9707 96.4497 5.97194 96.435 5.97441C96.3158 5.98993 96.2161 6.07243 96.1773 6.18955L95.7048 7.63452C95.2184 7.75865 94.7602 7.95216 94.3388 8.20205L93.776 7.91708L92.9805 7.51324C92.8571 7.4516 92.7093 7.47485 92.6121 7.57164L92.3997 7.78353L91.8868 8.29715C91.7892 8.39393 91.7659 8.54171 91.8284 8.66422L92.5177 10.0231C92.267 10.444 92.0738 10.9025 91.9501 11.3889L90.5044 11.8613C90.3733 11.9042 90.2852 12.0254 90.2852 12.1626V13.1887C90.2852 13.3255 90.3725 13.4468 90.504 13.4892L91.9493 13.9624C92.0738 14.4483 92.267 14.9068 92.5178 15.3273L91.8284 16.6858C91.7659 16.8091 91.7892 16.9569 91.8868 17.0536L92.3998 17.5665L92.6122 17.7792C92.7093 17.8764 92.8568 17.8996 92.9797 17.8376L93.776 17.4338L94.3388 17.1488C94.7602 17.3987 95.2184 17.5927 95.7048 17.7163L96.1769 19.1613C96.2153 19.2785 96.3157 19.3605 96.4342 19.3765C96.4488 19.379 96.4636 19.3802 96.4783 19.3802H97.5045C97.6417 19.3802 97.7626 19.2928 97.8055 19.1622L98.2788 17.7163C98.5602 17.6445 98.8318 17.5493 99.0927 17.4338C99.283 17.3497 99.4668 17.2541 99.644 17.1488L100.469 17.5673L101.002 17.8376C101.126 17.8996 101.274 17.8764 101.371 17.7792L102.097 17.0536C102.194 16.9569 102.217 16.8091 102.155 16.6866L101.465 15.3273C101.716 14.9068 101.909 14.4483 102.033 13.9624L103.478 13.4896C103.609 13.4467 103.698 13.3254 103.698 13.1882V12.1622C103.698 12.025 103.61 11.9041 103.479 11.8617ZM96.9912 15.6429C95.3548 15.6429 94.0227 14.3126 94.0227 12.6746C94.0227 11.0385 95.3548 9.70821 96.9912 9.70821C98.628 9.70821 99.9601 11.0385 99.9601 12.6746C99.9601 14.3126 98.628 15.6429 96.9912 15.6429Z" fill="white"/>
<path d="M103.479 11.8617L102.033 11.3889C101.909 10.9026 101.716 10.444 101.465 10.0231L102.155 8.66506C102.217 8.54178 102.194 8.39393 102.097 8.29676L101.371 7.57164C101.274 7.47485 101.126 7.45075 101.003 7.51324L100.469 7.78438L99.644 8.20205C99.4668 8.09675 99.283 8.00114 99.0927 7.91708C98.8317 7.80152 98.5601 7.70643 98.2788 7.63452L97.8059 6.18993C97.763 6.05885 97.6417 5.9707 97.5045 5.9707H96.4783C96.4636 5.9707 96.4497 5.97194 96.435 5.97441C96.3158 5.98993 96.2161 6.07243 96.1773 6.18955L95.7048 7.63452C95.2184 7.75865 94.7602 7.95216 94.3388 8.20205L93.776 7.91708L92.9805 7.51324C92.8571 7.4516 92.7093 7.47485 92.6121 7.57164L92.3997 7.78353L91.8868 8.29715C91.7892 8.39393 91.7659 8.54171 91.8284 8.66422L92.5177 10.0231C92.267 10.444 92.0738 10.9025 91.9501 11.3889L90.5044 11.8613C90.3733 11.9042 90.2852 12.0254 90.2852 12.1626V13.1887C90.2852 13.3255 90.3725 13.4468 90.504 13.4892L91.9493 13.9624C92.0738 14.4483 92.267 14.9068 92.5178 15.3273L91.8284 16.6858C91.7659 16.8091 91.7892 16.9569 91.8868 17.0536L92.3998 17.5665L92.6122 17.7792C92.7093 17.8764 92.8568 17.8996 92.9797 17.8376L93.776 17.4338L94.3388 17.1488C94.7602 17.3987 95.2184 17.5927 95.7048 17.7163L96.1769 19.1613C96.2153 19.2785 96.3157 19.3605 96.4342 19.3765C96.4488 19.379 96.4636 19.3802 96.4783 19.3802H97.5045C97.6417 19.3802 97.7626 19.2928 97.8055 19.1622L98.2788 17.7163C98.5602 17.6445 98.8318 17.5493 99.0927 17.4338C99.283 17.3497 99.4668 17.2541 99.644 17.1488L100.469 17.5673L101.002 17.8376C101.126 17.8996 101.274 17.8764 101.371 17.7792L102.097 17.0536C102.194 16.9569 102.217 16.8091 102.155 16.6866L101.465 15.3273C101.716 14.9068 101.909 14.4483 102.033 13.9624L103.478 13.4896C103.609 13.4467 103.698 13.3254 103.698 13.1882V12.1622C103.698 12.025 103.61 11.9041 103.479 11.8617ZM96.9912 15.6429C95.3548 15.6429 94.0227 14.3126 94.0227 12.6745C94.0227 11.0385 95.3548 9.70821 96.9912 9.70821C98.628 9.70821 99.9601 11.0385 99.9601 12.6745C99.9601 14.3126 98.628 15.6429 96.9912 15.6429Z" stroke="black" stroke-miterlimit="10" stroke-linecap="round"/>
<path d="M63.779 2.86322V4.70775H40.3105V2.86322C40.3105 1.99039 41.0189 1.28223 41.8918 1.28223H62.1976C63.0706 1.28223 63.779 1.99045 63.779 2.86322Z" stroke="black" stroke-miterlimit="10" stroke-linecap="round" stroke-linejoin="round"/>
<path d="M43.3031 2.99523C43.3031 3.2709 43.0796 3.49436 42.8039 3.49436C42.5282 3.49436 42.3047 3.2709 42.3047 2.99523C42.3047 2.71955 42.5282 2.49609 42.8039 2.49609C43.0796 2.49603 43.3031 2.71955 43.3031 2.99523Z" fill="#7C60EA"/>
<path d="M44.8793 2.99523C44.8793 3.2709 44.6558 3.49436 44.3801 3.49436C44.1044 3.49436 43.8809 3.2709 43.8809 2.99523C43.8809 2.71955 44.1044 2.49609 44.3801 2.49609C44.6557 2.49603 44.8793 2.71955 44.8793 2.99523Z" fill="#7C60EA"/>
<path d="M46.4545 2.99523C46.4545 3.2709 46.231 3.49436 45.9553 3.49436C45.6795 3.49436 45.4561 3.2709 45.4561 2.99523C45.4561 2.71955 45.6795 2.49609 45.9553 2.49609C46.2309 2.49603 46.4545 2.71955 46.4545 2.99523Z" fill="#7C60EA"/>
<path d="M63.7789 4.70801V24.9339C63.7789 25.8076 63.0706 26.515 62.1976 26.515H41.8918C41.0188 26.515 40.3105 25.8076 40.3105 24.9339V4.70801H63.7789Z" stroke="black" stroke-miterlimit="10" stroke-linecap="round" stroke-linejoin="round"/>
<path d="M62.1986 1.28223H41.8928C41.0198 1.28223 40.3115 1.99045 40.3115 2.86322V4.70775V24.9337C40.3115 25.8073 41.0199 26.5147 41.8928 26.5147H62.1986C63.0715 26.5147 63.7798 25.8073 63.7798 24.9337V4.70775V2.86322C63.7799 1.99045 63.0715 1.28223 62.1986 1.28223Z" stroke="black" stroke-miterlimit="10" stroke-linecap="round" stroke-linejoin="round"/>
<path d="M46.243 17.8984H43.6787V24.6763H46.243V17.8984Z" stroke="black" stroke-miterlimit="10" stroke-linecap="round" stroke-linejoin="round"/>
<path d="M50.9656 8.00488H48.4014V24.6769H50.9656V8.00488Z" fill="#7C60EA"/>
<path d="M55.6893 15.2705H53.125V24.6766H55.6893V15.2705Z" stroke="black" stroke-miterlimit="10" stroke-linecap="round" stroke-linejoin="round"/>
<path d="M60.4119 11.6699H57.8477V24.677H60.4119V11.6699Z" fill="#7C60EA"/>
</svg>
