<svg width="179" height="179" viewBox="0 0 179 179" fill="none" xmlns="http://www.w3.org/2000/svg">
<path opacity="0.5" d="M89.5102 1.00007C69.0348 0.997712 49.1921 8.09515 33.3631 21.083C17.5341 34.0709 6.69832 52.1456 2.70209 72.2272C-1.29414 92.3088 1.79644 113.155 11.4472 131.213C21.098 149.271 36.7119 163.425 55.6283 171.261C74.5447 179.098 95.5931 180.133 115.187 174.19C134.781 168.247 151.708 155.694 163.084 138.669C174.46 121.645 179.581 101.203 177.574 80.8259C175.567 60.4491 166.557 41.3986 152.078 26.9205C143.871 18.6913 134.118 12.1651 123.381 7.7168C112.643 3.26853 101.133 0.985897 89.5102 1.00007Z" stroke="#8D58FF" stroke-width="0.62"/>
</svg>
