<svg width="148" height="201" viewBox="0 0 148 201" fill="none" xmlns="http://www.w3.org/2000/svg">
<g clip-path="url(#clip0_1190_120)">
<path d="M97.348 9.32812C97.348 9.32812 76.7477 30.4326 97.348 66.8847C117.948 103.337 117.409 117.582 117.409 117.582C117.409 117.582 134.316 90.6155 131.15 76.3934C131.15 76.3934 152.97 99.9132 140.378 145.053C136.613 158.935 128.942 171.445 118.277 181.095C107.384 190.803 91.3098 199.644 70.4164 196.208C70.4164 196.208 18.3587 193.605 5.93052 136.799C1.71609 118.222 3.91888 98.7643 12.1798 81.5992C15.0992 75.6548 18.816 69.9448 23.4003 66.0405C23.4003 66.0405 20.7505 83.4752 31.8421 93.0073C31.8656 93.0191 16.0255 39.6834 97.348 9.32812Z" fill="#8D58FF" stroke="#3B00BA" stroke-width="6" stroke-miterlimit="10"/>
<path d="M95.202 169.968C95.202 169.968 104.054 144.045 81.1324 125.649C65.2454 112.892 70.7912 90.2402 70.7912 90.2402C46.8963 113.69 53.6497 147.621 53.6497 147.621C48.2798 142.99 41.4208 131.851 41.4208 131.851C33.9756 153.636 37.6924 165.208 37.6924 165.208C43.7306 192.855 69.0677 194.121 69.0677 194.121C69.0677 194.121 121.125 195.903 106.223 140.187C106.188 140.164 103.96 162.546 95.202 169.968Z" fill="#8D58FF" stroke="#3B00BA" stroke-width="6" stroke-miterlimit="10"/>
</g>
<defs>
<clipPath id="clip0_1190_120">
<rect width="147.426" height="200" fill="white" transform="translate(0.384766 0.53418)"/>
</clipPath>
</defs>
</svg>
