<svg width="183" height="113" viewBox="0 0 183 113" fill="none" xmlns="http://www.w3.org/2000/svg">
<path d="M137.147 67.453H52.1263C50.3618 67.453 48.9316 66.0226 48.9316 64.2583V12.9466C48.9316 11.1821 50.362 9.75195 52.1263 9.75195H137.147C138.911 9.75195 140.342 11.1824 140.342 12.9466V64.2583C140.342 66.0229 138.911 67.453 137.147 67.453Z" fill="white" stroke="#010001" stroke-miterlimit="10"/>
<path d="M137.147 9.75195H52.1263C50.3618 9.75195 48.9316 11.1824 48.9316 12.9466V14.5433H140.342V12.9466C140.342 11.1824 138.911 9.75195 137.147 9.75195Z" fill="#BFBCC0" stroke="#010001" stroke-miterlimit="10"/>
<path d="M52.3688 13.3499C52.9921 13.3499 53.4973 12.8446 53.4973 12.2213C53.4973 11.598 52.9921 11.0928 52.3688 11.0928C51.7455 11.0928 51.2402 11.598 51.2402 12.2213C51.2402 12.8446 51.7455 13.3499 52.3688 13.3499Z" stroke="#010001" stroke-miterlimit="10"/>
<path d="M57.7532 12.2213C57.7532 12.8447 57.248 13.3499 56.6246 13.3499C56.0013 13.3499 55.4961 12.8447 55.4961 12.2213C55.4961 11.598 56.0013 11.0928 56.6246 11.0928C57.248 11.0928 57.7532 11.5983 57.7532 12.2213Z" stroke="#010001" stroke-miterlimit="10"/>
<path d="M62.0098 12.2213C62.0098 12.8447 61.5045 13.3499 60.8815 13.3499C60.2582 13.3499 59.7529 12.8447 59.7529 12.2213C59.7529 11.598 60.2582 11.0928 60.8815 11.0928C61.5045 11.093 62.0098 11.5983 62.0098 12.2213Z" stroke="#010001" stroke-miterlimit="10"/>
<path d="M91.7741 55.7446H59.821C59.4961 55.7446 59.2324 55.4813 59.2324 55.156C59.2324 54.831 59.4958 54.5674 59.821 54.5674H91.7741C92.0991 54.5674 92.3627 54.8308 92.3627 55.156C92.3624 55.4813 92.0991 55.7446 91.7741 55.7446Z" fill="#BFBCC0"/>
<path d="M83.8527 58.6802H59.821C59.4961 58.6802 59.2324 58.4168 59.2324 58.0916C59.2324 57.7666 59.4958 57.5029 59.821 57.5029H83.8527C84.1776 57.5029 84.4413 57.7663 84.4413 58.0916C84.441 58.4165 84.1776 58.6802 83.8527 58.6802Z" fill="#BFBCC0"/>
<path d="M73.7035 61.6167H59.821C59.4961 61.6167 59.2324 61.3533 59.2324 61.0281C59.2324 60.7031 59.4958 60.4395 59.821 60.4395H73.7035C74.0285 60.4395 74.2921 60.7028 74.2921 61.0281C74.2918 61.3531 74.0285 61.6167 73.7035 61.6167Z" fill="#BFBCC0"/>
<path d="M95.6104 54.9844H124.65" stroke="#010001" stroke-width="2" stroke-miterlimit="10" stroke-linecap="round"/>
<path d="M95.6104 57.0938H113.947" stroke="#010001" stroke-width="2" stroke-miterlimit="10" stroke-linecap="round"/>
<path d="M95.6104 59.2041H109.312" stroke="#010001" stroke-width="2" stroke-miterlimit="10" stroke-linecap="round"/>
<path d="M95.6104 61.3135H117.648" stroke="#010001" stroke-width="2" stroke-miterlimit="10" stroke-linecap="round"/>
<path d="M73.5244 52.5054L78.7386 44.9628C79.7994 43.4286 81.9112 43.0603 83.4285 44.1455L84.1611 44.6693C85.9808 45.9706 88.5405 45.1498 89.2639 43.0331L91.796 35.6258C92.8258 32.613 97.0866 32.613 98.1164 35.6258L99.3416 39.2103C100.324 42.0856 104.324 42.261 105.555 39.483L106.618 37.0852C107.678 34.6933 110.952 34.3937 112.428 36.5534C113.98 38.8231 117.456 38.3505 118.345 35.7487L119.53 32.2832C120.618 29.0995 125.199 29.3411 125.946 32.6213L130.477 52.5057C130.477 52.5057 73.6834 52.3467 73.5244 52.5054Z" fill="#4542AA"/>
<path d="M126.935 45.3638C125.943 43.3961 123.207 43.0311 121.841 44.7601C121.794 44.8195 121.749 44.8809 121.705 44.9441C121.705 44.9441 120.219 47.6637 119.421 48.2864C117.461 49.8156 115.034 50.1513 112.404 46.6363L110.76 44.5919C109.667 43.2334 107.699 42.974 106.292 44.0033L104.389 45.395C103.495 46.0487 102.274 47.3163 101.334 46.8036C100.293 46.236 97.5051 44.0033 97.5051 44.0033C96.0978 42.974 94.1299 43.2334 93.0372 44.5919L91.3929 46.6363C89.8046 48.6112 86.6694 48.0997 85.791 45.7227L83.7618 40.2311C82.6978 37.3517 78.6078 37.402 77.6151 40.3067L73.5372 52.2373L73.2217 52.5852C73.2217 52.5852 73.2903 52.5849 73.4186 52.5844L73.3783 52.7022C73.3783 52.4682 130.576 52.5852 130.576 52.5852L126.935 45.3638Z" fill="#8D58FF"/>
<path d="M62.377 52.6953H134.772" stroke="#010001" stroke-miterlimit="10" stroke-linecap="round"/>
<path d="M80.334 23.7578V24.2703" stroke="#010001" stroke-width="0.4763" stroke-miterlimit="10"/>
<path d="M80.334 25.3066V51.7412" stroke="#010001" stroke-width="0.4763" stroke-miterlimit="10" stroke-dasharray="3.85 3.85"/>
<path d="M80.334 52.2598V52.7723" stroke="#010001" stroke-width="0.4763" stroke-miterlimit="10"/>
<path d="M94.6123 25.501V53.4208" stroke="#010001" stroke-width="0.4763" stroke-miterlimit="10" stroke-dasharray="3.81 3.81"/>
<path d="M122.946 21.3984V53.0354" stroke="#010001" stroke-width="0.4763" stroke-miterlimit="10" stroke-dasharray="3.81 3.81"/>
<path d="M108.944 31.3447V52.7733" stroke="#010001" stroke-width="0.4763" stroke-miterlimit="10" stroke-dasharray="3.81 3.81"/>
<path d="M118.848 30.5133H108.705C108.503 30.5133 108.338 30.3486 108.338 30.1458C108.338 29.943 108.503 29.7783 108.705 29.7783H118.848C119.051 29.7783 119.215 29.943 119.215 30.1458C119.215 30.3489 119.051 30.5133 118.848 30.5133Z" fill="#BFBCC0"/>
<path d="M132.783 20.6637H122.641C122.438 20.6637 122.273 20.4993 122.273 20.2962C122.273 20.0931 122.438 19.9287 122.641 19.9287H132.783C132.986 19.9287 133.151 20.0934 133.151 20.2962C133.151 20.499 132.986 20.6637 132.783 20.6637Z" fill="#BFBCC0"/>
<path d="M129.633 19.1988H122.513C122.381 19.1988 122.273 19.0915 122.273 18.9589V18.7038C122.273 18.5712 122.381 18.4639 122.513 18.4639H129.633C129.766 18.4639 129.873 18.5712 129.873 18.7038V18.9589C129.873 19.0912 129.766 19.1988 129.633 19.1988Z" fill="#BFBCC0"/>
<path d="M104.571 24.732H94.428C94.2252 24.732 94.0605 24.5674 94.0605 24.3646C94.0605 24.1617 94.2252 23.9971 94.428 23.9971H104.571C104.774 23.9971 104.938 24.1614 104.938 24.3646C104.938 24.5674 104.774 24.732 104.571 24.732Z" fill="#BFBCC0"/>
<path d="M90.4028 23.0524H80.2601C80.0572 23.0524 79.8926 22.888 79.8926 22.6849C79.8926 22.482 80.0572 22.3174 80.2601 22.3174H90.4028C90.6056 22.3174 90.7703 22.482 90.7703 22.6849C90.7703 22.8877 90.6059 23.0524 90.4028 23.0524Z" fill="#BFBCC0"/>
<path d="M85.6131 21.3981H80.1046C79.9875 21.3981 79.8926 21.3031 79.8926 21.1861V20.8751C79.8926 20.7581 79.9875 20.6631 80.1046 20.6631H85.6128C85.7299 20.6631 85.8248 20.7581 85.8248 20.8751V21.1861C85.8254 21.3031 85.7304 21.3981 85.6131 21.3981Z" fill="#BFBCC0"/>
<path d="M115.813 29.0436H108.58C108.446 29.0436 108.338 28.9352 108.338 28.8017V28.5504C108.338 28.4167 108.446 28.3086 108.58 28.3086H115.813C115.947 28.3086 116.055 28.417 116.055 28.5504V28.8017C116.055 28.9354 115.947 29.0436 115.813 29.0436Z" fill="#BFBCC0"/>
<path d="M67.2592 29.2981L77.1093 27.7932C77.9349 33.1968 74.1678 38.3225 68.7644 39.1481C63.3608 39.9737 58.2351 36.2069 57.4095 30.8033C56.5838 25.3997 60.3507 20.2739 65.7543 19.4483C66.6146 19.3168 67.4884 19.2987 68.3534 19.3942L67.2592 29.2981Z" fill="#4542AA"/>
<path d="M70.4565 19.4268L69.2607 27.0622L76.7557 25.6547C76.7557 25.6547 75.6535 21.3753 70.4565 19.4268Z" fill="#8D58FF"/>
<path d="M150.381 47.4365C150.381 47.4365 145.315 52.305 143.129 55.3493C141.112 58.1585 138.654 55.829 138.654 55.829L134.792 61.2442C134.792 61.2442 137.712 64.3549 142.249 65.7038C146.787 67.0527 147.54 65.5754 147.54 65.5754L150.381 47.4365Z" fill="#4542AA" stroke="#010001" stroke-miterlimit="10" stroke-linecap="round"/>
<path d="M140.344 60.8804C140.506 61.2226 140.667 61.5648 140.828 61.907C140.859 61.9721 140.942 62.0278 141.009 62.0461C141.081 62.066 141.178 62.0571 141.242 62.0157C141.39 61.9204 141.423 61.7553 141.351 61.6016C141.189 61.2594 141.028 60.9172 140.867 60.575C140.837 60.5099 140.753 60.4545 140.686 60.436C140.614 60.416 140.517 60.4249 140.453 60.4664C140.305 60.5616 140.272 60.7265 140.344 60.8804Z" fill="white"/>
<path d="M143.948 62.1983C144.14 61.8561 144.347 61.5228 144.569 61.1992C144.659 61.0681 144.598 60.8578 144.46 60.7851C144.307 60.7039 144.142 60.7539 144.046 60.8938C143.824 61.2174 143.617 61.5508 143.426 61.893C143.348 62.031 143.388 62.2298 143.534 62.307C143.677 62.3823 143.866 62.346 143.948 62.1983Z" fill="white"/>
<path d="M143.937 57.3283C143.907 57.717 143.893 58.1066 143.895 58.4964C143.896 58.6546 144.034 58.8063 144.197 58.799C144.361 58.7918 144.501 58.6661 144.5 58.4964C144.498 58.1066 144.512 57.717 144.542 57.3283C144.554 57.1701 144.394 57.0186 144.239 57.0256C144.065 57.0334 143.95 57.1588 143.937 57.3283Z" fill="white"/>
<path d="M145.968 52.5422C146.052 53.2212 146.165 53.8954 146.312 54.5634C146.346 54.7181 146.535 54.8232 146.685 54.7748C146.847 54.7221 146.933 54.5682 146.896 54.4025C146.76 53.7878 146.649 53.1507 146.574 52.5422C146.555 52.3856 146.449 52.2317 146.271 52.2395C146.124 52.2463 145.948 52.3741 145.968 52.5422Z" fill="white"/>
<path d="M134.138 54.7744C134.138 54.7744 132.789 54.0424 132.536 54.525C132.284 55.0074 133.257 55.4214 133.671 55.5742C134.085 55.7267 135.207 55.4206 134.138 54.7744Z" fill="white" stroke="#010001" stroke-width="0.75" stroke-miterlimit="10"/>
<path d="M134.432 60.0544L132.314 51.7456C132.081 50.8331 132.752 49.9394 133.693 49.9071L139.606 49.704C140.28 49.6809 140.884 50.1183 141.073 50.7664L143.544 59.2619C143.818 60.2043 143.112 61.1464 142.131 61.1491L135.865 61.1655C135.189 61.1671 134.599 60.7092 134.432 60.0544Z" fill="#010001"/>
<path d="M135.202 58.7041C135.202 58.7041 135.14 58.9148 134.908 58.9271C134.675 58.9395 134.051 58.7676 133.819 58.5352C133.586 58.3027 133.642 58.0816 133.73 58.0724C133.73 58.0724 133.441 57.9785 133.398 57.7015C133.355 57.4244 133.577 57.3079 133.785 57.2872C133.785 57.2872 133.509 57.4015 133.24 57.1688C132.971 56.9361 133.103 56.5858 133.549 56.5272C133.549 56.5272 132.964 56.6533 132.903 56.2264C132.843 55.7992 133.192 55.6598 133.446 55.6154C133.7 55.5708 134.311 55.5358 134.481 55.6432C134.651 55.7502 134.675 55.8979 134.592 56.0279C134.509 56.1581 134.262 56.3609 134.262 56.3609C134.262 56.3609 134.765 56.4263 134.889 56.5253C135.013 56.6243 135.096 56.6797 135.038 56.8398C134.98 56.9998 134.576 57.1809 134.576 57.1809C134.576 57.1809 134.503 57.3065 134.682 57.3286C134.86 57.3509 135.285 57.5408 135.314 57.7144C135.343 57.8879 135.259 58.0377 135.18 58.0859C135.102 58.134 135.005 58.14 135.102 58.2667C135.198 58.3934 135.302 58.5588 135.202 58.7041Z" fill="white"/>
<path d="M133.785 58.0398C133.785 58.0398 133.471 58.2262 133.819 58.5351C134.167 58.8439 134.796 58.9459 135.046 58.8899C135.295 58.8342 135.274 58.3285 135.02 58.1566C134.767 57.9844 133.91 57.9268 133.785 58.0398Z" stroke="#010001" stroke-width="0.75" stroke-miterlimit="10" stroke-linecap="round"/>
<path d="M133.698 58.0598C133.698 58.0598 133.405 57.9726 133.396 57.67C133.386 57.3673 133.691 57.1944 134.322 57.2538C134.953 57.3133 135.256 57.4911 135.28 57.7722C135.304 58.0534 135.112 58.2048 135.02 58.1572" stroke="#010001" stroke-width="0.75" stroke-miterlimit="10" stroke-linecap="round"/>
<path d="M133.529 57.3406C133.529 57.3406 133.09 57.2709 133.101 56.8862C133.112 56.5015 133.836 56.3971 134.226 56.3622C134.615 56.3272 135.108 56.6264 134.992 56.9099C134.876 57.1932 134.523 57.2093 134.397 57.2516" stroke="#010001" stroke-width="0.75" stroke-miterlimit="10" stroke-linecap="round"/>
<path d="M133.337 56.5725C133.337 56.5725 132.91 56.5227 132.895 56.1111C132.88 55.6995 133.662 55.513 134.263 55.5432C134.864 55.5733 134.487 56.2964 134.261 56.3613" stroke="#010001" stroke-width="0.75" stroke-miterlimit="10" stroke-linecap="round"/>
<path d="M154.311 72.6097L156.797 72.7488C156.797 72.7488 157.496 70.4083 156.717 67.5846C155.938 64.7612 146.804 64.9146 146.804 64.9146C146.804 64.9146 146.608 70.3365 146.677 70.379C146.746 70.4217 154.311 72.6097 154.311 72.6097Z" fill="#8D58FF"/>
<path d="M158.469 66.4117L158.541 68.5349L145.94 65.9826L145.12 65.762C145.12 65.762 145.597 56.1878 147.079 52.2441C148.56 48.3002 150.615 46.5747 152.181 46.3412C153.748 46.1077 157.456 49.9779 157.456 49.9779L158.659 62.5198L158.469 66.4117Z" fill="#4542AA" stroke="#010001" stroke-miterlimit="10" stroke-linecap="round"/>
<path d="M148.496 51.9996C148.765 51.584 149.034 51.1683 149.304 50.7527C149.39 50.6195 149.335 50.4126 149.195 50.3386C149.044 50.259 148.873 50.305 148.781 50.4473C148.512 50.863 148.242 51.2786 147.973 51.6943C147.887 51.8274 147.942 52.0343 148.082 52.1083C148.232 52.1877 148.404 52.1416 148.496 51.9996Z" fill="white"/>
<path d="M149.583 53.4406C149.534 53.8511 149.486 54.2616 149.438 54.6719C149.429 54.7437 149.477 54.8371 149.526 54.886C149.578 54.9385 149.665 54.978 149.74 54.9745C149.818 54.971 149.9 54.9452 149.954 54.886C150.012 54.8231 150.033 54.7564 150.043 54.6719C150.091 54.2614 150.14 53.8508 150.188 53.4406C150.196 53.3687 150.148 53.2754 150.1 53.2264C150.047 53.174 149.961 53.1344 149.885 53.1379C149.807 53.1414 149.726 53.1672 149.672 53.2264C149.614 53.2896 149.593 53.3564 149.583 53.4406Z" fill="white"/>
<path d="M151.91 50.5158C151.951 50.8838 151.992 51.2518 152.033 51.6198C152.043 51.7024 152.061 51.7729 152.122 51.834C152.174 51.8864 152.26 51.926 152.336 51.9225C152.485 51.9158 152.657 51.7882 152.638 51.6198C152.597 51.2518 152.556 50.8838 152.515 50.5158C152.506 50.4332 152.487 50.3627 152.426 50.3016C152.374 50.2492 152.288 50.2096 152.212 50.2131C152.063 50.2198 151.891 50.3473 151.91 50.5158Z" fill="white"/>
<path d="M154.066 55.638C154.272 55.1877 154.493 54.744 154.729 54.3085C154.804 54.1694 154.768 53.9725 154.62 53.8945C154.479 53.8199 154.287 53.8544 154.206 54.0031C153.97 54.439 153.749 54.8823 153.543 55.3327C153.478 55.4763 153.497 55.6652 153.652 55.7467C153.785 55.8169 153.996 55.7919 154.066 55.638Z" fill="white"/>
<path d="M146.419 61.7144C146.67 61.455 146.932 61.2075 147.205 60.9721C147.261 60.9237 147.294 60.8298 147.294 60.758C147.294 60.6837 147.261 60.5952 147.205 60.5438C147.148 60.4908 147.072 60.4516 146.991 60.4553C146.908 60.4591 146.841 60.4892 146.777 60.5438C146.504 60.7792 146.242 61.0267 145.991 61.2861C145.881 61.4001 145.869 61.6022 145.991 61.7141C146.11 61.8236 146.302 61.836 146.419 61.7144Z" fill="white"/>
<path d="M147.269 63.3297C147.398 63.6955 147.527 64.0614 147.656 64.4275C147.708 64.5766 147.865 64.6917 148.028 64.639C148.175 64.5914 148.296 64.4265 148.24 64.2667C148.111 63.9008 147.982 63.5349 147.853 63.1688C147.8 63.0197 147.644 62.9046 147.48 62.9573C147.333 63.0049 147.213 63.1699 147.269 63.3297Z" fill="white"/>
<path d="M151.431 66.1886C151.799 65.7506 152.19 65.3325 152.601 64.9352C152.715 64.8249 152.72 64.6164 152.601 64.5072C152.478 64.3947 152.295 64.3896 152.173 64.5072C151.762 64.9042 151.371 65.3226 151.003 65.7605C150.902 65.8816 150.876 66.0715 151.003 66.1886C151.115 66.2916 151.323 66.318 151.431 66.1886Z" fill="white"/>
<path d="M154.231 65.9758C154.243 66.315 154.267 66.6534 154.303 66.9911C154.311 67.0734 154.331 67.1444 154.391 67.2052C154.444 67.2577 154.53 67.2972 154.605 67.2937C154.755 67.287 154.926 67.1597 154.908 66.9911C154.873 66.6534 154.848 66.315 154.836 65.9758C154.83 65.8179 154.701 65.6656 154.533 65.6731C154.374 65.6801 154.224 65.8063 154.231 65.9758Z" fill="white"/>
<path d="M145.659 57.8151L148.175 60.1045L148.988 60.7574L151.079 58.0094C151.079 58.0094 149.528 57.4998 148.77 56.5908C148.013 55.6818 147.605 54.3708 147.457 54.2159C147.308 54.0609 146.621 53.7774 146.044 53.6047C145.467 53.4319 144.077 52.903 143.603 53.009C143.13 53.115 143.343 53.5401 143.478 53.6646C143.613 53.7892 144.648 54.1726 144.648 54.1726C144.648 54.1726 145.015 54.3576 144.811 54.4018C144.607 54.4459 144.442 54.5441 144.442 54.5441C144.442 54.5441 144.314 54.8454 144.217 54.9151C144.12 54.9847 144.029 55.0972 144.034 55.243C144.039 55.3888 144.023 55.4962 143.879 55.6272C143.734 55.7585 143.7 56.2123 143.7 56.2123C143.7 56.2123 143.576 56.3869 143.627 56.7221C143.678 57.0573 144.035 57.6373 144.424 57.767C144.813 57.8969 145.102 57.8388 145.102 57.8388L145.361 57.5071L145.659 57.8151Z" fill="white"/>
<path d="M145.22 54.3394C145.22 54.3394 143.338 53.8807 143.32 53.329C143.296 52.6171 145.275 53.4215 146.476 53.7239C147.677 54.0263 147.546 54.4973 148.333 55.9729C149.12 57.4482 151.079 58.01 151.079 58.01L148.988 60.758C148.988 60.758 146.364 58.689 145.851 58.0431C145.337 57.3971 144.63 56.837 144.314 56.9191" stroke="#010001" stroke-width="0.75" stroke-miterlimit="10" stroke-linecap="round"/>
<path d="M145.258 57.4609C145.258 57.4609 145.262 58.0107 144.813 57.8507C144.355 57.6871 143.601 57.3645 143.579 56.604C143.555 55.7214 144.732 56.2145 144.732 56.2145" stroke="#010001" stroke-width="0.75" stroke-miterlimit="10" stroke-linecap="round"/>
<path d="M145.186 55.3967C145.186 55.3967 143.643 55.2539 143.74 56.1707" stroke="#010001" stroke-width="0.75" stroke-miterlimit="10" stroke-linecap="round"/>
<path d="M145.559 54.9339C145.559 54.9339 144.474 54.6848 144.244 54.889C144.014 55.0932 144.072 55.4822 144.072 55.4822" stroke="#010001" stroke-width="0.75" stroke-miterlimit="10" stroke-linecap="round"/>
<path d="M144.377 54.8156C144.377 54.8156 144.467 54.026 146.154 54.496" stroke="#010001" stroke-width="0.75" stroke-miterlimit="10" stroke-linecap="round"/>
<path d="M157.764 58.9349C157.522 57.5916 156.074 54.2124 156.074 54.2124L153.281 46.5576C153.281 46.5576 158.727 47.4212 163.04 55.0919C167.354 62.7625 163.621 67.3779 160.211 67.697C153.951 68.2826 148.015 61.1495 148.015 61.1495L151.153 56.5809L159.06 59.3968" fill="#4542AA"/>
<path d="M148.015 61.1484C148.015 61.1484 148.687 61.9552 149.815 63.003L153.218 57.3153L151.153 56.5801L148.015 61.1484Z" fill="#4542AA" stroke="#010001" stroke-miterlimit="10"/>
<path d="M148.446 60.5186L150.423 61.9863" stroke="#010001" stroke-miterlimit="10"/>
<path d="M148.997 59.7021L151.072 60.9017" stroke="#010001" stroke-miterlimit="10"/>
<path d="M149.601 58.8389L151.672 59.8983" stroke="#010001" stroke-miterlimit="10"/>
<path d="M150.179 57.9971L152.241 58.9473" stroke="#010001" stroke-miterlimit="10"/>
<path d="M150.715 57.2158L152.784 58.0382" stroke="#010001" stroke-miterlimit="10"/>
<path d="M153.281 46.5576C153.281 46.5576 158.727 47.4212 163.04 55.0919C167.354 62.7625 163.621 67.3779 160.211 67.697C153.951 68.2826 148.015 61.1495 148.015 61.1495L151.153 56.5809L159.06 59.3968" stroke="#010001" stroke-miterlimit="10" stroke-linecap="round"/>
<path d="M156.073 54.2129C156.073 54.2129 157.522 57.5921 157.763 58.9353" stroke="#010001" stroke-miterlimit="10" stroke-linecap="round"/>
<path d="M151.656 62.2599C151.983 62.7366 152.319 63.2074 152.664 63.672C152.713 63.7376 152.763 63.7885 152.845 63.8111C152.917 63.831 153.014 63.8221 153.078 63.7807C153.204 63.6997 153.288 63.5025 153.187 63.3667C152.842 62.902 152.506 62.4313 152.178 61.9545C152.089 61.8243 151.909 61.753 151.764 61.8459C151.635 61.9293 151.56 62.1205 151.656 62.2599Z" fill="white"/>
<path d="M153.452 60.1535C153.733 60.1677 154.013 60.182 154.294 60.1965C154.452 60.2046 154.603 60.0515 154.596 59.8938C154.589 59.723 154.464 59.5998 154.294 59.5912C154.013 59.5769 153.733 59.5627 153.452 59.5482C153.294 59.5401 153.143 59.6932 153.15 59.8508C153.157 60.0216 153.283 60.1449 153.452 60.1535Z" fill="white"/>
<path d="M154.821 62.4257C155.176 62.6025 155.54 62.7615 155.91 62.9038C155.979 62.9304 156.082 62.9091 156.143 62.8734C156.206 62.8365 156.266 62.7647 156.282 62.6926C156.3 62.6151 156.296 62.5282 156.252 62.4593C156.207 62.3894 156.148 62.3501 156.071 62.3203C155.956 62.2759 155.841 62.2299 155.728 62.182C155.752 62.1922 155.776 62.2024 155.8 62.2124C155.572 62.1163 155.348 62.013 155.127 61.903C154.985 61.8325 154.793 61.8605 154.713 62.0114C154.64 62.1486 154.67 62.3504 154.821 62.4257Z" fill="white"/>
<path d="M155.73 65.4823C156.096 65.7502 156.461 66.0182 156.827 66.2861C156.887 66.3297 156.992 66.3353 157.061 66.3165C157.131 66.2971 157.207 66.2428 157.241 66.1774C157.324 66.0198 157.27 65.8635 157.133 65.7634C156.767 65.4954 156.401 65.2275 156.035 64.9595C155.976 64.916 155.87 64.9103 155.802 64.9291C155.732 64.9485 155.656 65.0029 155.621 65.0682C155.538 65.2256 155.593 65.3819 155.73 65.4823Z" fill="white"/>
<path d="M158.275 61.0674C158.663 61.0438 159.051 61.0201 159.439 60.9964C159.597 60.9867 159.75 60.864 159.742 60.6938C159.735 60.538 159.609 60.3809 159.439 60.3911C159.051 60.4148 158.663 60.4384 158.275 60.4621C158.117 60.4718 157.964 60.5945 157.972 60.7648C157.979 60.9203 158.105 61.0776 158.275 61.0674Z" fill="white"/>
<path d="M158.962 63.8644C159.341 63.9873 159.72 64.11 160.099 64.233C160.249 64.2819 160.436 64.1759 160.471 64.0215C160.509 63.8555 160.421 63.7016 160.26 63.6492C159.881 63.5262 159.502 63.4036 159.123 63.2806C158.973 63.2317 158.786 63.3377 158.751 63.4921C158.713 63.6581 158.801 63.8122 158.962 63.8644Z" fill="white"/>
<path d="M160.683 66.6025C160.986 66.468 161.289 66.3335 161.592 66.1992C161.657 66.1704 161.713 66.0835 161.732 66.0184C161.751 65.9461 161.743 65.8495 161.701 65.7852C161.659 65.7206 161.598 65.6636 161.52 65.6461C161.436 65.627 161.366 65.6418 161.287 65.6765C160.984 65.811 160.681 65.9455 160.378 66.0798C160.313 66.1086 160.257 66.1955 160.239 66.2606C160.219 66.3329 160.228 66.4295 160.269 66.4938C160.311 66.5584 160.373 66.6154 160.45 66.6329C160.534 66.652 160.605 66.6372 160.683 66.6025Z" fill="white"/>
<path d="M163.354 63.7096C163.548 63.4486 163.717 63.1707 163.861 62.8794C163.897 62.8059 163.914 62.7274 163.891 62.6461C163.872 62.5759 163.818 62.4998 163.752 62.4654C163.616 62.3933 163.413 62.4223 163.338 62.574C163.195 62.8654 163.025 63.1433 162.832 63.4042C162.788 63.4634 162.782 63.5697 162.801 63.6375C162.821 63.7077 162.875 63.7838 162.94 63.8183C163.011 63.8554 163.096 63.874 163.174 63.8487C163.253 63.8228 163.305 63.7763 163.354 63.7096Z" fill="white"/>
<path d="M161.358 61.8935C161.619 61.6923 161.879 61.4913 162.14 61.2901C162.205 61.2395 162.256 61.1924 162.279 61.1093C162.299 61.0369 162.29 60.9404 162.249 60.8761C162.207 60.8115 162.145 60.7545 162.068 60.737C161.994 60.7203 161.897 60.7192 161.835 60.7674C161.574 60.9686 161.313 61.1696 161.053 61.3708C160.987 61.4214 160.936 61.4684 160.913 61.5516C160.894 61.6239 160.902 61.7205 160.944 61.7848C160.986 61.8494 161.047 61.9064 161.125 61.9239C161.198 61.9406 161.295 61.9417 161.358 61.8935Z" fill="white"/>
<path d="M160.179 57.8599C160.225 58.0616 160.265 58.2648 160.298 58.4689C160.307 58.5211 160.315 58.5731 160.323 58.6252C160.326 58.6495 160.33 58.6734 160.333 58.6976C160.343 58.7635 160.326 58.6417 160.336 58.7138C160.349 58.8184 160.361 58.9233 160.371 59.0283C160.379 59.1106 160.4 59.1819 160.46 59.2424C160.513 59.2949 160.599 59.3344 160.674 59.3309C160.825 59.3242 160.993 59.1969 160.977 59.0283C160.933 58.5814 160.862 58.137 160.762 57.699C160.727 57.5446 160.541 57.4389 160.39 57.4876C160.228 57.5397 160.141 57.6942 160.179 57.8599Z" fill="white"/>
<path d="M163.062 58.4644C163.192 58.8319 163.302 59.2064 163.391 59.5862C163.427 59.7407 163.612 59.8467 163.763 59.7977C163.924 59.7455 164.013 59.5908 163.975 59.4254C163.886 59.0455 163.776 58.6713 163.646 58.3035C163.593 58.1548 163.437 58.0394 163.274 58.0921C163.126 58.1397 163.005 58.3046 163.062 58.4644Z" fill="white"/>
<path d="M158.442 56.8649C158.529 56.3694 158.616 55.8736 158.703 55.378C158.73 55.2225 158.661 55.0444 158.491 55.0057C158.344 54.9721 158.148 55.0504 158.119 55.2172C158.032 55.7127 157.945 56.2085 157.858 56.7041C157.831 56.8593 157.9 57.0376 158.07 57.0764C158.217 57.1097 158.413 57.0317 158.442 56.8649Z" fill="white"/>
<path d="M160.699 54.4907C160.901 54.9672 161.103 55.4433 161.304 55.9198C161.332 55.9844 161.421 56.0411 161.485 56.0589C161.558 56.0788 161.654 56.0699 161.719 56.0285C161.871 55.9303 161.893 55.771 161.827 55.6144C161.625 55.138 161.424 54.6618 161.222 54.1854C161.194 54.1208 161.105 54.0641 161.041 54.0463C160.969 54.0264 160.872 54.0353 160.808 54.0767C160.656 54.1749 160.633 54.3342 160.699 54.4907Z" fill="white"/>
<path d="M158.561 52.6678C158.753 53.0565 158.946 53.445 159.138 53.8337C159.208 53.9761 159.421 54.0266 159.552 53.9424C159.697 53.8485 159.735 53.6804 159.66 53.5284C159.468 53.1397 159.276 52.7512 159.084 52.3625C159.014 52.2201 158.801 52.1696 158.67 52.2538C158.524 52.3477 158.486 52.5155 158.561 52.6678Z" fill="white"/>
<path d="M156.741 52.5009C156.797 52.167 156.854 51.8329 156.91 51.4991C156.924 51.4167 156.923 51.3406 156.88 51.2658C156.843 51.2031 156.771 51.1431 156.699 51.1267C156.552 51.0934 156.355 51.1711 156.326 51.3382C156.27 51.6723 156.214 52.0062 156.157 52.34C156.143 52.4223 156.144 52.4985 156.188 52.5733C156.225 52.636 156.297 52.6959 156.369 52.7124C156.515 52.7457 156.713 52.668 156.741 52.5009Z" fill="white"/>
<path d="M155.224 46.5976C154.865 46.0456 154.304 45.7399 153.813 45.5118C153.655 45.4257 153.477 45.3687 153.284 45.3402C153.092 45.3052 152.904 45.3017 152.727 45.3326C152.189 45.3908 151.604 45.6259 151.086 46.0332C150.006 46.883 149.632 48.1509 150.251 48.8652C150.75 49.4412 151.337 49.3513 152.269 48.9002C153.372 50.1199 154.364 50.0379 155.022 49.6532C155.838 49.1757 155.974 47.7496 155.224 46.5976Z" fill="white" stroke="#010001" stroke-miterlimit="10"/>
<path d="M155.104 40.1733C154.777 40.1846 154.478 40.2997 154.238 40.4843L154.207 39.5817C154.157 38.1511 153.089 37.0155 151.833 37.0588L149.942 37.1237C148.686 37.1667 147.698 38.3727 147.747 39.8037L147.847 42.7339C147.897 44.1645 148.965 45.3001 150.222 45.2568L151.315 45.2191L151.369 46.7975C151.391 47.4447 151.939 47.9562 152.586 47.9338L153.336 47.908C153.983 47.8857 154.495 47.3379 154.472 46.6907L154.411 44.907L154.407 44.8078L154.346 43.0241C154.345 42.9884 154.34 42.9534 154.336 42.9184C154.586 43.0796 154.886 43.1697 155.207 43.1587C156.038 43.1301 156.689 42.4388 156.66 41.6142C156.632 40.7899 155.935 40.1448 155.104 40.1733Z" fill="white" stroke="#010001" stroke-miterlimit="10"/>
<path d="M154.348 41.8909C154.348 41.8909 154.247 40.8794 155.292 40.9563" stroke="#010001" stroke-miterlimit="10" stroke-linecap="round"/>
<path d="M151.562 40.6323C151.57 40.8677 151.386 41.0649 151.151 41.073C150.915 41.081 150.718 40.8967 150.71 40.6616C150.702 40.4262 150.886 40.229 151.122 40.221C151.357 40.2129 151.554 40.3969 151.562 40.6323Z" fill="#010001"/>
<path d="M148.77 40.666C148.777 40.867 148.62 41.0354 148.419 41.0421C148.218 41.0491 148.05 40.8917 148.043 40.6908C148.036 40.4898 148.194 40.3214 148.394 40.3147C148.595 40.3079 148.763 40.4653 148.77 40.666Z" fill="#010001"/>
<path d="M153.096 42.1485C153.117 42.7333 152.659 43.2237 152.074 43.2439C151.489 43.2641 150.998 42.8062 150.978 42.2211C150.958 41.6362 151.416 41.1458 152.001 41.1256C152.586 41.1057 153.077 41.5636 153.096 42.1485Z" fill="#ED80A5"/>
<path d="M148.125 41.5122C148.06 41.5144 147.998 41.5249 147.938 41.5413L147.976 42.6397C147.982 42.8038 147.993 42.9625 148.032 43.1159C148.076 43.1218 148.134 43.1261 148.18 43.1245C148.625 43.1091 148.973 42.736 148.958 42.2908C148.943 41.8453 148.57 41.4969 148.125 41.5122Z" fill="#ED80A5"/>
<path d="M151.797 39.8414C151.569 39.7311 151.33 39.6428 151.084 39.5812C151.032 39.568 150.975 39.5982 150.96 39.6517C150.946 39.7033 150.978 39.7625 151.031 39.7757C151.26 39.8333 151.483 39.9126 151.695 40.0154C151.744 40.0391 151.804 40.0289 151.833 39.9791C151.859 39.935 151.846 39.865 151.797 39.8414Z" fill="#010001"/>
<path d="M148.751 39.833C148.498 39.8322 148.246 39.8548 147.997 39.8976C147.943 39.9067 147.913 39.9729 147.926 40.0216C147.942 40.0784 147.996 40.1012 148.05 40.0921C148.282 40.0523 148.516 40.034 148.751 40.0348C148.806 40.0351 148.852 39.9883 148.852 39.9339C148.852 39.879 148.806 39.8333 148.751 39.833Z" fill="#010001"/>
<path d="M149.567 40.2484C149.45 40.6391 149.278 41.0087 149.056 41.3509C149.017 41.4106 149.059 41.4765 149.116 41.4991C149.311 41.5755 149.512 41.6234 149.719 41.6495C149.773 41.6562 149.82 41.5984 149.82 41.5486C149.82 41.4884 149.774 41.4545 149.719 41.4478C149.531 41.4241 149.347 41.3738 149.17 41.3046C149.19 41.3541 149.21 41.4034 149.23 41.4529C149.461 41.0969 149.64 40.7087 149.761 40.3022C149.799 40.1774 149.604 40.1242 149.567 40.2484Z" fill="#010001"/>
<path d="M155.229 35.4442C155.488 35.8534 156.029 35.9753 156.439 35.7165C156.848 35.4574 156.97 34.9159 156.711 34.5067C156.452 34.0975 155.91 33.9756 155.501 34.2347C155.092 34.4932 154.97 35.0351 155.229 35.4442Z" fill="#8D58FF"/>
<path d="M157.104 33.2017C157.104 33.2017 155.768 31.5736 156.236 29.2941C156.705 27.015 159.352 25.5289 161.166 25.9937C162.98 26.4583 163.82 26.5536 164.657 24.7576C165.495 22.9616 167.495 20.7228 171.961 21.6856C176.428 22.6482 176.396 28.0577 175.99 29.7628C175.475 31.9273 173.997 33.1178 172.08 34.1756C170.164 35.2334 167.375 35.267 165.55 33.5937C163.725 31.9203 162.413 32.1581 162.294 33.5815C162.163 35.1626 158.451 35.4187 157.104 33.2017Z" stroke="#010001" stroke-miterlimit="10"/>
<path d="M154.962 36.0347C153.374 34.54 151.146 34.4934 149.119 35.8071C147.092 37.1207 147.208 39.1543 147.341 39.44C147.42 39.6095 147.527 39.7354 147.746 39.7719C147.938 39.7894 148.258 39.7434 148.828 39.6017C150.466 39.1933 151.462 37.7274 151.462 37.7274C151.462 37.7274 151.331 37.9902 151.934 39.1664C152.386 40.0488 153.477 40.5664 154.033 40.7768C154.193 40.5419 154.592 40.2115 155.089 40.1755C155.444 40.1497 155.856 40.3326 156.125 40.5249C156.515 39.6974 156.422 37.4102 154.962 36.0347Z" fill="#010001"/>
<path d="M148.975 42.9324C148.99 43.2485 149.19 43.5237 149.49 43.6276C149.786 43.7295 150.128 43.6273 150.321 43.3836C150.434 43.2418 150.492 43.0683 150.488 42.8875C150.486 42.7578 150.284 42.7573 150.287 42.8875C150.293 43.1885 150.061 43.4549 149.754 43.4648C149.45 43.4748 149.191 43.2367 149.177 42.9324C149.17 42.8033 148.969 42.8025 148.975 42.9324Z" fill="#010001"/>
<path d="M127.786 85.4307L127.976 90.936L132.207 91.4703L132.286 85.5353L127.786 85.4307Z" fill="white" stroke="#6040EF" stroke-miterlimit="10"/>
<path d="M128.447 85.4453L128.772 91.0668" stroke="#6040EF" stroke-miterlimit="10"/>
<path d="M129.424 85.4707L129.749 91.092" stroke="#6040EF" stroke-miterlimit="10"/>
<path d="M130.342 85.3896L130.508 91.1225" stroke="#6040EF" stroke-miterlimit="10"/>
<path d="M131.183 85.4512L131.353 91.2285" stroke="#6040EF" stroke-miterlimit="10"/>
<path d="M120.076 98.0834L133.62 97.8087L133.157 89.8047L126.811 90.3586L126.679 93.4927L120.076 98.0834Z" fill="white" stroke="#0F110E" stroke-miterlimit="10"/>
<path d="M123.982 94.6221L124.853 96.4619" stroke="#101010" stroke-miterlimit="10" stroke-linecap="round"/>
<path d="M125.215 93.916L126.085 95.7559" stroke="#101010" stroke-miterlimit="10" stroke-linecap="round"/>
<path d="M126.151 93.6197C126.151 93.6197 122.634 92.274 123.187 91.273C124.077 89.6629 126.151 93.6197 126.151 93.6197Z" stroke="#101010" stroke-miterlimit="10" stroke-linecap="round"/>
<path d="M125.303 90.2734L126.247 93.6806" stroke="#101010" stroke-miterlimit="10" stroke-linecap="round"/>
<path d="M128.17 93.7767C128.201 94.679 128.957 95.3852 129.86 95.3542C130.762 95.3233 131.468 94.5668 131.437 93.6645C131.406 92.7622 130.65 92.056 129.747 92.0869C128.845 92.1179 128.139 92.8744 128.17 93.7767Z" fill="#4542AA"/>
<path d="M117.522 73.3887L113.972 77.6005L116.752 80.8339L120.791 76.4835L117.522 73.3887Z" fill="white" stroke="#6040EF" stroke-miterlimit="10"/>
<path d="M118.002 73.8428L114.474 78.2311" stroke="#6040EF" stroke-miterlimit="10"/>
<path d="M118.71 74.5166L115.182 78.9049" stroke="#6040EF" stroke-miterlimit="10"/>
<path d="M119.445 75.0713L115.725 79.4362" stroke="#6040EF" stroke-miterlimit="10"/>
<path d="M120.028 75.6816L116.281 80.0826" stroke="#6040EF" stroke-miterlimit="10"/>
<path d="M103.317 77.6071L113.55 86.484L118.573 80.2354L113.494 76.3916L111.294 78.6277L103.317 77.6071Z" fill="white" stroke="#0F110E" stroke-miterlimit="10"/>
<path d="M108.536 77.6572L107.948 79.6058" stroke="#101010" stroke-miterlimit="10" stroke-linecap="round"/>
<path d="M109.924 77.96L109.336 79.9085" stroke="#101010" stroke-miterlimit="10" stroke-linecap="round"/>
<path d="M110.818 78.3668C110.818 78.3668 109.111 75.0102 110.193 74.6387C111.933 74.0412 110.818 78.3668 110.818 78.3668Z" stroke="#101010" stroke-miterlimit="10" stroke-linecap="round"/>
<path d="M112.433 75.3145L110.849 78.4752" stroke="#101010" stroke-miterlimit="10" stroke-linecap="round"/>
<path d="M112.21 79.8377C111.628 80.5277 111.716 81.5589 112.406 82.1408C113.096 82.7227 114.127 82.635 114.709 81.9449C115.291 81.2549 115.204 80.2237 114.514 79.6418C113.823 79.0599 112.792 79.1476 112.21 79.8377Z" fill="#4542AA"/>
<path d="M151.526 67.6619L149.46 66.5347C149.46 66.5347 142.537 63.1561 140.618 62.3382C138.699 61.5207 134.064 59.6945 132.743 59.4174C131.422 59.1403 129.487 58.5442 126.607 60.6114C126.607 60.6114 121.955 64.1192 121.426 64.5797C120.897 65.0403 114.238 71.4032 114.238 71.4032L122.848 78.8329L125.557 75.8015L124.729 86.1482L135.063 86.2595L134.906 75.8292C134.906 75.8292 134.827 75.5301 135.292 75.5613C135.757 75.5925 143.075 75.8037 143.075 75.8037C143.075 75.8037 144.392 75.8413 144.983 76.0431C145.575 76.2449 150.522 77.3393 152.894 76.6312C155.265 75.9231 156.048 74.829 156.38 74.0744C156.712 73.32 157.034 72.3572 157.075 71.6085C157.115 70.8598 151.526 67.6619 151.526 67.6619Z" fill="#8D58FF"/>
<path d="M150.892 67.2694C150.892 67.2694 134.735 58.7962 130.253 59.0628C125.771 59.3291 114.238 71.4029 114.238 71.4029L122.848 78.8326L125.57 75.6556" stroke="#010001" stroke-miterlimit="10" stroke-linecap="round"/>
<path d="M128.116 67.4531C128.116 67.4531 141.395 75.141 145.16 76.0896C148.823 77.0123 158.736 78.9897 156.89 68.229" stroke="#010001" stroke-miterlimit="10" stroke-linecap="round"/>
<path d="M129.787 68.4072C129.787 68.4072 126.389 68.6044 126.037 70.9968C125.685 73.3893 124.729 86.1469 124.729 86.1469L135.063 86.2583L134.866 73.149" stroke="#010001" stroke-miterlimit="10" stroke-linecap="round"/>
<path d="M134.902 75.5732L144.155 75.7653" stroke="#010001" stroke-miterlimit="10" stroke-linecap="round"/>
<path d="M158.139 75.7646H139.846V111.561H158.139V75.7646Z" fill="#958F99" stroke="#010001" stroke-miterlimit="10"/>
<path d="M134.711 97.9697H116.417V111.674H134.711V97.9697Z" fill="#BFBCC0" stroke="#010001" stroke-miterlimit="10"/>
<path d="M86.7301 71.541H68.4365V111.56H86.7301V71.541Z" fill="#BFBCC0" stroke="#010001" stroke-miterlimit="10"/>
<path d="M111.252 88.2549H92.958V111.561H111.252V88.2549Z" fill="#958F99" stroke="#010001" stroke-miterlimit="10"/>
<path d="M63.863 81.4404H45.5693V111.56H63.863V81.4404Z" fill="#958F99" stroke="#010001" stroke-miterlimit="10"/>
<path d="M59.8134 44.7805L57.2959 42.2899C57.2959 42.2899 59.7825 39.814 60.2813 39.2862C60.78 38.7584 61.4628 38.328 62.0105 38.8717C62.5585 39.4153 63.0484 41.4126 62.5287 41.9813C62.0087 42.55 59.8134 44.7805 59.8134 44.7805Z" fill="white"/>
<path d="M34.5021 35.869C34.5021 35.869 37.2405 34.9732 46.3768 44.7799L56.9315 41.7268L60.7018 45.9015C60.7018 45.9015 52.2919 54.3857 47.3252 55.4763C44.5615 56.0832 40.8745 56.1254 37.5461 50.4168C34.218 44.7081 34.5021 35.869 34.5021 35.869Z" fill="#8D58FF" stroke="#010001" stroke-miterlimit="10" stroke-linecap="round"/>
<path d="M58.7544 47.7608C59.8437 46.6457 60.7021 45.9013 60.7021 45.9013L56.9318 41.7266L54.6104 42.5283L58.7544 47.7608Z" fill="#8D58FF" stroke="#010001" stroke-miterlimit="10" stroke-linecap="round"/>
<path d="M44.332 46.4353C44.332 46.4353 45.6981 44.9767 47.3255 44.5059" stroke="#010001" stroke-miterlimit="10" stroke-linecap="round"/>
<path d="M39.3623 98.2607L39.0564 104.18L35.2979 104.814L35.3248 98.5976L39.3623 98.2607Z" fill="white" stroke="#010001" stroke-miterlimit="10"/>
<path d="M47.8363 111.601L33.4287 111.533L33.7889 103.014L40.546 103.498L40.7394 106.828L47.8363 111.601Z" fill="#8D58FF"/>
<path d="M43.6255 107.984L42.7305 109.956" stroke="#010001" stroke-miterlimit="10" stroke-linecap="round"/>
<path d="M42.3032 107.255L41.4082 109.226" stroke="#010001" stroke-miterlimit="10" stroke-linecap="round"/>
<path d="M41.3027 106.954C41.3027 106.954 45.0206 105.465 44.4156 104.41C43.442 102.712 41.3027 106.954 41.3027 106.954Z" stroke="#010001" stroke-miterlimit="10" stroke-linecap="round"/>
<path d="M42.1494 103.381L41.2021 107.02" stroke="#010001" stroke-miterlimit="10" stroke-linecap="round"/>
<path d="M36.2476 111.547C36.4606 111.153 36.576 110.701 36.5553 110.221C36.4945 108.809 35.2955 107.708 33.8826 107.769C33.7819 107.773 33.6838 107.785 33.5866 107.8L33.5791 107.977C33.6808 107.96 33.7841 107.946 33.8898 107.941C35.2078 107.885 36.3261 108.911 36.3829 110.229C36.4036 110.708 36.2793 111.161 36.0512 111.546L36.2476 111.547Z" fill="white"/>
<path d="M47.8363 111.601L33.4287 111.533L33.7889 103.014" stroke="#010001" stroke-miterlimit="10" stroke-linecap="round"/>
<path d="M31.8788 99.7037L41.2029 99.4723L43.0183 60.016L29.874 59.9912L31.8788 99.7037Z" fill="#010001"/>
<path d="M29.874 59.9912L31.8788 99.7037" stroke="white" stroke-miterlimit="10" stroke-linecap="round"/>
<path d="M31.6895 95.96H41.3334" stroke="white" stroke-miterlimit="10" stroke-linecap="round"/>
<path d="M18.4262 97.875L17.3555 103.705L20.8657 105.19L22.2762 99.1359L18.4262 97.875Z" fill="white" stroke="#010001" stroke-miterlimit="10"/>
<path d="M7.6123 111.553L22.0199 111.484L22.5555 103.071L15.6279 103.397L14.7092 106.78L7.6123 111.553Z" fill="#8D58FF"/>
<path d="M11.8232 107.936L12.7183 109.906" stroke="#010001" stroke-miterlimit="10" stroke-linecap="round"/>
<path d="M13.1455 107.205L14.0405 109.176" stroke="#010001" stroke-miterlimit="10" stroke-linecap="round"/>
<path d="M14.1462 106.905C14.1462 106.905 10.4283 105.416 11.0334 104.361C12.007 102.663 14.1462 106.905 14.1462 106.905Z" stroke="#010001" stroke-miterlimit="10" stroke-linecap="round"/>
<path d="M13.2988 103.332L14.2461 106.971" stroke="#010001" stroke-miterlimit="10" stroke-linecap="round"/>
<path d="M19.2008 111.496C18.9877 111.103 18.8723 110.65 18.893 110.171C18.9538 108.758 20.1528 107.657 21.5658 107.718C21.6661 107.723 22.1146 107.77 22.2117 107.786L22.174 107.968C22.0723 107.95 21.6642 107.895 21.5585 107.891C20.2405 107.834 19.1222 108.86 19.0655 110.178C19.0447 110.658 19.169 111.11 19.3972 111.496L19.2008 111.496Z" fill="white"/>
<path d="M7.6123 111.552L22.0199 111.484L22.4936 103.029" stroke="#010001" stroke-miterlimit="10" stroke-linecap="round"/>
<path d="M23.1678 60.7061L16.083 98.629L25.649 100.703L36.2003 61.3076L23.1678 60.7061Z" fill="#010001"/>
<path d="M25.6494 100.702L35.2571 64.8311H38.1084" stroke="white" stroke-miterlimit="10" stroke-linecap="round"/>
<path d="M21.8291 67.8677C21.8291 67.8677 24.8287 67.8623 26.6067 64.4043" stroke="white" stroke-miterlimit="10" stroke-linecap="round"/>
<path d="M16.6494 95.5957L26.465 97.654" stroke="white" stroke-miterlimit="10" stroke-linecap="round"/>
<path d="M41.9593 46.5361L43.4879 62.2955H22.4064C22.4064 62.2955 22.3843 50.5508 22.9869 45.4237C23.5895 40.2967 28.6673 36.4504 31.3651 36.5548C34.0632 36.6592 36.3681 37.2142 36.3681 37.2142L41.9593 46.5361Z" fill="#8D58FF"/>
<path d="M41.3203 45.4708L43.4879 62.2955H22.4064C22.4064 62.2955 22.3843 50.5508 22.9869 45.4237C23.5895 40.2967 28.6673 36.4504 31.3651 36.5548C34.0632 36.6592 36.3681 37.2142 36.3681 37.2142" stroke="#010001" stroke-miterlimit="10" stroke-linecap="round"/>
<path d="M22.4064 62.2955H43.4879L43.0591 58.9658H22.4241C22.4037 60.9472 22.4064 62.2955 22.4064 62.2955Z" fill="#8D58FF" stroke="#010001" stroke-miterlimit="10" stroke-linecap="round"/>
<path d="M90.2286 36.3034C96.912 29.6201 96.912 18.7842 90.2286 12.1009C83.5453 5.41753 72.7094 5.41753 66.0261 12.1009C59.3427 18.7842 59.3427 29.6201 66.0261 36.3034C72.7094 42.9868 83.5453 42.9868 90.2286 36.3034Z" fill="white" stroke="#010001" stroke-miterlimit="10"/>
<mask id="mask0_2404_120025" style="mask-type:luminance" maskUnits="userSpaceOnUse" x="61" y="7" width="35" height="35">
<path d="M90.2306 36.3034C96.9139 29.6201 96.9139 18.7842 90.2306 12.1009C83.5472 5.41753 72.7114 5.41753 66.028 12.1009C59.3447 18.7842 59.3447 29.6201 66.028 36.3034C72.7114 42.9868 83.5472 42.9868 90.2306 36.3034Z" fill="white"/>
</mask>
<g mask="url(#mask0_2404_120025)">
<path d="M78.0957 52.4511L83.8036 44.1945C84.9647 42.515 87.2764 42.112 88.9374 43.2997L89.7393 43.8733C91.7314 45.2978 94.5333 44.3992 95.3253 42.0821L98.0971 33.9735C99.2243 30.6755 103.889 30.6755 105.016 33.9735L106.357 37.8972C107.433 41.0445 111.811 41.2369 113.159 38.1958L114.322 35.571C115.482 32.9526 119.066 32.6243 120.682 34.9888C122.381 37.4735 126.186 36.9559 127.159 34.108L128.456 30.3145C129.647 26.8296 134.662 27.0938 135.48 30.6847L140.44 52.4514C140.44 52.4514 78.2698 52.2771 78.0957 52.4511Z" fill="#4542AA"/>
<path d="M136.562 44.6321C135.477 42.4783 132.481 42.0785 130.985 43.9711C130.934 44.0362 130.885 44.1032 130.837 44.1726C130.837 44.1726 129.21 47.1496 128.336 47.8313C126.191 49.5052 123.535 49.8727 120.655 46.0251L118.856 43.7873C117.66 42.3002 115.505 42.0164 113.965 43.143L111.882 44.6665C110.903 45.3821 109.567 46.7697 108.537 46.2083C107.397 45.5868 104.346 43.1428 104.346 43.1428C102.805 42.0161 100.651 42.2999 99.4551 43.7871L97.6553 46.0248C95.9166 48.1867 92.4846 47.6268 91.5229 45.0246L89.3016 39.013C88.137 35.8611 83.6596 35.916 82.573 39.0956L78.1091 52.1556L77.7637 52.5363C77.7637 52.5363 77.8387 52.536 77.9792 52.5355L77.935 52.6646C77.935 52.4082 140.547 52.5363 140.547 52.5363L136.562 44.6321Z" fill="#8D58FF"/>
<path d="M85.5469 20.9824V21.4949" stroke="#010001" stroke-width="0.4763" stroke-miterlimit="10"/>
<path d="M85.5469 22.4863V51.7354" stroke="#010001" stroke-width="0.4763" stroke-miterlimit="10" stroke-dasharray="3.69 3.69"/>
<path d="M96.5715 20.2087H85.4686C85.2464 20.2087 85.0664 20.0287 85.0664 19.8065C85.0664 19.5843 85.2464 19.4043 85.4686 19.4043H96.5715C96.7937 19.4043 96.9737 19.5843 96.9737 19.8065C96.9739 20.0284 96.7937 20.2087 96.5715 20.2087Z" fill="#BFBCC0"/>
<path d="M91.3484 18.3981H85.2784C85.1614 18.3981 85.0664 18.3032 85.0664 18.1861V17.8057C85.0664 17.6887 85.1614 17.5938 85.2784 17.5938H91.3484C91.4654 17.5938 91.5604 17.6887 91.5604 17.8057V18.1861C91.5604 18.3032 91.4654 18.3981 91.3484 18.3981Z" fill="#BFBCC0"/>
<path d="M71.2369 27.0483L82.0194 25.4008C82.9233 31.3158 78.7994 36.9268 72.8844 37.8307C66.9694 38.7344 61.3583 34.6111 60.4544 28.6958C59.5505 22.7807 63.6741 17.1697 69.5891 16.2658C70.531 16.1219 71.4874 16.102 72.4343 16.2066L71.2369 27.0483Z" fill="#4542AA"/>
<path d="M74.7358 16.2402L73.4268 24.5985L81.6312 23.0578C81.6312 23.0578 80.4249 18.3733 74.7358 16.2402Z" fill="#8D58FF"/>
</g>
<path d="M50.4847 49.5043L48.5645 47.0917L63.7882 34.9746L65.5321 37.4838L50.4847 49.5043Z" fill="#958F99" stroke="#0F110E" stroke-miterlimit="10"/>
<path d="M48.7991 46.4473L28.5956 62.3646C27.7084 63.0708 27.4179 64.1819 27.9465 64.8461L28.611 65.6809C29.1396 66.3451 30.2875 66.3112 31.1748 65.605L51.0814 49.4902L48.7991 46.4473Z" fill="#4542AA" stroke="#0F110E" stroke-miterlimit="10"/>
<path d="M96.4908 29.8026C97.5384 26.0936 97.4658 22.2022 96.2536 18.541C93.8154 11.1781 86.6387 5.92274 78.8859 5.82294C74.9872 5.77263 71.222 6.87563 67.9802 9.04826C64.7705 11.1994 62.2608 14.4115 60.9254 18.0355C59.6429 21.5159 59.386 25.4149 60.2996 29.0168C61.285 32.9018 63.4262 36.3485 66.4866 38.9427C72.2803 43.8543 80.984 44.6987 87.5937 40.9399C88.4949 40.4275 89.3601 39.8639 90.1739 39.2217C93.1687 36.8177 95.4441 33.5082 96.4908 29.8026ZM87.2292 37.5844C87.0347 37.717 86.8356 37.8419 86.6381 37.9702C86.622 37.9807 86.5878 38.0017 86.5585 38.0194C86.4619 38.0759 86.3653 38.1319 86.2677 38.1862C85.505 38.6118 84.7095 38.979 83.8908 39.283C83.5368 39.4146 83.1779 39.5313 82.8164 39.6406C82.787 39.6473 82.5282 39.7202 82.4578 39.7377C82.2175 39.7977 81.9762 39.852 81.7338 39.9015C80.9227 40.067 80.0995 40.1735 79.2731 40.2206C79.1617 40.2268 79.0503 40.2303 78.9389 40.2362C78.9066 40.2378 78.8337 40.24 78.784 40.2413C78.6322 40.2424 78.4805 40.2421 78.3288 40.2389C77.8838 40.2297 77.4391 40.2034 76.9963 40.1598C76.5979 40.1208 76.2005 40.0678 75.8056 40.0013C75.6081 39.968 75.4112 39.9311 75.2151 39.891C75.1061 39.8687 74.9972 39.8456 74.8885 39.8211C74.8581 39.8144 74.7634 39.7904 74.6972 39.7737C73.9372 39.5706 73.1902 39.3272 72.4627 39.0264C72.089 38.872 71.7207 38.7041 71.3592 38.5236C71.2583 38.4733 71.1585 38.4211 71.0584 38.3694C71.0358 38.3579 70.992 38.3336 70.9527 38.3119C70.7687 38.2072 70.5852 38.1015 70.4047 37.9906C69.6633 37.536 68.9565 37.0246 68.2929 36.4623C68.1513 36.3426 68.0117 36.2202 67.8743 36.0959C67.7879 36.0179 67.7026 35.9385 67.6179 35.8589C67.6133 35.8546 67.6106 35.8522 67.6066 35.8484C67.5937 35.835 67.5794 35.8202 67.5622 35.8024C67.2498 35.4796 66.9399 35.1567 66.647 34.8156C66.0723 34.1458 65.5671 33.4323 65.0872 32.6928C65.0734 32.6718 65.0624 32.6548 65.0522 32.6392C65.0495 32.6344 65.0476 32.6314 65.0444 32.6258C64.9857 32.5252 64.9276 32.4243 64.8709 32.3226C64.7805 32.1606 64.6928 31.9973 64.6078 31.8324C64.3969 31.4238 64.2023 31.0068 64.0251 30.5823C63.8669 30.204 63.7224 29.8201 63.5922 29.4314C63.5274 29.238 63.4674 29.0434 63.4082 28.8481C63.4012 28.8253 63.3982 28.8159 63.3947 28.8056C63.3915 28.7935 63.3904 28.789 63.3869 28.7747C63.3533 28.6437 63.3189 28.5129 63.2871 28.3814C63.0929 27.5751 62.9573 26.7546 62.8812 25.9287C62.8629 25.7285 62.8478 25.5284 62.8365 25.3277C62.8314 25.2386 62.8271 25.1496 62.8233 25.0606C62.8236 25.067 62.8196 24.9368 62.8166 24.8558C62.8161 24.7751 62.8144 24.6446 62.8144 24.6508C62.815 24.5618 62.8161 24.4727 62.8179 24.3837C62.8225 24.1612 62.8314 23.9387 62.8446 23.7165C62.8946 22.8726 63.0065 22.0322 63.1792 21.2046C63.1975 21.1175 63.2164 21.0303 63.2357 20.9434C63.2344 20.9496 63.2651 20.8226 63.2839 20.7441C63.3049 20.6658 63.338 20.5399 63.3364 20.5461C63.36 20.46 63.3842 20.3742 63.409 20.2886C63.5338 19.8595 63.6753 19.4355 63.833 19.0175C63.9756 18.64 64.1313 18.2674 64.3 17.9008C64.3753 17.7372 64.4531 17.575 64.5332 17.4141C64.5836 17.3132 64.6357 17.2134 64.6871 17.1133C64.7019 17.0851 64.717 17.0571 64.732 17.0289C64.7377 17.0186 64.7447 17.0065 64.756 16.9863C65.1759 16.2541 65.6389 15.55 66.1581 14.8842C66.414 14.5563 66.6817 14.2375 66.9609 13.9289C67.0389 13.8425 67.1183 13.7573 67.1979 13.6722C67.2025 13.6674 67.2046 13.665 67.2084 13.6609C67.2219 13.648 67.2367 13.6338 67.2544 13.6166C67.4236 13.453 67.5899 13.2867 67.7629 13.1272C68.4096 12.5294 69.1018 11.9812 69.8314 11.4878C70.0068 11.3691 70.1852 11.2553 70.3638 11.1418C70.3883 11.1262 70.405 11.1154 70.4219 11.1047C70.5053 11.0557 70.589 11.0073 70.6732 10.9597C71.056 10.7442 71.4469 10.5432 71.845 10.3576C72.6045 10.0036 73.389 9.71248 74.1907 9.46955C74.2133 9.46579 74.5439 9.37378 74.6095 9.35764C74.8062 9.30948 75.0036 9.26456 75.2019 9.2234C75.641 9.1322 76.0835 9.05795 76.5279 9.00145C76.9266 8.95061 77.3272 8.91375 77.7289 8.89088C77.89 8.88174 78.0514 8.87609 78.2128 8.87098C78.2588 8.8699 78.3126 8.86882 78.339 8.86909C78.4727 8.87017 78.6061 8.87098 78.7398 8.8742C79.5628 8.89438 80.3844 8.9732 81.196 9.11014C81.574 9.1739 81.9506 9.25057 82.3232 9.34069C82.3679 9.35226 82.4206 9.36625 82.4459 9.37351C82.553 9.40418 82.6609 9.43243 82.7679 9.46364C82.9824 9.52605 83.1954 9.5925 83.4071 9.66298C84.2156 9.93254 85.0038 10.2621 85.7633 10.6487C85.8276 10.6815 86.0608 10.809 86.0901 10.8233C86.2604 10.9204 86.4302 11.0181 86.5975 11.1206C86.9666 11.3468 87.3268 11.5873 87.6776 11.8407C88.0131 12.0834 88.3394 12.3379 88.6563 12.6042C88.8161 12.7385 88.9732 12.8754 89.1279 13.0153C89.1971 13.0777 89.2649 13.1412 89.3335 13.2041C89.3577 13.2265 89.3709 13.2383 89.3857 13.2512C89.398 13.2644 89.4139 13.2814 89.4403 13.3088C90.0695 13.9598 90.6662 14.631 91.2013 15.3625C91.4523 15.7058 91.6869 16.0596 91.9153 16.4182C91.9309 16.4426 91.9417 16.4593 91.9521 16.4763C92.0011 16.5597 92.0495 16.6433 92.0971 16.7278C92.2222 16.95 92.3425 17.1747 92.4576 17.4023C92.8396 18.1574 93.1654 18.9408 93.4315 19.7444C93.4869 19.9117 93.538 20.0801 93.5886 20.2488C93.5811 20.2327 93.682 20.5945 93.6989 20.6642C93.8006 21.0787 93.887 21.4971 93.9574 21.9181C94.0239 22.3152 94.0764 22.7149 94.1148 23.1158C94.1339 23.3157 94.1495 23.5161 94.1616 23.7165C94.1684 23.8279 94.1743 23.9393 94.1789 24.0506C94.1802 24.0832 94.1832 24.1897 94.1853 24.2578C94.1937 25.0592 94.142 25.8625 94.036 26.6567C93.983 27.0538 93.9166 27.4489 93.8361 27.8412C93.8006 28.0155 93.7616 28.189 93.7202 28.362C93.7126 28.3905 93.7048 28.4204 93.7005 28.436C93.6637 28.5646 93.6303 28.6943 93.5929 28.8226C93.3554 29.6391 93.0576 30.4381 92.7019 31.2104C92.6172 31.3945 92.5292 31.5768 92.4383 31.7576C92.4073 31.819 92.2408 32.1259 92.2357 32.1402C92.0245 32.5093 91.8045 32.8727 91.5677 33.2262C91.0942 33.9335 90.5675 34.6052 89.9939 35.2342C89.9288 35.3058 89.8626 35.3765 89.7962 35.4468C89.7819 35.4607 89.7677 35.4747 89.7472 35.4952C89.5963 35.6437 89.4454 35.7919 89.2904 35.9364C88.9593 36.2447 88.6157 36.5382 88.263 36.8215C87.927 37.087 87.5835 37.3431 87.2292 37.5844Z" fill="#958F99" stroke="#0F110E" stroke-miterlimit="10"/>
<path d="M65.0462 40.9895C65.0462 40.9895 65.5067 40.3352 65.5234 40.1601C65.5398 39.985 64.948 39.0517 64.6655 38.7294C64.3828 38.4071 63.8654 38.013 63.6594 37.9649C63.4535 37.9167 63.3841 38.3283 63.2709 38.2328C63.1576 38.137 62.7864 37.9678 62.6545 38.122C62.5227 38.2761 62.5857 38.6625 62.5857 38.6625C62.5857 38.6625 62.4181 38.6337 62.2238 38.6431C62.0296 38.6525 61.9459 38.8185 61.9284 38.9799C61.911 39.1413 61.9379 39.1566 61.7837 39.24C61.6296 39.3234 61.6035 39.6126 61.5962 39.9669C61.5889 40.3213 61.8679 42.5367 61.7851 42.6362C61.7022 42.7357 60.4822 43.5595 60.2212 43.7906C59.9603 44.0217 59.9452 44.4072 60.0283 44.3569C60.1115 44.3066 61.2357 43.4745 62.0901 43.3989C62.9446 43.3233 63.5725 42.8799 63.7643 42.6225C63.9563 42.365 65.0462 40.9895 65.0462 40.9895Z" fill="white"/>
<path d="M63.2014 41.9512C63.2014 41.9512 62.4368 39.4095 61.9577 39.2973C61.4786 39.1851 61.5657 39.8553 61.63 41.0912L61.81 42.4726" stroke="#0F110E" stroke-miterlimit="10"/>
<path d="M63.8247 41.2872C63.8247 41.2872 63.0841 39.531 62.9913 39.3901C62.8982 39.2491 62.6139 38.6242 62.2232 38.643C61.8326 38.6618 61.9168 39.3473 61.9168 39.3473" stroke="#0F110E" stroke-miterlimit="10"/>
<path d="M64.7919 40.6C64.7919 40.6 63.5681 38.2633 63.0647 38.0855C62.5614 37.9076 62.4815 38.312 62.6281 38.849" stroke="#0F110E" stroke-miterlimit="10"/>
<path d="M63.4371 38.4153C63.4371 38.4153 63.1992 37.7078 63.9859 38.0877C64.5099 38.3408 65.4773 39.8046 65.5231 40.16C65.5688 40.5153 64.3499 41.7547 63.956 42.3649C63.5622 42.975 62.8909 43.4332 61.8686 43.3993C61.3637 43.3823 60.3691 44.1754 59.6885 44.781" stroke="#0F110E" stroke-miterlimit="10"/>
<path d="M28.3799 58.965C28.3799 58.965 37.1076 61.433 38.8912 60.8511C40.3873 60.3631 36.042 59.718 36.042 59.718C36.042 59.718 39.09 60.475 39.3924 59.8743C39.6948 59.2735 36.1752 58.7866 36.1752 58.7866C36.1752 58.7866 39.7349 59.4446 39.8288 58.8861C39.9229 58.3277 36.2739 57.8787 36.2739 57.8787C36.2739 57.8787 39.8872 58.5865 40.0114 57.9349C40.1357 57.2833 36.4114 56.8456 36.4114 56.8456C36.4114 56.8456 38.757 56.841 38.6378 56.328C38.5186 55.815 33.7314 56.1429 30.0584 54.8968C27.9549 54.1833 28.3799 58.965 28.3799 58.965Z" fill="white"/>
<path d="M36.5011 58.0217C37.3319 58.1949 38.1936 58.334 39.0447 58.3214C39.3321 58.3171 40.0627 58.3297 40.0942 57.9068C40.1211 57.5463 39.6161 57.3685 39.3533 57.2749C38.8115 57.0817 38.2342 56.9803 37.6676 56.891C37.2867 56.831 36.9036 56.779 36.5197 56.7419C36.5197 56.8092 36.5197 56.8764 36.5197 56.9437C36.8124 56.9405 37.1053 56.9273 37.397 56.9058C37.7577 56.8791 38.2151 56.8756 38.5433 56.7026C38.8553 56.538 38.8349 56.2598 38.5263 56.114C38.1478 55.9351 37.6536 55.9381 37.2415 55.8961C36.2281 55.7923 35.2128 55.7256 34.198 55.6403C33.3417 55.5682 32.4859 55.3645 31.6463 55.1907C30.8204 55.0199 29.9819 54.8623 29.1697 54.6322C29.0446 54.5967 28.9911 54.7915 29.1161 54.8267C30.5253 55.2257 31.9985 55.499 33.4418 55.7377C34.1375 55.8528 34.8377 55.8786 35.5396 55.9381C36.0556 55.9819 36.5713 56.0301 37.0868 56.082C37.5075 56.1242 37.9996 56.1224 38.3945 56.2789C38.7561 56.4221 38.302 56.5819 38.1432 56.6139C37.9097 56.6612 37.6708 56.683 37.4336 56.7013C37.1296 56.7247 36.8245 56.7384 36.5197 56.7419C36.3876 56.7433 36.3924 56.9313 36.5197 56.9437C37.4543 57.0341 38.4416 57.1551 39.3267 57.4796C39.4797 57.5355 39.798 57.6351 39.8693 57.8078C39.9815 58.079 39.4305 58.0997 39.2799 58.1107C38.3751 58.1761 37.4368 58.0112 36.5549 57.8272C36.4279 57.8008 36.3739 57.9953 36.5011 58.0217Z" fill="#0F110E"/>
<path d="M36.3403 58.912C37.0557 59.053 37.7777 59.1738 38.5025 59.2534C38.8573 59.2924 39.2778 59.3651 39.6297 59.2688C39.8869 59.1983 40.1024 58.9664 39.9477 58.6982C39.8449 58.5198 39.6421 58.4106 39.4591 58.3339C39.1234 58.1927 38.7589 58.1346 38.3984 58.0983C38.2692 58.0853 38.2703 58.2871 38.3984 58.3C38.7083 58.3312 39.0206 58.3826 39.3136 58.4918C39.4669 58.5491 39.6472 58.6293 39.7494 58.7641C39.9038 58.9675 39.6378 59.0748 39.4669 59.0944C39.1169 59.1348 38.7462 59.081 38.3986 59.0401C37.9644 58.9893 37.5324 58.9212 37.1017 58.8469C36.8652 58.8063 36.629 58.7641 36.3936 58.7175C36.2672 58.6925 36.2128 58.887 36.3403 58.912Z" fill="#0F110E"/>
<path d="M36.4076 59.9048C36.7931 59.9861 37.184 60.0485 37.5743 60.1017C38.0674 60.1687 38.6189 60.2632 39.1131 60.1577C39.2794 60.1222 39.5024 60.0428 39.5514 59.8575C39.6022 59.6654 39.4257 59.511 39.2829 59.4184C38.8971 59.1682 38.4048 59.0681 37.9609 58.9826C37.8339 58.9581 37.7796 59.1526 37.9074 59.1771C38.2845 59.2497 38.6762 59.3345 39.0236 59.5045C39.1191 59.5513 39.2186 59.6043 39.2939 59.6813C39.3327 59.7211 39.3617 59.7698 39.3585 59.7972C39.3555 59.823 39.3224 59.8588 39.277 59.8865C39.1987 59.9341 39.1026 59.9567 39.0133 59.9718C38.5495 60.0495 38.0378 59.964 37.5773 59.9C37.2039 59.8483 36.8302 59.7881 36.4614 59.71C36.3344 59.6837 36.2803 59.8779 36.4076 59.9048Z" fill="#0F110E"/>
<path d="M37.8277 60.1349C37.9996 60.1607 38.1709 60.1927 38.341 60.229C38.5729 60.2785 38.9363 60.3189 39.1225 60.4795C39.1723 60.5225 39.1932 60.561 39.162 60.6369C39.0872 60.8182 38.8018 60.8674 38.6361 60.8975C38.0276 61.0081 37.3746 60.9398 36.7656 60.8739C36.0147 60.7929 35.3005 60.6215 34.5655 60.4523C33.4544 60.1967 32.3442 59.9363 31.2374 59.6627C30.6566 59.5191 30.0763 59.373 29.4992 59.2143C29.143 59.1163 28.7691 59.0289 28.4299 58.8788C28.3123 58.8266 28.2093 59.0007 28.3282 59.0531C29.1463 59.4152 30.0817 59.5828 30.9452 59.7983C32.1674 60.1031 33.3942 60.3904 34.6217 60.6724C35.492 60.8723 36.3241 61.0493 37.2202 61.1181C37.7575 61.1593 38.3552 61.2045 38.8809 61.0485C39.0668 60.9933 39.2871 60.8965 39.3547 60.6969C39.3869 60.6016 39.3802 60.4878 39.3253 60.4017C39.1978 60.2024 38.8414 60.1413 38.6342 60.0894C38.3864 60.0273 38.1344 59.9786 37.882 59.9404C37.7542 59.921 37.6993 60.1155 37.8277 60.1349Z" fill="#0F110E"/>
<path d="M25.4735 45.0945L31.8774 35.373C31.8774 35.373 29.7133 35.6983 26.809 37.2134C24.6511 38.339 22.0424 40.2044 19.8324 42.6405C18.6357 43.9592 17.5287 45.2494 16.6156 47.078C15.7642 48.7828 14.7691 50.1126 14.3642 51.3832C12.5894 56.9544 14.9246 58.8954 17.653 59.6202C20.9593 60.4985 28.931 60.6338 28.931 60.6338L31.3643 54.2007L23.4432 51.7066C23.4437 51.7066 24.5575 47.4409 25.4735 45.0945Z" fill="#8D58FF"/>
<path d="M31.8776 35.373C31.8776 35.373 23.4439 36.5543 17.1036 46.3078C11.1622 55.4473 14.3472 58.7418 17.6535 59.6199C20.9598 60.498 28.9315 60.6336 28.9315 60.6336L31.3648 54.2004L21.1449 50.9823" stroke="#010001" stroke-miterlimit="10" stroke-linecap="round"/>
<path d="M23.4443 51.7065C23.4443 51.7065 24.5581 47.4409 25.4741 45.0947" stroke="#010001" stroke-miterlimit="10" stroke-linecap="round"/>
<path d="M31.3653 54.2008L29.1496 53.5029L26.7031 60.5643C28.027 60.6181 28.932 60.6337 28.932 60.6337L31.3653 54.2008Z" fill="#8D58FF" stroke="#010001" stroke-miterlimit="10"/>
<path d="M35.69 37.4989C35.69 38.536 34.5111 39.3767 33.0568 39.3767C31.6027 39.3767 30.4238 38.536 30.4238 37.4989C30.4238 36.4618 31.6027 35.6211 33.0568 35.6211C34.5111 35.6211 35.69 36.4618 35.69 37.4989Z" fill="white" stroke="#010001" stroke-miterlimit="10" stroke-linecap="round"/>
<path d="M33.6126 36.7373H32.7595H31.5586L31.6982 37.7623L32.5924 39.2575H32.9831H33.389H33.7797L34.6739 37.7623L34.8138 36.7373H33.6126Z" fill="#4542AA"/>
<path d="M32.6621 39.3843C33.0207 39.3843 33.3793 39.3843 33.7379 39.3843C33.9109 39.3843 33.9114 39.1152 33.7379 39.1152C33.3793 39.1152 33.0207 39.1152 32.6621 39.1152C32.4891 39.1152 32.4888 39.3843 32.6621 39.3843Z" fill="#010001"/>
<path d="M33.033 34.5508C30.8563 34.5508 29.0918 35.7428 29.0918 37.2133C29.0918 38.6838 30.8563 39.8758 33.033 39.8758C35.2097 39.8758 36.9742 38.6838 36.9742 37.2133C36.9745 35.7428 35.2099 34.5508 33.033 34.5508ZM33.033 38.9477C31.615 38.9477 30.4654 38.1713 30.4654 37.2133C30.4654 36.2553 31.615 35.4789 33.033 35.4789C34.451 35.4789 35.6006 36.2556 35.6006 37.2133C35.6006 38.171 34.451 38.9477 33.033 38.9477Z" fill="#8D58FF" stroke="#010001" stroke-miterlimit="10" stroke-linecap="round"/>
<path d="M36.4105 35.8405L34.8946 34.585L33.317 33.9854L32.8495 34.0585L31.1721 34.585L29.7891 35.6945L30.8896 38.8891L33.0332 37.151L35.1768 38.8891L36.4105 35.8405Z" fill="white" stroke="#010001" stroke-miterlimit="10" stroke-linecap="round"/>
<path d="M35.8579 24.8975H33.8343C32.4889 24.8975 31.3881 26.1508 31.3881 27.6824V30.8195C31.3881 30.908 31.3927 30.9952 31.3999 31.0815C31.3781 31.1741 31.3652 31.2698 31.3652 31.3688V33.2786V33.3849V35.2944C31.3652 35.9874 31.9321 36.5543 32.6251 36.5543H33.4278C34.1208 36.5543 34.6877 35.9874 34.6877 35.2944V33.6044H35.8579C37.2033 33.6044 38.3042 32.351 38.3042 30.8192V27.6821C38.3042 26.1508 37.2033 24.8975 35.8579 24.8975Z" fill="white" stroke="#010001" stroke-miterlimit="10"/>
<path d="M31.6279 29.2479C31.6279 29.2479 32.0855 26.605 32.2088 26.9954C32.3844 27.5523 32.3637 30.6356 32.9618 30.9067C33.7532 31.2653 34.0443 29.9111 35.6385 29.8565C37.2328 29.8021 38.1493 30.5858 38.304 31.2239C38.459 31.862 37.6379 32.7719 37.137 33.1899C36.5091 33.7137 34.6878 33.605 34.6878 33.605C34.6878 33.605 33.11 33.7008 32.4501 32.7697C31.7635 31.801 31.6279 29.2479 31.6279 29.2479Z" fill="#010001"/>
<path d="M34.2549 28.7092C34.2549 28.961 34.4591 29.1655 34.7109 29.1655C34.963 29.1655 35.1671 28.9613 35.1671 28.7092C35.1671 28.4574 34.963 28.2529 34.7109 28.2529C34.4591 28.2529 34.2549 28.4571 34.2549 28.7092Z" fill="#010001"/>
<path d="M37.2412 28.6422C37.2412 28.8572 37.4155 29.0315 37.6305 29.0315C37.8454 29.0315 38.0198 28.8572 38.0198 28.6422C38.0198 28.4273 37.8454 28.2529 37.6305 28.2529C37.4155 28.2529 37.2412 28.4273 37.2412 28.6422Z" fill="#010001"/>
<path d="M36.8049 30.5082C36.8049 30.5082 36.5757 31.1762 36.0909 31.2219C35.6064 31.2679 35.2266 30.7307 35.2002 30.3115L36.8049 30.5082Z" fill="white"/>
<path d="M34.1224 28.1672C34.2502 28.1195 34.3807 28.0795 34.5133 28.048C34.5771 28.0329 34.6414 28.0195 34.706 28.0082C34.7407 28.002 34.7756 27.9966 34.8106 27.9915C34.8596 27.9845 34.7859 27.9942 34.8348 27.9883C34.855 27.9858 34.8749 27.9834 34.8951 27.9815C34.9648 27.974 35.0331 27.925 35.0296 27.847C35.0266 27.7806 34.9701 27.7044 34.8951 27.7125C34.6062 27.7434 34.3231 27.8064 34.0509 27.9075C33.9852 27.932 33.9333 27.9996 33.957 28.073C33.9777 28.1376 34.0517 28.1933 34.1224 28.1672Z" fill="#010001"/>
<path d="M37.0751 27.817C37.1364 27.8127 37.1977 27.8111 37.2591 27.8132C37.2854 27.814 37.3118 27.8156 37.3379 27.8178C37.3554 27.8191 37.3729 27.8208 37.3904 27.8229C37.3957 27.8235 37.4331 27.8286 37.4068 27.8248C37.5241 27.8417 37.6392 27.8708 37.7509 27.9114C37.817 27.9354 37.901 27.8845 37.9163 27.8175C37.9335 27.7417 37.8934 27.6776 37.8224 27.6521C37.5849 27.566 37.3271 27.5305 37.0751 27.5485C37.0051 27.5536 36.9371 27.6069 36.9406 27.683C36.9438 27.7511 37 27.8224 37.0751 27.817Z" fill="#010001"/>
<path d="M36.2224 28.2427C36.2991 28.4259 36.3803 28.607 36.4683 28.7851C36.5105 28.8706 36.5541 28.9553 36.5993 29.0396C36.6208 29.0799 36.6429 29.12 36.6649 29.1601C36.676 29.18 36.6873 29.2002 36.6986 29.2201C36.7061 29.2332 36.7136 29.2467 36.7212 29.2599C36.7236 29.2596 36.7225 29.2583 36.7179 29.2558C36.7241 29.2332 36.7303 29.2106 36.7362 29.1881C36.7335 29.1924 36.7306 29.1969 36.7279 29.2012C36.744 29.1851 36.7602 29.1692 36.776 29.1531C36.7483 29.17 36.6779 29.1773 36.6397 29.1859C36.5896 29.1975 36.5396 29.2085 36.4893 29.2193C36.3849 29.2416 36.2802 29.2618 36.1753 29.2806C36.1038 29.2935 36.0634 29.3807 36.0814 29.446C36.1021 29.5214 36.175 29.5528 36.2469 29.5399C36.418 29.5093 36.5883 29.4746 36.7575 29.4345C36.8436 29.4143 36.9377 29.3998 36.9751 29.3078C37.0128 29.2152 36.9576 29.1326 36.9138 29.0543C36.7534 28.7684 36.6082 28.4735 36.4815 28.1711C36.4535 28.1042 36.3924 28.0563 36.316 28.0773C36.2531 28.0945 36.1941 28.1752 36.2224 28.2427Z" fill="#010001"/>
<path d="M31.9186 29.8044L32.292 27.3472C32.292 27.3472 39.0902 28.1994 41.2938 24.8972C43.4977 21.5949 41.1816 20.2877 40.0611 20.4744C38.9407 20.6611 37.6302 22.2675 37.6302 22.2675C37.6302 22.2675 38.6733 20.8481 37.6302 20.624C36.5872 20.3999 35.435 21.483 34.8346 22.6037C34.8346 22.6037 30.3537 22.1859 28.8388 24.8974C27.3239 27.6089 28.4442 29.5784 31.2146 32.3801L31.9522 30.576L31.9186 29.8044Z" fill="#010001"/>
<path d="M32.1278 29.9916C32.1278 30.8792 31.4085 31.5985 30.5209 31.5985C29.6334 31.5985 28.9141 30.8792 28.9141 29.9916C28.9141 29.1041 29.6334 28.3848 30.5209 28.3848C31.4085 28.3848 32.1278 29.1041 32.1278 29.9916Z" fill="white" stroke="#010001" stroke-miterlimit="10"/>
<path d="M31.433 30.0682C31.4578 29.6811 31.2738 29.2444 30.9087 29.0774C30.7112 28.987 30.4922 28.97 30.2781 28.9921C30.2184 28.9983 30.167 29.0386 30.167 29.1032C30.167 29.1584 30.2181 29.2205 30.2781 29.2143C30.3741 29.2044 30.471 29.2014 30.5673 29.2108C30.5985 29.214 30.6249 29.2181 30.6679 29.228C30.7053 29.2366 30.7416 29.2482 30.7777 29.2614C30.7839 29.2635 30.7901 29.2662 30.7962 29.2687C30.7731 29.2592 30.8024 29.2716 30.8054 29.273C30.8196 29.28 30.8336 29.2867 30.8474 29.2942C30.8764 29.3101 30.9041 29.3281 30.9308 29.3477C30.909 29.3319 30.9442 29.359 30.9488 29.3628C30.9595 29.372 30.9698 29.3816 30.98 29.3916C31.0015 29.4128 31.0217 29.4354 31.0408 29.4589C31.022 29.4357 31.048 29.4688 31.0523 29.475C31.0599 29.4858 31.0671 29.4968 31.0741 29.5081C31.0892 29.5323 31.1032 29.557 31.1156 29.5826C31.1218 29.595 31.1274 29.6079 31.1333 29.6205C31.1403 29.6353 31.1234 29.5947 31.1322 29.6181C31.1344 29.6238 31.1368 29.6297 31.139 29.6353C31.1489 29.6612 31.1578 29.6873 31.1656 29.7139C31.1788 29.7585 31.1893 29.8037 31.1971 29.8497C31.1987 29.8597 31.2003 29.8697 31.2019 29.8796C31.2068 29.9103 31.1995 29.8543 31.2025 29.8842C31.2043 29.9033 31.2065 29.9221 31.2081 29.9412C31.2113 29.9832 31.2135 30.026 31.2108 30.0682C31.207 30.1282 31.2646 30.1793 31.3219 30.1793C31.3854 30.179 31.4293 30.1282 31.433 30.0682Z" fill="#010001"/>
<path d="M0.324812 111.984C1.96048 111.984 3.59614 111.984 5.23181 111.984C9.64299 111.984 14.0544 111.984 18.4656 111.984C25.0059 111.984 31.5458 111.984 38.0861 111.984C46.0653 111.984 54.0446 111.984 62.0238 111.984C70.7329 111.984 79.4417 111.984 88.1508 111.984C97.0017 111.984 105.853 111.984 114.703 111.984C122.9 111.984 131.096 111.984 139.292 111.984C146.244 111.984 153.195 111.984 160.146 111.984C165.144 111.984 170.141 111.984 175.139 111.984C177.5 111.984 179.864 112.018 182.226 111.984C182.329 111.983 182.432 111.984 182.535 111.984C182.968 111.984 182.969 111.312 182.535 111.312C180.9 111.312 179.264 111.312 177.628 111.312C173.217 111.312 168.806 111.312 164.395 111.312C157.854 111.312 151.314 111.312 144.774 111.312C136.795 111.312 128.816 111.312 120.836 111.312C112.127 111.312 103.418 111.312 94.7094 111.312C85.8585 111.312 77.0076 111.312 68.157 111.312C59.9607 111.312 51.7643 111.312 43.5682 111.312C36.6169 111.312 29.6659 111.312 22.7146 111.312C17.7169 111.312 12.7193 111.312 7.72162 111.312C5.3604 111.312 2.99622 111.278 0.634997 111.312C0.531692 111.313 0.428387 111.312 0.325082 111.312C-0.108046 111.312 -0.108585 111.984 0.324812 111.984Z" fill="#0F110E"/>
</svg>
