<svg width="215" height="181" viewBox="0 0 215 181" fill="none" xmlns="http://www.w3.org/2000/svg">
<g filter="url(#filter0_f_865_115)">
<rect x="1" y="1" width="163" height="143" fill="url(#paint0_linear_865_115)" fill-opacity="0.3"/>
</g>
<g filter="url(#filter1_f_865_115)">
<rect x="51" y="37" width="163" height="143" fill="url(#paint1_linear_865_115)" fill-opacity="0.3"/>
</g>
<path d="M113.833 88H158.167" stroke="white" stroke-width="1.5" stroke-linecap="round" stroke-linejoin="round"/>
<path d="M118.5 88V113.664C118.5 119.098 119.505 120.873 124.164 123.668L131.198 127.889C133.538 129.293 134.707 129.994 136 129.994C137.293 129.994 138.462 129.293 140.802 127.889L147.836 123.668C152.495 120.873 153.5 119.098 153.5 113.664V88" stroke="white" stroke-width="1.5" stroke-linecap="round" stroke-linejoin="round"/>
<path opacity="0.4" d="M141.833 111.333H130.167M141.833 99.6666H130.167" stroke="white" stroke-width="1.5" stroke-linecap="round" stroke-linejoin="round"/>
<defs>
<filter id="filter0_f_865_115" x="0" y="0" width="165" height="145" filterUnits="userSpaceOnUse" color-interpolation-filters="sRGB">
<feFlood flood-opacity="0" result="BackgroundImageFix"/>
<feBlend mode="normal" in="SourceGraphic" in2="BackgroundImageFix" result="shape"/>
<feGaussianBlur stdDeviation="0.5" result="effect1_foregroundBlur_865_115"/>
</filter>
<filter id="filter1_f_865_115" x="50" y="36" width="165" height="145" filterUnits="userSpaceOnUse" color-interpolation-filters="sRGB">
<feFlood flood-opacity="0" result="BackgroundImageFix"/>
<feBlend mode="normal" in="SourceGraphic" in2="BackgroundImageFix" result="shape"/>
<feGaussianBlur stdDeviation="0.5" result="effect1_foregroundBlur_865_115"/>
</filter>
<linearGradient id="paint0_linear_865_115" x1="82.5" y1="1" x2="82.5" y2="144" gradientUnits="userSpaceOnUse">
<stop stop-color="#8D58FF"/>
<stop offset="1" stop-color="#191A2C" stop-opacity="0"/>
</linearGradient>
<linearGradient id="paint1_linear_865_115" x1="132.5" y1="37" x2="132.5" y2="180" gradientUnits="userSpaceOnUse">
<stop stop-color="#8D58FF"/>
<stop offset="1" stop-color="#191A2C" stop-opacity="0"/>
</linearGradient>
</defs>
</svg>
