<svg width="14" height="14" viewBox="0 0 14 14" fill="none" xmlns="http://www.w3.org/2000/svg">
<path d="M6.07308 4.85384C6.48548 4.11404 6.69167 3.74414 6.99995 3.74414C7.30823 3.74414 7.51443 4.11404 7.92683 4.85384L8.03352 5.04524C8.15071 5.25547 8.20931 5.36058 8.30067 5.42994C8.39203 5.49929 8.50582 5.52504 8.73339 5.57653L8.94057 5.62341C9.7414 5.8046 10.1418 5.8952 10.2371 6.20154C10.3323 6.50788 10.0594 6.82709 9.51341 7.46551L9.37217 7.63068C9.21702 7.8121 9.13945 7.9028 9.10456 8.01502C9.06966 8.12724 9.08139 8.24827 9.10484 8.49032L9.1262 8.71069C9.20874 9.56247 9.25001 9.98837 9.0006 10.1777C8.7512 10.367 8.37629 10.1944 7.62648 9.84917L7.43249 9.75985C7.21942 9.66175 7.11288 9.6127 6.99995 9.6127C6.88703 9.6127 6.78049 9.66175 6.56742 9.75985L6.37343 9.84917C5.62362 10.1944 5.24871 10.367 4.99931 10.1777C4.7499 9.98837 4.79117 9.56248 4.87371 8.71069L4.89507 8.49032C4.91852 8.24827 4.93025 8.12724 4.89535 8.01502C4.86045 7.9028 4.78288 7.8121 4.62774 7.63068L4.4865 7.46551C3.94055 6.82709 3.66757 6.50788 3.76284 6.20154C3.8581 5.8952 4.25851 5.8046 5.05934 5.62341L5.26652 5.57653C5.49409 5.52504 5.60788 5.49929 5.69924 5.42994C5.7906 5.36058 5.8492 5.25547 5.96639 5.04524L6.07308 4.85384Z" fill="#8D58FF"/>
<path fill-rule="evenodd" clip-rule="evenodd" d="M7 0C7.26972 0 7.48837 0.218652 7.48837 0.488372V1.7907C7.48837 2.06042 7.26972 2.27907 7 2.27907C6.73028 2.27907 6.51163 2.06042 6.51163 1.7907V0.488372C6.51163 0.218652 6.73028 0 7 0ZM11.2524 2.74762C11.4431 2.93834 11.4431 3.24756 11.2524 3.43828L11.0289 3.6618C10.8381 3.85252 10.5289 3.85252 10.3382 3.6618C10.1475 3.47108 10.1475 3.16186 10.3382 2.97114L10.5617 2.74762C10.7524 2.5569 11.0617 2.5569 11.2524 2.74762ZM2.74769 2.74769C2.93841 2.55697 3.24763 2.55697 3.43835 2.74769L3.66187 2.97121C3.85259 3.16193 3.85259 3.47115 3.66187 3.66187C3.47115 3.85259 3.16193 3.85259 2.97121 3.66187L2.74769 3.43835C2.55697 3.24763 2.55697 2.93841 2.74769 2.74769ZM0 7C0 6.73028 0.218652 6.51163 0.488372 6.51163H1.7907C2.06042 6.51163 2.27907 6.73028 2.27907 7C2.27907 7.26972 2.06042 7.48837 1.7907 7.48837H0.488372C0.218652 7.48837 0 7.26972 0 7ZM11.7209 7C11.7209 6.73028 11.9396 6.51163 12.2093 6.51163H13.5116C13.7813 6.51163 14 6.73028 14 7C14 7.26972 13.7813 7.48837 13.5116 7.48837H12.2093C11.9396 7.48837 11.7209 7.26972 11.7209 7ZM3.6618 10.3382C3.85252 10.5289 3.85252 10.8381 3.6618 11.0289L3.43842 11.2522C3.2477 11.443 2.93848 11.443 2.74776 11.2522C2.55704 11.0615 2.55704 10.7523 2.74776 10.5616L2.97114 10.3382C3.16186 10.1475 3.47108 10.1475 3.6618 10.3382ZM10.3382 10.3383C10.5289 10.1476 10.8381 10.1476 11.0289 10.3383L11.2522 10.5617C11.4429 10.7524 11.4429 11.0617 11.2522 11.2524C11.0615 11.4431 10.7523 11.4431 10.5616 11.2524L10.3382 11.029C10.1475 10.8383 10.1475 10.5291 10.3382 10.3383ZM7 11.7209C7.26972 11.7209 7.48837 11.9396 7.48837 12.2093V13.5116C7.48837 13.7813 7.26972 14 7 14C6.73028 14 6.51163 13.7813 6.51163 13.5116V12.2093C6.51163 11.9396 6.73028 11.7209 7 11.7209Z" fill="#8D58FF"/>
</svg>
