<svg width="20" height="18" viewBox="0 0 20 18" fill="none" xmlns="http://www.w3.org/2000/svg">
<path fill-rule="evenodd" clip-rule="evenodd" d="M9.70508 1.5C10.0157 1.5 10.2676 1.75184 10.2676 2.0625V3.375C10.2676 3.68566 10.0157 3.9375 9.70508 3.9375C9.39442 3.9375 9.14258 3.68566 9.14258 3.375V2.0625C9.14258 1.75184 9.39442 1.5 9.70508 1.5Z" fill="#F9F5FF"/>
<path fill-rule="evenodd" clip-rule="evenodd" d="M14.5331 3.42208C14.7528 3.64175 14.7528 3.9979 14.5331 4.21757L13.5501 5.20057C13.3304 5.42024 12.9743 5.42024 12.7546 5.20057C12.5349 4.9809 12.5349 4.62474 12.7546 4.40507L13.7376 3.42208C13.9573 3.20241 14.3134 3.20241 14.5331 3.42208Z" fill="#F9F5FF"/>
<path fill-rule="evenodd" clip-rule="evenodd" d="M6.65613 11.2995C6.8758 11.5192 6.8758 11.8753 6.65613 12.095L5.67314 13.078C5.45347 13.2977 5.09731 13.2977 4.87764 13.078C4.65797 12.8583 4.65797 12.5022 4.87764 12.2825L5.86064 11.2995C6.08031 11.0798 6.43646 11.0798 6.65613 11.2995Z" fill="#F9F5FF"/>
<path fill-rule="evenodd" clip-rule="evenodd" d="M5.39258 8.25C5.39258 8.56066 5.14074 8.8125 4.83008 8.8125H3.51758C3.20692 8.8125 2.95508 8.56066 2.95508 8.25C2.95508 7.93934 3.20692 7.6875 3.51758 7.6875H4.83008C5.14074 7.6875 5.39258 7.93934 5.39258 8.25Z" fill="#F9F5FF"/>
<path fill-rule="evenodd" clip-rule="evenodd" d="M6.65613 5.20057C6.43646 5.42024 6.08031 5.42024 5.86064 5.20057L4.87764 4.21758C4.65797 3.99791 4.65797 3.64175 4.87764 3.42208C5.09731 3.20241 5.45347 3.20241 5.67314 3.42208L6.65613 4.40508C6.8758 4.62475 6.8758 4.9809 6.65613 5.20057Z" fill="#F9F5FF"/>
<path d="M9.94093 7.09784C9.18784 6.79974 8.4366 7.53253 8.71588 8.2928L11.5263 15.9432C11.8002 16.689 12.8195 16.7773 13.2176 16.0897L14.8042 13.3492L17.5665 11.75C18.2447 11.3573 18.1705 10.3554 17.4418 10.0669L9.94093 7.09784Z" fill="#F9F5FF"/>
</svg>
