<svg width="15" height="14" viewBox="0 0 15 14" fill="none" xmlns="http://www.w3.org/2000/svg">
<path d="M6.57308 4.85384C6.98548 4.11404 7.19167 3.74414 7.49995 3.74414C7.80823 3.74414 8.01443 4.11404 8.42683 4.85384L8.53352 5.04524C8.65071 5.25547 8.70931 5.36058 8.80067 5.42994C8.89203 5.49929 9.00582 5.52504 9.23339 5.57653L9.44057 5.62341C10.2414 5.8046 10.6418 5.8952 10.7371 6.20154C10.8323 6.50788 10.5594 6.82709 10.0134 7.46551L9.87217 7.63068C9.71702 7.8121 9.63945 7.9028 9.60456 8.01502C9.56966 8.12724 9.58139 8.24827 9.60484 8.49032L9.6262 8.71069C9.70874 9.56247 9.75001 9.98837 9.5006 10.1777C9.2512 10.367 8.87629 10.1944 8.12648 9.84917L7.93249 9.75985C7.71942 9.66175 7.61288 9.6127 7.49995 9.6127C7.38703 9.6127 7.28049 9.66175 7.06742 9.75985L6.87343 9.84917C6.12362 10.1944 5.74871 10.367 5.49931 10.1777C5.2499 9.98837 5.29117 9.56248 5.37371 8.71069L5.39507 8.49032C5.41852 8.24827 5.43025 8.12724 5.39535 8.01502C5.36045 7.9028 5.28288 7.8121 5.12774 7.63068L4.9865 7.46551C4.44055 6.82709 4.16757 6.50788 4.26284 6.20154C4.3581 5.8952 4.75851 5.8046 5.55934 5.62341L5.76652 5.57653C5.99409 5.52504 6.10788 5.49929 6.19924 5.42994C6.2906 5.36058 6.3492 5.25547 6.46639 5.04524L6.57308 4.85384Z" fill="#FF9758"/>
<path fill-rule="evenodd" clip-rule="evenodd" d="M7.5 0C7.76972 0 7.98837 0.218652 7.98837 0.488372V1.7907C7.98837 2.06042 7.76972 2.27907 7.5 2.27907C7.23028 2.27907 7.01163 2.06042 7.01163 1.7907V0.488372C7.01163 0.218652 7.23028 0 7.5 0ZM11.7524 2.74762C11.9431 2.93834 11.9431 3.24756 11.7524 3.43828L11.5289 3.6618C11.3381 3.85252 11.0289 3.85252 10.8382 3.6618C10.6475 3.47108 10.6475 3.16186 10.8382 2.97114L11.0617 2.74762C11.2524 2.5569 11.5617 2.5569 11.7524 2.74762ZM3.24769 2.74769C3.43841 2.55697 3.74763 2.55697 3.93835 2.74769L4.16187 2.97121C4.35259 3.16193 4.35259 3.47115 4.16187 3.66187C3.97115 3.85259 3.66193 3.85259 3.47121 3.66187L3.24769 3.43835C3.05697 3.24763 3.05697 2.93841 3.24769 2.74769ZM0.5 7C0.5 6.73028 0.718652 6.51163 0.988372 6.51163H2.2907C2.56042 6.51163 2.77907 6.73028 2.77907 7C2.77907 7.26972 2.56042 7.48837 2.2907 7.48837H0.988372C0.718652 7.48837 0.5 7.26972 0.5 7ZM12.2209 7C12.2209 6.73028 12.4396 6.51163 12.7093 6.51163H14.0116C14.2813 6.51163 14.5 6.73028 14.5 7C14.5 7.26972 14.2813 7.48837 14.0116 7.48837H12.7093C12.4396 7.48837 12.2209 7.26972 12.2209 7ZM4.1618 10.3382C4.35252 10.5289 4.35252 10.8381 4.1618 11.0289L3.93842 11.2522C3.7477 11.443 3.43848 11.443 3.24776 11.2522C3.05704 11.0615 3.05704 10.7523 3.24776 10.5616L3.47114 10.3382C3.66186 10.1475 3.97108 10.1475 4.1618 10.3382ZM10.8382 10.3383C11.0289 10.1476 11.3381 10.1476 11.5289 10.3383L11.7522 10.5617C11.9429 10.7524 11.9429 11.0617 11.7522 11.2524C11.5615 11.4431 11.2523 11.4431 11.0616 11.2524L10.8382 11.029C10.6475 10.8383 10.6475 10.5291 10.8382 10.3383ZM7.5 11.7209C7.76972 11.7209 7.98837 11.9396 7.98837 12.2093V13.5116C7.98837 13.7813 7.76972 14 7.5 14C7.23028 14 7.01163 13.7813 7.01163 13.5116V12.2093C7.01163 11.9396 7.23028 11.7209 7.5 11.7209Z" fill="#FF9758"/>
</svg>
