<svg width="70" height="61" viewBox="0 0 70 61" fill="none" xmlns="http://www.w3.org/2000/svg">
<path d="M69.4828 30.4325L63.8156 33.4819L60.9101 39.0023L57.8608 33.4819L52.3389 30.4325L57.8608 27.3803L60.9101 21.8599L63.8156 27.3803L69.4828 30.4325Z" fill="#8D58FF"/>
<path d="M17.0357 11.4L11.5153 14.4494L8.46596 19.9698L5.56047 14.4494L0.0400391 11.4L5.56047 8.49455L8.46596 2.97412L11.5153 8.49455L17.0357 11.4Z" fill="#8D58FF"/>
<path d="M32.1447 23.4578C38.4831 23.4578 43.6214 18.3196 43.6214 11.9811C43.6214 5.64273 38.4831 0.504395 32.1447 0.504395C25.8063 0.504395 20.668 5.64273 20.668 11.9811C20.668 18.3196 25.8063 23.4578 32.1447 23.4578Z" fill="#662FFF"/>
<path d="M38.3915 29.5596L31.1278 44.0871L26.7695 29.5596H37.3746C37.8119 29.5596 38.101 29.5596 38.3915 29.5596Z" fill="white"/>
<path d="M51.1758 43.3607V60.5046H13.1152V43.3607C13.1152 35.8078 19.3621 29.5596 26.9163 29.5596L31.2746 44.0871L38.5383 29.5596C45.5115 30.1407 51.1758 36.0969 51.1758 43.3607Z" fill="#8D58FF"/>
</svg>
