<svg width="70" height="60" viewBox="0 0 70 60" fill="none" xmlns="http://www.w3.org/2000/svg">
<path d="M69.4427 29.928L63.7756 32.9773L60.8701 38.4978L57.8208 32.9773L52.2988 29.928L57.8208 26.8758L60.8701 21.3553L63.7756 26.8758L69.4427 29.928Z" fill="#8D58FF"/>
<path d="M16.9957 10.8955L11.4752 13.9448L8.42592 19.4653L5.52043 13.9448L0 10.8955L5.52043 7.99003L8.42592 2.4696L11.4752 7.99003L16.9957 10.8955Z" fill="#8D58FF"/>
<path d="M32.1042 22.9534C38.4426 22.9534 43.5808 17.8152 43.5808 11.4767C43.5808 5.13833 38.4426 0 32.1042 0C25.7658 0 20.6274 5.13833 20.6274 11.4767C20.6274 17.8152 25.7658 22.9534 32.1042 22.9534Z" fill="#1F1F31"/>
<path d="M38.351 29.0549L31.0872 43.5824L26.729 29.0549H37.334C37.7713 29.0549 38.0604 29.0549 38.351 29.0549Z" fill="white"/>
<path d="M51.1352 42.856V60H13.0747V42.856C13.0747 35.3032 19.3215 29.0549 26.8758 29.0549L31.2341 43.5824L38.4978 29.0549C45.471 29.636 51.1352 35.5923 51.1352 42.856Z" fill="#8D58FF"/>
</svg>
