<svg width="183" height="166" viewBox="0 0 183 166" fill="none" xmlns="http://www.w3.org/2000/svg">
<path d="M119.062 125.899C89.4783 135.026 59.8946 144.154 30.3107 153.282C28.6385 153.822 27.2006 152.547 27.1392 150.878C24.1354 105.924 2.76217 64.5998 0.00691608 19.6435C-0.0923028 18.1362 0.882079 16.5428 2.54029 16.6283C28.808 18.64 55.0757 20.6519 81.3434 22.6646C82.8332 22.8216 84.1598 23.8948 84.547 25.3542C92.5378 59.3884 113.574 88.5974 121.564 122.599C121.822 124.189 120.465 125.465 119.062 125.899Z" fill="#C7DEFF"/>
<path d="M78.2783 41.3105C56.6647 41.1076 35.0512 40.9051 13.4376 40.7026C12.1842 40.6908 10.947 39.5304 10.6949 38.1094C10.4427 36.6884 11.266 35.5596 12.5124 35.5894C34.0053 36.1038 55.4981 36.6181 76.991 37.1328C78.2374 37.1626 79.5254 38.1169 79.8845 39.2615C80.2436 40.4061 79.5317 41.3222 78.2783 41.3105Z" fill="white"/>
<path d="M82.7325 53.8378C60.8041 54.5946 38.8756 55.3517 16.9472 56.1087C15.6755 56.1526 14.3526 55.0407 14.006 53.6247C13.6594 52.2087 14.4162 51.0398 15.6822 51.0145C37.5137 50.5782 59.3453 50.1418 81.1768 49.7056C82.4428 49.6804 83.8108 50.5791 84.2434 51.7107C84.6759 52.8425 84.0041 53.7939 82.7325 53.8378Z" fill="white"/>
<path d="M87.7729 66.2505C65.5839 67.9955 43.395 69.7408 21.206 71.4859C19.9193 71.587 18.5443 70.5218 18.1414 69.1067C17.7384 67.6917 18.4569 66.4782 19.7389 66.3962C41.846 64.9815 63.9532 63.5667 86.0603 62.152C87.3423 62.07 88.7626 62.9144 89.238 64.0365C89.7134 65.1587 89.0596 66.1493 87.7729 66.2505Z" fill="white"/>
<path d="M93.0627 78.5858C70.6414 81.3504 48.2201 84.115 25.7987 86.8798C24.4986 87.0401 23.1037 86.0196 22.6828 84.6015C22.2619 83.1833 22.9714 81.9204 24.2672 81.78C46.6131 79.3564 68.959 76.9328 91.3049 74.5093C92.6008 74.3688 94.0469 75.1602 94.5346 76.2759C95.0223 77.3917 94.363 78.4255 93.0627 78.5858Z" fill="white"/>
<path d="M103.326 103.949C80.401 108.929 57.4764 113.908 34.5518 118.888C33.2223 119.177 31.8837 118.244 31.5466 116.806C31.2095 115.369 31.998 113.988 33.3221 113.721C56.157 109.107 78.9919 104.494 101.827 99.8802C103.151 99.6126 104.572 100.298 104.989 101.411C105.405 102.524 104.655 103.66 103.326 103.949Z" fill="white"/>
<path d="M107.282 116.268C84.0478 122.381 60.8133 128.494 37.5788 134.606C36.2314 134.961 34.9643 134.068 34.7264 132.614C34.4885 131.161 35.3653 129.717 36.7063 129.384C59.8308 123.651 82.9553 117.918 106.08 112.185C107.421 111.853 108.794 112.487 109.129 113.604C109.465 114.721 108.63 115.914 107.282 116.268Z" fill="white"/>
<path opacity="0.48" d="M95.055 67.7322C81.6941 67.9583 68.3331 68.1844 54.9722 68.4106C54.1974 68.4237 53.4406 67.7364 53.2816 66.8759C53.1226 66.0155 53.6187 65.3169 54.3897 65.3152C67.685 65.285 80.9802 65.2547 94.2755 65.2246C95.0465 65.2229 95.8477 65.7787 96.065 66.4654C96.2822 67.1522 95.8298 67.7191 95.055 67.7322Z" fill="#C7DEFF"/>
<path d="M129.983 124.796C99.6011 130.75 69.2192 136.704 38.8372 142.658C37.1174 143.018 35.822 141.598 35.9372 139.932C37.6947 94.9124 20.8023 51.5624 22.8072 6.56638C22.8677 5.0571 24.0048 3.5755 25.6447 3.83554C51.5533 8.60894 77.462 13.3825 103.371 18.1569C104.835 18.4702 106.041 19.6775 106.272 21.1696C110.626 55.8572 128.463 87.1238 132.819 121.779C132.908 123.387 131.424 124.513 129.983 124.796Z" fill="#8D58FF"/>
<path d="M98.3549 36.3758C76.8835 33.8924 55.4121 31.4093 33.9407 28.9264C32.6955 28.7824 31.5877 27.4978 31.4869 26.0581C31.3861 24.6184 32.324 23.5829 33.5602 23.7441C54.8788 26.5244 76.1972 29.3048 97.5157 32.0855C98.752 32.2467 99.932 33.3316 100.168 34.5077C100.405 35.6839 99.6001 36.5197 98.3549 36.3758Z" fill="#C7DEFF"/>
<path d="M101.462 49.3024C79.5758 47.7401 57.6899 46.1781 35.8041 44.6159C34.5349 44.5254 33.3368 43.28 33.1415 41.8354C32.9462 40.3907 33.8222 39.3082 35.0838 39.4167C56.8395 41.2874 78.5951 43.1581 100.351 45.029C101.612 45.1376 102.878 46.1756 103.189 47.3467C103.499 48.5178 102.731 49.393 101.462 49.3024Z" fill="#C7DEFF"/>
<path d="M105.163 62.1786C82.9143 61.5715 60.6652 60.9646 38.416 60.3576C37.1257 60.3223 35.8708 59.118 35.6196 57.6682C35.3682 56.2186 36.2108 55.0878 37.4943 55.1415C59.6272 56.0684 81.7602 56.9953 103.893 57.9222C105.177 57.976 106.5 58.9656 106.854 60.1316C107.208 61.2978 106.454 62.2138 105.163 62.1786Z" fill="#C7DEFF"/>
<path d="M109.122 75.003C86.5341 75.3852 63.9463 75.7675 41.3584 76.1498C40.0485 76.172 38.7692 75.01 38.5004 73.5554C38.2315 72.1007 39.0702 70.9198 40.3737 70.9169C62.8505 70.8657 85.3274 70.8147 107.804 70.7637C109.108 70.7608 110.462 71.7004 110.829 72.8613C111.197 74.0224 110.432 74.9808 109.122 75.003Z" fill="#C7DEFF"/>
<path d="M116.651 101.308C93.3286 103.84 70.0065 106.371 46.6844 108.903C45.3319 109.05 44.0992 107.981 43.9157 106.516C43.7321 105.051 44.6619 103.762 46.007 103.635C69.2012 101.458 92.3955 99.2807 115.59 97.1035C116.935 96.9772 118.275 97.8085 118.572 98.9592C118.869 100.11 118.003 101.161 116.651 101.308Z" fill="#C7DEFF"/>
<path d="M119.286 113.975C95.5359 117.601 71.7861 121.227 48.0362 124.853C46.659 125.063 45.4932 124.041 45.41 122.571C45.3268 121.101 46.3511 119.757 47.7198 119.568C71.3202 116.308 94.9206 113.048 118.521 109.788C119.89 109.599 121.188 110.375 121.404 111.521C121.619 112.667 120.663 113.765 119.286 113.975Z" fill="#C7DEFF"/>
<path d="M76.9782 95.1866L76.2559 94.1505C78.0095 92.9277 79.5057 91.4089 80.7258 89.6163C79.4855 87.4125 79.0509 85.0485 79.6222 83.3758C80.0099 82.2408 81.4873 80.8134 82.6622 80.4387C83.3601 80.2162 83.8171 80.3931 84.0776 80.5808C84.7951 81.0977 84.935 82.264 84.5054 84.1461C84.1947 85.5073 83.6531 86.9425 83.2542 87.761C82.9364 88.4132 82.5907 89.0395 82.2174 89.6397C82.2616 89.7072 82.3066 89.7744 82.3525 89.8413C83.5806 91.6314 85.1535 92.7749 86.4574 92.8258C87.9844 92.8856 89.3107 90.7955 90.2803 89.2697C91.0579 88.0459 91.5716 87.2376 92.2848 87.1692C92.4959 87.1487 92.7043 87.2336 92.841 87.3958C93.0782 87.6771 93 87.965 92.8917 88.3634C92.7167 89.0072 92.3527 90.3468 92.9643 91.1736C93.7274 92.2053 95.3976 92.78 96.6875 92.454C99.1616 91.8291 99.7762 87.2176 100.008 85.4816C100.044 85.205 100.074 84.9865 100.103 84.8237C100.122 84.7138 100.141 84.6349 100.162 84.5678C100.279 84.2057 100.565 84.0732 100.793 84.07C100.797 84.07 100.801 84.0699 100.805 84.0699C101.419 84.0699 101.578 84.7289 101.638 84.9781C101.709 85.2727 101.774 85.6752 101.848 86.1414C102.155 88.0571 102.668 91.2634 104.475 92.4329C107.843 94.6119 113.472 91.7663 116.835 90.066L116.86 90.0532L117.43 91.1805L117.405 91.1932C114.79 92.5151 110.898 94.4826 107.44 94.4828C106.129 94.4828 104.882 94.2004 103.789 93.4934C102.024 92.3515 101.285 89.9635 100.883 87.958C100.397 90.2772 99.3833 93.0758 96.9967 93.6787C95.2246 94.126 93.0073 93.3558 91.9489 91.9248C91.4946 91.3106 91.3582 90.5913 91.3633 89.9201C91.3576 89.9292 91.3518 89.9382 91.3462 89.9472C90.2321 91.7003 88.7132 94.09 86.5259 94.0902C86.4867 94.0902 86.4478 94.0894 86.4082 94.0879C84.7457 94.0231 82.9101 92.7876 81.4606 90.7689C80.2134 92.4974 78.7139 93.9763 76.9782 95.1866ZM83.2807 81.5977C83.22 81.5977 83.1127 81.6126 82.9515 81.6757C82.1583 81.986 81.0612 83.0697 80.8173 83.784C80.4147 84.9626 80.6917 86.684 81.5023 88.3734C81.7188 87.9953 81.9244 87.6065 82.1189 87.2076C82.4742 86.4784 82.9872 85.1214 83.2741 83.8649C83.6431 82.2482 83.4397 81.6779 83.3393 81.6056C83.3329 81.6022 83.3137 81.5977 83.2807 81.5977Z" fill="#071F4D"/>
<path d="M93.3032 86.3922C93.2202 86.3922 93.1359 86.3758 93.0548 86.341C92.7343 86.2037 92.5857 85.8325 92.723 85.5118C92.851 85.2131 92.9148 85.064 93.0421 84.7662C93.1791 84.4456 93.55 84.2968 93.8709 84.4337C94.1916 84.5708 94.3404 84.9419 94.2033 85.2627C94.0759 85.5608 94.012 85.71 93.8839 86.0092C93.7814 86.2487 93.5482 86.3922 93.3032 86.3922Z" fill="#071F4D"/>
<path d="M52.8849 97.7854L52.7705 96.5275C58.0925 96.0434 63.456 95.5584 68.7119 95.0859L68.8249 96.344C63.5694 96.8163 58.2064 97.3013 52.8849 97.7854Z" fill="#071F4D"/>
<path d="M36.1142 139.037C35.5249 139.037 34.9705 138.84 34.5112 138.458C33.8381 137.899 33.4613 137.005 33.5029 136.066C33.8464 113.712 29.5309 91.5027 25.3576 70.0249C23.2425 59.1402 21.0555 47.885 19.5012 36.7471C17.7573 24.2508 17.0131 13.2286 17.2258 3.05088C17.2415 2.09232 17.6503 1.17581 18.3192 0.600332C18.8704 0.126173 19.5436 -0.073174 20.2663 0.0239662C20.2683 0.0242274 20.2702 0.0244884 20.2721 0.024854C46.2864 4.18465 72.3006 8.34476 98.3146 12.5056C98.3169 12.5059 98.3191 12.5063 98.3213 12.5067C99.9058 12.8067 101.206 14.0956 101.483 15.641C101.483 15.6432 101.483 15.6455 101.484 15.6477C104.067 32.9196 110.102 49.54 115.938 65.6132C116.985 68.4987 118.068 71.4823 119.115 74.4225C119.158 74.5457 119.094 74.6811 118.971 74.7249C118.848 74.7689 118.712 74.7045 118.668 74.5812C117.623 71.6426 116.54 68.6596 115.492 65.7749C112.572 57.7305 109.552 49.4123 106.999 41.1102C104.136 31.7958 102.178 23.4907 101.016 15.7215C100.772 14.3675 99.6298 13.2379 98.2366 12.9727C72.2257 8.81234 46.2119 4.65233 20.2007 0.493007C19.617 0.415347 19.0731 0.576465 18.6281 0.959333C18.0685 1.4407 17.7126 2.2455 17.6993 3.05965C17.2262 25.6946 21.5963 48.1848 25.8225 69.9345C27.9109 80.6823 30.0705 91.796 31.6209 102.796C33.3607 115.139 34.1311 126.025 33.9764 136.077C33.9763 136.08 33.9763 136.082 33.9762 136.084C33.9402 136.877 34.2533 137.628 34.8139 138.094C35.3198 138.514 35.9715 138.658 36.6492 138.5L51.6181 135.197C51.7456 135.169 51.8721 135.25 51.9003 135.377C51.9285 135.505 51.8478 135.631 51.7201 135.66L36.7542 138.962C36.5383 139.012 36.3241 139.037 36.1142 139.037Z" fill="#071F4D"/>
<path d="M88.378 140.354L79.0529 143.865L76.7622 144.729L61.724 147.744C59.7112 141.595 50.8629 114.477 49.791 109.515C49.2937 107.216 49.2053 103.048 49.2732 98.9318C45.1071 99.1261 44.6209 90.8356 45.3707 84.7808C45.6201 82.7615 47.1356 82.2074 49.09 82.3938C49.0948 82.3938 49.0995 82.3953 49.1059 82.3953C49.5763 82.4411 50.0736 82.5295 50.5835 82.6511C50.6309 82.2974 50.7476 81.8885 50.9782 81.4322C51.2654 80.8606 51.7343 80.2149 52.4747 79.5171C53.283 78.753 54.5743 78.9487 56.0077 79.6197C56.0077 79.6197 56.0093 79.6197 56.0109 79.6213C56.0141 79.6229 56.0188 79.6245 56.022 79.6277C56.3251 79.7681 56.6329 79.9308 56.9455 80.1107C57.0497 79.6955 57.2423 79.2203 57.5817 78.7056C57.9132 78.2004 58.3852 77.6557 59.053 77.0967C60.7011 75.7121 63.9279 78.5445 66.4537 81.3075C66.4537 81.3075 66.4726 81.328 66.5073 81.3659C66.4047 76.3168 66.2753 62.068 67.9913 58.6799C67.9913 58.6799 67.9929 58.6799 67.9929 58.6783C68.195 58.2773 68.4239 58.0294 68.6827 57.9663C71.6033 57.2558 73.8386 78.9393 73.9444 88.9379C73.9776 92.0829 73.7092 95.719 73.414 99.3518V99.3598C72.7683 107.273 71.9979 115.176 73.9444 117.988C76.3849 121.515 85.7811 136.268 88.378 140.354Z" fill="white"/>
<path d="M88.3782 140.353L79.0531 143.865L65.041 115.217C66.1492 114.961 66.3339 114.827 68.9987 113.619C70.7842 112.811 72.4638 104.702 73.4142 99.3594C72.7685 107.272 71.9981 115.176 73.9447 117.988C76.3852 121.515 85.7813 136.267 88.3782 140.353Z" fill="#C7DEFF"/>
<path d="M64.1045 85.9907C64.1045 85.9907 62.8352 81.2543 57.5815 78.7061C57.2421 79.2208 57.0495 79.696 56.9453 80.1112C56.9453 80.1112 62.419 83.853 64.1045 85.9907Z" fill="#C7DEFF"/>
<path d="M50.583 82.6515C50.6304 82.2978 50.7471 81.8889 50.9777 81.4326C55.5684 82.492 59.5261 86.5306 59.5261 86.5306C59.5261 86.5306 52.3338 82.8189 50.583 82.6515Z" fill="#C7DEFF"/>
<path d="M69.7021 85.2259C69.2048 84.3213 66.8874 81.7809 66.5068 81.3657C66.4042 76.3167 66.2748 62.0678 67.9908 58.6797C67.0768 65.0013 69.7021 85.2259 69.7021 85.2259Z" fill="#C7DEFF"/>
<path d="M49.8853 87.2012C49.8853 87.2012 47.8199 86.498 47.3858 87.2012C46.9517 87.9044 46.3854 99.6313 49.2733 98.9319C49.2733 98.9319 49.4775 89.5899 49.8853 87.2012Z" fill="#C7DEFF"/>
<path d="M89.048 141.643C88.9696 141.643 88.8928 141.605 88.8478 141.533C88.8477 141.533 88.6047 141.15 88.1787 140.481C86.9766 138.59 76.3605 121.895 73.7501 118.123C71.8571 115.388 72.4485 108.198 73.0746 100.586C73.4042 96.5795 73.7449 92.4368 73.708 88.9403C73.6558 84.0106 73.0988 76.7345 72.3219 70.8345C71.386 63.7264 70.2213 59.1616 69.1268 58.3106C68.9436 58.1682 68.8178 58.1772 68.7391 58.1963C68.3172 58.2989 67.2911 59.4386 66.8741 67.7827C66.6228 72.8099 66.685 78.4478 66.7445 81.361C66.7471 81.4918 66.6433 81.5999 66.5126 81.6026C66.3817 81.6064 66.2736 81.5014 66.271 81.3707C66.2114 78.4513 66.1492 72.8008 66.4011 67.7591C66.831 59.1561 67.8774 57.9186 68.6271 57.7361C68.8962 57.6707 69.1621 57.7381 69.4174 57.9367C70.9678 59.1421 72.108 65.5823 72.7914 70.7727C73.5706 76.6895 74.1292 83.9886 74.1815 88.9354C74.2187 92.4538 73.8771 96.6076 73.5466 100.625C73.2331 104.436 72.937 108.036 72.9418 111.103C72.9472 114.489 73.3389 116.697 74.1394 117.853C76.755 121.633 87.3757 138.335 88.5782 140.227C89.0045 140.896 89.2477 141.28 89.2477 141.28C89.3178 141.39 89.285 141.537 89.1745 141.607C89.1352 141.632 89.0913 141.643 89.048 141.643Z" fill="#071F4D"/>
<path d="M69.9972 85.8594C69.9241 85.8594 69.8519 85.8256 69.8056 85.7619C69.7904 85.741 68.2634 83.6485 66.3315 81.5255C64.812 79.8572 63.4624 78.6248 62.3201 77.8625C60.9107 76.9221 59.8625 76.7255 59.2046 77.2783C58.1083 78.1984 57.4253 79.1708 57.1745 80.1686C57.1426 80.2955 57.014 80.3726 56.8871 80.3406C56.7603 80.3087 56.6833 80.18 56.7152 80.0531C56.9909 78.9566 57.7259 77.901 58.9001 76.9155C60.356 75.6921 62.9742 77.1359 66.6818 81.2066C68.6319 83.3497 70.1733 85.4621 70.1886 85.4832C70.2656 85.589 70.2422 85.7371 70.1365 85.8141C70.0943 85.8447 70.0455 85.8594 69.9972 85.8594Z" fill="#071F4D"/>
<path d="M64.1046 86.2269C64.0424 86.2269 63.9803 86.2025 63.9338 86.154C63.8964 86.1151 60.1555 82.2353 56.8271 80.3157C54.8264 79.1631 53.4168 78.9521 52.6374 79.689C51.5608 80.7057 50.9487 81.7127 50.8182 82.6825C50.8007 82.8121 50.6813 82.903 50.5519 82.8856C50.4223 82.8681 50.3314 82.7489 50.3488 82.6192C50.4943 81.5393 51.1548 80.4376 52.3122 79.3447C53.2615 78.4472 54.8601 78.6358 57.0637 79.9053C60.4511 81.8589 64.2376 85.7866 64.2755 85.8261C64.3661 85.9204 64.363 86.0703 64.2687 86.1609C64.2227 86.205 64.1636 86.2269 64.1046 86.2269Z" fill="#071F4D"/>
<path d="M49.1302 99.1717C48.2781 99.1717 47.5346 98.8349 46.9179 98.1691C44.6758 95.7478 44.5565 89.4279 45.1357 84.7514C45.251 83.8206 45.6312 83.125 46.2658 82.6843C47.1942 82.0396 48.6653 81.9508 50.6382 82.4204C54.6713 83.378 59.6011 86.3894 59.6504 86.4197C59.7619 86.4882 59.7967 86.634 59.7283 86.7454C59.6598 86.8568 59.5139 86.8917 59.4026 86.8233C59.3538 86.7933 54.4874 83.8211 50.5287 82.8812C48.6923 82.444 47.349 82.5087 46.5359 83.0734C46.0094 83.4391 45.7051 84.007 45.6057 84.8097C45.2838 87.4088 45.2266 90.0668 45.4447 92.2944C45.7014 94.918 46.3311 96.8382 47.2655 97.8472C47.8275 98.4541 48.4805 98.7314 49.2621 98.6949C49.3939 98.6885 49.5036 98.7898 49.5097 98.9205C49.5158 99.0511 49.4148 99.1619 49.2842 99.168C49.2325 99.1706 49.1811 99.1717 49.1302 99.1717Z" fill="#071F4D"/>
<path d="M49.6004 90.4933C49.5464 90.4933 49.4921 90.4749 49.4476 90.4373C47.8733 89.1054 47.2751 87.3497 47.2505 87.2756C47.2091 87.1515 47.2762 87.0174 47.4003 86.9761C47.5243 86.9348 47.6583 87.0017 47.6998 87.1257C47.707 87.1473 48.2861 88.8342 49.7535 90.0757C49.8534 90.1601 49.8659 90.3096 49.7814 90.4094C49.7345 90.4648 49.6677 90.4933 49.6004 90.4933Z" fill="#071F4D"/>
<path d="M62.1301 115.988C62.0108 115.988 61.9082 115.898 61.895 115.777C61.8808 115.647 61.9747 115.53 62.1047 115.516C66.3404 115.053 68.8428 113.438 68.8676 113.422C68.9769 113.35 69.1237 113.38 69.1955 113.49C69.2672 113.599 69.2368 113.746 69.1275 113.818C69.0224 113.887 66.504 115.512 62.1561 115.986C62.1473 115.987 62.1386 115.988 62.1301 115.988Z" fill="#071F4D"/>
<path d="M62.1316 149.222C62.0322 149.222 61.9396 149.158 61.9068 149.059C61.9068 149.059 61.7599 148.613 61.4994 147.817C58.9631 140.068 50.6064 114.409 49.5599 109.564C49.1293 107.573 48.9532 103.995 49.0368 98.9275C49.0901 95.6215 49.2449 92.3798 49.3655 90.2425C49.467 88.4021 49.5543 87.1955 49.5552 87.1836C49.5647 87.0531 49.6786 86.9543 49.8085 86.9646C49.939 86.9741 50.037 87.0875 50.0275 87.2179C50.0266 87.2299 49.9396 88.4328 49.8383 90.2689C49.718 92.4022 49.5634 95.6371 49.5103 98.9353C49.4273 103.966 49.5998 107.509 50.0228 109.464C51.0645 114.287 59.4149 139.927 61.9494 147.67C62.2097 148.465 62.3565 148.91 62.3565 148.911C62.3975 149.035 62.33 149.169 62.2058 149.21C62.1813 149.218 62.1562 149.222 62.1316 149.222Z" fill="#071F4D"/>
<path d="M102.895 150.406L60.9472 162.247L59.5264 148.353L61.7239 147.744L88.3779 140.353L91.4152 139.512L102.895 150.406Z" fill="#8D58FF"/>
<path d="M66.728 163.016C66.6332 163.016 66.5436 162.959 66.5072 162.865C66.4598 162.743 66.5203 162.606 66.6422 162.559L102.448 148.648L93.1707 140.412L58.7217 149.746C58.5953 149.78 58.4654 149.706 58.4312 149.579C58.3969 149.453 58.4716 149.323 58.5978 149.289L93.1703 139.921C93.2473 139.901 93.3297 139.92 93.3894 139.973L103.052 148.551C103.114 148.606 103.143 148.689 103.128 148.77C103.114 148.851 103.058 148.919 102.981 148.949L66.8137 163C66.7855 163.011 66.7565 163.016 66.728 163.016Z" fill="#071F4D"/>
<path d="M66.9346 155.089C67.1039 154.046 66.3954 153.062 65.352 152.893C64.3086 152.724 63.3255 153.432 63.1562 154.476C62.9869 155.519 63.6954 156.503 64.7388 156.672C65.7822 156.841 66.7653 156.133 66.9346 155.089Z" fill="white"/>
<path d="M166.417 126.482L149.577 148.247C143.649 142.737 115.099 116.139 109.4 109.779C103.032 102.675 104.349 97.8845 104.453 94.149C104.559 90.412 105.348 87.0964 107.664 87.1091C109.978 87.1201 109.189 93.6754 109.295 96.582C109.4 99.4901 111.926 101.464 113.71 101.306C115.494 101.148 116.031 87.6222 115.925 86.5802C115.819 85.5381 114.978 85.1497 113.135 85.3597C111.295 85.5697 103.401 85.1497 106.453 82.7815C108.851 80.9201 116.383 81.4316 119.501 81.7363C120.293 81.8137 120.917 82.4484 120.98 83.2425L120.992 83.3909C120.992 83.3909 120.994 83.4036 120.996 83.4288L120.999 83.4746H121C121.431 83.5109 121.929 83.5678 122.442 83.6609C123.043 83.7683 123.664 83.9246 124.213 84.1488C124.903 84.4297 125.297 85.6628 125.523 87.1154C125.545 87.2527 125.564 87.3917 125.583 87.5322C125.946 87.6269 126.27 87.7563 126.556 87.9126C127.624 88.4905 128.186 89.4409 128.475 90.4087C132.092 91.3292 130.935 103.781 130.584 106.917C130.584 106.917 130.584 106.917 130.584 106.918L166.417 126.482Z" fill="white"/>
<path d="M125.82 92.9008C125.848 92.8628 126.759 90.4426 126.555 87.9117C126.27 87.7554 125.946 87.6259 125.583 87.5312C125.583 87.5312 125.846 91.2562 125.82 92.9008Z" fill="#C7DEFF"/>
<path d="M121.66 91.7271C121.535 89.3873 121.065 84.1961 121 83.4746C121.431 83.5109 121.928 83.5677 122.441 83.6608C122.577 86.8011 121.66 91.7271 121.66 91.7271Z" fill="#C7DEFF"/>
<path d="M115.402 95.438L130.816 104.472L131.04 100.976L115.496 94.5752L115.402 95.438Z" fill="#C7DEFF"/>
<path d="M104.731 91.1068L109.308 94.4014L109.341 92.0411L104.918 90.2197L104.731 91.1068Z" fill="#C7DEFF"/>
<path d="M125.606 104.199L159.5 135.421L166.493 126.523L125.606 104.199Z" fill="#C7DEFF"/>
<path d="M168.02 127.593C167.982 127.593 167.943 127.584 167.907 127.564L166.303 126.689L130.471 107.126C130.463 107.122 130.456 107.118 130.449 107.113L125.494 104.408C125.379 104.345 125.336 104.201 125.399 104.086C125.462 103.972 125.606 103.929 125.72 103.992L130.698 106.709C130.705 106.713 130.713 106.718 130.72 106.722L166.53 126.274L168.134 127.148C168.249 127.211 168.291 127.355 168.228 127.47C168.186 127.549 168.104 127.593 168.02 127.593Z" fill="#071F4D"/>
<path d="M130.585 107.154C130.576 107.154 130.567 107.153 130.558 107.152C130.428 107.138 130.334 107.021 130.349 106.891C130.518 105.375 130.9 101.458 130.781 97.84C130.638 93.4858 129.82 90.9954 128.417 90.6383C128.29 90.606 128.213 90.4771 128.246 90.3504C128.278 90.2236 128.407 90.147 128.534 90.1793C130.186 90.5998 131.101 93.172 131.254 97.8244C131.374 101.473 130.99 105.417 130.82 106.943C130.806 107.064 130.704 107.154 130.585 107.154Z" fill="#071F4D"/>
<path d="M128.709 93.9323C128.579 93.9323 128.473 93.8263 128.473 93.6955C128.473 93.6523 128.477 93.5881 128.485 93.4911C128.522 93.0065 128.62 91.7193 128.249 90.4762C127.818 89.0347 126.902 88.1212 125.524 87.7609C125.397 87.7278 125.321 87.5984 125.354 87.4719C125.388 87.3453 125.517 87.2696 125.643 87.3027C127.192 87.7078 128.222 88.7299 128.703 90.3406C129.099 91.6679 128.996 93.0186 128.957 93.5272C128.951 93.6008 128.946 93.6704 128.946 93.6956C128.946 93.8262 128.84 93.9323 128.709 93.9323Z" fill="#071F4D"/>
<path d="M150.655 149.486C150.597 149.486 150.539 149.465 150.494 149.423L149.416 148.42C143.711 143.118 114.963 116.342 109.224 109.937C106.727 107.152 105.177 104.475 104.484 101.753C103.884 99.3929 104.018 97.3839 104.136 95.6114C104.17 95.0976 104.203 94.6124 104.216 94.142C104.276 92.0274 104.542 90.3436 105.008 89.1372C105.589 87.634 106.478 86.8718 107.65 86.8718C107.655 86.8718 107.66 86.8718 107.665 86.8719C108.03 86.8736 108.349 87.0114 108.611 87.2814C109.687 88.3877 109.613 91.531 109.547 94.3044C109.527 95.153 109.508 95.9544 109.531 96.573C109.579 97.9039 110.187 99.1787 111.197 100.071C111.983 100.765 112.915 101.138 113.689 101.07C113.763 101.063 113.84 100.986 113.893 100.923C114.48 100.212 115.002 97.5727 115.36 93.4917C115.652 90.1716 115.733 87.0378 115.689 86.6037C115.655 86.2726 115.539 86.0308 115.333 85.8649C114.954 85.5597 114.244 85.4714 113.162 85.5947C112.38 85.6838 110.642 85.6581 109.087 85.4606C107.03 85.1994 105.851 84.7331 105.583 84.0748C105.394 83.612 105.638 83.1138 106.308 82.5941C107.385 81.7574 109.536 81.2916 112.7 81.2095C115.214 81.1445 117.798 81.3317 119.523 81.5003C120.432 81.5889 121.143 82.3136 121.216 83.2234L121.234 83.455L121.896 91.7078C121.906 91.8382 121.809 91.9524 121.679 91.9628C121.549 91.9735 121.434 91.876 121.424 91.7457L120.762 83.4931L120.743 83.2614C120.689 82.5802 120.157 82.038 119.477 81.9716C117.765 81.8044 115.202 81.6185 112.713 81.683C109.652 81.7624 107.594 82.1948 106.598 82.9682C106.267 83.2251 105.898 83.5945 106.021 83.8961C106.209 84.3568 107.377 84.766 109.147 84.9907C110.667 85.1836 112.355 85.21 113.108 85.1241C114.339 84.9837 115.141 85.1019 115.63 85.496C115.935 85.7421 116.114 86.0987 116.16 86.5559C116.214 87.0851 116.115 90.3186 115.832 93.5332C115.455 97.8298 114.925 100.418 114.258 101.225C114.098 101.418 113.921 101.524 113.731 101.541C112.83 101.621 111.766 101.204 110.884 100.426C109.776 99.4482 109.111 98.0503 109.058 96.5903C109.035 95.9574 109.054 95.149 109.074 94.2933C109.131 91.8802 109.208 88.5753 108.272 87.6115C108.099 87.4337 107.9 87.3467 107.662 87.3455C107.659 87.3455 107.655 87.3455 107.651 87.3455C105.363 87.3455 104.777 91.047 104.689 94.1554C104.676 94.6349 104.643 95.1246 104.609 95.643C104.375 99.1408 104.084 103.494 109.576 109.621C115.302 116.01 144.036 142.773 149.738 148.073L150.816 149.076C150.912 149.165 150.917 149.315 150.828 149.411C150.782 149.461 150.718 149.486 150.655 149.486Z" fill="#071F4D"/>
<path d="M125.818 93.0434C125.707 93.0434 125.608 92.9656 125.586 92.853C125.579 92.8158 125.579 92.7891 125.581 92.5124C125.587 91.6922 125.604 89.5134 125.348 87.5625C125.024 85.0851 124.441 84.4975 124.123 84.3676C123.113 83.9555 121.856 83.7826 120.979 83.7102C120.849 83.6993 120.752 83.585 120.763 83.4546C120.773 83.3243 120.888 83.2276 121.018 83.2381C121.928 83.3132 123.236 83.4941 124.302 83.929C125.047 84.2329 125.543 85.4013 125.818 87.5009C126.078 89.4843 126.061 91.6869 126.054 92.5161C126.053 92.6363 126.052 92.75 126.054 92.7805C126.067 92.9013 125.986 93.0144 125.865 93.0387C125.849 93.0419 125.833 93.0434 125.818 93.0434ZM126.05 92.76C126.051 92.7658 126.052 92.7716 126.053 92.7774C126.052 92.7694 126.051 92.7637 126.05 92.76Z" fill="#071F4D"/>
<path d="M181.603 126.693L156.028 163.058L146.083 150.901L147.794 148.689L164.634 126.924L166.238 124.851L181.603 126.693Z" fill="#8D58FF"/>
<path d="M151.181 99.621L149.36 102.993L146.918 107.515L102.637 89.2797L100.893 85.6484H105.163L151.181 99.621Z" fill="#071F4D"/>
<path d="M151.181 99.621L149.361 102.993L104.241 87.3298L105.163 85.6484L151.181 99.621Z" fill="white"/>
<path d="M146.919 107.752C146.889 107.752 146.858 107.747 146.829 107.735L102.548 89.4992C102.494 89.4769 102.45 89.4355 102.424 89.3828L100.679 85.7515C100.643 85.6781 100.648 85.5918 100.692 85.5228C100.735 85.4539 100.811 85.4121 100.892 85.4121H105.164C105.187 85.4121 105.21 85.4155 105.232 85.4223L151.25 99.3948C151.318 99.4155 151.373 99.4655 151.4 99.5313C151.427 99.597 151.423 99.6714 151.39 99.7339L147.127 107.628C147.085 107.707 147.004 107.752 146.919 107.752ZM102.812 89.0958L146.812 107.215L150.835 99.7639L105.128 85.8857H101.269L102.812 89.0958Z" fill="#071F4D"/>
<path d="M151.101 104.611C150.161 106.832 148.096 108.014 146.919 107.515C145.741 107.017 145.896 105.028 146.836 102.806C147.776 100.584 150.003 99.1227 151.181 99.6211C152.359 100.12 152.041 102.389 151.101 104.611Z" fill="white"/>
<path d="M147.512 107.864C147.266 107.864 147.035 107.821 146.827 107.733C146.372 107.541 145.833 107.05 145.847 105.804C145.856 104.953 146.123 103.884 146.619 102.713C147.072 101.64 147.861 100.651 148.783 99.9997C149.712 99.3434 150.62 99.1258 151.274 99.4027C151.725 99.5936 152.247 100.109 152.172 101.482C152.123 102.375 151.82 103.519 151.319 104.702C150.47 106.709 148.79 107.864 147.512 107.864ZM150.659 99.7589C150.203 99.7589 149.636 99.9772 149.057 100.387C148.205 100.989 147.475 101.904 147.055 102.898C146.092 105.174 146.075 106.9 147.011 107.297C147.516 107.51 148.248 107.356 148.97 106.884C149.783 106.352 150.463 105.512 150.883 104.518C151.363 103.383 151.653 102.296 151.699 101.456C151.732 100.85 151.653 100.078 151.089 99.8389C150.962 99.7852 150.817 99.7589 150.659 99.7589Z" fill="#071F4D"/>
<path d="M155.921 166.001C155.916 166.001 155.912 166.001 155.907 166.001C155.825 165.996 155.752 165.949 155.712 165.877L147.582 150.878C147.538 150.797 147.545 150.698 147.6 150.624L167.491 123.863C167.57 123.758 167.718 123.736 167.823 123.814C167.928 123.892 167.95 124.041 167.872 124.146L148.071 150.785L155.946 165.314C164.416 153.201 179.818 131.089 181.587 128.246C179.861 128.098 173.599 127.218 171.516 126.923C171.387 126.905 171.296 126.785 171.315 126.655C171.333 126.526 171.453 126.436 171.582 126.454C175.51 127.011 181.497 127.825 181.931 127.797C182.023 127.782 182.119 127.824 182.17 127.902C182.269 128.052 182.206 128.151 181.906 128.623C181.727 128.905 181.454 129.32 181.096 129.856C180.431 130.851 179.445 132.301 178.165 134.166C176.011 137.306 172.995 141.667 169.201 147.126C162.743 156.421 156.18 165.806 156.115 165.9C156.07 165.963 155.998 166.001 155.921 166.001ZM181.928 127.797C181.926 127.797 181.924 127.798 181.922 127.798C181.924 127.798 181.926 127.797 181.928 127.797Z" fill="#071F4D"/>
<path d="M171.022 132.733C172.079 132.733 172.936 131.876 172.936 130.819C172.936 129.762 172.079 128.905 171.022 128.905C169.965 128.905 169.108 129.762 169.108 130.819C169.108 131.876 169.965 132.733 171.022 132.733Z" fill="white"/>
</svg>
