<svg width="32" height="32" viewBox="0 0 32 32" fill="none" xmlns="http://www.w3.org/2000/svg">
<path d="M31.3337 16.0003C31.3337 24.4687 24.4687 31.3337 16.0003 31.3337C7.53196 31.3337 0.666992 24.4687 0.666992 16.0003C0.666992 7.53196 7.53196 0.666992 16.0003 0.666992C24.4687 0.666992 31.3337 7.53196 31.3337 16.0003Z" fill="#8D58FF"/>
<path fill-rule="evenodd" clip-rule="evenodd" d="M16.0003 8.71699C16.6355 8.71699 17.1503 9.23186 17.1503 9.86699V15.524L20.6468 19.0205C21.0959 19.4696 21.0959 20.1977 20.6468 20.6468C20.1977 21.0959 19.4696 21.0959 19.0205 20.6468L15.1872 16.8135C14.9715 16.5978 14.8503 16.3053 14.8503 16.0003V9.86699C14.8503 9.23186 15.3652 8.71699 16.0003 8.71699Z" fill="#060611"/>
</svg>
