<svg width="41" height="40" viewBox="0 0 41 40" fill="none" xmlns="http://www.w3.org/2000/svg">
<path fill-rule="evenodd" clip-rule="evenodd" d="M24 13.3337C24 12.4132 24.7462 11.667 25.6667 11.667H34C34.9205 11.667 35.6667 12.4132 35.6667 13.3337V21.667C35.6667 22.5875 34.9205 23.3337 34 23.3337C33.0795 23.3337 32.3333 22.5875 32.3333 21.667V15.0003H25.6667C24.7462 15.0003 24 14.2541 24 13.3337Z" fill="white"/>
<path d="M35.1759 12.1551C35.8267 12.806 35.8267 13.8613 35.1759 14.5122L26.7787 22.9093C26.0982 23.59 25.4864 24.202 24.9267 24.6422C24.3197 25.1193 23.6072 25.5333 22.7046 25.6147C22.4559 25.637 22.2056 25.637 21.9569 25.6147C21.0542 25.5333 20.3417 25.1193 19.7347 24.6422C19.1751 24.202 18.5632 23.59 17.8827 22.9093C17.118 22.1447 16.5835 21.6142 16.1995 21.3122C15.7683 20.9347 15.3059 21.1548 15.1286 21.3122C14.7446 21.6142 14.2739 22.0808 13.5092 22.8455L8.50925 27.8455C7.85836 28.4963 6.8031 28.4963 6.15221 27.8455C5.50135 27.1947 5.50135 26.1393 6.15221 25.4885L11.216 20.4247C11.8966 19.744 12.5085 19.132 13.0681 18.6918C13.6751 18.2147 14.3876 17.8007 15.2903 17.7193C15.539 17.697 15.7892 17.697 16.0379 17.7193C16.9405 17.8007 17.6531 18.2147 18.2601 18.6918C18.8197 19.132 19.4316 19.744 20.1121 20.4247C20.8769 21.1893 21.4112 21.7198 21.7952 22.0218C21.9811 22.1712 22.4554 22.3802 22.8662 22.0218C23.2502 21.7198 23.7209 21.2532 24.4856 20.4885L32.8189 12.1551C33.4697 11.5043 34.5251 11.5043 35.1759 12.1551Z" fill="white"/>
</svg>
