<svg width="24" height="25" viewBox="0 0 24 25" fill="none" xmlns="http://www.w3.org/2000/svg">
<path fill-rule="evenodd" clip-rule="evenodd" d="M12 21.5C13.1819 21.5 14.3522 21.2672 15.4442 20.8149C16.5361 20.3626 17.5282 19.6997 18.364 18.864C19.1997 18.0282 19.8626 17.0361 20.3149 15.9442C20.7672 14.8522 21 13.6819 21 12.5C21 11.3181 20.7672 10.1478 20.3149 9.05585C19.8626 7.96392 19.1997 6.97177 18.364 6.13604C17.5282 5.30031 16.5361 4.63738 15.4442 4.18508C14.3522 3.73279 13.1819 3.5 12 3.5C9.61305 3.5 7.32387 4.44821 5.63604 6.13604C3.94821 7.82387 3 10.1131 3 12.5C3 14.8869 3.94821 17.1761 5.63604 18.864C7.32387 20.5518 9.61305 21.5 12 21.5ZM10.783 8.49L16.427 11.626C16.5828 11.7126 16.7126 11.8393 16.803 11.993C16.8934 12.1467 16.9411 12.3217 16.9411 12.5C16.9411 12.6783 16.8934 12.8533 16.803 13.007C16.7126 13.1607 16.5828 13.2874 16.427 13.374L10.783 16.51C10.6002 16.6116 10.3941 16.6636 10.1851 16.661C9.97599 16.6584 9.77123 16.6013 9.59107 16.4952C9.4109 16.3891 9.26159 16.2377 9.15791 16.0562C9.05424 15.8746 8.9998 15.6691 9 15.46V9.54C8.9998 9.33092 9.05424 9.12541 9.15791 8.94384C9.26159 8.76227 9.4109 8.61094 9.59107 8.50484C9.77123 8.39874 9.97599 8.34156 10.1851 8.33895C10.3941 8.33635 10.6002 8.38842 10.783 8.49Z" fill="white"/>
</svg>
