<svg width="20" height="20" viewBox="0 0 20 20" fill="none" xmlns="http://www.w3.org/2000/svg">
<path d="M19.5818 4.84243C19.3513 3.91992 18.6746 3.19497 17.8136 2.94802C16.2545 2.5 9.99996 2.5 9.99996 2.5C9.99996 2.5 3.74547 2.5 2.18636 2.94802C1.32532 3.19497 0.648666 3.91992 0.418176 4.84243C1.19209e-07 6.51281 0 10 0 10C0 10 1.19209e-07 13.4872 0.418176 15.1576C0.648666 16.0801 1.32532 16.805 2.18636 17.0519C3.74547 17.5 9.99996 17.5 9.99996 17.5C9.99996 17.5 16.2545 17.5 17.8136 17.0519C18.6746 16.805 19.3513 16.0801 19.5818 15.1576C20 13.4872 20 10 20 10C20 10 19.9983 6.51281 19.5818 4.84243Z" fill="#D8E7FE"/>
<path d="M7.99805 13.2137L13.194 9.99994L7.99805 6.78613V13.2137Z" fill="#020512"/>
</svg>
