<svg width="18" height="18" viewBox="0 0 18 18" fill="none" xmlns="http://www.w3.org/2000/svg">
<path fill-rule="evenodd" clip-rule="evenodd" d="M8.95201 0.458496H9.04734C10.8729 0.458488 12.3068 0.45848 13.4263 0.608988C14.5735 0.76323 15.4838 1.08575 16.1989 1.80092C16.9141 2.51609 17.2366 3.4263 17.3908 4.57351C17.5413 5.69303 17.5413 7.12695 17.5413 8.9525V9.04783C17.5413 10.8734 17.5413 12.3073 17.3908 13.4268C17.2366 14.574 16.9141 15.4842 16.1989 16.1994C15.4838 16.9146 14.5735 17.2371 13.4263 17.3913C12.3068 17.5418 10.8729 17.5418 9.04734 17.5418H8.95201C7.12642 17.5418 5.69254 17.5418 4.57302 17.3913C3.42582 17.2371 2.5156 16.9146 1.80043 16.1994C1.08527 15.4842 0.762741 14.574 0.6085 13.4268C0.457991 12.3073 0.458 10.8734 0.458008 9.04783V8.9525C0.458 7.12692 0.457991 5.69303 0.6085 4.57351C0.762741 3.4263 1.08527 2.51609 1.80043 1.80092C2.5156 1.08575 3.42582 0.76323 4.57302 0.608988C5.69253 0.45848 7.12646 0.458488 8.95201 0.458496ZM5.66797 7.75016C5.66797 7.28992 5.29487 6.91683 4.83463 6.91683C4.3744 6.91683 4.0013 7.28992 4.0013 7.75016V13.1668C4.0013 13.6271 4.3744 14.0002 4.83463 14.0002C5.29487 14.0002 5.66797 13.6271 5.66797 13.1668V7.75016ZM8.16801 6.50016C8.50576 6.50016 8.79667 6.70116 8.92751 6.99009C9.43409 6.67933 10.0301 6.50016 10.668 6.50016C12.5089 6.50016 14.0013 7.99258 14.0013 9.8335V13.1668C14.0013 13.6271 13.6282 14.0002 13.168 14.0002C12.7078 14.0002 12.3347 13.6271 12.3347 13.1668V9.8335C12.3347 8.913 11.5884 8.16683 10.668 8.16683C9.74751 8.16683 9.00134 8.913 9.00134 9.8335V13.1668C9.00134 13.6271 8.62817 14.0002 8.16801 14.0002C7.70776 14.0002 7.33467 13.6271 7.33467 13.1668V7.3335C7.33467 6.87325 7.70776 6.50016 8.16801 6.50016ZM5.88282 4.8335C5.88282 5.4088 5.41644 5.87516 4.84115 5.87516H4.83366C4.25837 5.87516 3.79199 5.4088 3.79199 4.8335C3.79199 4.2582 4.25837 3.79183 4.83366 3.79183H4.84115C5.41644 3.79183 5.88282 4.2582 5.88282 4.8335Z" fill="white"/>
</svg>
