<svg width="20" height="20" viewBox="0 0 20 20" fill="none" xmlns="http://www.w3.org/2000/svg">
<path fill-rule="evenodd" clip-rule="evenodd" d="M14.4263 1.60899C13.3068 1.45848 11.8729 1.45849 10.0473 1.4585H9.95199C8.12644 1.45849 6.69254 1.45848 5.57303 1.60899C4.42582 1.76323 3.5156 2.08576 2.80044 2.80092C2.08527 3.51609 1.76274 4.4263 1.60851 5.57351C1.45799 6.69303 1.458 8.12693 1.45801 9.9525V10.0478C1.458 11.8734 1.45799 13.3073 1.60851 14.4268C1.76274 15.574 2.08527 16.4842 2.80044 17.1994C3.5156 17.9146 4.42582 18.2371 5.57303 18.3913C6.69254 18.5418 8.12643 18.5418 9.95199 18.5418H10.0473C11.8729 18.5418 13.3068 18.5418 14.4263 18.3913C15.5736 18.2371 16.4837 17.9146 17.1989 17.1994C17.9141 16.4842 18.2366 15.574 18.3908 14.4268C18.5413 13.3073 18.5413 11.8734 18.5413 10.0478V9.9525C18.5413 8.12691 18.5413 6.69303 18.3908 5.57351C18.2366 4.4263 17.9141 3.51609 17.1989 2.80092C16.4837 2.08576 15.5736 1.76323 14.4263 1.60899ZM5.83301 5.2085C5.59831 5.2085 5.38338 5.33999 5.27653 5.54896C5.16968 5.75794 5.18892 6.00915 5.32634 6.19943L8.50933 10.6067L5.39107 13.7249C5.14699 13.969 5.14699 14.3647 5.39107 14.6087C5.63515 14.8528 6.03087 14.8528 6.27496 14.6087L9.25066 11.6331L11.3448 14.5327C11.4623 14.6955 11.6508 14.7918 11.8515 14.7918H14.1663C14.4011 14.7918 14.616 14.6603 14.7228 14.4513C14.8297 14.2424 14.8104 13.9912 14.673 13.8009L11.4901 9.39366L14.6083 6.27544C14.8523 6.03136 14.8523 5.63563 14.6083 5.39155C14.3642 5.14748 13.9685 5.14748 13.7244 5.39155L10.7487 8.36725L8.65449 5.46756C8.53699 5.30487 8.34849 5.2085 8.14782 5.2085H5.83301Z" fill="white"/>
</svg>
